<?xml version="1.0" standalone="no"?>
<!DOCTYPE svg PUBLIC "-//W3C//DTD SVG 1.1//EN" "http://www.w3.org/Graphics/SVG/1.1/DTD/svg11.dtd" >
<svg xmlns="http://www.w3.org/2000/svg" xmlns:xlink="http://www.w3.org/1999/xlink" version="1.1">
<metadata>
Created by FontForge 20190801 at Wed Mar 13 14:38:33 2019
 By mimo
Copyright (c) 2005 - 2017 Monotype GmbH. All rights reserved
</metadata>
<defs>
<font id="MetaPro-BoldItalic" horiz-adv-x="1" >
  <font-face 
    font-family="Meta Pro"
    font-weight="700"
    font-style="italic"
    font-stretch="normal"
    units-per-em="1000"
    panose-1="2 0 8 3 5 0 0 9 0 4"
    ascent="800"
    descent="-200"
    x-height="512"
    cap-height="695"
    bbox="-317 -307 1455 1133"
    underline-thickness="50"
    underline-position="-125"
    slope="-12"
    stemh="98"
    stemv="169"
    unicode-range="U+000D-FEFF"
  />
<missing-glyph horiz-adv-x="551" 
d="M25 0v695h501v-695h-501zM82 57h387v581h-387v-581z" />
    <glyph glyph-name="IJ" unicode="IJ" horiz-adv-x="594" 
d="M318 695l-148 -695h-145l148 695h145zM615 695l-119 -560c-19 -90 -26 -108 -39 -136c-38 -85 -133 -142 -201 -166l-49 75c41 22 81 56 99 84c17 25 26 53 42 128l122 575h145z" />
    <glyph glyph-name="ij" unicode="ij" horiz-adv-x="548" 
d="M270 524l-111 -524h-134l107 503zM314 653c0 -46 -37 -83 -83 -83c-45 0 -82 37 -82 83s38 83 84 83c45 0 81 -37 81 -83zM540 524l-108 -510c-21 -97 -49 -136 -72 -159c-30 -31 -70 -56 -120 -75l-42 78c23 9 49 36 63 54c17 22 27 50 37 98l105 493zM584 653
c0 -46 -37 -83 -83 -83c-45 0 -82 37 -82 83s38 83 84 83c45 0 81 -37 81 -83z" />
    <glyph glyph-name="f_b" unicode="fb" horiz-adv-x="874" 
d="M844 347c0 -126 -53 -246 -149 -314c-48 -34 -95 -46 -147 -46c-82 0 -162 21 -205 49c6 18 16 53 20 73l107 504c-39 16 -83 30 -110 30c-41 0 -67 -21 -75 -58l-15 -73h130l-54 -92h-91l-82 -420c-19 -95 -76 -178 -128 -224l-82 74c28 28 66 95 77 150l84 420h-50
l20 92h47c1 21 5 47 10 70c23 110 95 159 207 159c81 0 219 -60 255 -81l-28 -131c-3 -15 -14 -59 -19 -69c29 35 81 65 141 65c95 0 137 -67 137 -178zM698 349c0 44 -13 67 -40 67c-41 0 -84 -34 -111 -80l-50 -228c11 -11 36 -22 69 -22c29 0 65 27 84 60
c28 50 48 163 48 203z" />
    <glyph glyph-name="f_f" unicode="ff" horiz-adv-x="623" 
d="M765 709l-58 -81c-19 10 -36 15 -54 15c-34 0 -61 -21 -69 -58l-15 -73h130l-54 -92h-91l-82 -420c-19 -95 -76 -178 -128 -224l-82 74c28 28 66 95 77 150l84 420h-168l-82 -420c-19 -95 -76 -178 -128 -224l-82 74c28 28 66 95 77 150l84 420h-50l20 92h49
c1 22 5 36 12 70c22 107 92 159 197 159c44 0 87 -14 114 -32l-58 -81c-19 10 -36 15 -54 15c-34 0 -61 -21 -69 -58l-15 -73h172c1 20 7 45 12 70c21 107 92 159 197 159c44 0 87 -14 114 -32z" />
    <glyph glyph-name="f_f_i" unicode="ffi" horiz-adv-x="896" 
d="M883 512l-108 -512h-132l89 420h-174l-82 -420c-19 -95 -76 -178 -128 -224l-82 74c28 28 66 95 77 150l84 420h-172l-82 -420c-19 -95 -76 -178 -128 -224l-82 74c28 28 66 95 77 150l84 420h-50l20 92h49c1 21 7 44 12 70c21 107 92 159 197 159c44 0 87 -14 114 -32
l-58 -81c-19 10 -36 15 -54 15c-34 0 -61 -21 -69 -58l-15 -73h176c1 21 6 42 12 70c22 108 92 159 197 159c41 0 80 -10 108 -26l-59 -82c-16 8 -31 10 -47 10c-34 0 -61 -21 -69 -58l-15 -73h310zM930 653c0 -46 -37 -83 -83 -83c-45 0 -82 37 -82 83s38 83 84 83
c45 0 81 -37 81 -83z" />
    <glyph glyph-name="f_f_j" unicode="ffj" horiz-adv-x="902" 
d="M938 653c0 -46 -37 -83 -83 -83c-45 0 -82 37 -82 83s38 83 84 83c45 0 81 -37 81 -83zM664 643c-34 0 -61 -21 -69 -58l-15 -73h311l-105 -498c-21 -97 -49 -136 -72 -159c-30 -31 -70 -56 -120 -75l-42 78c23 9 49 36 63 54c17 22 27 50 37 98l87 410h-174l-82 -420
c-19 -95 -76 -178 -128 -224l-82 74c28 28 66 95 77 150l84 420h-179l-82 -420c-19 -95 -76 -178 -128 -224l-82 74c28 28 66 95 77 150l84 420h-50l20 92h47c1 21 5 47 10 70c23 110 96 159 201 159c44 0 87 -14 114 -32l-58 -81c-19 10 -36 15 -54 15
c-34 0 -61 -21 -69 -58l-15 -73h181c1 21 5 47 10 70c23 110 96 159 201 159c41 0 80 -10 108 -26l-59 -82c-16 8 -31 10 -47 10z" />
    <glyph glyph-name="f_f_t" unicode="fft" horiz-adv-x="942" 
d="M1009 512l-48 -92h-89l-54 -257c-4 -17 -5 -33 -5 -45c0 -28 15 -37 45 -37c12 0 35 4 50 10v-81c-39 -15 -79 -22 -114 -22c-77 0 -121 38 -121 88c0 18 2 42 7 66l59 278h-174l-82 -420c-19 -95 -76 -178 -128 -224l-82 74c28 28 66 95 77 150l84 420h-179l-82 -420
c-19 -95 -76 -178 -128 -224l-82 74c28 28 66 95 77 150l84 420h-50l20 92h47c1 21 5 47 10 70c23 110 96 159 201 159c44 0 87 -14 114 -32l-58 -81c-19 10 -36 15 -54 15c-34 0 -61 -21 -69 -58l-15 -73h181c1 21 5 47 10 70c23 110 96 159 201 159c44 0 87 -14 114 -32
l-58 -81c-19 10 -36 15 -54 15c-34 0 -61 -21 -69 -58l-15 -73h179c10 50 17 83 31 121l141 34c-15 -47 -30 -103 -41 -155h119z" />
    <glyph glyph-name="f_h" unicode="fh" horiz-adv-x="886" 
d="M849 423c0 -16 -2 -34 -9 -65l-76 -358h-131l73 344c3 13 4 24 4 33c0 27 -13 37 -41 37c-36 0 -93 -39 -126 -81l-71 -333h-133l130 613c-39 16 -82 30 -109 30c-41 0 -67 -21 -75 -58l-15 -73h130l-54 -92h-91l-82 -420c-19 -95 -76 -178 -128 -224l-82 74
c28 28 66 95 77 150l84 420h-50l20 92h47c1 21 5 47 10 70c23 110 95 159 207 159c81 0 218 -60 254 -81l-31 -146c-3 -16 -12 -51 -17 -62c39 43 103 74 166 74c81 0 119 -37 119 -103z" />
    <glyph glyph-name="f_i" unicode="fi" horiz-adv-x="595" 
d="M582 512l-108 -512h-134l89 420h-174l-82 -420c-19 -95 -76 -178 -128 -224l-82 74c28 28 66 95 77 150l84 420h-50l20 92h49c1 21 7 45 12 70c21 107 92 159 197 159c43 0 82 -6 110 -25l-58 -81c-10 5 -33 8 -50 8c-34 0 -61 -21 -69 -58l-15 -73h312zM629 653
c0 -46 -37 -83 -83 -83c-45 0 -82 37 -82 83s38 83 84 83c45 0 81 -37 81 -83z" />
    <glyph glyph-name="f_j" unicode="fj" horiz-adv-x="592" 
d="M628 653c0 -46 -37 -83 -83 -83c-45 0 -82 37 -82 83s38 83 84 83c45 0 81 -37 81 -83zM354 643c-34 0 -61 -21 -69 -58l-15 -73h311l-105 -498c-21 -97 -49 -136 -72 -159c-30 -31 -70 -56 -120 -75l-42 78c23 9 49 36 63 54c17 22 27 50 37 98l87 410h-174l-82 -420
c-19 -95 -76 -178 -128 -224l-82 74c28 28 66 95 77 150l84 420h-50l20 92h47c1 21 5 47 10 70c23 110 96 159 201 159c41 0 80 -10 108 -26l-59 -82c-16 8 -31 10 -47 10z" />
    <glyph glyph-name="f_k" unicode="fk" horiz-adv-x="829" 
d="M613 660l-140 -660h-134l130 613c-39 16 -82 30 -109 30c-41 0 -67 -21 -75 -58l-15 -73h130l-54 -92h-91l-82 -420c-19 -95 -76 -178 -128 -224l-82 74c28 28 66 95 77 150l84 420h-50l20 92h47c1 21 5 47 10 70c23 110 95 159 207 159c81 0 219 -60 255 -81zM877 512
l-209 -222l138 -290h-158l-110 290l173 222h166z" />
    <glyph glyph-name="f_t" unicode="ft" horiz-adv-x="632" 
d="M699 512l-48 -92h-89l-54 -257c-4 -17 -5 -33 -5 -45c0 -28 15 -37 45 -37c12 0 35 4 50 10v-81c-39 -15 -79 -22 -114 -22c-77 0 -121 38 -121 88c0 18 2 42 7 66l59 278h-174l-82 -420c-19 -95 -76 -178 -128 -224l-82 74c28 28 66 95 77 150l84 420h-50l20 92h47
c1 21 5 47 10 70c23 110 96 159 201 159c44 0 87 -14 114 -32l-58 -81c-19 10 -36 15 -54 15c-34 0 -61 -21 -69 -58l-15 -73h179c10 50 17 83 31 121l141 34c-15 -47 -30 -103 -41 -155h119z" />
    <glyph glyph-name=".notdef" horiz-adv-x="551" 
d="M25 0v695h501v-695h-501zM82 57h387v581h-387v-581z" />
    <glyph glyph-name=".null" horiz-adv-x="0" 
 />
    <glyph glyph-name=".null" horiz-adv-x="0" 
 />
    <glyph glyph-name="CR" unicode="&#xd;" horiz-adv-x="225" 
 />
    <glyph glyph-name="space" unicode=" " horiz-adv-x="225" 
 />
    <glyph glyph-name="exclam" unicode="!" horiz-adv-x="313" 
d="M323 710l-132 -489h-102l69 466zM193 70c0 -46 -38 -83 -84 -83c-45 0 -81 37 -81 83s37 83 83 83c45 0 82 -37 82 -83z" />
    <glyph glyph-name="quotedbl" unicode="&#x22;" horiz-adv-x="416" 
d="M442 708l-59 -282h-126l59 282h126zM210 708l-59 -282h-126l59 282h126z" />
    <glyph glyph-name="numbersign" unicode="#" horiz-adv-x="532" 
d="M559 417h-103l-36 -126h79v-90h-103l-57 -201h-97l57 201h-99l-57 -201h-97l57 201h-78v90h102l36 126h-78v90h102l56 201h97l-56 -201h99l56 201h97l-56 -201h79v-90zM359 417h-99l-36 -126h99z" />
    <glyph glyph-name="dollar" unicode="$" horiz-adv-x="593" 
d="M624 646l-85 -97c-55 38 -101 50 -153 50c-63 0 -116 -42 -116 -94c0 -28 17 -43 64 -59l80 -27c90 -30 137 -80 137 -159c0 -140 -112 -258 -299 -273l-17 -81h-86l17 81c-65 7 -130 28 -181 61l74 107c58 -34 110 -54 180 -54c88 0 145 46 145 115c0 35 -24 56 -74 73
l-73 25c-79 27 -127 59 -127 145c0 134 110 238 255 255l16 72h86l-15 -73c68 -7 130 -31 172 -67z" />
    <glyph glyph-name="percent" unicode="%" horiz-adv-x="830" 
d="M433 575c0 -112 -74 -216 -214 -216c-86 0 -137 46 -137 122c0 137 91 224 211 224c88 0 140 -51 140 -130zM794 207c0 -112 -74 -216 -214 -216c-86 0 -137 46 -137 122c0 137 91 224 211 224c88 0 140 -51 140 -130zM748 695l-512 -695h-107l512 695h107zM685 215
c0 35 -14 48 -44 48c-61 0 -90 -68 -90 -156c0 -31 18 -41 48 -41c56 0 86 71 86 149zM324 583c0 35 -14 48 -44 48c-61 0 -90 -68 -90 -156c0 -31 18 -41 48 -41c56 0 86 71 86 149z" />
    <glyph glyph-name="ampersand" unicode="&#x26;" horiz-adv-x="711" 
d="M661 0h-177l-34 44c-49 -34 -108 -58 -205 -58c-139 0 -216 69 -216 160c0 84 58 158 168 204c-41 38 -52 71 -52 115c0 111 103 201 238 201c103 0 168 -51 168 -124c0 -77 -28 -135 -154 -193l-13 -6l92 -111c18 28 32 89 34 108h112c-12 -68 -40 -146 -76 -196z
M384 120l-130 156c-50 -27 -78 -68 -78 -119c0 -46 34 -73 94 -73c48 0 87 13 114 36zM414 524c0 29 -20 49 -50 49c-44 0 -81 -37 -81 -82c0 -21 9 -44 40 -80c57 23 91 68 91 113z" />
    <glyph glyph-name="quotesingle" unicode="'" horiz-adv-x="265" 
d="M290 708l-59 -282h-126l59 282h126z" />
    <glyph glyph-name="parenleft" unicode="(" horiz-adv-x="345" 
d="M470 699c-97 -61 -128 -93 -166 -162c-30 -55 -54 -137 -70 -213c-14 -66 -31 -163 -31 -223c0 -95 20 -149 95 -196l-48 -74c-111 41 -179 137 -179 282c0 58 10 133 26 209c31 148 88 270 186 357c49 43 106 78 167 102z" />
    <glyph glyph-name="parenright" unicode=")" horiz-adv-x="345" 
d="M302 500c0 -57 -12 -144 -25 -207c-31 -148 -87 -271 -186 -359c-49 -44 -105 -78 -168 -102l-17 85c96 60 126 89 165 159c30 55 54 139 71 215c15 67 28 161 28 222c0 87 -16 148 -91 195l47 74c110 -42 176 -135 176 -282z" />
    <glyph glyph-name="asterisk" unicode="*" horiz-adv-x="472" 
d="M517 518l-131 -42l83 -114l-83 -61l-84 115l-81 -110l-81 61l84 109l-133 46l32 95l131 -47v138h102v-138l131 43z" />
    <glyph glyph-name="plus" unicode="+" horiz-adv-x="629" 
d="M605 366l-27 -126h-206l-45 -211h-137l45 211h-204l27 126h204l45 211h137l-45 -211h206z" />
    <glyph glyph-name="comma" unicode="," horiz-adv-x="289" 
d="M192 48c0 -94 -97 -174 -181 -195l-38 57c44 16 82 37 82 58c0 11 -5 22 -14 27c-20 12 -34 39 -34 72c0 51 41 89 89 89c58 0 96 -38 96 -108z" />
    <glyph glyph-name="hyphen" unicode="-" horiz-adv-x="359" 
d="M319 329l-25 -110h-240l25 110h240z" />
    <glyph glyph-name="period" unicode="." horiz-adv-x="288" 
d="M194 73c0 -49 -40 -89 -88 -89c-49 0 -88 40 -88 89c0 48 39 87 87 87c49 0 89 -39 89 -87z" />
    <glyph glyph-name="slash" unicode="/" horiz-adv-x="415" 
d="M503 764l-463 -918h-96l463 918h96z" />
    <glyph glyph-name="zero" unicode="0" horiz-adv-x="582" 
d="M539 323c0 -151 -109 -335 -304 -335c-121 0 -188 68 -188 200c0 152 108 334 303 334c121 0 189 -64 189 -199zM394 346c0 62 -28 78 -65 78c-101 0 -138 -170 -138 -256c0 -66 27 -82 65 -82c101 0 138 174 138 260z" />
    <glyph glyph-name="one" unicode="1" horiz-adv-x="462" 
d="M393 522l-88 -413h86l-23 -109h-323l23 109h108l55 259c-42 -23 -85 -45 -132 -60l-19 78l223 136h90z" />
    <glyph glyph-name="two" unicode="2" horiz-adv-x="557" 
d="M513 396c0 -81 -49 -146 -123 -194c-42 -27 -83 -48 -135 -73l-46 -22c22 3 78 5 111 5h157l-53 -112h-417l26 122c39 18 48 21 114 55c178 90 211 136 211 182c0 32 -28 51 -68 51c-43 0 -84 -21 -149 -67l-63 86c86 64 170 99 273 99c102 0 162 -56 162 -132z" />
    <glyph glyph-name="three" unicode="3" horiz-adv-x="542" 
d="M503 383c0 -76 -42 -146 -136 -181c56 -11 91 -64 91 -119c0 -150 -172 -267 -406 -267c-31 0 -45 0 -82 5l-13 98c29 -6 42 -7 74 -7c161 0 270 75 270 174c0 45 -31 63 -120 63c-13 0 -37 0 -52 -1l24 112c24 -3 45 -4 68 -4c84 0 132 41 132 101c0 32 -23 54 -71 54
c-67 0 -126 -32 -162 -57l-52 85c81 53 167 84 254 84c110 0 181 -58 181 -140z" />
    <glyph glyph-name="four" unicode="4" horiz-adv-x="554" 
d="M494 115l-25 -115h-45c-17 0 -28 2 -30 2c0 -3 1 -16 -3 -36l-30 -141l-130 -16l36 169l7 25c-3 -1 -15 -3 -33 -3h-265l20 91l284 427h138l-213 -324c-9 -14 -47 -68 -62 -81c10 2 15 2 21 2h113c11 0 22 -1 24 -1c0 2 1 11 3 18c5 28 14 58 29 107l36 117l110 24
l-37 -177c-5 -23 -9 -41 -14 -59c-5 -20 -8 -28 -8 -30c4 0 21 1 32 1h42z" />
    <glyph glyph-name="five" unicode="5" horiz-adv-x="495" 
d="M470 512l-44 -114h-196l-44 -139c22 4 30 5 48 5c110 0 173 -64 173 -156c0 -154 -146 -292 -373 -292c-32 0 -44 1 -75 7l-8 102c36 -10 62 -14 91 -14c129 0 215 83 215 172c0 46 -46 76 -100 76c-45 0 -99 -7 -138 -17l110 370h341z" />
    <glyph glyph-name="six" unicode="6" horiz-adv-x="569" 
d="M549 619c-109 -33 -232 -87 -309 -227c32 22 71 33 114 33c105 0 174 -69 174 -164c0 -152 -128 -275 -287 -275c-130 0 -199 75 -199 208c0 144 79 278 209 380c71 56 202 121 290 145zM386 243c0 46 -27 74 -73 74c-32 0 -66 -10 -111 -33c-8 -20 -21 -74 -21 -108
c0 -54 29 -87 78 -87c69 0 127 75 127 154z" />
    <glyph glyph-name="seven" unicode="7" horiz-adv-x="477" 
d="M518 512l-35 -117c-104 -115 -283 -380 -335 -558l-159 -38c84 214 223 447 361 596c-12 -3 -27 -4 -41 -4h-252l47 121h414z" />
    <glyph glyph-name="eight" unicode="8" horiz-adv-x="593" 
d="M586 535c0 -73 -67 -157 -158 -180c54 -20 116 -72 116 -139c0 -132 -106 -236 -318 -236c-129 0 -197 65 -197 155c0 91 68 174 158 208c-39 17 -70 62 -70 113c0 130 122 221 277 221c119 0 192 -59 192 -142zM391 189c0 46 -44 71 -122 99c-55 -28 -92 -70 -92 -131
c0 -49 33 -78 93 -78c71 0 121 51 121 110zM440 525c0 35 -26 54 -77 54c-62 0 -108 -40 -108 -91c0 -33 29 -52 81 -78c42 19 104 55 104 115z" />
    <glyph glyph-name="nine" unicode="9" horiz-adv-x="535" 
d="M497 341c0 -152 -79 -309 -239 -422c-72 -51 -168 -99 -245 -124l-54 84c114 28 260 128 308 212c-33 -14 -56 -19 -85 -19c-105 0 -168 72 -168 173c0 160 134 284 292 284c122 0 191 -59 191 -188zM356 339c0 55 -26 87 -74 87c-68 0 -125 -77 -125 -168
c0 -48 31 -78 79 -78c33 0 56 10 88 37c19 38 32 84 32 122z" />
    <glyph glyph-name="colon" unicode=":" horiz-adv-x="302" 
d="M265 368c0 -48 -39 -86 -87 -86s-87 38 -87 86s39 87 87 87s87 -39 87 -87zM201 70c0 -48 -39 -86 -87 -86s-87 38 -87 86s39 87 87 87s87 -39 87 -87z" />
    <glyph glyph-name="semicolon" unicode=";" horiz-adv-x="325" 
d="M212 48c0 -94 -97 -174 -181 -195l-38 57c44 16 82 37 82 58c0 11 -5 22 -14 27c-20 12 -34 39 -34 72c0 51 41 89 89 89c58 0 96 -38 96 -108zM272 368c0 -48 -39 -86 -87 -86s-87 38 -87 86s39 87 87 87s87 -39 87 -87z" />
    <glyph glyph-name="less" unicode="&#x3c;" horiz-adv-x="379" 
d="M414 515l-220 -223l119 -218l-119 -86l-175 311l307 311z" />
    <glyph glyph-name="equal" unicode="=" horiz-adv-x="676" 
d="M679 469l-27 -126h-548l27 126h548zM634 263l-26 -126h-548l26 126h548z" />
    <glyph glyph-name="greater" unicode="&#x3e;" horiz-adv-x="379" 
d="M389 299l-308 -311l-87 95l220 223l-119 218l119 86z" />
    <glyph glyph-name="question" unicode="?" horiz-adv-x="454" 
d="M488 563c0 -78 -49 -140 -127 -184c-89 -50 -109 -118 -114 -168h-115c-6 102 48 175 133 228c47 29 86 52 86 99c0 37 -29 53 -68 53c-50 0 -91 -29 -120 -51l-42 89c30 26 104 76 207 76c95 0 160 -60 160 -142zM257 70c0 -46 -38 -83 -84 -83c-45 0 -81 37 -81 83
s37 83 83 83c45 0 82 -37 82 -83z" />
    <glyph glyph-name="at" unicode="@" horiz-adv-x="906" 
d="M860 276c0 -176 -104 -295 -227 -295c-100 0 -111 46 -115 92c-35 -42 -91 -80 -150 -80c-81 0 -131 51 -131 150c0 166 103 315 284 315c49 0 99 -18 142 -41c-27 -89 -44 -179 -63 -269c-5 -24 -8 -42 -8 -55c0 -28 13 -35 44 -35c61 0 106 90 106 218
c0 158 -101 264 -269 264c-159 0 -305 -162 -305 -349c0 -184 122 -279 277 -279c54 0 102 8 144 22l18 -85c-49 -16 -106 -28 -162 -28c-228 0 -396 131 -396 370c0 235 184 439 424 439c223 0 387 -142 387 -354zM548 372c-11 5 -19 7 -36 7c-119 0 -165 -129 -165 -240
c0 -40 12 -63 42 -63c41 0 105 45 122 125z" />
    <glyph glyph-name="A" unicode="A" horiz-adv-x="588" 
d="M543 0h-145l-14 165h-204l-84 -165h-151l376 697h151zM375 281l-10 145c-4 53 -3 106 -3 118c-7 -17 -40 -90 -61 -134l-62 -129h136z" />
    <glyph glyph-name="B" unicode="B" horiz-adv-x="598" 
d="M601 545c0 -68 -43 -146 -146 -176c64 -14 104 -70 104 -135c0 -44 -18 -112 -65 -160c-51 -52 -109 -74 -217 -74h-252l148 695h247c105 0 181 -50 181 -150zM405 237c0 49 -27 65 -89 65h-87l-40 -188h91c29 0 54 8 72 20c31 21 53 64 53 103zM450 515
c0 43 -19 61 -77 61h-87l-33 -159h82c38 0 56 8 73 20c22 16 42 44 42 78z" />
    <glyph glyph-name="C" unicode="C" horiz-adv-x="563" 
d="M625 655l-81 -92c-29 26 -66 36 -105 36c-47 0 -98 -25 -130 -62c-61 -68 -96 -229 -96 -309c0 -92 45 -132 123 -132c41 0 80 15 128 48l48 -91c-64 -45 -130 -65 -209 -65c-156 0 -246 88 -246 244c0 108 41 239 105 324c75 101 187 154 299 154c69 0 133 -22 164 -55z
" />
    <glyph glyph-name="D" unicode="D" horiz-adv-x="630" 
d="M617 458c0 -114 -41 -263 -127 -354c-73 -77 -143 -104 -296 -104h-169l148 695h160c116 0 187 -13 231 -68c32 -41 53 -87 53 -169zM466 460c0 64 -18 125 -111 125h-63l-100 -471h69c60 0 105 33 130 72c62 97 75 237 75 274z" />
    <glyph glyph-name="E" unicode="E" horiz-adv-x="495" 
d="M569 695l-43 -114h-236l-34 -161h197l-24 -114h-196l-39 -186h262l-26 -120h-405l148 695h396z" />
    <glyph glyph-name="F" unicode="F" horiz-adv-x="438" 
d="M550 695l-40 -113h-219l-34 -159h175l-24 -114h-175l-66 -309h-142l148 695h377z" />
    <glyph glyph-name="G" unicode="G" horiz-adv-x="666" 
d="M664 626l-90 -85c-38 37 -83 52 -136 52c-41 0 -81 -14 -109 -37c-80 -63 -119 -246 -119 -330c0 -91 45 -129 125 -129c31 0 57 5 82 17l34 158h-103v114h272l-72 -336c-79 -42 -161 -58 -243 -58c-162 0 -248 96 -248 240c0 159 72 310 162 385c82 68 150 89 241 89
c84 0 154 -27 204 -80z" />
    <glyph glyph-name="H" unicode="H" horiz-adv-x="633" 
d="M654 695l-148 -695h-142l66 310h-200l-66 -310h-139l148 695h139l-58 -270h200l58 270h142z" />
    <glyph glyph-name="I" unicode="I" horiz-adv-x="297" 
d="M318 695l-148 -695h-145l148 695h145z" />
    <glyph glyph-name="J" unicode="J" horiz-adv-x="297" 
d="M318 695l-119 -560c-19 -90 -26 -108 -39 -136c-38 -85 -133 -142 -201 -166l-49 75c41 22 81 56 99 84c17 25 26 53 42 128l122 575h145z" />
    <glyph glyph-name="K" unicode="K" horiz-adv-x="600" 
d="M686 695l-294 -327l168 -368h-178l-137 363l-77 -363h-143l148 695h143l-68 -317l263 317h175z" />
    <glyph glyph-name="L" unicode="L" horiz-adv-x="472" 
d="M442 116l-50 -116h-367l148 695h143l-123 -579h249z" />
    <glyph glyph-name="M" unicode="M" horiz-adv-x="827" 
d="M809 695l-86 -695h-135l53 371c6 44 12 79 20 116c-17 -40 -28 -65 -49 -107l-191 -380h-119l-21 365c-2 34 -4 83 -2 123c-9 -41 -20 -82 -32 -125l-101 -363h-141l213 695h177l17 -348c2 -50 2 -74 0 -110c14 36 29 72 49 113l168 345h180z" />
    <glyph glyph-name="N" unicode="N" horiz-adv-x="635" 
d="M656 695l-148 -695h-144l-62 266c-20 87 -44 187 -48 230c-7 -57 -23 -141 -35 -199l-59 -297h-135l148 695h153l74 -278c20 -74 32 -150 36 -200c6 54 19 147 29 194l58 284h133z" />
    <glyph glyph-name="O" unicode="O" horiz-adv-x="694" 
d="M682 454c0 -175 -89 -365 -230 -432c-46 -22 -99 -33 -157 -33c-172 0 -238 104 -238 249c0 197 95 338 185 403c41 30 98 63 204 63c153 0 236 -95 236 -250zM525 483c0 68 -28 113 -104 113c-47 0 -93 -24 -121 -61c-55 -72 -92 -225 -92 -318c0 -89 38 -121 108 -121
c40 0 81 13 113 52c60 74 96 239 96 335z" />
    <glyph glyph-name="P" unicode="P" horiz-adv-x="571" 
d="M606 536c0 -120 -57 -208 -161 -256c-35 -16 -94 -24 -149 -24h-74l-54 -256h-143l148 695h183c94 0 146 -10 180 -32c44 -27 70 -73 70 -127zM455 509c0 46 -25 73 -77 73h-86l-45 -212h70c54 0 84 12 102 34c21 25 36 65 36 105z" />
    <glyph glyph-name="Q" unicode="Q" horiz-adv-x="695" 
d="M683 454c0 -175 -87 -357 -223 -430c18 -7 37 -22 51 -32c22 -15 56 -31 87 -31c27 0 52 4 62 6l-46 -88c-5 -2 -28 -9 -61 -9c-50 0 -97 25 -129 49c-34 25 -80 55 -128 70c-170 0 -238 103 -238 249c0 197 93 337 183 402c41 30 100 64 206 64c153 0 236 -95 236 -250z
M526 483c0 68 -28 113 -104 113c-47 0 -93 -24 -121 -61c-55 -72 -92 -225 -92 -318c0 -89 38 -121 108 -121c40 0 81 13 113 52c60 74 96 239 96 335z" />
    <glyph glyph-name="R" unicode="R" horiz-adv-x="576" 
d="M598 543c0 -137 -94 -225 -200 -243c12 -8 23 -24 30 -35c29 -52 90 -224 104 -265h-165l-36 113c-41 128 -63 162 -86 173c-6 3 -12 4 -17 4l-62 -290h-141l148 695h259c105 0 166 -59 166 -152zM448 515c0 48 -31 68 -89 68h-69l-40 -188h43c60 0 87 6 110 24
c27 21 45 65 45 96z" />
    <glyph glyph-name="S" unicode="S" horiz-adv-x="612" 
d="M634 646l-84 -96c-45 34 -94 49 -154 49c-63 0 -116 -40 -116 -88c0 -28 18 -50 64 -67l80 -30c89 -33 137 -85 137 -164c0 -151 -129 -265 -337 -265c-98 0 -171 26 -229 63l74 107c58 -34 110 -54 180 -54c88 0 145 46 145 115c0 35 -24 57 -74 75l-73 27
c-78 29 -127 73 -127 154c0 140 132 244 297 244c85 0 166 -26 217 -70z" />
    <glyph glyph-name="T" unicode="T" horiz-adv-x="501" 
d="M612 695l-48 -116h-164l-123 -579h-144l123 579h-170l25 116h501z" />
    <glyph glyph-name="U" unicode="U" horiz-adv-x="644" 
d="M670 695l-100 -468c-19 -89 -35 -136 -89 -177c-43 -32 -94 -63 -209 -63c-135 0 -213 60 -213 150c0 23 3 50 8 74l103 484h143l-97 -457c-6 -26 -8 -47 -8 -63c0 -50 41 -68 87 -68c64 0 107 35 123 84c5 14 7 22 15 59l95 445h142z" />
    <glyph glyph-name="V" unicode="V" horiz-adv-x="595" 
d="M696 695l-391 -700h-127l-87 700h149l36 -372c3 -31 6 -70 6 -121c18 43 49 101 70 139l193 354h151z" />
    <glyph glyph-name="W" unicode="W" horiz-adv-x="822" 
d="M923 695l-317 -699h-153l-2 281c-1 94 5 151 13 224c-8 -24 -44 -131 -82 -222l-118 -283h-156l-17 699h145l1 -274c0 -116 -9 -212 -11 -233c19 58 46 138 84 226l122 281h151l-2 -311c0 -60 -7 -164 -9 -188c6 22 53 154 88 235l113 264h150z" />
    <glyph glyph-name="X" unicode="X" horiz-adv-x="538" 
d="M634 695l-250 -329l134 -366h-164l-74 240l-171 -240h-180l300 375l-122 320h163l61 -194l136 194h167z" />
    <glyph glyph-name="Y" unicode="Y" horiz-adv-x="554" 
d="M665 695l-309 -409l-61 -286h-146l61 286l-129 409h162l48 -190c10 -38 14 -63 16 -89c13 20 34 54 56 87l131 192h171z" />
    <glyph glyph-name="Z" unicode="Z" horiz-adv-x="540" 
d="M598 695l-22 -101l-346 -435c-18 -22 -38 -41 -43 -45c8 0 41 2 66 2h228l-48 -116h-444l21 98l342 423c23 28 48 55 54 61c-6 -1 -33 -3 -70 -3h-207l45 116h424z" />
    <glyph glyph-name="bracketleft" unicode="[" horiz-adv-x="315" 
d="M369 732l-20 -90h-90l-150 -708h90l-19 -90h-210l189 888h210z" />
    <glyph glyph-name="backslash" unicode="\" horiz-adv-x="425" 
d="M364 -23l-122 -26l-135 779l124 26z" />
    <glyph glyph-name="bracketright" unicode="]" horiz-adv-x="315" 
d="M346 732l-189 -888h-210l19 90h90l150 708h-90l20 90h210z" />
    <glyph glyph-name="asciicircum" unicode="^" horiz-adv-x="598" 
d="M561 343h-141l-61 238l-162 -238h-142l257 365h146z" />
    <glyph glyph-name="underscore" unicode="_" horiz-adv-x="473" 
d="M426 -62l-24 -98h-501l24 98h501z" />
    <glyph glyph-name="grave" unicode="`" horiz-adv-x="302" 
d="M366 629l-46 -72l-216 100l66 106z" />
    <glyph glyph-name="a" unicode="a" horiz-adv-x="540" 
d="M519 487c-11 -31 -25 -87 -33 -126l-41 -194c-3 -14 -4 -26 -4 -38c0 -25 7 -44 23 -62l-111 -83c-24 16 -35 43 -39 63c-38 -40 -80 -61 -136 -61c-93 0 -141 57 -141 163c0 123 47 232 108 293c56 56 119 80 204 80c60 0 127 -10 170 -35zM367 410c-6 4 -24 8 -36 8
c-33 0 -58 -2 -94 -44c-42 -50 -63 -151 -63 -219c0 -46 12 -66 41 -66c42 0 85 43 99 80z" />
    <glyph glyph-name="b" unicode="b" horiz-adv-x="564" 
d="M534 347c0 -126 -53 -246 -149 -314c-48 -34 -95 -46 -147 -46c-82 0 -162 21 -205 49c6 18 16 53 20 73l96 451c9 44 14 77 14 104c0 14 -1 27 -4 39l139 43c3 -11 4 -26 4 -43c0 -28 -4 -62 -10 -93l-17 -81c-3 -15 -14 -59 -19 -69c29 35 81 65 141 65
c95 0 137 -67 137 -178zM388 349c0 44 -13 67 -40 67c-41 0 -84 -34 -111 -80l-50 -228c11 -11 36 -22 69 -22c29 0 65 27 84 60c28 50 48 163 48 203z" />
    <glyph glyph-name="c" unicode="c" horiz-adv-x="446" 
d="M471 466l-78 -84c-22 25 -51 38 -76 38c-24 0 -45 -10 -63 -30c-37 -42 -71 -148 -71 -227c0 -53 25 -76 61 -76c37 0 74 21 112 51l45 -83c-56 -43 -113 -68 -188 -68c-114 0 -176 66 -176 176c0 127 59 243 130 303c46 39 97 61 168 61c47 0 99 -19 136 -61z" />
    <glyph glyph-name="d" unicode="d" horiz-adv-x="549" 
d="M577 719l-113 -532c-18 -86 -24 -132 -24 -159c0 -13 1 -22 3 -28h-115c-2 8 -6 33 -5 47c-32 -37 -82 -60 -129 -60c-107 0 -157 61 -157 180c0 101 40 213 112 282c47 44 105 70 165 70c37 0 77 -9 87 -14c1 8 4 29 10 59l37 176zM374 392c-13 13 -36 20 -65 20
c-26 0 -50 -14 -70 -40c-38 -50 -62 -141 -62 -205c0 -49 17 -74 52 -74c30 0 79 40 94 68z" />
    <glyph glyph-name="e" unicode="e" horiz-adv-x="514" 
d="M502 383c0 -97 -89 -176 -259 -176c-29 0 -55 5 -61 7c-2 -11 -5 -35 -5 -46c0 -58 30 -82 86 -82c46 0 94 20 142 54l34 -84c-69 -48 -136 -70 -208 -70c-122 0 -194 64 -194 188c0 106 47 215 115 281c51 49 108 68 176 68c101 0 174 -40 174 -140zM367 372
c0 31 -14 53 -54 53c-51 0 -89 -30 -109 -119c4 -1 22 -5 38 -5c58 0 125 20 125 71z" />
    <glyph glyph-name="f" unicode="f" horiz-adv-x="324" 
d="M466 709l-58 -81c-19 10 -36 15 -54 15c-34 0 -61 -21 -69 -58l-15 -73h130l-54 -92h-91l-82 -420c-19 -95 -76 -178 -128 -224l-82 74c28 28 66 95 77 150l84 420h-50l20 92h47c1 21 5 47 10 70c23 110 96 159 201 159c44 0 87 -14 114 -32z" />
    <glyph glyph-name="g" unicode="g" horiz-adv-x="556" 
d="M537 488c-3 -9 -14 -46 -19 -68l-57 -263c-22 -102 -26 -151 -36 -197c-30 -138 -153 -179 -273 -179c-68 0 -133 18 -179 46l46 90c35 -23 85 -36 144 -36c73 0 117 35 129 88c4 18 10 45 15 61c-31 -27 -72 -43 -111 -43c-113 0 -159 57 -159 176c0 101 39 218 111 287
c47 44 111 73 186 73c87 0 145 -9 203 -35zM380 405c-11 8 -32 12 -56 12c-26 0 -67 -20 -85 -44c-38 -50 -61 -142 -61 -206c0 -49 19 -78 54 -78s78 40 93 68z" />
    <glyph glyph-name="h" unicode="h" horiz-adv-x="572" 
d="M535 423c0 -16 -2 -34 -9 -65l-76 -358h-131l73 344c3 13 4 24 4 33c0 27 -13 37 -41 37c-36 0 -93 -39 -126 -81l-71 -333h-133l120 561c11 50 15 82 15 107c0 14 -2 25 -4 35l135 43c3 -9 5 -24 5 -43c0 -31 -4 -71 -11 -104l-18 -85c-3 -16 -12 -51 -17 -62
c39 43 103 74 166 74c81 0 119 -37 119 -103z" />
    <glyph glyph-name="i" unicode="i" horiz-adv-x="280" 
d="M270 524l-111 -524h-134l107 503zM314 653c0 -46 -37 -83 -83 -83c-45 0 -82 37 -82 83s38 83 84 83c45 0 81 -37 81 -83z" />
    <glyph glyph-name="j" unicode="j" horiz-adv-x="268" 
d="M260 524l-108 -510c-21 -97 -49 -136 -72 -159c-30 -31 -70 -56 -120 -75l-42 78c23 9 49 36 63 54c17 22 27 50 37 98l105 493zM304 653c0 -46 -37 -83 -83 -83c-45 0 -82 37 -82 83s38 83 84 83c45 0 81 -37 81 -83z" />
    <glyph glyph-name="k" unicode="k" horiz-adv-x="515" 
d="M294 746c2 -8 4 -21 4 -38c0 -33 -6 -84 -21 -155l-118 -553h-134l120 562c10 45 14 78 14 104c0 14 -1 27 -4 37zM563 512l-209 -222l138 -290h-158l-110 290l173 222h166z" />
    <glyph glyph-name="l" unicode="l" horiz-adv-x="282" 
d="M290 746c1 -8 2 -22 2 -39c0 -33 -3 -78 -12 -120l-81 -379c-13 -60 -17 -85 -17 -99c0 -19 8 -29 26 -29c5 0 10 0 15 2l6 -80c-24 -9 -54 -14 -83 -14c-72 0 -106 39 -106 92c0 18 7 56 15 93l81 382c10 46 16 83 16 112c0 13 -1 25 -4 36z" />
    <glyph glyph-name="m" unicode="m" horiz-adv-x="800" 
d="M760 417c0 -20 -3 -44 -8 -67l-74 -350h-130l72 338c4 19 6 33 6 44c0 22 -9 29 -33 29c-35 0 -76 -30 -106 -77l-71 -334h-127l71 333c5 22 7 38 7 50c0 21 -9 28 -32 28c-35 0 -72 -28 -108 -77l-71 -334h-131l75 350c4 19 6 41 6 61c0 28 -3 55 -8 69l124 49
c7 -16 14 -55 12 -82c50 51 107 76 164 76c52 0 89 -23 94 -76c55 55 111 76 165 76c57 0 103 -30 103 -106z" />
    <glyph glyph-name="n" unicode="n" horiz-adv-x="551" 
d="M511 422c0 -22 -3 -50 -8 -72l-74 -350h-132l71 333c4 20 7 35 7 46c0 25 -11 32 -35 32c-32 0 -70 -20 -112 -77l-71 -334h-132l73 345c6 27 9 52 9 74c0 23 -3 43 -9 61l124 49c9 -17 15 -61 13 -83c43 46 98 77 173 77c65 0 103 -39 103 -101z" />
    <glyph glyph-name="o" unicode="o" horiz-adv-x="546" 
d="M512 347c0 -180 -96 -358 -299 -358c-116 0 -182 64 -182 181c0 193 119 352 295 352c115 0 186 -63 186 -175zM368 347c0 59 -22 76 -62 76c-90 0 -133 -188 -133 -266c0 -49 25 -71 63 -71c86 0 132 161 132 261z" />
    <glyph glyph-name="p" unicode="p" horiz-adv-x="565" 
d="M535 354c0 -93 -40 -227 -102 -289c-46 -46 -108 -76 -174 -76c-40 0 -82 7 -104 20c1 -9 -3 -25 -5 -35l-34 -160l-136 -34l122 573c12 57 8 97 -2 127l124 49c9 -14 15 -59 13 -82c38 40 98 76 161 76c87 0 137 -65 137 -169zM391 350c0 41 -13 61 -47 61
c-33 0 -77 -23 -115 -81l-47 -219c8 -11 41 -22 68 -22c43 0 66 20 82 44c38 57 59 160 59 217z" />
    <glyph glyph-name="q" unicode="q" horiz-adv-x="558" 
d="M540 486c-11 -31 -23 -79 -33 -124l-116 -550l-136 -34l41 194c4 20 14 54 20 70c-33 -31 -89 -55 -129 -55c-99 0 -150 50 -150 169c0 106 41 219 106 285c50 50 117 82 211 82c75 0 148 -11 186 -37zM388 410c-17 7 -35 7 -65 7c-22 0 -52 -14 -68 -27
c-55 -46 -76 -156 -76 -215c0 -68 28 -86 57 -86c32 0 69 26 98 75z" />
    <glyph glyph-name="r" unicode="r" horiz-adv-x="368" 
d="M423 513l-58 -118c-12 7 -24 10 -39 10c-26 0 -55 -15 -97 -70l-71 -335h-134l72 338c14 64 12 109 2 142l124 49c8 -17 16 -54 12 -83c45 46 93 78 143 78c19 0 28 -2 46 -11z" />
    <glyph glyph-name="s" unicode="s" horiz-adv-x="484" 
d="M469 480l-53 -90c-45 26 -87 35 -125 35c-44 0 -76 -16 -76 -53c0 -23 17 -38 54 -51l58 -21c51 -18 102 -58 102 -124c0 -102 -80 -192 -247 -192c-75 0 -141 23 -199 57l54 98c40 -28 107 -53 165 -53c44 0 79 30 79 64c0 26 -22 37 -65 52l-57 20
c-53 19 -94 59 -94 129c0 88 67 175 235 175c67 0 127 -20 169 -46z" />
    <glyph glyph-name="t" unicode="t" horiz-adv-x="316" 
d="M383 512l-48 -92h-89l-54 -257c-4 -17 -5 -33 -5 -45c0 -28 15 -37 45 -37c12 0 35 4 50 10v-81c-39 -15 -79 -22 -114 -22c-77 0 -121 38 -121 88c0 18 2 42 7 66l59 278h-51l20 92h51c10 50 17 83 31 121l141 34c-15 -47 -30 -103 -41 -155h119z" />
    <glyph glyph-name="u" unicode="u" horiz-adv-x="547" 
d="M530 524l-83 -391c-7 -34 -4 -80 11 -104l-116 -46c-12 18 -22 44 -24 68c-38 -35 -88 -64 -148 -64c-79 0 -125 40 -125 104c0 19 2 44 10 81l69 328l138 25l-70 -329c-6 -27 -10 -55 -10 -69c0 -22 16 -39 32 -39c41 0 90 44 110 76l71 333z" />
    <glyph glyph-name="v" unicode="v" horiz-adv-x="464" 
d="M535 512l-296 -512h-111l-79 504l138 17l25 -231c4 -34 7 -90 6 -123c11 30 32 79 59 130l115 215h143z" />
    <glyph glyph-name="w" unicode="w" horiz-adv-x="699" 
d="M756 512l-255 -512h-123l-9 176c-2 41 -3 90 -2 124c1 24 1 31 3 51c-8 -22 -10 -29 -26 -66c-19 -44 -61 -132 -83 -180l-48 -105h-125l-33 503l134 15v-197c0 -58 -5 -150 -5 -158c3 12 35 96 75 177l85 172h126l5 -169c3 -85 0 -164 -1 -181c8 22 36 102 64 167
l78 183h140z" />
    <glyph glyph-name="x" unicode="x" horiz-adv-x="468" 
d="M525 512l-211 -247l128 -265h-158c-25 70 -55 139 -60 171c-17 -29 -94 -128 -130 -171h-176l251 276l-96 213l138 37c17 -39 42 -107 54 -153c23 38 76 110 98 139h162z" />
    <glyph glyph-name="y" unicode="y" horiz-adv-x="514" 
d="M575 512l-297 -520c-56 -99 -91 -142 -134 -169c-39 -25 -86 -41 -134 -47l-27 90c31 7 67 18 90 32c41 25 57 48 89 102h-37c-2 38 -7 100 -13 144l-46 360l138 16l25 -299c2 -28 4 -91 4 -106c7 18 39 96 69 153l129 244h144z" />
    <glyph glyph-name="z" unicode="z" horiz-adv-x="426" 
d="M453 512l-12 -92l-295 -327h226l-42 -93h-377l8 83l313 335h-214l14 94h379z" />
    <glyph glyph-name="braceleft" unicode="{" horiz-adv-x="398" 
d="M479 732l-25 -114h-49c-61 0 -72 -37 -78 -64l-34 -161c-20 -93 -80 -100 -123 -104v-2c35 -3 82 -8 82 -68c0 -10 -1 -22 -4 -35l-34 -162c-2 -8 -3 -16 -3 -24c0 -21 10 -40 54 -40h49l-24 -114h-105c-59 0 -103 30 -103 100c0 14 1 29 5 46l36 172c1 5 1 9 1 13
c0 50 -71 56 -94 56l24 114c25 0 110 7 123 69l37 173c22 104 86 145 160 145h105z" />
    <glyph glyph-name="bar" unicode="|" horiz-adv-x="315" 
d="M351 756l-204 -964h-126l204 964h126z" />
    <glyph glyph-name="braceright" unicode="}" horiz-adv-x="398" 
d="M390 345l-24 -114c-28 0 -110 -7 -123 -69l-36 -173c-22 -104 -86 -145 -160 -145h-105l24 114h49c61 0 73 37 79 64l34 161c20 93 79 100 122 104v2c-35 3 -82 8 -82 68c0 10 1 22 4 35l35 162c2 7 3 15 3 23c0 21 -10 41 -55 41h-49l25 114h108c57 0 100 -30 100 -100
c0 -14 -1 -29 -5 -46l-37 -172c-1 -5 -1 -9 -1 -13c0 -50 68 -56 94 -56z" />
    <glyph glyph-name="asciitilde" unicode="~" horiz-adv-x="571" 
d="M526 290c-31 -42 -82 -84 -149 -84c-78 0 -131 68 -192 68c-40 0 -74 -35 -103 -66l-27 104c31 42 84 88 151 88c68 0 135 -68 196 -68c40 0 69 29 99 60z" />
    <glyph glyph-name="uni00A0" unicode="&#xa0;" horiz-adv-x="225" 
 />
    <glyph glyph-name="exclamdown" unicode="&#xa1;" horiz-adv-x="313" 
d="M220 265l-69 -466l-165 -23l132 489h102zM283 416c0 -46 -37 -83 -83 -83c-45 0 -82 37 -82 83s38 83 84 83c45 0 81 -37 81 -83z" />
    <glyph glyph-name="cent" unicode="&#xa2;" horiz-adv-x="446" 
d="M470 466l-78 -84c-22 25 -51 38 -76 38c-24 0 -45 -10 -63 -30c-37 -42 -71 -148 -71 -227c0 -53 25 -76 61 -76c37 0 74 21 112 51l45 -83c-43 -33 -87 -56 -139 -64l-22 -102h-94l22 102c-85 15 -131 77 -131 172c0 127 59 243 130 303c34 28 70 48 114 56l20 95h94
l-20 -95c35 -7 69 -26 96 -56z" />
    <glyph glyph-name="sterling" unicode="&#xa3;" horiz-adv-x="591" 
d="M688 647l-112 -96c-21 27 -60 37 -87 37c-89 0 -130 -63 -143 -125l-10 -49h156l-22 -102h-156l-42 -198h253l-24 -114h-499l24 114h96l42 198h-96l22 102h96l15 71c28 133 128 235 298 235c75 0 144 -23 189 -73z" />
    <glyph glyph-name="currency" unicode="&#xa4;" horiz-adv-x="447" 
d="M452 442l-59 -68c8 -15 12 -33 12 -53c0 -48 -20 -115 -63 -155l32 -70l-120 -63l-26 69c-22 -5 -58 -3 -73 0l-52 -71l-100 69l59 68c-8 15 -11 33 -11 53c0 52 26 121 61 155l-32 70l120 62l26 -69c9 4 59 5 75 1l52 71zM287 269c5 20 7 36 7 49c0 36 -16 51 -47 51
c-54 0 -69 -44 -79 -93c-4 -22 -8 -42 -8 -58c0 -28 11 -46 48 -46c53 0 69 54 79 97z" />
    <glyph glyph-name="yen" unicode="&#xa5;" horiz-adv-x="542" 
d="M653 695l-213 -280h103l-22 -103h-158l-19 -26l-11 -50h172l-22 -103h-172l-28 -133h-146l28 133h-169l22 103h169l11 50l-9 26h-155l22 103h101l-88 280h163l48 -190c10 -38 14 -63 16 -89c13 20 34 54 56 87l131 192h170z" />
    <glyph glyph-name="brokenbar" unicode="&#xa6;" horiz-adv-x="276" 
d="M303 756l-88 -414h-126l88 414h126zM187 206l-88 -414h-126l88 414h126z" />
    <glyph glyph-name="section" unicode="&#xa7;" horiz-adv-x="549" 
d="M581 619l-133 -71c-6 38 -44 58 -83 58c-36 0 -78 -23 -78 -61c0 -79 258 -96 258 -238c0 -75 -51 -131 -115 -160c22 -21 34 -46 34 -82c0 -143 -139 -216 -289 -216c-99 0 -178 31 -202 127l134 61c2 -48 52 -68 97 -68c34 0 92 19 92 62c0 90 -248 80 -248 238
c0 65 50 132 123 172c-27 20 -41 44 -41 91c0 125 127 194 253 194c85 0 171 -25 198 -107zM399 264c0 30 -26 49 -52 63l-99 53c-31 -15 -54 -43 -54 -74c0 -36 37 -56 67 -71l86 -44c29 15 52 51 52 73z" />
    <glyph glyph-name="dieresis" unicode="&#xa8;" horiz-adv-x="436" 
d="M482 635c0 -42 -35 -77 -77 -77s-76 35 -76 77s35 77 78 77c41 0 75 -35 75 -77zM271 635c0 -42 -35 -77 -77 -77c-41 0 -76 35 -76 77s36 77 78 77c41 0 75 -35 75 -77z" />
    <glyph glyph-name="copyright" unicode="&#xa9;" horiz-adv-x="850" 
d="M823 354c0 -205 -167 -372 -372 -372s-372 167 -372 372s167 372 372 372s372 -167 372 -372zM721 354c0 155 -121 282 -270 282s-270 -127 -270 -282s121 -282 270 -282s270 127 270 282zM579 198c-41 -31 -76 -43 -122 -43c-110 0 -182 75 -182 191
c0 120 71 207 183 207c41 0 82 -13 112 -38l-46 -66c-27 18 -45 25 -65 25c-50 0 -75 -38 -75 -114c0 -91 23 -128 79 -128c27 0 48 10 67 28z" />
    <glyph glyph-name="ordfeminine" unicode="&#xaa;" horiz-adv-x="437" 
d="M476 740c-10 -27 -20 -67 -26 -94l-30 -143c-1 -7 -2 -13 -2 -19c0 -15 6 -26 21 -43l-89 -66c-19 11 -27 25 -32 38c-26 -23 -55 -35 -91 -35c-67 0 -107 42 -107 122c0 84 34 166 79 211c41 41 86 58 147 58c43 0 92 -8 130 -29zM432 317l-17 -78h-365l17 78h365z
M350 678c-5 1 -12 2 -16 2c-21 0 -38 -1 -61 -28c-29 -34 -41 -102 -41 -148c0 -25 4 -38 21 -38c26 0 52 28 61 51z" />
    <glyph glyph-name="guillemotleft" unicode="&#xab;" horiz-adv-x="573" 
d="M578 420l-155 -175l77 -171l-102 -59l-109 234l209 234zM336 420l-155 -175l77 -171l-102 -59l-109 234l209 234z" />
    <glyph glyph-name="logicalnot" unicode="&#xac;" horiz-adv-x="519" 
d="M495 307l-53 -249h-123l30 140h-318l23 109h441z" />
    <glyph glyph-name="uni00AD" unicode="&#xad;" horiz-adv-x="359" 
d="M319 329l-25 -110h-240l25 110h240z" />
    <glyph glyph-name="registered" unicode="&#xae;" horiz-adv-x="850" 
d="M823 354c0 -205 -167 -372 -372 -372s-372 167 -372 372s167 372 372 372s372 -167 372 -372zM721 354c0 155 -121 282 -270 282s-270 -127 -270 -282s121 -282 270 -282s270 127 270 282zM619 171h-115c-18 29 -25 39 -40 65c-36 61 -46 79 -54 86v-151h-97v382h153
c75 0 123 -47 123 -117c0 -57 -38 -99 -88 -104c23 -9 38 -32 51 -52c25 -37 59 -96 67 -109zM486 435c0 28 -16 39 -49 39h-27v-77h26c38 0 50 12 50 38z" />
    <glyph glyph-name="macron" unicode="&#xaf;" horiz-adv-x="328" 
d="M430 744l-16 -78h-314l16 78h314z" />
    <glyph glyph-name="degree" unicode="&#xb0;" horiz-adv-x="411" 
d="M376 533c-20 -102 -92 -174 -206 -174c-88 0 -140 49 -140 129c0 127 95 217 208 217c83 0 143 -48 143 -125c0 -14 -2 -30 -5 -47zM265 535c4 18 6 33 6 46c0 34 -19 50 -49 50c-59 0 -85 -79 -85 -150c0 -26 14 -47 49 -47c42 0 66 30 79 101z" />
    <glyph glyph-name="plusminus" unicode="&#xb1;" horiz-adv-x="504" 
d="M498 396l-24 -113h-150l-30 -143h-123l30 143h-150l24 113h150l29 137h123l-29 -137h150zM436 113l-24 -113h-419l24 113h419z" />
    <glyph glyph-name="twosuperior" unicode="&#xb2;" horiz-adv-x="384" 
d="M348 565c0 -95 -115 -176 -193 -233c12 0 25 1 35 1h133l-40 -83h-275l14 67c32 24 91 71 124 100c32 27 88 78 88 126c0 21 -13 27 -32 27c-22 0 -48 -10 -95 -42l-43 63c61 44 114 65 179 65c66 0 105 -36 105 -91z" />
    <glyph glyph-name="threesuperior" unicode="&#xb3;" horiz-adv-x="376" 
d="M355 577c0 -45 -29 -82 -67 -104c26 -15 41 -38 41 -67c0 -119 -162 -164 -255 -164c-19 0 -27 0 -56 4l-11 74c33 -6 41 -7 59 -7c51 0 148 22 148 90c0 29 -52 30 -78 30h-26l17 81c15 -2 35 -4 50 -4c30 0 66 11 66 47c0 15 -10 25 -35 25c-37 0 -69 -16 -98 -36
l-41 64c54 34 107 56 167 56c70 0 119 -36 119 -89z" />
    <glyph glyph-name="acute" unicode="&#xb4;" horiz-adv-x="338" 
d="M395 657l-239 -103l-40 75l231 133z" />
    <glyph glyph-name="mu" unicode="&#xb5;" horiz-adv-x="548" 
d="M531 524l-83 -391c-2 -11 -3 -21 -3 -32c0 -23 5 -45 15 -61l-107 -54c-14 12 -25 29 -29 50c-40 -32 -92 -49 -144 -49c-13 0 -26 4 -34 11c0 -3 -1 -16 -4 -28l-34 -156l-136 -34l153 720l138 25l-70 -329c-6 -30 -9 -48 -9 -73c0 -20 18 -35 44 -35c33 0 78 24 93 49
l77 360z" />
    <glyph glyph-name="paragraph" unicode="&#xb6;" horiz-adv-x="588" 
d="M614 708l-177 -834h-90l162 762h-107l-162 -762h-90l99 464c-114 0 -179 59 -179 144c0 136 103 226 275 226h269z" />
    <glyph glyph-name="periodcentered" unicode="&#xb7;" horiz-adv-x="311" 
d="M253 273c0 -48 -40 -88 -90 -88c-49 0 -88 40 -88 89s40 90 90 90c49 0 88 -41 88 -91z" />
    <glyph glyph-name="cedilla" unicode="&#xb8;" horiz-adv-x="224" 
d="M138 -93c0 -56 -48 -106 -128 -106c-30 0 -65 13 -82 24l41 62c15 -7 31 -14 51 -14c16 0 31 8 31 22c0 9 -6 16 -23 16c-11 0 -19 -4 -28 -6l-9 20l43 87l70 -6l-22 -38c41 -4 56 -31 56 -61z" />
    <glyph glyph-name="onesuperior" unicode="&#xb9;" horiz-adv-x="324" 
d="M280 650l-68 -319h52l-18 -81h-215l18 81h64l44 208c-23 -11 -50 -24 -82 -34l-16 56l153 89h68z" />
    <glyph glyph-name="ordmasculine" unicode="&#xba;" horiz-adv-x="437" 
d="M477 637c0 -130 -70 -258 -217 -258c-86 0 -135 52 -135 137c0 140 87 252 214 252c86 0 138 -47 138 -131zM428 317l-17 -78h-365l17 78h365zM361 637c0 35 -13 46 -36 46c-60 0 -85 -127 -85 -179c0 -28 14 -41 36 -41c57 0 85 108 85 174z" />
    <glyph glyph-name="guillemotright" unicode="&#xbb;" horiz-adv-x="574" 
d="M531 249l-209 -234l-80 63l155 175l-77 171l102 59zM289 249l-209 -234l-80 63l155 175l-77 171l102 59z" />
    <glyph glyph-name="onequarter" unicode="&#xbc;" horiz-adv-x="1032" 
d="M280 650l-68 -319h52l-18 -81h-215l18 81h64l44 208c-23 -11 -50 -24 -82 -34l-16 56l153 89h68zM929 764l-723 -918h-108l723 918h108zM1015 156l-18 -85h-37l-7 1c0 -3 0 -7 -1 -11l-16 -75l-98 -11l19 91l2 5h-178l13 63l166 267h105l-128 -207
c-9 -14 -18 -27 -27 -38h69c11 50 25 91 41 141l86 18l-22 -104c-3 -13 -7 -39 -11 -49l-2 -7c3 0 7 1 9 1h35z" />
    <glyph glyph-name="onehalf" unicode="&#xbd;" horiz-adv-x="1030" 
d="M280 650l-68 -319h52l-18 -81h-215l18 81h64l44 208c-23 -11 -50 -24 -82 -34l-16 56l153 89h68zM919 764l-723 -918h-108l723 918h108zM1022 315c0 -89 -110 -171 -180 -223l-13 -10c12 0 26 1 36 1h133l-41 -83h-275l14 67c32 24 91 71 124 100c33 28 88 77 88 126
c0 21 -13 27 -32 27c-22 0 -48 -10 -95 -42l-43 63c61 44 114 65 179 65c66 0 105 -36 105 -91z" />
    <glyph glyph-name="threequarters" unicode="&#xbe;" horiz-adv-x="1084" 
d="M355 577c0 -45 -29 -82 -67 -104c26 -15 41 -38 41 -67c0 -119 -162 -164 -255 -164c-19 0 -27 0 -56 4l-11 74c33 -6 41 -7 59 -7c51 0 148 22 148 90c0 29 -52 30 -78 30h-26l17 81c15 -2 35 -4 50 -4c30 0 66 11 66 47c0 15 -10 25 -35 25c-37 0 -69 -16 -98 -36
l-41 64c54 34 107 56 167 56c70 0 119 -36 119 -89zM971 764l-723 -918h-108l723 918h108zM1067 156l-18 -85h-37l-7 1c0 -3 0 -7 -1 -11l-16 -75l-98 -11l19 91l2 5h-178l13 63l166 267h105l-128 -207c-9 -14 -18 -27 -27 -38h69c11 50 25 91 41 141l86 18l-22 -104
c-3 -13 -7 -39 -11 -49l-2 -7c3 0 7 1 9 1h35z" />
    <glyph glyph-name="questiondown" unicode="&#xbf;" horiz-adv-x="454" 
d="M340 -140c-31 -26 -111 -79 -212 -79c-89 0 -158 54 -158 136c0 93 52 145 125 185c89 50 107 113 112 163h114c4 -105 -43 -168 -128 -221c-67 -42 -85 -55 -85 -96c0 -36 31 -51 69 -51c49 0 90 20 118 44zM365 416c0 -46 -37 -83 -83 -83c-45 0 -82 37 -82 83
s38 83 84 83c45 0 81 -37 81 -83z" />
    <glyph glyph-name="Agrave" unicode="&#xc0;" horiz-adv-x="588" 
d="M543 0h-145l-14 165h-204l-84 -165h-151l376 697h151zM375 281l-10 145c-4 53 -3 106 -3 118c-7 -17 -40 -90 -61 -134l-62 -129h136zM518 792l-46 -72l-216 100l66 106z" />
    <glyph glyph-name="Aacute" unicode="&#xc1;" horiz-adv-x="588" 
d="M543 0h-145l-14 165h-204l-84 -165h-151l376 697h151zM375 281l-10 145c-4 53 -3 106 -3 118c-7 -17 -40 -90 -61 -134l-62 -129h136zM569 820l-239 -103l-40 75l231 133z" />
    <glyph glyph-name="Acircumflex" unicode="&#xc2;" horiz-adv-x="588" 
d="M543 0h-145l-14 165h-204l-84 -165h-151l376 697h151zM375 281l-10 145c-4 53 -3 106 -3 118c-7 -17 -40 -90 -61 -134l-62 -129h136zM582 788l-54 -73l-123 78l-151 -78l-36 73l209 135z" />
    <glyph glyph-name="Atilde" unicode="&#xc3;" horiz-adv-x="588" 
d="M543 0h-145l-14 165h-204l-84 -165h-151l376 697h151zM375 281l-10 145c-4 53 -3 106 -3 118c-7 -17 -40 -90 -61 -134l-62 -129h136zM580 805c-42 -41 -79 -67 -138 -67c-53 0 -70 40 -122 40c-32 0 -50 -15 -75 -37l-33 75c42 41 78 66 130 66c55 0 72 -40 130 -40
c32 0 49 13 75 35z" />
    <glyph glyph-name="Adieresis" unicode="&#xc4;" horiz-adv-x="588" 
d="M543 0h-145l-14 165h-204l-84 -165h-151l376 697h151zM375 281l-10 145c-4 53 -3 106 -3 118c-7 -17 -40 -90 -61 -134l-62 -129h136zM371 800c0 -42 -35 -77 -77 -77c-41 0 -76 35 -76 77s36 77 78 77c41 0 75 -35 75 -77zM582 800c0 -42 -35 -77 -77 -77
c-41 0 -76 35 -76 77s36 77 78 77c41 0 75 -35 75 -77z" />
    <glyph glyph-name="Aring" unicode="&#xc5;" horiz-adv-x="588" 
d="M543 0h-145l-14 165h-204l-84 -165h-151l376 697h151zM375 281l-10 145c-4 53 -3 106 -3 118c-7 -17 -40 -90 -61 -134l-62 -129h136zM505 819c0 -58 -48 -106 -106 -106c-57 0 -104 48 -104 106s49 106 106 106s104 -48 104 -106zM442 819c0 24 -18 43 -41 43
c-25 0 -44 -19 -44 -43s19 -43 42 -43c24 0 43 19 43 43z" />
    <glyph glyph-name="AE" unicode="&#xc6;" horiz-adv-x="789" 
d="M863 695l-43 -114h-232l-34 -161h199l-24 -114h-197l-39 -186h267l-26 -120h-409l35 165h-185l-128 -165h-162l562 695h416zM265 281h120l51 228c-7 -8 -135 -183 -171 -228z" />
    <glyph glyph-name="Ccedilla" unicode="&#xc7;" horiz-adv-x="563" 
d="M625 655l-81 -92c-29 26 -66 36 -105 36c-47 0 -98 -25 -130 -62c-61 -68 -96 -229 -96 -309c0 -92 45 -132 123 -132c41 0 80 15 128 48l48 -91c-64 -45 -130 -65 -209 -65h-15l-11 -20c41 -4 56 -31 56 -61c0 -56 -48 -106 -128 -106c-30 0 -65 13 -82 24l41 62
c20 -10 34 -14 51 -14c16 0 31 8 31 22c0 9 -6 16 -23 16c-11 0 -19 -4 -28 -6l-9 20l36 72c-106 26 -165 109 -165 235c0 108 41 239 105 324c75 101 187 154 299 154c69 0 133 -22 164 -55z" />
    <glyph glyph-name="Egrave" unicode="&#xc8;" horiz-adv-x="495" 
d="M569 695l-43 -114h-236l-34 -161h197l-24 -114h-196l-39 -186h262l-26 -120h-405l148 695h396zM464 792l-46 -72l-216 100l66 106z" />
    <glyph glyph-name="Eacute" unicode="&#xc9;" horiz-adv-x="495" 
d="M569 695l-43 -114h-236l-34 -161h197l-24 -114h-196l-39 -186h262l-26 -120h-405l148 695h396zM527 820l-239 -103l-40 75l231 133z" />
    <glyph glyph-name="Ecircumflex" unicode="&#xca;" horiz-adv-x="495" 
d="M569 695l-43 -114h-236l-34 -161h197l-24 -114h-196l-39 -186h262l-26 -120h-405l148 695h396zM565 788l-54 -73l-123 78l-151 -78l-36 73l209 135z" />
    <glyph glyph-name="Edieresis" unicode="&#xcb;" horiz-adv-x="495" 
d="M569 695l-43 -114h-236l-34 -161h197l-24 -114h-196l-39 -186h262l-26 -120h-405l148 695h396zM349 800c0 -42 -35 -77 -77 -77c-41 0 -76 35 -76 77s36 77 78 77c41 0 75 -35 75 -77zM560 800c0 -42 -35 -77 -77 -77c-41 0 -76 35 -76 77s36 77 78 77
c41 0 75 -35 75 -77z" />
    <glyph glyph-name="Igrave" unicode="&#xcc;" horiz-adv-x="297" 
d="M318 695l-148 -695h-145l148 695h145zM368 792l-46 -72l-216 100l66 106z" />
    <glyph glyph-name="Iacute" unicode="&#xcd;" horiz-adv-x="297" 
d="M318 695l-148 -695h-145l148 695h145zM420 820l-239 -103l-40 75l231 133z" />
    <glyph glyph-name="Icircumflex" unicode="&#xce;" horiz-adv-x="297" 
d="M318 695l-148 -695h-145l148 695h145zM438 788l-54 -73l-123 78l-151 -78l-36 73l209 135z" />
    <glyph glyph-name="Idieresis" unicode="&#xcf;" horiz-adv-x="297" 
d="M318 695l-148 -695h-145l148 695h145zM228 800c0 -42 -35 -77 -77 -77c-41 0 -76 35 -76 77s36 77 78 77c41 0 75 -35 75 -77zM439 800c0 -42 -35 -77 -77 -77c-41 0 -76 35 -76 77s36 77 78 77c41 0 75 -35 75 -77z" />
    <glyph glyph-name="Eth" unicode="&#xd0;" horiz-adv-x="630" 
d="M617 458c0 -114 -41 -263 -127 -354c-73 -77 -143 -104 -296 -104h-169l65 306h-76l19 89h76l64 300h160c116 0 187 -13 231 -68c32 -41 53 -87 53 -169zM466 460c0 64 -18 125 -111 125h-63l-40 -190h106l-28 -89h-97l-41 -192h69c60 0 105 33 130 72
c62 97 75 237 75 274z" />
    <glyph glyph-name="Ntilde" unicode="&#xd1;" horiz-adv-x="635" 
d="M656 695l-148 -695h-144l-62 266c-20 87 -44 187 -48 230c-7 -57 -23 -141 -35 -199l-59 -297h-135l148 695h153l74 -278c20 -74 32 -150 36 -200c6 54 19 147 29 194l58 284h133zM598 805c-42 -41 -79 -67 -138 -67c-53 0 -70 40 -122 40c-32 0 -50 -15 -75 -37l-33 75
c42 41 78 66 130 66c55 0 72 -40 130 -40c32 0 49 13 75 35z" />
    <glyph glyph-name="Ograve" unicode="&#xd2;" horiz-adv-x="694" 
d="M682 454c0 -175 -89 -365 -230 -432c-46 -22 -99 -33 -157 -33c-172 0 -238 104 -238 249c0 197 95 338 185 403c41 30 98 63 204 63c153 0 236 -95 236 -250zM525 483c0 68 -28 113 -104 113c-47 0 -93 -24 -121 -61c-55 -72 -92 -225 -92 -318c0 -89 38 -121 108 -121
c40 0 81 13 113 52c60 74 96 239 96 335zM555 792l-46 -72l-216 100l66 106z" />
    <glyph glyph-name="Oacute" unicode="&#xd3;" horiz-adv-x="694" 
d="M682 454c0 -175 -89 -365 -230 -432c-46 -22 -99 -33 -157 -33c-172 0 -238 104 -238 249c0 197 95 338 185 403c41 30 98 63 204 63c153 0 236 -95 236 -250zM525 483c0 68 -28 113 -104 113c-47 0 -93 -24 -121 -61c-55 -72 -92 -225 -92 -318c0 -89 38 -121 108 -121
c40 0 81 13 113 52c60 74 96 239 96 335zM611 820l-239 -103l-40 75l231 133z" />
    <glyph glyph-name="Ocircumflex" unicode="&#xd4;" horiz-adv-x="694" 
d="M682 454c0 -175 -89 -365 -230 -432c-46 -22 -99 -33 -157 -33c-172 0 -238 104 -238 249c0 197 95 338 185 403c41 30 98 63 204 63c153 0 236 -95 236 -250zM525 483c0 68 -28 113 -104 113c-47 0 -93 -24 -121 -61c-55 -72 -92 -225 -92 -318c0 -89 38 -121 108 -121
c40 0 81 13 113 52c60 74 96 239 96 335zM628 788l-54 -73l-123 78l-151 -78l-36 73l209 135z" />
    <glyph glyph-name="Otilde" unicode="&#xd5;" horiz-adv-x="694" 
d="M682 454c0 -175 -89 -365 -230 -432c-46 -22 -99 -33 -157 -33c-172 0 -238 104 -238 249c0 197 95 338 185 403c41 30 98 63 204 63c153 0 236 -95 236 -250zM525 483c0 68 -28 113 -104 113c-47 0 -93 -24 -121 -61c-55 -72 -92 -225 -92 -318c0 -89 38 -121 108 -121
c40 0 81 13 113 52c60 74 96 239 96 335zM632 805c-42 -41 -79 -67 -138 -67c-53 0 -70 40 -122 40c-32 0 -50 -15 -75 -37l-33 75c42 41 78 66 130 66c55 0 72 -40 130 -40c32 0 49 13 75 35z" />
    <glyph glyph-name="Odieresis" unicode="&#xd6;" horiz-adv-x="694" 
d="M682 454c0 -175 -89 -365 -230 -432c-46 -22 -99 -33 -157 -33c-172 0 -238 104 -238 249c0 197 95 338 185 403c41 30 98 63 204 63c153 0 236 -95 236 -250zM525 483c0 68 -28 113 -104 113c-47 0 -93 -24 -121 -61c-55 -72 -92 -225 -92 -318c0 -89 38 -121 108 -121
c40 0 81 13 113 52c60 74 96 239 96 335zM429 800c0 -42 -35 -77 -77 -77c-41 0 -76 35 -76 77s36 77 78 77c41 0 75 -35 75 -77zM640 800c0 -42 -35 -77 -77 -77c-41 0 -76 35 -76 77s36 77 78 77c41 0 75 -35 75 -77z" />
    <glyph glyph-name="multiply" unicode="&#xd7;" horiz-adv-x="626" 
d="M583 452l-181 -149l117 -149l-108 -89l-117 149l-181 -149l-70 89l181 149l-117 149l108 89l117 -149l181 149z" />
    <glyph glyph-name="Oslash" unicode="&#xd8;" horiz-adv-x="693" 
d="M727 725l-90 -109c29 -42 44 -97 44 -162c0 -175 -90 -365 -230 -433c-46 -23 -99 -32 -157 -32c-60 0 -107 13 -142 35l-96 -116l-58 49l99 121c-28 42 -40 97 -40 160c0 197 92 338 182 403c41 30 100 63 206 63c55 0 101 -12 137 -35l86 104zM499 567
c-17 18 -42 29 -79 29c-47 0 -93 -24 -121 -61c-55 -72 -92 -225 -92 -318v-6zM524 478l-290 -354c18 -20 45 -28 81 -28c40 0 81 13 113 52c59 73 95 233 96 330z" />
    <glyph glyph-name="Ugrave" unicode="&#xd9;" horiz-adv-x="644" 
d="M670 695l-100 -468c-19 -89 -35 -136 -89 -177c-43 -32 -94 -63 -209 -63c-135 0 -213 60 -213 150c0 23 3 50 8 74l103 484h143l-97 -457c-6 -26 -8 -47 -8 -63c0 -50 41 -68 87 -68c64 0 107 35 123 84c5 14 7 22 15 59l95 445h142zM546 792l-46 -72l-216 100l66 106z
" />
    <glyph glyph-name="Uacute" unicode="&#xda;" horiz-adv-x="644" 
d="M670 695l-100 -468c-19 -89 -35 -136 -89 -177c-43 -32 -94 -63 -209 -63c-135 0 -213 60 -213 150c0 23 3 50 8 74l103 484h143l-97 -457c-6 -26 -8 -47 -8 -63c0 -50 41 -68 87 -68c64 0 107 35 123 84c5 14 7 22 15 59l95 445h142zM571 820l-239 -103l-40 75l231 133z
" />
    <glyph glyph-name="Ucircumflex" unicode="&#xdb;" horiz-adv-x="644" 
d="M670 695l-100 -468c-19 -89 -35 -136 -89 -177c-43 -32 -94 -63 -209 -63c-135 0 -213 60 -213 150c0 23 3 50 8 74l103 484h143l-97 -457c-6 -26 -8 -47 -8 -63c0 -50 41 -68 87 -68c64 0 107 35 123 84c5 14 7 22 15 59l95 445h142zM617 788l-54 -73l-123 78l-151 -78
l-36 73l209 135z" />
    <glyph glyph-name="Udieresis" unicode="&#xdc;" horiz-adv-x="644" 
d="M670 695l-100 -468c-19 -89 -35 -136 -89 -177c-43 -32 -94 -63 -209 -63c-135 0 -213 60 -213 150c0 23 3 50 8 74l103 484h143l-97 -457c-6 -26 -8 -47 -8 -63c0 -50 41 -68 87 -68c64 0 107 35 123 84c5 14 7 22 15 59l95 445h142zM409 800c0 -42 -35 -77 -77 -77
c-41 0 -76 35 -76 77s36 77 78 77c41 0 75 -35 75 -77zM620 800c0 -42 -35 -77 -77 -77c-41 0 -76 35 -76 77s36 77 78 77c41 0 75 -35 75 -77z" />
    <glyph glyph-name="Yacute" unicode="&#xdd;" horiz-adv-x="554" 
d="M665 695l-309 -409l-61 -286h-146l61 286l-129 409h162l48 -190c10 -38 14 -63 16 -89c13 20 34 54 56 87l131 192h171zM515 820l-239 -103l-40 75l231 133z" />
    <glyph glyph-name="Thorn" unicode="&#xde;" horiz-adv-x="573" 
d="M583 426c0 -120 -57 -208 -161 -256c-35 -16 -94 -24 -149 -24h-74l-31 -146h-143l148 695h143l-23 -110h40c94 0 146 -10 180 -32c44 -27 70 -73 70 -127zM432 399c0 46 -25 73 -77 73h-86l-45 -212h70c54 0 84 12 102 34c21 25 36 65 36 105z" />
    <glyph glyph-name="germandbls" unicode="&#xdf;" horiz-adv-x="610" 
d="M582 583c0 -143 -151 -153 -151 -190c0 -40 132 -53 132 -172c0 -136 -125 -234 -275 -234c-29 0 -55 3 -72 12l49 92c8 -3 17 -5 29 -5c71 0 122 52 122 125c0 88 -110 72 -110 162c0 107 125 80 125 196c0 33 -18 52 -51 52c-53 0 -79 -22 -102 -128l-105 -493
c-20 -95 -79 -178 -131 -224l-82 74c28 28 66 95 78 150l89 420h-77l19 92h77l3 16c25 133 102 197 251 197c117 0 182 -61 182 -142z" />
    <glyph glyph-name="agrave" unicode="&#xe0;" horiz-adv-x="540" 
d="M519 487c-11 -31 -25 -87 -33 -126l-41 -194c-3 -14 -4 -26 -4 -38c0 -25 7 -44 23 -62l-111 -83c-24 16 -35 43 -39 63c-38 -40 -80 -61 -136 -61c-93 0 -141 57 -141 163c0 123 47 232 108 293c56 56 119 80 204 80c60 0 127 -10 170 -35zM367 410c-6 4 -24 8 -36 8
c-33 0 -58 -2 -94 -44c-42 -50 -63 -151 -63 -219c0 -46 12 -66 41 -66c42 0 85 43 99 80zM469 629l-46 -72l-216 100l66 106z" />
    <glyph glyph-name="aacute" unicode="&#xe1;" horiz-adv-x="540" 
d="M519 487c-11 -31 -25 -87 -33 -126l-41 -194c-3 -14 -4 -26 -4 -38c0 -25 7 -44 23 -62l-111 -83c-24 16 -35 43 -39 63c-38 -40 -80 -61 -136 -61c-93 0 -141 57 -141 163c0 123 47 232 108 293c56 56 119 80 204 80c60 0 127 -10 170 -35zM367 410c-6 4 -24 8 -36 8
c-33 0 -58 -2 -94 -44c-42 -50 -63 -151 -63 -219c0 -46 12 -66 41 -66c42 0 85 43 99 80zM518 657l-239 -103l-40 75l231 133z" />
    <glyph glyph-name="acircumflex" unicode="&#xe2;" horiz-adv-x="540" 
d="M519 487c-11 -31 -25 -87 -33 -126l-41 -194c-3 -14 -4 -26 -4 -38c0 -25 7 -44 23 -62l-111 -83c-24 16 -35 43 -39 63c-38 -40 -80 -61 -136 -61c-93 0 -141 57 -141 163c0 123 47 232 108 293c56 56 119 80 204 80c60 0 127 -10 170 -35zM367 410c-6 4 -24 8 -36 8
c-33 0 -58 -2 -94 -44c-42 -50 -63 -151 -63 -219c0 -46 12 -66 41 -66c42 0 85 43 99 80zM530 625l-54 -73l-123 78l-151 -78l-36 73l209 135z" />
    <glyph glyph-name="atilde" unicode="&#xe3;" horiz-adv-x="540" 
d="M519 487c-11 -31 -25 -87 -33 -126l-41 -194c-3 -14 -4 -26 -4 -38c0 -25 7 -44 23 -62l-111 -83c-24 16 -35 43 -39 63c-38 -40 -80 -61 -136 -61c-93 0 -141 57 -141 163c0 123 47 232 108 293c56 56 119 80 204 80c60 0 127 -10 170 -35zM367 410c-6 4 -24 8 -36 8
c-33 0 -58 -2 -94 -44c-42 -50 -63 -151 -63 -219c0 -46 12 -66 41 -66c42 0 85 43 99 80zM541 645c-42 -41 -79 -67 -138 -67c-53 0 -70 40 -122 40c-32 0 -50 -15 -75 -37l-33 75c42 41 78 66 130 66c55 0 72 -40 130 -40c32 0 49 13 75 35z" />
    <glyph glyph-name="adieresis" unicode="&#xe4;" horiz-adv-x="540" 
d="M519 487c-11 -31 -25 -87 -33 -126l-41 -194c-3 -14 -4 -26 -4 -38c0 -25 7 -44 23 -62l-111 -83c-24 16 -35 43 -39 63c-38 -40 -80 -61 -136 -61c-93 0 -141 57 -141 163c0 123 47 232 108 293c56 56 119 80 204 80c60 0 127 -10 170 -35zM367 410c-6 4 -24 8 -36 8
c-33 0 -58 -2 -94 -44c-42 -50 -63 -151 -63 -219c0 -46 12 -66 41 -66c42 0 85 43 99 80zM334 635c0 -42 -35 -77 -77 -77c-41 0 -76 35 -76 77s36 77 78 77c41 0 75 -35 75 -77zM545 635c0 -42 -35 -77 -77 -77c-41 0 -76 35 -76 77s36 77 78 77c41 0 75 -35 75 -77z" />
    <glyph glyph-name="aring" unicode="&#xe5;" horiz-adv-x="540" 
d="M519 487c-11 -31 -25 -87 -33 -126l-41 -194c-3 -14 -4 -26 -4 -38c0 -25 7 -44 23 -62l-111 -83c-24 16 -35 43 -39 63c-38 -40 -80 -61 -136 -61c-93 0 -141 57 -141 163c0 123 47 232 108 293c56 56 119 80 204 80c60 0 127 -10 170 -35zM367 410c-6 4 -24 8 -36 8
c-33 0 -58 -2 -94 -44c-42 -50 -63 -151 -63 -219c0 -46 12 -66 41 -66c42 0 85 43 99 80zM469 659c0 -58 -48 -106 -106 -106c-57 0 -104 48 -104 106s49 106 106 106s104 -48 104 -106zM406 659c0 24 -18 43 -41 43c-25 0 -44 -19 -44 -43s19 -43 42 -43c24 0 43 19 43 43
z" />
    <glyph glyph-name="ae" unicode="&#xe6;" horiz-adv-x="784" 
d="M772 379c0 -44 -24 -83 -57 -114c-40 -38 -118 -58 -202 -58c-31 0 -56 3 -61 4c-1 -6 -5 -31 -5 -43c0 -58 30 -82 86 -82c46 0 94 20 142 54l34 -84c-69 -48 -136 -70 -208 -70c-71 0 -125 23 -157 67c-44 -49 -108 -72 -171 -72c-96 0 -147 58 -147 128
c0 123 107 208 288 208c10 0 16 0 30 -1l5 21c3 13 5 29 5 40c0 26 -14 36 -49 36c-43 0 -97 -18 -160 -55l-39 93c62 36 159 72 240 72c53 0 92 -21 117 -44c40 28 83 44 135 44c96 0 174 -37 174 -144zM323 224h-13c-99 0 -136 -30 -136 -98c0 -27 17 -47 46 -47
c27 0 55 11 72 34c10 13 27 92 31 111zM637 372c0 31 -14 53 -54 53c-51 0 -91 -32 -109 -122c4 0 22 -2 38 -2c58 0 125 20 125 71z" />
    <glyph glyph-name="ccedilla" unicode="&#xe7;" horiz-adv-x="446" 
d="M471 466l-78 -84c-22 25 -51 38 -76 38c-24 0 -45 -10 -63 -30c-37 -42 -71 -148 -71 -227c0 -53 25 -76 61 -76c37 0 74 21 112 51l45 -83c-54 -41 -109 -66 -180 -68l-11 -19c41 -4 56 -31 56 -61c0 -56 -48 -106 -128 -106c-30 0 -65 13 -82 24l41 62
c21 -10 34 -14 51 -14c16 0 31 8 31 22c0 9 -6 16 -23 16c-11 0 -19 -4 -28 -6l-9 20l34 69c-76 20 -116 80 -116 169c0 127 59 243 130 303c46 39 97 61 168 61c47 0 99 -19 136 -61z" />
    <glyph glyph-name="egrave" unicode="&#xe8;" horiz-adv-x="514" 
d="M502 383c0 -97 -89 -176 -259 -176c-29 0 -55 5 -61 7c-2 -11 -5 -35 -5 -46c0 -58 30 -82 86 -82c46 0 94 20 142 54l34 -84c-69 -48 -136 -70 -208 -70c-122 0 -194 64 -194 188c0 106 47 215 115 281c51 49 108 68 176 68c101 0 174 -40 174 -140zM367 372
c0 31 -14 53 -54 53c-51 0 -89 -30 -109 -119c4 -1 22 -5 38 -5c58 0 125 20 125 71zM445 629l-46 -72l-216 100l66 106z" />
    <glyph glyph-name="eacute" unicode="&#xe9;" horiz-adv-x="514" 
d="M502 383c0 -97 -89 -176 -259 -176c-29 0 -55 5 -61 7c-2 -11 -5 -35 -5 -46c0 -58 30 -82 86 -82c46 0 94 20 142 54l34 -84c-69 -48 -136 -70 -208 -70c-122 0 -194 64 -194 188c0 106 47 215 115 281c51 49 108 68 176 68c101 0 174 -40 174 -140zM367 372
c0 31 -14 53 -54 53c-51 0 -89 -30 -109 -119c4 -1 22 -5 38 -5c58 0 125 20 125 71zM493 657l-239 -103l-40 75l231 133z" />
    <glyph glyph-name="ecircumflex" unicode="&#xea;" horiz-adv-x="514" 
d="M502 383c0 -97 -89 -176 -259 -176c-29 0 -55 5 -61 7c-2 -11 -5 -35 -5 -46c0 -58 30 -82 86 -82c46 0 94 20 142 54l34 -84c-69 -48 -136 -70 -208 -70c-122 0 -194 64 -194 188c0 106 47 215 115 281c51 49 108 68 176 68c101 0 174 -40 174 -140zM367 372
c0 31 -14 53 -54 53c-51 0 -89 -30 -109 -119c4 -1 22 -5 38 -5c58 0 125 20 125 71zM513 625l-54 -73l-123 78l-151 -78l-36 73l209 135z" />
    <glyph glyph-name="edieresis" unicode="&#xeb;" horiz-adv-x="514" 
d="M502 383c0 -97 -89 -176 -259 -176c-29 0 -55 5 -61 7c-2 -11 -5 -35 -5 -46c0 -58 30 -82 86 -82c46 0 94 20 142 54l34 -84c-69 -48 -136 -70 -208 -70c-122 0 -194 64 -194 188c0 106 47 215 115 281c51 49 108 68 176 68c101 0 174 -40 174 -140zM367 372
c0 31 -14 53 -54 53c-51 0 -89 -30 -109 -119c4 -1 22 -5 38 -5c58 0 125 20 125 71zM314 635c0 -42 -35 -77 -77 -77c-41 0 -76 35 -76 77s36 77 78 77c41 0 75 -35 75 -77zM525 635c0 -42 -35 -77 -77 -77c-41 0 -76 35 -76 77s36 77 78 77c41 0 75 -35 75 -77z" />
    <glyph glyph-name="igrave" unicode="&#xec;" horiz-adv-x="280" 
d="M270 524l-111 -524h-134l107 503zM327 629l-46 -72l-216 100l66 106z" />
    <glyph glyph-name="iacute" unicode="&#xed;" horiz-adv-x="280" 
d="M270 524l-111 -524h-134l107 503zM387 657l-239 -103l-40 75l231 133z" />
    <glyph glyph-name="icircumflex" unicode="&#xee;" horiz-adv-x="280" 
d="M270 524l-111 -524h-134l107 503zM399 625l-54 -73l-123 78l-151 -78l-36 73l209 135z" />
    <glyph glyph-name="idieresis" unicode="&#xef;" horiz-adv-x="280" 
d="M270 524l-111 -524h-134l107 503zM188 635c0 -42 -35 -77 -77 -77c-41 0 -76 35 -76 77s36 77 78 77c41 0 75 -35 75 -77zM399 635c0 -42 -35 -77 -77 -77c-41 0 -76 35 -76 77s36 77 78 77c41 0 75 -35 75 -77z" />
    <glyph glyph-name="eth" unicode="&#xf0;" horiz-adv-x="536" 
d="M480 320c0 -169 -95 -332 -279 -332c-108 0 -189 54 -189 178c0 146 113 257 263 257c20 0 39 -5 54 -9c-15 37 -36 69 -62 88l-51 -47l-73 36l59 54c-36 18 -80 32 -134 38l101 95c42 -5 89 -18 133 -41l38 36l74 -36l-46 -43c66 -53 112 -170 112 -274zM341 302
c-17 10 -31 15 -79 15c-80 0 -113 -77 -113 -141c0 -48 25 -79 72 -79c102 0 120 145 120 205z" />
    <glyph glyph-name="ntilde" unicode="&#xf1;" horiz-adv-x="551" 
d="M511 422c0 -22 -3 -50 -8 -72l-74 -350h-132l71 333c4 20 7 35 7 46c0 25 -11 32 -35 32c-32 0 -70 -20 -112 -77l-71 -334h-132l73 345c6 27 9 52 9 74c0 23 -3 43 -9 61l124 49c9 -17 15 -61 13 -83c43 46 98 77 173 77c65 0 103 -39 103 -101zM523 645
c-42 -41 -79 -67 -138 -67c-53 0 -70 40 -122 40c-32 0 -50 -15 -75 -37l-33 75c42 41 78 66 130 66c55 0 72 -40 130 -40c32 0 49 13 75 35z" />
    <glyph glyph-name="ograve" unicode="&#xf2;" horiz-adv-x="546" 
d="M512 347c0 -180 -96 -358 -299 -358c-116 0 -182 64 -182 181c0 193 119 352 295 352c115 0 186 -63 186 -175zM368 347c0 59 -22 76 -62 76c-90 0 -133 -188 -133 -266c0 -49 25 -71 63 -71c86 0 132 161 132 261zM451 629l-46 -72l-216 100l66 106z" />
    <glyph glyph-name="oacute" unicode="&#xf3;" horiz-adv-x="546" 
d="M512 347c0 -180 -96 -358 -299 -358c-116 0 -182 64 -182 181c0 193 119 352 295 352c115 0 186 -63 186 -175zM368 347c0 59 -22 76 -62 76c-90 0 -133 -188 -133 -266c0 -49 25 -71 63 -71c86 0 132 161 132 261zM492 657l-239 -103l-40 75l231 133z" />
    <glyph glyph-name="ocircumflex" unicode="&#xf4;" horiz-adv-x="546" 
d="M512 347c0 -180 -96 -358 -299 -358c-116 0 -182 64 -182 181c0 193 119 352 295 352c115 0 186 -63 186 -175zM368 347c0 59 -22 76 -62 76c-90 0 -133 -188 -133 -266c0 -49 25 -71 63 -71c86 0 132 161 132 261zM514 625l-54 -73l-123 78l-151 -78l-36 73l209 135z
" />
    <glyph glyph-name="otilde" unicode="&#xf5;" horiz-adv-x="546" 
d="M512 347c0 -180 -96 -358 -299 -358c-116 0 -182 64 -182 181c0 193 119 352 295 352c115 0 186 -63 186 -175zM368 347c0 59 -22 76 -62 76c-90 0 -133 -188 -133 -266c0 -49 25 -71 63 -71c86 0 132 161 132 261zM518 645c-42 -41 -79 -67 -138 -67
c-53 0 -70 40 -122 40c-32 0 -50 -15 -75 -37l-33 75c42 41 78 66 130 66c55 0 72 -40 130 -40c32 0 49 13 75 35z" />
    <glyph glyph-name="odieresis" unicode="&#xf6;" horiz-adv-x="546" 
d="M512 347c0 -180 -96 -358 -299 -358c-116 0 -182 64 -182 181c0 193 119 352 295 352c115 0 186 -63 186 -175zM368 347c0 59 -22 76 -62 76c-90 0 -133 -188 -133 -266c0 -49 25 -71 63 -71c86 0 132 161 132 261zM310 635c0 -42 -35 -77 -77 -77c-41 0 -76 35 -76 77
s36 77 78 77c41 0 75 -35 75 -77zM521 635c0 -42 -35 -77 -77 -77c-41 0 -76 35 -76 77s36 77 78 77c41 0 75 -35 75 -77z" />
    <glyph glyph-name="divide" unicode="&#xf7;" horiz-adv-x="584" 
d="M563 319l-23 -105h-505l23 105h505zM342 68c0 -47 -39 -84 -87 -84c-47 0 -86 37 -86 84c0 49 39 89 87 89s86 -40 86 -89zM427 467c0 -48 -39 -86 -87 -86c-47 0 -85 38 -85 85c0 48 38 88 85 88c48 0 87 -39 87 -87z" />
    <glyph glyph-name="oslash" unicode="&#xf8;" horiz-adv-x="546" 
d="M563 557l-83 -101c21 -28 32 -64 32 -109c0 -180 -96 -358 -299 -358c-38 0 -71 8 -98 22l-80 -98l-49 42l81 97c-23 30 -36 72 -36 121c0 193 119 349 295 349c41 0 77 -8 105 -24l82 100zM354 404c-10 14 -26 19 -48 19c-80 0 -123 -154 -132 -242zM367 317l-177 -214
c11 -12 27 -17 46 -17c78 0 123 132 131 231z" />
    <glyph glyph-name="ugrave" unicode="&#xf9;" horiz-adv-x="547" 
d="M530 524l-83 -391c-7 -34 -4 -80 11 -104l-116 -46c-12 18 -22 44 -24 68c-38 -35 -88 -64 -148 -64c-79 0 -125 40 -125 104c0 19 2 44 10 81l69 328l138 25l-70 -329c-6 -27 -10 -55 -10 -69c0 -22 16 -39 32 -39c41 0 90 44 110 76l71 333zM454 629l-46 -72l-216 100
l66 106z" />
    <glyph glyph-name="uacute" unicode="&#xfa;" horiz-adv-x="547" 
d="M530 524l-83 -391c-7 -34 -4 -80 11 -104l-116 -46c-12 18 -22 44 -24 68c-38 -35 -88 -64 -148 -64c-79 0 -125 40 -125 104c0 19 2 44 10 81l69 328l138 25l-70 -329c-6 -27 -10 -55 -10 -69c0 -22 16 -39 32 -39c41 0 90 44 110 76l71 333zM508 657l-239 -103l-40 75
l231 133z" />
    <glyph glyph-name="ucircumflex" unicode="&#xfb;" horiz-adv-x="547" 
d="M530 524l-83 -391c-7 -34 -4 -80 11 -104l-116 -46c-12 18 -22 44 -24 68c-38 -35 -88 -64 -148 -64c-79 0 -125 40 -125 104c0 19 2 44 10 81l69 328l138 25l-70 -329c-6 -27 -10 -55 -10 -69c0 -22 16 -39 32 -39c41 0 90 44 110 76l71 333zM522 625l-54 -73l-123 78
l-151 -78l-36 73l209 135z" />
    <glyph glyph-name="udieresis" unicode="&#xfc;" horiz-adv-x="547" 
d="M530 524l-83 -391c-7 -34 -4 -80 11 -104l-116 -46c-12 18 -22 44 -24 68c-38 -35 -88 -64 -148 -64c-79 0 -125 40 -125 104c0 19 2 44 10 81l69 328l138 25l-70 -329c-6 -27 -10 -55 -10 -69c0 -22 16 -39 32 -39c41 0 90 44 110 76l71 333zM317 635
c0 -42 -35 -77 -77 -77c-41 0 -76 35 -76 77s36 77 78 77c41 0 75 -35 75 -77zM528 635c0 -42 -35 -77 -77 -77c-41 0 -76 35 -76 77s36 77 78 77c41 0 75 -35 75 -77z" />
    <glyph glyph-name="yacute" unicode="&#xfd;" horiz-adv-x="514" 
d="M575 512l-297 -520c-56 -99 -91 -142 -134 -169c-39 -25 -86 -41 -134 -47l-27 90c31 7 67 18 90 32c41 25 57 48 89 102h-37c-2 38 -7 100 -13 144l-46 360l138 16l25 -299c2 -28 4 -91 4 -106c7 18 39 96 69 153l129 244h144zM475 657l-239 -103l-40 75l231 133z" />
    <glyph glyph-name="thorn" unicode="&#xfe;" horiz-adv-x="561" 
d="M531 347c0 -126 -53 -246 -149 -314c-48 -34 -95 -46 -147 -46c-28 0 -55 3 -81 7l-38 -180l-136 -34l166 780c9 44 14 77 14 104c0 14 -1 27 -4 39l139 43c3 -11 4 -26 4 -43c0 -28 -4 -62 -10 -93l-17 -81c-3 -15 -14 -59 -19 -69c29 35 81 65 141 65
c95 0 137 -67 137 -178zM385 349c0 44 -13 67 -40 67c-41 0 -84 -34 -111 -80l-50 -228c11 -11 36 -22 69 -22c29 0 65 27 84 60c28 50 48 163 48 203z" />
    <glyph glyph-name="ydieresis" unicode="&#xff;" horiz-adv-x="514" 
d="M575 512l-297 -520c-56 -99 -91 -142 -134 -169c-39 -25 -86 -41 -134 -47l-27 90c31 7 67 18 90 32c41 25 57 48 89 102h-37c-2 38 -7 100 -13 144l-46 360l138 16l25 -299c2 -28 4 -91 4 -106c7 18 39 96 69 153l129 244h144zM299 635c0 -42 -35 -77 -77 -77
c-41 0 -76 35 -76 77s36 77 78 77c41 0 75 -35 75 -77zM510 635c0 -42 -35 -77 -77 -77c-41 0 -76 35 -76 77s36 77 78 77c41 0 75 -35 75 -77z" />
    <glyph glyph-name="Amacron" unicode="&#x100;" horiz-adv-x="588" 
d="M543 0h-145l-14 165h-204l-84 -165h-151l376 697h151zM375 281l-10 145c-4 53 -3 106 -3 118c-7 -17 -40 -90 -61 -134l-62 -129h136zM566 826l-16 -78h-314l16 78h314z" />
    <glyph glyph-name="amacron" unicode="&#x101;" horiz-adv-x="540" 
d="M519 487c-11 -31 -25 -87 -33 -126l-41 -194c-3 -14 -4 -26 -4 -38c0 -25 7 -44 23 -62l-111 -83c-24 16 -35 43 -39 63c-38 -40 -80 -61 -136 -61c-93 0 -141 57 -141 163c0 123 47 232 108 293c56 56 119 80 204 80c60 0 127 -10 170 -35zM367 410c-6 4 -24 8 -36 8
c-33 0 -58 -2 -94 -44c-42 -50 -63 -151 -63 -219c0 -46 12 -66 41 -66c42 0 85 43 99 80zM507 681l-19 -92h-294l19 92h294z" />
    <glyph glyph-name="Abreve" unicode="&#x102;" horiz-adv-x="588" 
d="M543 0h-145l-14 165h-204l-84 -165h-151l376 697h151zM375 281l-10 145c-4 53 -3 106 -3 118c-7 -17 -40 -90 -61 -134l-62 -129h136zM614 851c-19 -21 -131 -129 -217 -129c-87 0 -154 108 -165 129l52 49c16 -19 69 -73 140 -73c60 0 146 58 167 73z" />
    <glyph glyph-name="abreve" unicode="&#x103;" horiz-adv-x="540" 
d="M519 487c-11 -31 -25 -87 -33 -126l-41 -194c-3 -14 -4 -26 -4 -38c0 -25 7 -44 23 -62l-111 -83c-24 16 -35 43 -39 63c-38 -40 -80 -61 -136 -61c-93 0 -141 57 -141 163c0 123 47 232 108 293c56 56 119 80 204 80c60 0 127 -10 170 -35zM367 410c-6 4 -24 8 -36 8
c-33 0 -58 -2 -94 -44c-42 -50 -63 -151 -63 -219c0 -46 12 -66 41 -66c42 0 85 43 99 80zM564 684c-19 -21 -131 -129 -217 -129c-87 0 -154 108 -165 129l52 49c16 -19 69 -73 140 -73c60 0 146 58 167 73z" />
    <glyph glyph-name="Aogonek" unicode="&#x104;" horiz-adv-x="588" 
d="M543 0h-2c-52 0 -114 -49 -114 -96c0 -14 6 -25 25 -25c18 0 35 5 57 15l14 -67c-37 -15 -73 -27 -118 -27c-54 0 -84 27 -84 70c0 55 40 101 77 130l-14 165h-204l-84 -165h-151l376 697h151zM375 281l-10 145c-4 53 -3 106 -3 118c-7 -17 -40 -90 -61 -134l-62 -129
h136z" />
    <glyph glyph-name="aogonek" unicode="&#x105;" horiz-adv-x="540" 
d="M519 487c-11 -31 -25 -87 -33 -126l-46 -217c-8 -37 2 -82 24 -106c-35 -19 -128 -78 -128 -134c0 -14 7 -25 26 -25c18 0 34 5 56 15l14 -67c-37 -15 -73 -27 -118 -27c-53 0 -85 26 -85 69c0 55 41 105 97 144c-6 11 -10 24 -12 34c-38 -40 -80 -61 -136 -61
c-93 0 -141 57 -141 163c0 123 47 232 108 293c56 56 119 80 204 80c60 0 127 -10 170 -35zM367 410c-6 4 -24 8 -36 8c-33 0 -58 -2 -94 -44c-42 -50 -63 -151 -63 -219c0 -46 12 -66 41 -66c42 0 85 43 99 80z" />
    <glyph glyph-name="Cacute" unicode="&#x106;" horiz-adv-x="563" 
d="M625 655l-81 -92c-29 26 -66 36 -105 36c-47 0 -98 -25 -130 -62c-61 -68 -96 -229 -96 -309c0 -92 45 -132 123 -132c41 0 80 15 128 48l48 -91c-64 -45 -130 -65 -209 -65c-156 0 -246 88 -246 244c0 108 41 239 105 324c75 101 187 154 299 154c69 0 133 -22 164 -55z
M627 820l-239 -103l-40 75l231 133z" />
    <glyph glyph-name="cacute" unicode="&#x107;" horiz-adv-x="446" 
d="M471 466l-78 -84c-22 25 -51 38 -76 38c-24 0 -45 -10 -63 -30c-37 -42 -71 -148 -71 -227c0 -53 25 -76 61 -76c37 0 74 21 112 51l45 -83c-56 -43 -113 -68 -188 -68c-114 0 -176 66 -176 176c0 127 59 243 130 303c46 39 97 61 168 61c47 0 99 -19 136 -61zM495 657
l-239 -103l-40 75l231 133z" />
    <glyph glyph-name="Ccircumflex" unicode="&#x108;" horiz-adv-x="563" 
d="M625 655l-81 -92c-29 26 -66 36 -105 36c-47 0 -98 -25 -130 -62c-61 -68 -96 -229 -96 -309c0 -92 45 -132 123 -132c41 0 80 15 128 48l48 -91c-64 -45 -130 -65 -209 -65c-156 0 -246 88 -246 244c0 108 41 239 105 324c75 101 187 154 299 154c69 0 133 -22 164 -55z
M656 788l-54 -73l-123 78l-151 -78l-36 73l209 135z" />
    <glyph glyph-name="ccircumflex" unicode="&#x109;" horiz-adv-x="446" 
d="M471 466l-78 -84c-22 25 -51 38 -76 38c-24 0 -45 -10 -63 -30c-37 -42 -71 -148 -71 -227c0 -53 25 -76 61 -76c37 0 74 21 112 51l45 -83c-56 -43 -113 -68 -188 -68c-114 0 -176 66 -176 176c0 127 59 243 130 303c46 39 97 61 168 61c47 0 99 -19 136 -61zM531 625
l-54 -73l-123 78l-151 -78l-36 73l209 135z" />
    <glyph glyph-name="Cdotaccent" unicode="&#x10a;" horiz-adv-x="563" 
d="M625 655l-81 -92c-29 26 -66 36 -105 36c-47 0 -98 -25 -130 -62c-61 -68 -96 -229 -96 -309c0 -92 45 -132 123 -132c41 0 80 15 128 48l48 -91c-64 -45 -130 -65 -209 -65c-156 0 -246 88 -246 244c0 108 41 239 105 324c75 101 187 154 299 154c69 0 133 -22 164 -55z
M561 806c0 -46 -37 -83 -83 -83c-45 0 -82 37 -82 83s38 83 84 83c45 0 81 -37 81 -83z" />
    <glyph glyph-name="cdotaccent" unicode="&#x10b;" horiz-adv-x="446" 
d="M471 466l-78 -84c-22 25 -51 38 -76 38c-24 0 -45 -10 -63 -30c-37 -42 -71 -148 -71 -227c0 -53 25 -76 61 -76c37 0 74 21 112 51l45 -83c-56 -43 -113 -68 -188 -68c-114 0 -176 66 -176 176c0 127 59 243 130 303c46 39 97 61 168 61c47 0 99 -19 136 -61zM437 653
c0 -46 -37 -83 -83 -83c-45 0 -82 37 -82 83s38 83 84 83c45 0 81 -37 81 -83z" />
    <glyph glyph-name="Ccaron" unicode="&#x10c;" horiz-adv-x="563" 
d="M625 655l-81 -92c-29 26 -66 36 -105 36c-47 0 -98 -25 -130 -62c-61 -68 -96 -229 -96 -309c0 -92 45 -132 123 -132c41 0 80 15 128 48l48 -91c-64 -45 -130 -65 -209 -65c-156 0 -246 88 -246 244c0 108 41 239 105 324c75 101 187 154 299 154c69 0 133 -22 164 -55z
M661 852l-208 -135l-156 135l55 73l123 -76l152 76z" />
    <glyph glyph-name="ccaron" unicode="&#x10d;" horiz-adv-x="446" 
d="M471 466l-78 -84c-22 25 -51 38 -76 38c-24 0 -45 -10 -63 -30c-37 -42 -71 -148 -71 -227c0 -53 25 -76 61 -76c37 0 74 21 112 51l45 -83c-56 -43 -113 -68 -188 -68c-114 0 -176 66 -176 176c0 127 59 243 130 303c46 39 97 61 168 61c47 0 99 -19 136 -61zM544 689
l-208 -135l-156 135l55 73l123 -76l152 76z" />
    <glyph glyph-name="Dcaron" unicode="&#x10e;" horiz-adv-x="630" 
d="M617 458c0 -114 -41 -263 -127 -354c-73 -77 -143 -104 -296 -104h-169l148 695h160c116 0 187 -13 231 -68c32 -41 53 -87 53 -169zM466 460c0 64 -18 125 -111 125h-63l-100 -471h69c60 0 105 33 130 72c62 97 75 237 75 274zM595 852l-208 -135l-156 135l55 73
l123 -76l152 76z" />
    <glyph glyph-name="dcaron" unicode="&#x10f;" horiz-adv-x="544" 
d="M577 719l-113 -532c-18 -86 -24 -132 -24 -159c0 -13 1 -22 3 -28h-115c-2 8 -6 33 -5 47c-32 -37 -82 -60 -129 -60c-107 0 -157 61 -157 180c0 101 40 213 112 282c47 44 105 70 165 70c37 0 77 -9 87 -14c1 8 4 29 10 59l37 176zM374 392c-13 13 -36 20 -65 20
c-26 0 -50 -14 -70 -40c-38 -50 -62 -141 -62 -205c0 -49 17 -74 52 -74c30 0 79 40 94 68zM775 661c0 -45 -26 -85 -66 -116c-29 -22 -64 -38 -98 -48l-31 47c26 8 66 28 70 55c-9 16 -37 20 -37 65c0 40 30 77 86 77c47 0 76 -37 76 -80z" />
    <glyph glyph-name="Dcroat" unicode="&#x110;" horiz-adv-x="630" 
d="M617 458c0 -114 -41 -263 -127 -354c-73 -77 -143 -104 -296 -104h-169l65 306h-76l19 89h76l64 300h160c116 0 187 -13 231 -68c32 -41 53 -87 53 -169zM466 460c0 64 -18 125 -111 125h-63l-40 -190h106l-28 -89h-97l-41 -192h69c60 0 105 33 130 72
c62 97 75 237 75 274z" />
    <glyph glyph-name="dcroat" unicode="&#x111;" horiz-adv-x="549" 
d="M633 662l-16 -78h-69l-84 -397c-18 -86 -24 -132 -24 -159c0 -13 1 -22 3 -28h-115c-2 7 -5 28 -5 42v5c-32 -37 -82 -60 -129 -60c-107 0 -157 61 -157 180c0 101 40 213 112 282c47 44 105 70 165 70c37 0 77 -9 87 -14c1 8 4 29 10 59l4 20h-112l16 78h112l17 78
l129 -21l-12 -57h68zM374 392c-13 13 -36 20 -65 20c-26 0 -50 -14 -70 -40c-38 -50 -62 -141 -62 -205c0 -49 17 -74 52 -74c30 0 79 40 94 68z" />
    <glyph glyph-name="Emacron" unicode="&#x112;" horiz-adv-x="495" 
d="M569 695l-43 -114h-236l-34 -161h197l-24 -114h-196l-39 -186h262l-26 -120h-405l148 695h396zM550 826l-16 -78h-314l16 78h314z" />
    <glyph glyph-name="emacron" unicode="&#x113;" horiz-adv-x="514" 
d="M502 383c0 -97 -89 -176 -259 -176c-29 0 -55 5 -61 7c-2 -11 -5 -35 -5 -46c0 -58 30 -82 86 -82c46 0 94 20 142 54l34 -84c-69 -48 -136 -70 -208 -70c-122 0 -194 64 -194 188c0 106 47 215 115 281c51 49 108 68 176 68c101 0 174 -40 174 -140zM367 372
c0 31 -14 53 -54 53c-51 0 -89 -30 -109 -119c4 -1 22 -5 38 -5c58 0 125 20 125 71zM487 681l-19 -92h-294l19 92h294z" />
    <glyph glyph-name="Ebreve" unicode="&#x114;" horiz-adv-x="495" 
d="M569 695l-43 -114h-236l-34 -161h197l-24 -114h-196l-39 -186h262l-26 -120h-405l148 695h396zM584 851c-19 -21 -131 -129 -217 -129c-87 0 -154 108 -165 129l52 49c16 -19 69 -73 140 -73c60 0 146 58 167 73z" />
    <glyph glyph-name="ebreve" unicode="&#x115;" horiz-adv-x="514" 
d="M502 383c0 -97 -89 -176 -259 -176c-29 0 -55 5 -61 7c-2 -11 -5 -35 -5 -46c0 -58 30 -82 86 -82c46 0 94 20 142 54l34 -84c-69 -48 -136 -70 -208 -70c-122 0 -194 64 -194 188c0 106 47 215 115 281c51 49 108 68 176 68c101 0 174 -40 174 -140zM367 372
c0 31 -14 53 -54 53c-51 0 -89 -30 -109 -119c4 -1 22 -5 38 -5c58 0 125 20 125 71zM544 684c-19 -21 -131 -129 -217 -129c-87 0 -154 108 -165 129l52 49c16 -19 69 -73 140 -73c60 0 146 58 167 73z" />
    <glyph glyph-name="Edotaccent" unicode="&#x116;" horiz-adv-x="495" 
d="M569 695l-43 -114h-236l-34 -161h197l-24 -114h-196l-39 -186h262l-26 -120h-405l148 695h396zM463 806c0 -46 -37 -83 -83 -83c-45 0 -82 37 -82 83s38 83 84 83c45 0 81 -37 81 -83z" />
    <glyph glyph-name="edotaccent" unicode="&#x117;" horiz-adv-x="514" 
d="M502 383c0 -97 -89 -176 -259 -176c-29 0 -55 5 -61 7c-2 -11 -5 -35 -5 -46c0 -58 30 -82 86 -82c46 0 94 20 142 54l34 -84c-69 -48 -136 -70 -208 -70c-122 0 -194 64 -194 188c0 106 47 215 115 281c51 49 108 68 176 68c101 0 174 -40 174 -140zM367 372
c0 31 -14 53 -54 53c-51 0 -89 -30 -109 -119c4 -1 22 -5 38 -5c58 0 125 20 125 71zM427 641c0 -46 -37 -83 -83 -83c-45 0 -82 37 -82 83s38 83 84 83c45 0 81 -37 81 -83z" />
    <glyph glyph-name="Eogonek" unicode="&#x118;" horiz-adv-x="495" 
d="M569 695l-43 -114h-236l-34 -161h197l-24 -114h-196l-39 -186h262l-26 -120c-52 0 -115 -49 -115 -96c0 -14 7 -25 26 -25c18 0 34 5 56 15l14 -67c-37 -15 -72 -27 -117 -27c-54 0 -85 27 -85 70c0 51 35 96 78 130h-262l148 695h396z" />
    <glyph glyph-name="eogonek" unicode="&#x119;" horiz-adv-x="514" 
d="M502 383c0 -97 -89 -176 -259 -176c-31 0 -56 6 -61 7c-1 -7 -5 -34 -5 -46c0 -58 30 -82 86 -82c46 0 94 20 142 54l34 -84c-16 -11 -33 -20 -48 -29c-37 -21 -108 -75 -108 -123c0 -14 7 -25 26 -25c18 0 34 5 56 15l14 -67c-37 -15 -73 -27 -118 -27
c-53 0 -85 26 -85 69s25 83 63 117h-8c-122 0 -194 64 -194 188c0 106 47 215 115 281c51 49 108 68 176 68c101 0 174 -40 174 -140zM367 372c0 31 -14 53 -54 53c-51 0 -89 -30 -109 -119c4 -1 22 -5 38 -5c58 0 125 20 125 71z" />
    <glyph glyph-name="Ecaron" unicode="&#x11a;" horiz-adv-x="495" 
d="M569 695l-43 -114h-236l-34 -161h197l-24 -114h-196l-39 -186h262l-26 -120h-405l148 695h396zM573 852l-208 -135l-156 135l55 73l123 -76l152 76z" />
    <glyph glyph-name="ecaron" unicode="&#x11b;" horiz-adv-x="514" 
d="M502 383c0 -97 -89 -176 -259 -176c-29 0 -55 5 -61 7c-2 -11 -5 -35 -5 -46c0 -58 30 -82 86 -82c46 0 94 20 142 54l34 -84c-69 -48 -136 -70 -208 -70c-122 0 -194 64 -194 188c0 106 47 215 115 281c51 49 108 68 176 68c101 0 174 -40 174 -140zM367 372
c0 31 -14 53 -54 53c-51 0 -89 -30 -109 -119c4 -1 22 -5 38 -5c58 0 125 20 125 71zM534 689l-208 -135l-156 135l55 73l123 -76l152 76z" />
    <glyph glyph-name="Gcircumflex" unicode="&#x11c;" horiz-adv-x="666" 
d="M664 626l-90 -85c-38 37 -83 52 -136 52c-41 0 -81 -14 -109 -37c-80 -63 -119 -246 -119 -330c0 -91 45 -129 125 -129c31 0 57 5 82 17l34 158h-103v114h272l-72 -336c-79 -42 -161 -58 -243 -58c-162 0 -248 96 -248 240c0 159 72 310 162 385c82 68 150 89 241 89
c84 0 154 -27 204 -80zM657 788l-54 -73l-123 78l-151 -78l-36 73l209 135z" />
    <glyph glyph-name="gcircumflex" unicode="&#x11d;" horiz-adv-x="556" 
d="M537 488c-3 -9 -14 -46 -19 -68l-57 -263c-22 -102 -26 -151 -36 -197c-30 -138 -153 -179 -273 -179c-68 0 -133 18 -179 46l46 90c35 -23 85 -36 144 -36c73 0 117 35 129 88c4 18 10 45 15 61c-31 -27 -72 -43 -111 -43c-113 0 -159 57 -159 176c0 101 39 218 111 287
c47 44 111 73 186 73c87 0 145 -9 203 -35zM380 405c-11 8 -32 12 -56 12c-26 0 -67 -20 -85 -44c-38 -50 -61 -142 -61 -206c0 -49 19 -78 54 -78s78 40 93 68zM535 625l-54 -73l-123 78l-151 -78l-36 73l209 135z" />
    <glyph glyph-name="Gbreve" unicode="&#x11e;" horiz-adv-x="666" 
d="M664 626l-90 -85c-38 37 -83 52 -136 52c-41 0 -81 -14 -109 -37c-80 -63 -119 -246 -119 -330c0 -91 45 -129 125 -129c31 0 57 5 82 17l34 158h-103v114h272l-72 -336c-79 -42 -161 -58 -243 -58c-162 0 -248 96 -248 240c0 159 72 310 162 385c82 68 150 89 241 89
c84 0 154 -27 204 -80zM672 851c-19 -21 -131 -129 -217 -129c-87 0 -154 108 -165 129l52 49c16 -19 69 -73 140 -73c60 0 146 58 167 73z" />
    <glyph glyph-name="gbreve" unicode="&#x11f;" horiz-adv-x="556" 
d="M537 488c-3 -9 -14 -46 -19 -68l-57 -263c-22 -102 -26 -151 -36 -197c-30 -138 -153 -179 -273 -179c-68 0 -133 18 -179 46l46 90c35 -23 85 -36 144 -36c73 0 117 35 129 88c4 18 10 45 15 61c-31 -27 -72 -43 -111 -43c-113 0 -159 57 -159 176c0 101 39 218 111 287
c47 44 111 73 186 73c87 0 145 -9 203 -35zM380 405c-11 8 -32 12 -56 12c-26 0 -67 -20 -85 -44c-38 -50 -61 -142 -61 -206c0 -49 19 -78 54 -78s78 40 93 68zM568 684c-19 -21 -131 -129 -217 -129c-87 0 -154 108 -165 129l52 49c16 -19 69 -73 140 -73
c60 0 146 58 167 73z" />
    <glyph glyph-name="Gdotaccent" unicode="&#x120;" horiz-adv-x="666" 
d="M664 626l-90 -85c-38 37 -83 52 -136 52c-41 0 -81 -14 -109 -37c-80 -63 -119 -246 -119 -330c0 -91 45 -129 125 -129c31 0 57 5 82 17l34 158h-103v114h272l-72 -336c-79 -42 -161 -58 -243 -58c-162 0 -248 96 -248 240c0 159 72 310 162 385c82 68 150 89 241 89
c84 0 154 -27 204 -80zM565 806c0 -46 -37 -83 -83 -83c-45 0 -82 37 -82 83s38 83 84 83c45 0 81 -37 81 -83z" />
    <glyph glyph-name="gdotaccent" unicode="&#x121;" horiz-adv-x="556" 
d="M537 488c-3 -9 -14 -46 -19 -68l-57 -263c-22 -102 -26 -151 -36 -197c-30 -138 -153 -179 -273 -179c-68 0 -133 18 -179 46l46 90c35 -23 85 -36 144 -36c73 0 117 35 129 88c4 18 10 45 15 61c-31 -27 -72 -43 -111 -43c-113 0 -159 57 -159 176c0 101 39 218 111 287
c47 44 111 73 186 73c87 0 145 -9 203 -35zM380 405c-11 8 -32 12 -56 12c-26 0 -67 -20 -85 -44c-38 -50 -61 -142 -61 -206c0 -49 19 -78 54 -78s78 40 93 68zM431 653c0 -46 -37 -83 -83 -83c-45 0 -82 37 -82 83s38 83 84 83c45 0 81 -37 81 -83z" />
    <glyph glyph-name="uni0122" unicode="&#x122;" horiz-adv-x="666" 
d="M664 626l-90 -85c-38 37 -83 52 -136 52c-41 0 -81 -14 -109 -37c-80 -63 -119 -246 -119 -330c0 -91 45 -129 125 -129c31 0 57 5 82 17l34 158h-103v114h272l-72 -336c-79 -42 -161 -58 -243 -58c-162 0 -248 96 -248 240c0 159 72 310 162 385c82 68 150 89 241 89
c84 0 154 -27 204 -80zM378 -124c0 -45 -26 -85 -66 -116c-29 -22 -64 -38 -98 -48l-31 47c26 8 66 28 70 55c-9 16 -37 20 -37 65c0 40 30 77 86 77c47 0 76 -37 76 -80z" />
    <glyph glyph-name="uni0123" unicode="&#x123;" horiz-adv-x="556" 
d="M537 488c-3 -9 -14 -46 -19 -68l-57 -263c-22 -102 -26 -151 -36 -197c-30 -138 -153 -179 -273 -179c-68 0 -133 18 -179 46l46 90c35 -23 85 -36 144 -36c73 0 117 35 129 88c4 18 10 45 15 61c-31 -27 -72 -43 -111 -43c-113 0 -159 57 -159 176c0 101 39 218 111 287
c47 44 111 73 186 73c87 0 145 -9 203 -35zM380 405c-11 8 -32 12 -56 12c-26 0 -67 -20 -85 -44c-38 -50 -61 -142 -61 -206c0 -49 19 -78 54 -78s78 40 93 68zM269 648c0 45 26 85 66 116c29 22 64 38 98 48l31 -47c-26 -8 -66 -28 -70 -55c9 -16 37 -20 37 -65
c0 -40 -30 -77 -86 -77c-47 0 -76 37 -76 80z" />
    <glyph glyph-name="Hcircumflex" unicode="&#x124;" horiz-adv-x="633" 
d="M654 695l-148 -695h-142l66 310h-200l-66 -310h-139l148 695h139l-58 -270h200l58 270h142zM603 788l-54 -73l-123 78l-151 -78l-36 73l209 135z" />
    <glyph glyph-name="hcircumflex" unicode="&#x125;" horiz-adv-x="572" 
d="M535 423c0 -16 -2 -34 -9 -65l-76 -358h-131l73 344c3 13 4 24 4 33c0 27 -13 37 -41 37c-36 0 -93 -39 -126 -81l-71 -333h-133l120 561c11 50 15 82 15 107c0 14 -2 25 -4 35l135 43c3 -9 5 -24 5 -43c0 -31 -4 -71 -11 -104l-18 -85c-3 -16 -12 -51 -17 -62
c39 43 103 74 166 74c81 0 119 -37 119 -103zM440 794l-54 -73l-123 78l-151 -78l-36 73l209 135z" />
    <glyph glyph-name="Hbar" unicode="&#x126;" horiz-adv-x="633" 
d="M655 695l-19 -88h73l-26 -113h-71l-105 -494h-142l66 310h-200l-66 -310h-139l105 494h-71l26 113h69l19 88h139l-19 -88h200l19 88h142zM255 425h200l15 69h-200z" />
    <glyph glyph-name="hbar" unicode="&#x127;" horiz-adv-x="572" 
d="M535 423c0 -16 -2 -34 -9 -65l-76 -358h-131l73 344c3 13 4 24 4 33c0 27 -13 37 -41 37c-36 0 -93 -39 -126 -81l-71 -333h-133l120 561l5 23h-45l17 78h38v6c0 14 -2 25 -4 35l135 43c3 -9 5 -24 5 -43c0 -13 -1 -27 -2 -41h162l-17 -78h-157l-15 -70
c-3 -16 -12 -51 -17 -62c39 43 103 74 166 74c81 0 119 -37 119 -103z" />
    <glyph glyph-name="Itilde" unicode="&#x128;" horiz-adv-x="297" 
d="M318 695l-148 -695h-145l148 695h145zM441 805c-42 -41 -79 -67 -138 -67c-53 0 -70 40 -122 40c-32 0 -50 -15 -75 -37l-33 75c42 41 78 66 130 66c55 0 72 -40 130 -40c32 0 49 13 75 35z" />
    <glyph glyph-name="itilde" unicode="&#x129;" horiz-adv-x="280" 
d="M270 524l-111 -524h-134l107 503zM402 645c-42 -41 -79 -67 -138 -67c-53 0 -70 40 -122 40c-32 0 -50 -15 -75 -37l-33 75c42 41 78 66 130 66c55 0 72 -40 130 -40c32 0 49 13 75 35z" />
    <glyph glyph-name="Imacron" unicode="&#x12a;" horiz-adv-x="297" 
d="M318 695l-148 -695h-145l148 695h145zM425 826l-16 -78h-314l16 78h314z" />
    <glyph glyph-name="imacron" unicode="&#x12b;" horiz-adv-x="280" 
d="M270 524l-111 -524h-134l107 503zM383 682l-19 -92h-294l19 92h294z" />
    <glyph glyph-name="Ibreve" unicode="&#x12c;" horiz-adv-x="297" 
d="M318 695l-148 -695h-145l148 695h145zM465 851c-19 -21 -131 -129 -217 -129c-87 0 -154 108 -165 129l52 49c16 -19 69 -73 140 -73c60 0 146 58 167 73z" />
    <glyph glyph-name="ibreve" unicode="&#x12d;" horiz-adv-x="280" 
d="M270 524l-111 -524h-134l107 503zM429 684c-19 -21 -131 -129 -217 -129c-87 0 -154 108 -165 129l52 49c16 -19 69 -73 140 -73c60 0 146 58 167 73z" />
    <glyph glyph-name="Iogonek" unicode="&#x12e;" horiz-adv-x="297" 
d="M318 695l-148 -695h-2c-52 0 -114 -49 -114 -96c0 -14 7 -25 26 -25c18 0 34 5 56 15l14 -67c-37 -15 -73 -27 -118 -27c-54 0 -84 27 -84 70c0 54 40 101 77 130l148 695h145z" />
    <glyph glyph-name="iogonek" unicode="&#x12f;" horiz-adv-x="280" 
d="M271 524l-111 -524c-43 0 -106 -49 -106 -96c0 -14 7 -25 26 -25c18 0 34 5 56 15l14 -67c-37 -15 -73 -27 -118 -27c-54 0 -84 27 -84 70c0 56 40 102 78 131l107 502zM315 653c0 -46 -37 -83 -83 -83c-45 0 -82 37 -82 83s38 83 84 83c45 0 81 -37 81 -83z" />
    <glyph glyph-name="Idotaccent" unicode="&#x130;" horiz-adv-x="297" 
d="M318 695l-148 -695h-145l148 695h145zM344 806c0 -46 -37 -83 -83 -83c-45 0 -82 37 -82 83s38 83 84 83c45 0 81 -37 81 -83z" />
    <glyph glyph-name="dotlessi" unicode="&#x131;" horiz-adv-x="280" 
d="M270 524l-111 -524h-134l107 503z" />
    <glyph glyph-name="Jcircumflex" unicode="&#x134;" horiz-adv-x="297" 
d="M318 695l-119 -560c-19 -90 -26 -108 -39 -136c-38 -85 -133 -142 -201 -166l-49 75c41 22 81 56 99 84c17 25 26 53 42 128l122 575h145zM443 788l-54 -73l-123 78l-151 -78l-36 73l209 135z" />
    <glyph glyph-name="jcircumflex" unicode="&#x135;" horiz-adv-x="268" 
d="M260 524l-108 -510c-21 -97 -49 -136 -72 -159c-30 -31 -70 -56 -120 -75l-42 78c23 9 49 36 63 54c17 22 27 50 37 98l105 493zM396 625l-54 -73l-123 78l-151 -78l-36 73l209 135z" />
    <glyph glyph-name="uni0136" unicode="&#x136;" horiz-adv-x="600" 
d="M686 695l-294 -327l168 -368h-178l-137 363l-77 -363h-143l148 695h143l-68 -317l263 317h175zM342 -124c0 -45 -26 -85 -66 -116c-29 -22 -64 -38 -98 -48l-31 47c26 8 66 28 70 55c-9 16 -37 20 -37 65c0 40 30 77 86 77c47 0 76 -37 76 -80z" />
    <glyph glyph-name="uni0137" unicode="&#x137;" horiz-adv-x="515" 
d="M294 746c2 -8 4 -21 4 -38c0 -33 -6 -84 -21 -155l-118 -553h-134l120 562c10 45 14 78 14 104c0 14 -1 27 -4 37zM563 512l-209 -222l138 -290h-158l-110 290l173 222h166zM309 -124c0 -45 -26 -85 -66 -116c-29 -22 -64 -38 -98 -48l-31 47c26 8 66 28 70 55
c-9 16 -37 20 -37 65c0 40 30 77 86 77c47 0 76 -37 76 -80z" />
    <glyph glyph-name="kgreenlandic" unicode="&#x138;" horiz-adv-x="515" 
d="M254 558c2 -8 4 -21 4 -38c0 -33 -6 -84 -21 -155l-78 -365h-134l80 374c10 45 14 78 14 104c0 14 -1 27 -4 37zM563 512l-209 -222l138 -290h-158l-110 290l173 222h166z" />
    <glyph glyph-name="Lacute" unicode="&#x139;" horiz-adv-x="472" 
d="M442 116l-50 -116h-367l148 695h143l-123 -579h249zM420 820l-239 -103l-40 75l231 133z" />
    <glyph glyph-name="lacute" unicode="&#x13a;" horiz-adv-x="282" 
d="M290 746c1 -8 2 -22 2 -39c0 -33 -3 -78 -12 -120l-81 -379c-13 -60 -17 -85 -17 -99c0 -19 8 -29 26 -29c5 0 10 0 15 2l6 -80c-24 -9 -54 -14 -83 -14c-72 0 -106 39 -106 92c0 18 7 56 15 93l81 382c10 46 16 83 16 112c0 13 -1 25 -4 36zM375 835l-239 -103l-40 75
l231 133z" />
    <glyph glyph-name="uni013B" unicode="&#x13b;" horiz-adv-x="472" 
d="M442 116l-50 -116h-367l148 695h143l-123 -579h249zM277 -124c0 -45 -26 -85 -66 -116c-29 -22 -64 -38 -98 -48l-31 47c26 8 66 28 70 55c-9 16 -37 20 -37 65c0 40 30 77 86 77c47 0 76 -37 76 -80z" />
    <glyph glyph-name="uni013C" unicode="&#x13c;" horiz-adv-x="282" 
d="M290 746c1 -8 2 -22 2 -39c0 -33 -3 -78 -12 -120l-81 -379c-13 -60 -17 -85 -17 -99c0 -19 8 -29 26 -29c5 0 10 0 15 2l6 -80c-24 -9 -54 -14 -83 -14c-72 0 -106 39 -106 92c0 18 7 56 15 93l81 382c10 46 16 83 16 112c0 13 -1 25 -4 36zM188 -124
c0 -45 -26 -85 -66 -116c-29 -22 -64 -38 -98 -48l-31 47c26 8 66 28 70 55c-9 16 -37 20 -37 65c0 40 30 77 86 77c47 0 76 -37 76 -80z" />
    <glyph glyph-name="Lcaron" unicode="&#x13d;" horiz-adv-x="472" 
d="M442 116l-50 -116h-367l148 695h143l-123 -579h249zM533 616c0 -45 -26 -85 -66 -116c-29 -22 -64 -38 -98 -48l-31 47c26 8 66 28 70 55c-9 16 -37 20 -37 65c0 40 30 77 86 77c47 0 76 -37 76 -80z" />
    <glyph glyph-name="lcaron" unicode="&#x13e;" horiz-adv-x="282" 
d="M290 746c1 -8 2 -22 2 -39c0 -33 -3 -78 -12 -120l-81 -379c-13 -60 -17 -85 -17 -99c0 -19 8 -29 26 -29c5 0 10 0 15 2l6 -80c-24 -9 -54 -14 -83 -14c-72 0 -106 39 -106 92c0 18 7 56 15 93l81 382c10 46 16 83 16 112c0 13 -1 25 -4 36zM500 661
c0 -45 -26 -85 -66 -116c-29 -22 -64 -38 -98 -48l-31 47c26 8 66 28 70 55c-9 16 -37 20 -37 65c0 40 30 77 86 77c47 0 76 -37 76 -80z" />
    <glyph glyph-name="Ldot" unicode="&#x13f;" horiz-adv-x="472" 
d="M442 116l-50 -116h-367l148 695h143l-123 -579h249zM492 396c0 -46 -37 -83 -83 -83c-45 0 -82 37 -82 83s38 83 84 83c45 0 81 -37 81 -83z" />
    <glyph glyph-name="ldot" unicode="&#x140;" horiz-adv-x="358" 
d="M290 746c1 -8 2 -22 2 -39c0 -33 -3 -78 -12 -120l-81 -379c-13 -60 -17 -85 -17 -99c0 -19 8 -29 26 -29c5 0 10 0 15 2l6 -80c-24 -9 -54 -14 -83 -14c-72 0 -106 39 -106 92c0 18 7 56 15 93l81 382c10 46 16 83 16 112c0 13 -1 25 -4 36zM425 363
c0 -46 -37 -83 -83 -83c-45 0 -82 37 -82 83s38 83 84 83c45 0 81 -37 81 -83z" />
    <glyph glyph-name="Lslash" unicode="&#x141;" horiz-adv-x="472" 
d="M442 116l-50 -116h-367l63 294l-60 -18l19 92l60 18l66 309h143l-56 -262l158 48l-19 -92l-158 -48l-48 -225h249z" />
    <glyph glyph-name="lslash" unicode="&#x142;" horiz-adv-x="282" 
d="M303 443l-20 -92l-57 -18l-27 -125c-13 -60 -17 -85 -17 -99c0 -19 8 -29 26 -29c5 0 10 0 15 2l6 -80c-24 -9 -54 -14 -83 -14c-72 0 -106 39 -106 92c0 18 7 56 15 93l24 114l-43 -14l19 92l44 14l37 176c10 46 16 83 16 112c0 13 -1 25 -4 36l142 43c1 -8 2 -22 2 -39
c0 -33 -3 -78 -12 -120l-35 -162z" />
    <glyph glyph-name="Nacute" unicode="&#x143;" horiz-adv-x="635" 
d="M656 695l-148 -695h-144l-62 266c-20 87 -44 187 -48 230c-7 -57 -23 -141 -35 -199l-59 -297h-135l148 695h153l74 -278c20 -74 32 -150 36 -200c6 54 19 147 29 194l58 284h133zM587 820l-239 -103l-40 75l231 133z" />
    <glyph glyph-name="nacute" unicode="&#x144;" horiz-adv-x="551" 
d="M511 422c0 -22 -3 -50 -8 -72l-74 -350h-132l71 333c4 20 7 35 7 46c0 25 -11 32 -35 32c-32 0 -70 -20 -112 -77l-71 -334h-132l73 345c6 27 9 52 9 74c0 23 -3 43 -9 61l124 49c9 -17 15 -61 13 -83c43 46 98 77 173 77c65 0 103 -39 103 -101zM485 657l-239 -103
l-40 75l231 133z" />
    <glyph glyph-name="uni0145" unicode="&#x145;" horiz-adv-x="635" 
d="M656 695l-148 -695h-144l-62 266c-20 87 -44 187 -48 230c-7 -57 -23 -141 -35 -199l-59 -297h-135l148 695h153l74 -278c20 -74 32 -150 36 -200c6 54 19 147 29 194l58 284h133zM343 -123c0 -45 -26 -85 -66 -116c-29 -22 -64 -38 -98 -48l-31 47c26 8 66 28 70 55
c-9 16 -37 20 -37 65c0 40 30 77 86 77c47 0 76 -37 76 -80z" />
    <glyph glyph-name="uni0146" unicode="&#x146;" horiz-adv-x="551" 
d="M511 422c0 -22 -3 -50 -8 -72l-74 -350h-132l71 333c4 20 7 35 7 46c0 25 -11 32 -35 32c-32 0 -70 -20 -112 -77l-71 -334h-132l73 345c6 27 9 52 9 74c0 23 -3 43 -9 61l124 49c9 -17 15 -61 13 -83c43 46 98 77 173 77c65 0 103 -39 103 -101zM299 -124
c0 -45 -26 -85 -66 -116c-29 -22 -64 -38 -98 -48l-31 47c26 8 66 28 70 55c-9 16 -37 20 -37 65c0 40 30 77 86 77c47 0 76 -37 76 -80z" />
    <glyph glyph-name="Ncaron" unicode="&#x147;" horiz-adv-x="635" 
d="M656 695l-148 -695h-144l-62 266c-20 87 -44 187 -48 230c-7 -57 -23 -141 -35 -199l-59 -297h-135l148 695h153l74 -278c20 -74 32 -150 36 -200c6 54 19 147 29 194l58 284h133zM615 852l-208 -135l-156 135l55 73l123 -76l152 76z" />
    <glyph glyph-name="ncaron" unicode="&#x148;" horiz-adv-x="551" 
d="M511 422c0 -22 -3 -50 -8 -72l-74 -350h-132l71 333c4 20 7 35 7 46c0 25 -11 32 -35 32c-32 0 -70 -20 -112 -77l-71 -334h-132l73 345c6 27 9 52 9 74c0 23 -3 43 -9 61l124 49c9 -17 15 -61 13 -83c43 46 98 77 173 77c65 0 103 -39 103 -101zM522 689l-208 -135
l-156 135l55 73l123 -76l152 76z" />
    <glyph glyph-name="napostrophe" unicode="&#x149;" horiz-adv-x="551" 
d="M511 422c0 -22 -3 -50 -8 -72l-74 -350h-132l71 333c4 20 7 35 7 46c0 25 -11 32 -35 32c-32 0 -70 -20 -112 -77l-71 -334h-132l73 345c6 27 9 52 9 74c0 23 -3 43 -9 61l124 49c9 -17 15 -61 13 -83c43 46 98 77 173 77c65 0 103 -39 103 -101zM140 691
c0 -45 -26 -85 -66 -116c-29 -22 -64 -38 -98 -48l-31 47c26 8 66 28 70 55c-9 16 -37 20 -37 65c0 40 30 77 86 77c47 0 76 -37 76 -80z" />
    <glyph glyph-name="Eng" unicode="&#x14a;" horiz-adv-x="635" 
d="M656 695l-140 -661c-21 -97 -49 -136 -72 -159c-30 -31 -70 -56 -120 -75l-42 78c23 9 49 36 63 54c15 21 21 37 21 52c0 5 -1 11 -2 16l-62 266c-20 87 -44 187 -48 230c-7 -57 -23 -141 -35 -199l-59 -297h-135l148 695h153l74 -278c20 -74 32 -150 36 -200
c6 54 19 147 29 194l58 284h133z" />
    <glyph glyph-name="eng" unicode="&#x14b;" horiz-adv-x="551" 
d="M511 422c0 -22 -3 -50 -8 -72l-67 -316c-21 -97 -49 -136 -72 -159c-30 -31 -70 -56 -120 -75l-41 77c23 9 49 36 63 54c17 22 27 50 37 98l65 304c4 20 7 35 7 46c0 25 -11 32 -35 32c-32 0 -70 -20 -112 -77l-71 -334h-132l73 345c6 27 9 52 9 74c0 23 -3 43 -9 61
l124 49c9 -17 15 -61 13 -83c43 46 98 77 173 77c65 0 103 -39 103 -101z" />
    <glyph glyph-name="Omacron" unicode="&#x14c;" horiz-adv-x="694" 
d="M682 454c0 -175 -89 -365 -230 -432c-46 -22 -99 -33 -157 -33c-172 0 -238 104 -238 249c0 197 95 338 185 403c41 30 98 63 204 63c153 0 236 -95 236 -250zM525 483c0 68 -28 113 -104 113c-47 0 -93 -24 -121 -61c-55 -72 -92 -225 -92 -318c0 -89 38 -121 108 -121
c40 0 81 13 113 52c60 74 96 239 96 335zM622 826l-16 -78h-314l16 78h314z" />
    <glyph glyph-name="omacron" unicode="&#x14d;" horiz-adv-x="546" 
d="M512 347c0 -180 -96 -358 -299 -358c-116 0 -182 64 -182 181c0 193 119 352 295 352c115 0 186 -63 186 -175zM368 347c0 59 -22 76 -62 76c-90 0 -133 -188 -133 -266c0 -49 25 -71 63 -71c86 0 132 161 132 261zM493 681l-19 -92h-294l19 92h294z" />
    <glyph glyph-name="Obreve" unicode="&#x14e;" horiz-adv-x="694" 
d="M682 454c0 -175 -89 -365 -230 -432c-46 -22 -99 -33 -157 -33c-172 0 -238 104 -238 249c0 197 95 338 185 403c41 30 98 63 204 63c153 0 236 -95 236 -250zM525 483c0 68 -28 113 -104 113c-47 0 -93 -24 -121 -61c-55 -72 -92 -225 -92 -318c0 -89 38 -121 108 -121
c40 0 81 13 113 52c60 74 96 239 96 335zM653 851c-19 -21 -131 -129 -217 -129c-87 0 -154 108 -165 129l52 49c16 -19 69 -73 140 -73c60 0 146 58 167 73z" />
    <glyph glyph-name="obreve" unicode="&#x14f;" horiz-adv-x="546" 
d="M512 347c0 -180 -96 -358 -299 -358c-116 0 -182 64 -182 181c0 193 119 352 295 352c115 0 186 -63 186 -175zM368 347c0 59 -22 76 -62 76c-90 0 -133 -188 -133 -266c0 -49 25 -71 63 -71c86 0 132 161 132 261zM538 684c-19 -21 -131 -129 -217 -129
c-87 0 -154 108 -165 129l52 49c16 -19 69 -73 140 -73c60 0 146 58 167 73z" />
    <glyph glyph-name="Ohungarumlaut" unicode="&#x150;" horiz-adv-x="694" 
d="M682 454c0 -175 -89 -365 -230 -432c-46 -22 -99 -33 -157 -33c-172 0 -238 104 -238 249c0 197 95 338 185 403c41 30 98 63 204 63c153 0 236 -95 236 -250zM525 483c0 68 -28 113 -104 113c-47 0 -93 -24 -121 -61c-55 -72 -92 -225 -92 -318c0 -89 38 -121 108 -121
c40 0 81 13 113 52c60 74 96 239 96 335zM570 906l-195 -189l-64 45l165 205zM812 884l-217 -164l-54 55l193 185z" />
    <glyph glyph-name="ohungarumlaut" unicode="&#x151;" horiz-adv-x="546" 
d="M512 347c0 -180 -96 -358 -299 -358c-116 0 -182 64 -182 181c0 193 119 352 295 352c115 0 186 -63 186 -175zM368 347c0 59 -22 76 -62 76c-90 0 -133 -188 -133 -266c0 -49 25 -71 63 -71c86 0 132 161 132 261zM407 771l-163 -217l-70 34l131 229zM630 753l-189 -196
l-62 46l162 213z" />
    <glyph glyph-name="OE" unicode="&#x152;" horiz-adv-x="834" 
d="M908 695l-43 -114h-237l-34 -161h198l-24 -114h-198l-39 -186h268l-26 -120h-408c-147 0 -204 6 -258 72c-33 41 -50 94 -50 160c0 127 46 262 135 354c54 57 122 87 190 100c27 5 65 9 129 9h397zM493 566c-7 2 -40 10 -73 10c-49 0 -88 -19 -118 -58
c-48 -63 -79 -205 -79 -286c0 -73 27 -123 109 -123c29 0 59 8 66 10z" />
    <glyph glyph-name="oe" unicode="&#x153;" horiz-adv-x="815" 
d="M803 379c0 -44 -24 -83 -57 -114c-40 -38 -118 -58 -202 -58c-24 0 -46 3 -61 7c-3 -23 -5 -34 -5 -46c0 -58 30 -82 86 -82c46 0 94 20 142 54l34 -84c-69 -48 -136 -70 -208 -70c-69 0 -120 21 -152 62c-44 -36 -97 -59 -167 -59c-116 0 -182 70 -182 184
c0 193 119 349 295 349c63 0 111 -19 143 -55c48 38 98 56 160 56c96 0 174 -32 174 -144zM368 347c0 59 -22 76 -62 76c-90 0 -133 -188 -133 -266c0 -49 25 -71 63 -71c86 0 132 161 132 261zM668 372c0 31 -14 53 -54 53c-51 0 -89 -30 -109 -119c4 -1 22 -5 38 -5
c58 0 125 20 125 71z" />
    <glyph glyph-name="Racute" unicode="&#x154;" horiz-adv-x="576" 
d="M598 543c0 -137 -94 -225 -200 -243c12 -8 23 -24 30 -35c29 -52 90 -224 104 -265h-165l-36 113c-41 128 -63 162 -86 173c-6 3 -12 4 -17 4l-62 -290h-141l148 695h259c105 0 166 -59 166 -152zM448 515c0 48 -31 68 -89 68h-69l-40 -188h43c60 0 87 6 110 24
c27 21 45 65 45 96zM532 820l-239 -103l-40 75l231 133z" />
    <glyph glyph-name="racute" unicode="&#x155;" horiz-adv-x="368" 
d="M423 513l-58 -118c-12 7 -24 10 -39 10c-26 0 -55 -15 -97 -70l-71 -335h-134l72 338c14 64 12 109 2 142l124 49c8 -17 16 -54 12 -83c45 46 93 78 143 78c19 0 28 -2 46 -11zM414 657l-239 -103l-40 75l231 133z" />
    <glyph glyph-name="uni0156" unicode="&#x156;" horiz-adv-x="576" 
d="M598 543c0 -137 -94 -225 -200 -243c12 -8 23 -24 30 -35c29 -52 90 -224 104 -265h-165l-36 113c-41 128 -63 162 -86 173c-6 3 -12 4 -17 4l-62 -290h-141l148 695h259c105 0 166 -59 166 -152zM448 515c0 48 -31 68 -89 68h-69l-40 -188h43c60 0 87 6 110 24
c27 21 45 65 45 96zM333 -124c0 -45 -26 -85 -66 -116c-29 -22 -64 -38 -98 -48l-31 47c26 8 66 28 70 55c-9 16 -37 20 -37 65c0 40 30 77 86 77c47 0 76 -37 76 -80z" />
    <glyph glyph-name="uni0157" unicode="&#x157;" horiz-adv-x="368" 
d="M423 513l-58 -118c-12 7 -24 10 -39 10c-26 0 -55 -15 -97 -70l-71 -335h-134l72 338c14 64 12 109 2 142l124 49c8 -17 16 -54 12 -83c45 46 93 78 143 78c19 0 28 -2 46 -11zM162 -124c0 -45 -26 -85 -66 -116c-29 -22 -64 -38 -98 -48l-31 47c26 8 66 28 70 55
c-9 16 -37 20 -37 65c0 40 30 77 86 77c47 0 76 -37 76 -80z" />
    <glyph glyph-name="Rcaron" unicode="&#x158;" horiz-adv-x="576" 
d="M598 543c0 -137 -94 -225 -200 -243c12 -8 23 -24 30 -35c29 -52 90 -224 104 -265h-165l-36 113c-41 128 -63 162 -86 173c-6 3 -12 4 -17 4l-62 -290h-141l148 695h259c105 0 166 -59 166 -152zM448 515c0 48 -31 68 -89 68h-69l-40 -188h43c60 0 87 6 110 24
c27 21 45 65 45 96zM577 852l-208 -135l-156 135l55 73l123 -76l152 76z" />
    <glyph glyph-name="rcaron" unicode="&#x159;" horiz-adv-x="368" 
d="M423 513l-58 -118c-12 7 -24 10 -39 10c-26 0 -55 -15 -97 -70l-71 -335h-134l72 338c14 64 12 109 2 142l124 49c8 -17 16 -54 12 -83c45 46 93 78 143 78c19 0 28 -2 46 -11zM467 689l-208 -135l-156 135l55 73l123 -76l152 76z" />
    <glyph glyph-name="Sacute" unicode="&#x15a;" horiz-adv-x="612" 
d="M634 646l-84 -96c-45 34 -94 49 -154 49c-63 0 -116 -40 -116 -88c0 -28 18 -50 64 -67l80 -30c89 -33 137 -85 137 -164c0 -151 -129 -265 -337 -265c-98 0 -171 26 -229 63l74 107c58 -34 110 -54 180 -54c88 0 145 46 145 115c0 35 -24 57 -74 75l-73 27
c-78 29 -127 73 -127 154c0 140 132 244 297 244c85 0 166 -26 217 -70zM566 820l-239 -103l-40 75l231 133z" />
    <glyph glyph-name="sacute" unicode="&#x15b;" horiz-adv-x="484" 
d="M469 480l-53 -90c-45 26 -87 35 -125 35c-44 0 -76 -16 -76 -53c0 -23 17 -38 54 -51l58 -21c51 -18 102 -58 102 -124c0 -102 -80 -192 -247 -192c-75 0 -141 23 -199 57l54 98c40 -28 107 -53 165 -53c44 0 79 30 79 64c0 26 -22 37 -65 52l-57 20
c-53 19 -94 59 -94 129c0 88 67 175 235 175c67 0 127 -20 169 -46zM462 657l-239 -103l-40 75l231 133z" />
    <glyph glyph-name="Scircumflex" unicode="&#x15c;" horiz-adv-x="612" 
d="M634 646l-84 -96c-45 34 -94 49 -154 49c-63 0 -116 -40 -116 -88c0 -28 18 -50 64 -67l80 -30c89 -33 137 -85 137 -164c0 -151 -129 -265 -337 -265c-98 0 -171 26 -229 63l74 107c58 -34 110 -54 180 -54c88 0 145 46 145 115c0 35 -24 57 -74 75l-73 27
c-78 29 -127 73 -127 154c0 140 132 244 297 244c85 0 166 -26 217 -70zM604 788l-54 -73l-123 78l-151 -78l-36 73l209 135z" />
    <glyph glyph-name="scircumflex" unicode="&#x15d;" horiz-adv-x="484" 
d="M469 480l-53 -90c-45 26 -87 35 -125 35c-44 0 -76 -16 -76 -53c0 -23 17 -38 54 -51l58 -21c51 -18 102 -58 102 -124c0 -102 -80 -192 -247 -192c-75 0 -141 23 -199 57l54 98c40 -28 107 -53 165 -53c44 0 79 30 79 64c0 26 -22 37 -65 52l-57 20
c-53 19 -94 59 -94 129c0 88 67 175 235 175c67 0 127 -20 169 -46zM488 625l-54 -73l-123 78l-151 -78l-36 73l209 135z" />
    <glyph glyph-name="Scedilla" unicode="&#x15e;" horiz-adv-x="612" 
d="M634 646l-84 -96c-45 34 -94 49 -154 49c-63 0 -116 -40 -116 -88c0 -28 18 -50 64 -67l80 -30c89 -33 137 -85 137 -164c0 -141 -112 -249 -295 -263l-11 -19c41 -4 56 -31 56 -61c0 -56 -48 -106 -128 -106c-30 0 -65 13 -82 24l41 62c21 -10 33 -14 51 -14
c16 0 31 8 31 22c0 9 -6 16 -23 16c-11 0 -19 -4 -28 -6l-9 20l30 61c-83 5 -147 29 -199 62l74 107c58 -34 110 -54 180 -54c88 0 145 46 145 115c0 35 -24 57 -74 75l-73 27c-78 29 -127 73 -127 154c0 140 132 244 297 244c85 0 166 -26 217 -70z" />
    <glyph glyph-name="scedilla" unicode="&#x15f;" horiz-adv-x="484" 
d="M469 480l-53 -90c-45 26 -87 35 -125 35c-44 0 -76 -16 -76 -53c0 -23 17 -38 54 -51l58 -21c51 -18 102 -58 102 -124c0 -98 -75 -186 -229 -192l-9 -16c41 -4 56 -31 56 -61c0 -56 -48 -106 -128 -106c-30 0 -65 13 -82 24l41 62c20 -10 34 -14 51 -14c16 0 31 8 31 22
c0 9 -6 16 -23 16c-11 0 -19 -4 -28 -6l-9 20l31 63c-54 8 -104 27 -148 53l54 98c40 -28 107 -53 165 -53c44 0 79 30 79 64c0 26 -22 37 -65 52l-57 20c-53 19 -94 59 -94 129c0 88 67 175 235 175c67 0 127 -20 169 -46z" />
    <glyph glyph-name="Scaron" unicode="&#x160;" horiz-adv-x="612" 
d="M634 646l-84 -96c-45 34 -94 49 -154 49c-63 0 -116 -40 -116 -88c0 -28 18 -50 64 -67l80 -30c89 -33 137 -85 137 -164c0 -151 -129 -265 -337 -265c-98 0 -171 26 -229 63l74 107c58 -34 110 -54 180 -54c88 0 145 46 145 115c0 35 -24 57 -74 75l-73 27
c-78 29 -127 73 -127 154c0 140 132 244 297 244c85 0 166 -26 217 -70zM616 869l-208 -135l-156 135l55 73l123 -76l152 76z" />
    <glyph glyph-name="scaron" unicode="&#x161;" horiz-adv-x="484" 
d="M469 480l-53 -90c-45 26 -87 35 -125 35c-44 0 -76 -16 -76 -53c0 -23 17 -38 54 -51l58 -21c51 -18 102 -58 102 -124c0 -102 -80 -192 -247 -192c-75 0 -141 23 -199 57l54 98c40 -28 107 -53 165 -53c44 0 79 30 79 64c0 26 -22 37 -65 52l-57 20
c-53 19 -94 59 -94 129c0 88 67 175 235 175c67 0 127 -20 169 -46zM499 689l-208 -135l-156 135l55 73l123 -76l152 76z" />
    <glyph glyph-name="uni0162" unicode="&#x162;" horiz-adv-x="501" 
d="M281 -93c0 -56 -48 -106 -128 -106c-30 0 -65 13 -82 24l41 62c19 -9 31 -14 51 -14c16 0 31 8 31 22c0 9 -6 16 -23 16c-11 0 -19 -4 -28 -6l-9 20l37 75h-38l123 579h-170l25 116h501l-48 -116h-164l-123 -579h-34l-18 -32c41 -4 56 -31 56 -61z" />
    <glyph glyph-name="uni0163" unicode="&#x163;" horiz-adv-x="316" 
d="M247 -93c0 -56 -48 -106 -128 -106c-30 0 -65 13 -82 24l41 62c26 -12 35 -14 51 -14s31 8 31 22c0 9 -6 16 -23 16c-11 0 -19 -4 -28 -6l-9 20l32 66c-55 10 -85 43 -85 85c0 18 2 42 7 66l59 278h-51l20 92h51c10 50 17 83 31 121l141 34c-15 -47 -30 -103 -41 -155
h119l-48 -92h-89l-54 -257c-4 -17 -5 -33 -5 -45c0 -28 15 -37 45 -37c12 0 35 4 50 10v-81c-26 -10 -53 -17 -78 -20l-13 -22c41 -4 56 -31 56 -61z" />
    <glyph glyph-name="Tcaron" unicode="&#x164;" horiz-adv-x="501" 
d="M612 695l-48 -116h-164l-123 -579h-144l123 579h-170l25 116h501zM565 852l-208 -135l-156 135l55 73l123 -76l152 76z" />
    <glyph glyph-name="tcaron" unicode="&#x165;" horiz-adv-x="316" 
d="M383 512l-48 -92h-89l-54 -257c-4 -17 -5 -33 -5 -45c0 -28 15 -37 45 -37c12 0 35 4 50 10v-81c-39 -15 -79 -22 -114 -22c-77 0 -121 38 -121 88c0 18 2 42 7 66l59 278h-51l20 92h51c10 50 17 83 31 121l141 34c-15 -47 -30 -103 -41 -155h119zM518 705
c0 -45 -26 -85 -66 -116c-29 -22 -64 -38 -98 -48l-31 47c26 8 66 28 70 55c-9 16 -37 20 -37 65c0 40 30 77 86 77c47 0 76 -37 76 -80z" />
    <glyph glyph-name="Tbar" unicode="&#x166;" horiz-adv-x="501" 
d="M612 695l-48 -116h-164l-35 -163h110l-18 -87h-110l-70 -329h-144l70 329h-109l18 87h109l35 163h-170l25 116h501z" />
    <glyph glyph-name="tbar" unicode="&#x167;" horiz-adv-x="316" 
d="M383 512l-48 -92h-89l-25 -120h118l-48 -92h-90l-9 -45c-4 -17 -5 -33 -5 -45c0 -28 15 -37 45 -37c12 0 35 4 50 10v-81c-39 -15 -79 -22 -114 -22c-77 0 -121 38 -121 88c0 18 2 42 7 66l14 66h-50l20 92h49l26 120h-51l20 92h51c10 50 17 83 31 121l141 34
c-15 -47 -30 -103 -41 -155h119z" />
    <glyph glyph-name="Utilde" unicode="&#x168;" horiz-adv-x="644" 
d="M670 695l-100 -468c-19 -89 -35 -136 -89 -177c-43 -32 -94 -63 -209 -63c-135 0 -213 60 -213 150c0 23 3 50 8 74l103 484h143l-97 -457c-6 -26 -8 -47 -8 -63c0 -50 41 -68 87 -68c64 0 107 35 123 84c5 14 7 22 15 59l95 445h142zM605 805c-42 -41 -79 -67 -138 -67
c-53 0 -70 40 -122 40c-32 0 -50 -15 -75 -37l-33 75c42 41 78 66 130 66c55 0 72 -40 130 -40c32 0 49 13 75 35z" />
    <glyph glyph-name="utilde" unicode="&#x169;" horiz-adv-x="547" 
d="M530 524l-83 -391c-7 -34 -4 -80 11 -104l-116 -46c-12 18 -22 44 -24 68c-38 -35 -88 -64 -148 -64c-79 0 -125 40 -125 104c0 19 2 44 10 81l69 328l138 25l-70 -329c-6 -27 -10 -55 -10 -69c0 -22 16 -39 32 -39c41 0 90 44 110 76l71 333zM527 645
c-42 -41 -79 -67 -138 -67c-53 0 -70 40 -122 40c-32 0 -50 -15 -75 -37l-33 75c42 41 78 66 130 66c55 0 72 -40 130 -40c32 0 49 13 75 35z" />
    <glyph glyph-name="Umacron" unicode="&#x16a;" horiz-adv-x="644" 
d="M670 695l-100 -468c-19 -89 -35 -136 -89 -177c-43 -32 -94 -63 -209 -63c-135 0 -213 60 -213 150c0 23 3 50 8 74l103 484h143l-97 -457c-6 -26 -8 -47 -8 -63c0 -50 41 -68 87 -68c64 0 107 35 123 84c5 14 7 22 15 59l95 445h142zM601 826l-16 -78h-314l16 78h314z
" />
    <glyph glyph-name="umacron" unicode="&#x16b;" horiz-adv-x="547" 
d="M530 524l-83 -391c-7 -34 -4 -80 11 -104l-116 -46c-12 18 -22 44 -24 68c-38 -35 -88 -64 -148 -64c-79 0 -125 40 -125 104c0 19 2 44 10 81l69 328l138 25l-70 -329c-6 -27 -10 -55 -10 -69c0 -22 16 -39 32 -39c41 0 90 44 110 76l71 333zM509 714l-19 -92h-294
l19 92h294z" />
    <glyph glyph-name="Ubreve" unicode="&#x16c;" horiz-adv-x="644" 
d="M670 695l-100 -468c-19 -89 -35 -136 -89 -177c-43 -32 -94 -63 -209 -63c-135 0 -213 60 -213 150c0 23 3 50 8 74l103 484h143l-97 -457c-6 -26 -8 -47 -8 -63c0 -50 41 -68 87 -68c64 0 107 35 123 84c5 14 7 22 15 59l95 445h142zM626 851
c-19 -21 -131 -129 -217 -129c-87 0 -154 108 -165 129l52 49c16 -19 69 -73 140 -73c60 0 146 58 167 73z" />
    <glyph glyph-name="ubreve" unicode="&#x16d;" horiz-adv-x="547" 
d="M530 524l-83 -391c-7 -34 -4 -80 11 -104l-116 -46c-12 18 -22 44 -24 68c-38 -35 -88 -64 -148 -64c-79 0 -125 40 -125 104c0 19 2 44 10 81l69 328l138 25l-70 -329c-6 -27 -10 -55 -10 -69c0 -22 16 -39 32 -39c41 0 90 44 110 76l71 333zM551 684
c-19 -21 -131 -129 -217 -129c-87 0 -154 108 -165 129l52 49c16 -19 69 -73 140 -73c60 0 146 58 167 73z" />
    <glyph glyph-name="Uring" unicode="&#x16e;" horiz-adv-x="644" 
d="M670 695l-100 -468c-19 -89 -35 -136 -89 -177c-43 -32 -94 -63 -209 -63c-135 0 -213 60 -213 150c0 23 3 50 8 74l103 484h143l-97 -457c-6 -26 -8 -47 -8 -63c0 -50 41 -68 87 -68c64 0 107 35 123 84c5 14 7 22 15 59l95 445h142zM534 819c0 -58 -48 -106 -106 -106
c-57 0 -104 48 -104 106s49 106 106 106s104 -48 104 -106zM471 819c0 24 -18 43 -41 43c-25 0 -44 -19 -44 -43s19 -43 42 -43c24 0 43 19 43 43z" />
    <glyph glyph-name="uring" unicode="&#x16f;" horiz-adv-x="547" 
d="M530 524l-83 -391c-7 -34 -4 -80 11 -104l-116 -46c-12 18 -22 44 -24 68c-38 -35 -88 -64 -148 -64c-79 0 -125 40 -125 104c0 19 2 44 10 81l69 328l138 25l-70 -329c-6 -27 -10 -55 -10 -69c0 -22 16 -39 32 -39c41 0 90 44 110 76l71 333zM457 659
c0 -58 -48 -106 -106 -106c-57 0 -104 48 -104 106s49 106 106 106s104 -48 104 -106zM394 659c0 24 -18 43 -41 43c-25 0 -44 -19 -44 -43s19 -43 42 -43c24 0 43 19 43 43z" />
    <glyph glyph-name="Uhungarumlaut" unicode="&#x170;" horiz-adv-x="644" 
d="M670 695l-100 -468c-19 -89 -35 -136 -89 -177c-43 -32 -94 -63 -209 -63c-135 0 -213 60 -213 150c0 23 3 50 8 74l103 484h143l-97 -457c-6 -26 -8 -47 -8 -63c0 -50 41 -68 87 -68c64 0 107 35 123 84c5 14 7 22 15 59l95 445h142zM510 906l-195 -189l-64 45l165 205z
M752 884l-217 -164l-54 55l193 185z" />
    <glyph glyph-name="uhungarumlaut" unicode="&#x171;" horiz-adv-x="547" 
d="M530 524l-83 -391c-7 -34 -4 -80 11 -104l-116 -46c-12 18 -22 44 -24 68c-38 -35 -88 -64 -148 -64c-79 0 -125 40 -125 104c0 19 2 44 10 81l69 328l138 25l-70 -329c-6 -27 -10 -55 -10 -69c0 -22 16 -39 32 -39c41 0 90 44 110 76l71 333zM418 771l-163 -217l-70 34
l131 229zM641 753l-189 -196l-62 46l162 213z" />
    <glyph glyph-name="Uogonek" unicode="&#x172;" horiz-adv-x="644" 
d="M670 695l-100 -468c-19 -89 -35 -136 -89 -177c-42 -32 -63 -41 -115 -54c-38 -10 -87 -49 -87 -92c0 -14 7 -25 26 -25c18 0 34 5 56 15l14 -67c-37 -15 -73 -27 -118 -27c-54 0 -84 27 -84 70c0 45 25 84 63 118c-113 10 -177 67 -177 149c0 23 3 50 8 74l103 484h143
l-97 -457c-6 -26 -8 -47 -8 -63c0 -50 41 -68 87 -68c64 0 107 35 123 84c5 14 7 22 15 59l95 445h142z" />
    <glyph glyph-name="uogonek" unicode="&#x173;" horiz-adv-x="547" 
d="M530 524l-83 -391c-2 -12 -4 -24 -4 -37c0 -23 5 -46 13 -61c-25 -12 -123 -75 -123 -131c0 -14 7 -25 26 -25c18 0 34 5 56 15l14 -67c-37 -15 -73 -27 -118 -27c-53 0 -85 26 -85 69c0 55 43 107 100 146c-4 12 -7 24 -8 36c-38 -35 -88 -64 -148 -64
c-79 0 -125 40 -125 104c0 19 2 44 10 81l69 328l138 25l-70 -329c-6 -27 -10 -55 -10 -69c0 -22 16 -39 32 -39c41 0 90 44 110 76l71 333z" />
    <glyph glyph-name="Wcircumflex" unicode="&#x174;" horiz-adv-x="822" 
d="M923 695l-317 -699h-153l-2 281c-1 94 5 151 13 224c-8 -24 -44 -131 -82 -222l-118 -283h-156l-17 699h145l1 -274c0 -116 -9 -212 -11 -233c19 58 46 138 84 226l122 281h151l-2 -311c0 -60 -7 -164 -9 -188c6 22 53 154 88 235l113 264h150zM702 788l-54 -73l-123 78
l-151 -78l-36 73l209 135z" />
    <glyph glyph-name="wcircumflex" unicode="&#x175;" horiz-adv-x="699" 
d="M756 512l-255 -512h-123l-9 176c-2 41 -3 90 -2 124c1 24 1 31 3 51c-8 -22 -10 -29 -26 -66c-19 -44 -61 -132 -83 -180l-48 -105h-125l-33 503l134 15v-197c0 -58 -5 -150 -5 -158c3 12 35 96 75 177l85 172h126l5 -169c3 -85 0 -164 -1 -181c8 22 36 102 64 167
l78 183h140zM606 625l-54 -73l-123 78l-151 -78l-36 73l209 135z" />
    <glyph glyph-name="Ycircumflex" unicode="&#x176;" horiz-adv-x="554" 
d="M665 695l-309 -409l-61 -286h-146l61 286l-129 409h162l48 -190c10 -38 14 -63 16 -89c13 20 34 54 56 87l131 192h171zM569 788l-54 -73l-123 78l-151 -78l-36 73l209 135z" />
    <glyph glyph-name="ycircumflex" unicode="&#x177;" horiz-adv-x="514" 
d="M575 512l-297 -520c-56 -99 -91 -142 -134 -169c-39 -25 -86 -41 -134 -47l-27 90c31 7 67 18 90 32c41 25 57 48 89 102h-37c-2 38 -7 100 -13 144l-46 360l138 16l25 -299c2 -28 4 -91 4 -106c7 18 39 96 69 153l129 244h144zM507 625l-54 -73l-123 78l-151 -78l-36 73
l209 135z" />
    <glyph glyph-name="Ydieresis" unicode="&#x178;" horiz-adv-x="554" 
d="M665 695l-309 -409l-61 -286h-146l61 286l-129 409h162l48 -190c10 -38 14 -63 16 -89c13 20 34 54 56 87l131 192h171zM344 800c0 -42 -35 -77 -77 -77c-41 0 -76 35 -76 77s36 77 78 77c41 0 75 -35 75 -77zM555 800c0 -42 -35 -77 -77 -77c-41 0 -76 35 -76 77
s36 77 78 77c41 0 75 -35 75 -77z" />
    <glyph glyph-name="Zacute" unicode="&#x179;" horiz-adv-x="540" 
d="M598 695l-22 -101l-346 -435c-18 -22 -38 -41 -43 -45c8 0 41 2 66 2h228l-48 -116h-444l21 98l342 423c23 28 48 55 54 61c-6 -1 -33 -3 -70 -3h-207l45 116h424zM539 820l-239 -103l-40 75l231 133z" />
    <glyph glyph-name="zacute" unicode="&#x17a;" horiz-adv-x="426" 
d="M453 512l-12 -92l-295 -327h226l-42 -93h-377l8 83l313 335h-214l14 94h379zM418 657l-239 -103l-40 75l231 133z" />
    <glyph glyph-name="Zdotaccent" unicode="&#x17b;" horiz-adv-x="540" 
d="M598 695l-22 -101l-346 -435c-18 -22 -38 -41 -43 -45c8 0 41 2 66 2h228l-48 -116h-444l21 98l342 423c23 28 48 55 54 61c-6 -1 -33 -3 -70 -3h-207l45 116h424zM472 806c0 -46 -37 -83 -83 -83c-45 0 -82 37 -82 83s38 83 84 83c45 0 81 -37 81 -83z" />
    <glyph glyph-name="zdotaccent" unicode="&#x17c;" horiz-adv-x="426" 
d="M453 512l-12 -92l-295 -327h226l-42 -93h-377l8 83l313 335h-214l14 94h379zM353 641c0 -46 -37 -83 -83 -83c-45 0 -82 37 -82 83s38 83 84 83c45 0 81 -37 81 -83z" />
    <glyph glyph-name="Zcaron" unicode="&#x17d;" horiz-adv-x="540" 
d="M598 695l-22 -101l-346 -435c-18 -22 -38 -41 -43 -45c8 0 41 2 66 2h228l-48 -116h-444l21 98l342 423c23 28 48 55 54 61c-6 -1 -33 -3 -70 -3h-207l45 116h424zM594 869l-208 -135l-156 135l55 73l123 -76l152 76z" />
    <glyph glyph-name="zcaron" unicode="&#x17e;" horiz-adv-x="426" 
d="M453 512l-12 -92l-295 -327h226l-42 -93h-377l8 83l313 335h-214l14 94h379zM471 689l-208 -135l-156 135l55 73l123 -76l152 76z" />
    <glyph glyph-name="longs" unicode="&#x17f;" horiz-adv-x="427" 
d="M393 742c51 0 100 -13 134 -32l-80 -88c-20 11 -38 16 -63 16c-53 0 -79 -22 -102 -128l-109 -510c-20 -95 -79 -178 -131 -224l-82 74c28 28 66 95 78 150l89 420h-77l19 92h77l7 33c28 132 102 197 240 197z" />
    <glyph glyph-name="uni018F" unicode="&#x18f;" horiz-adv-x="632" 
d="M24 170c0 126 121 231 337 231c36 0 80 -6 91 -10c5 22 9 59 9 81c0 86 -45 124 -112 124s-132 -34 -200 -75l-39 98c103 68 179 85 262 85c163 0 248 -84 248 -247c0 -124 -56 -288 -148 -376c-65 -66 -139 -92 -225 -92c-130 0 -223 51 -223 181zM183 184
c0 -51 21 -88 85 -88c68 0 129 51 161 191c-13 4 -45 6 -67 6c-83 0 -179 -31 -179 -109z" />
    <glyph glyph-name="florin" unicode="&#x192;" horiz-adv-x="405" 
d="M498 709l-55 -81c-17 11 -35 15 -51 15c-31 0 -60 -21 -70 -58l-20 -73h118l-52 -94h-86l-105 -384c-46 -167 -82 -198 -197 -253l-45 89c69 35 94 67 114 140l111 408h-48l20 94h52c4 20 15 60 18 70c27 103 85 159 195 159c40 0 79 -16 101 -32z" />
    <glyph glyph-name="uni01B5" unicode="&#x1b5;" horiz-adv-x="540" 
d="M598 695l-22 -101l-151 -189h74l-23 -109h-137l-109 -137c-18 -22 -38 -41 -43 -45c8 0 41 2 66 2h228l-48 -116h-444l21 98l160 198h-74l23 109h139l94 116c23 28 48 55 54 61c-6 -1 -33 -3 -70 -3h-207l45 116h424z" />
    <glyph glyph-name="uni01B6" unicode="&#x1b6;" horiz-adv-x="426" 
d="M453 512l-12 -92l-103 -114h45l-18 -87h-106l-113 -126h226l-42 -93h-377l8 83l127 136h-44l18 87h107l105 112h-214l14 94h379z" />
    <glyph glyph-name="uni01C4" unicode="&#x1c4;" horiz-adv-x="1168" 
d="M617 458c0 -114 -41 -263 -127 -354c-73 -77 -143 -104 -296 -104h-169l148 695h160c116 0 187 -13 231 -68c32 -41 53 -87 53 -169zM466 460c0 64 -18 125 -111 125h-63l-100 -471h69c60 0 105 33 130 72c62 97 75 237 75 274zM1226 695l-22 -101l-346 -435
c-18 -22 -38 -41 -43 -45c8 0 41 2 66 2h228l-48 -116h-444l21 98l342 423c23 28 48 55 54 61c-6 -1 -33 -3 -70 -3h-207l45 116h424zM1222 869l-208 -135l-156 135l55 73l123 -76l152 76z" />
    <glyph glyph-name="uni01C5" unicode="&#x1c5;" horiz-adv-x="1054" 
d="M617 458c0 -114 -41 -263 -127 -354c-73 -77 -143 -104 -296 -104h-169l148 695h160c116 0 187 -13 231 -68c32 -41 53 -87 53 -169zM466 460c0 64 -18 125 -111 125h-63l-100 -471h69c60 0 105 33 130 72c62 97 75 237 75 274zM1081 512l-12 -92l-295 -327h226l-42 -93
h-377l8 83l313 335h-214l14 94h379zM1099 689l-208 -135l-156 135l55 73l123 -76l152 76z" />
    <glyph glyph-name="uni01C6" unicode="&#x1c6;" horiz-adv-x="975" 
d="M577 719l-113 -532c-18 -86 -24 -132 -24 -159c0 -13 1 -22 3 -28h-115c-2 8 -6 33 -5 47c-32 -37 -82 -60 -129 -60c-107 0 -157 61 -157 180c0 101 40 213 112 282c47 44 105 70 165 70c37 0 77 -9 87 -14c1 8 4 29 10 59l37 176zM374 392c-13 13 -36 20 -65 20
c-26 0 -50 -14 -70 -40c-38 -50 -62 -141 -62 -205c0 -49 17 -74 52 -74c30 0 79 40 94 68zM1020 689l-208 -135l-156 135l55 73l123 -76l152 76zM1002 512l-12 -92l-295 -327h226l-42 -93h-377l8 83l313 335h-214l14 94h379z" />
    <glyph glyph-name="uni01C7" unicode="&#x1c7;" horiz-adv-x="769" 
d="M442 116l-50 -116h-367l148 695h143l-123 -579h249zM790 695l-119 -560c-19 -90 -26 -108 -39 -136c-38 -85 -133 -142 -201 -166l-49 75c41 22 81 56 99 84c17 25 26 53 42 128l122 575h145z" />
    <glyph glyph-name="uni01C8" unicode="&#x1c8;" horiz-adv-x="740" 
d="M442 116l-50 -116h-367l148 695h143l-123 -579h249zM732 524l-108 -510c-21 -97 -49 -136 -72 -159c-30 -31 -70 -56 -120 -75l-42 78c23 9 49 36 63 54c17 22 27 50 37 98l105 493zM776 653c0 -46 -37 -83 -83 -83c-45 0 -82 37 -82 83s38 83 84 83c45 0 81 -37 81 -83z
" />
    <glyph glyph-name="uni01C9" unicode="&#x1c9;" horiz-adv-x="550" 
d="M290 746c1 -8 2 -22 2 -39c0 -33 -3 -78 -12 -120l-81 -379c-13 -60 -17 -85 -17 -99c0 -19 8 -29 26 -29c5 0 10 0 15 2l6 -80c-24 -9 -54 -14 -83 -14c-72 0 -106 39 -106 92c0 18 7 56 15 93l81 382c10 46 16 83 16 112c0 13 -1 25 -4 36zM542 524l-108 -510
c-21 -97 -49 -136 -72 -159c-30 -31 -70 -56 -120 -75l-42 78c23 9 49 36 63 54c17 22 27 50 37 98l105 493zM586 653c0 -46 -37 -83 -83 -83c-45 0 -82 37 -82 83s38 83 84 83c45 0 81 -37 81 -83z" />
    <glyph glyph-name="uni01CA" unicode="&#x1ca;" horiz-adv-x="932" 
d="M656 695l-148 -695h-144l-62 266c-20 87 -44 187 -48 230c-7 -57 -23 -141 -35 -199l-59 -297h-135l148 695h153l74 -278c20 -74 32 -150 36 -200c6 54 19 147 29 194l58 284h133zM953 695l-119 -560c-19 -90 -26 -108 -39 -136c-38 -85 -133 -142 -201 -166l-49 75
c41 22 81 56 99 84c17 25 26 53 42 128l122 575h145z" />
    <glyph glyph-name="uni01CB" unicode="&#x1cb;" horiz-adv-x="903" 
d="M656 695l-148 -695h-144l-62 266c-20 87 -44 187 -48 230c-7 -57 -23 -141 -35 -199l-59 -297h-135l148 695h153l74 -278c20 -74 32 -150 36 -200c6 54 19 147 29 194l58 284h133zM895 524l-108 -510c-21 -97 -49 -136 -72 -159c-30 -31 -70 -56 -120 -75l-42 78
c23 9 49 36 63 54c17 22 27 50 37 98l105 493zM939 653c0 -46 -37 -83 -83 -83c-45 0 -82 37 -82 83s38 83 84 83c45 0 81 -37 81 -83z" />
    <glyph glyph-name="uni01CC" unicode="&#x1cc;" horiz-adv-x="819" 
d="M511 422c0 -22 -3 -50 -8 -72l-74 -350h-132l71 333c4 20 7 35 7 46c0 25 -11 32 -35 32c-32 0 -70 -20 -112 -77l-71 -334h-132l73 345c6 27 9 52 9 74c0 23 -3 43 -9 61l124 49c9 -17 15 -61 13 -83c43 46 98 77 173 77c65 0 103 -39 103 -101zM811 524l-108 -510
c-21 -97 -49 -136 -72 -159c-30 -31 -70 -56 -120 -75l-42 78c23 9 49 36 63 54c17 22 27 50 37 98l105 493zM855 653c0 -46 -37 -83 -83 -83c-45 0 -82 37 -82 83s38 83 84 83c45 0 81 -37 81 -83z" />
    <glyph glyph-name="uni01F1" unicode="&#x1f1;" horiz-adv-x="1168" 
d="M617 458c0 -114 -41 -263 -127 -354c-73 -77 -143 -104 -296 -104h-169l148 695h160c116 0 187 -13 231 -68c32 -41 53 -87 53 -169zM466 460c0 64 -18 125 -111 125h-63l-100 -471h69c60 0 105 33 130 72c62 97 75 237 75 274zM1226 695l-22 -101l-346 -435
c-18 -22 -38 -41 -43 -45c8 0 41 2 66 2h228l-48 -116h-444l21 98l342 423c23 28 48 55 54 61c-6 -1 -33 -3 -70 -3h-207l45 116h424z" />
    <glyph glyph-name="uni01F2" unicode="&#x1f2;" horiz-adv-x="1054" 
d="M617 458c0 -114 -41 -263 -127 -354c-73 -77 -143 -104 -296 -104h-169l148 695h160c116 0 187 -13 231 -68c32 -41 53 -87 53 -169zM466 460c0 64 -18 125 -111 125h-63l-100 -471h69c60 0 105 33 130 72c62 97 75 237 75 274zM1081 512l-12 -92l-295 -327h226l-42 -93
h-377l8 83l313 335h-214l14 94h379z" />
    <glyph glyph-name="uni01F3" unicode="&#x1f3;" horiz-adv-x="975" 
d="M577 719l-113 -532c-18 -86 -24 -132 -24 -159c0 -13 1 -22 3 -28h-115c-2 8 -6 33 -5 47c-32 -37 -82 -60 -129 -60c-107 0 -157 61 -157 180c0 101 40 213 112 282c47 44 105 70 165 70c37 0 77 -9 87 -14c1 8 4 29 10 59l37 176zM374 392c-13 13 -36 20 -65 20
c-26 0 -50 -14 -70 -40c-38 -50 -62 -141 -62 -205c0 -49 17 -74 52 -74c30 0 79 40 94 68zM1002 512l-12 -92l-295 -327h226l-42 -93h-377l8 83l313 335h-214l14 94h379z" />
    <glyph glyph-name="Aringacute" unicode="&#x1fa;" horiz-adv-x="588" 
d="M543 0h-145l-14 165h-204l-84 -165h-151l376 697h151zM375 281l-10 145c-4 53 -3 106 -3 118c-7 -17 -40 -90 -61 -134l-62 -129h136zM505 819c0 -58 -48 -106 -106 -106c-57 0 -104 48 -104 106s49 106 106 106s104 -48 104 -106zM442 819c0 24 -18 43 -41 43
c-25 0 -44 -19 -44 -43s19 -43 42 -43c24 0 43 19 43 43zM569 1028l-239 -103l-40 75l231 133z" />
    <glyph glyph-name="aringacute" unicode="&#x1fb;" horiz-adv-x="540" 
d="M519 487c-11 -31 -25 -87 -33 -126l-41 -194c-3 -14 -4 -26 -4 -38c0 -25 7 -44 23 -62l-111 -83c-24 16 -35 43 -39 63c-38 -40 -80 -61 -136 -61c-93 0 -141 57 -141 163c0 123 47 232 108 293c56 56 119 80 204 80c60 0 127 -10 170 -35zM367 410c-6 4 -24 8 -36 8
c-33 0 -58 -2 -94 -44c-42 -50 -63 -151 -63 -219c0 -46 12 -66 41 -66c42 0 85 43 99 80zM469 659c0 -58 -48 -106 -106 -106c-57 0 -104 48 -104 106s49 106 106 106s104 -48 104 -106zM406 659c0 24 -18 43 -41 43c-25 0 -44 -19 -44 -43s19 -43 42 -43c24 0 43 19 43 43
zM518 868l-239 -103l-40 75l231 133z" />
    <glyph glyph-name="AEacute" unicode="&#x1fc;" horiz-adv-x="789" 
d="M863 695l-43 -114h-232l-34 -161h199l-24 -114h-197l-39 -186h267l-26 -120h-409l35 165h-185l-128 -165h-162l562 695h416zM265 281h120l51 228c-7 -8 -135 -183 -171 -228zM784 820l-239 -103l-40 75l231 133z" />
    <glyph glyph-name="aeacute" unicode="&#x1fd;" horiz-adv-x="784" 
d="M772 379c0 -44 -24 -83 -57 -114c-40 -38 -118 -58 -202 -58c-31 0 -56 3 -61 4c-1 -6 -5 -31 -5 -43c0 -58 30 -82 86 -82c46 0 94 20 142 54l34 -84c-69 -48 -136 -70 -208 -70c-71 0 -125 23 -157 67c-44 -49 -108 -72 -171 -72c-96 0 -147 58 -147 128
c0 123 107 208 288 208c10 0 16 0 30 -1l5 21c3 13 5 29 5 40c0 26 -14 36 -49 36c-43 0 -97 -18 -160 -55l-39 93c62 36 159 72 240 72c53 0 92 -21 117 -44c40 28 83 44 135 44c96 0 174 -37 174 -144zM323 224h-13c-99 0 -136 -30 -136 -98c0 -27 17 -47 46 -47
c27 0 55 11 72 34c10 13 27 92 31 111zM637 372c0 31 -14 53 -54 53c-51 0 -91 -32 -109 -122c4 0 22 -2 38 -2c58 0 125 20 125 71zM602 657l-239 -103l-40 75l231 133z" />
    <glyph glyph-name="Oslashacute" unicode="&#x1fe;" horiz-adv-x="693" 
d="M727 725l-90 -109c29 -42 44 -97 44 -162c0 -175 -90 -365 -230 -433c-46 -23 -99 -32 -157 -32c-60 0 -107 13 -142 35l-96 -116l-58 49l99 121c-28 42 -40 97 -40 160c0 197 92 338 182 403c41 30 100 63 206 63c55 0 101 -12 137 -35l86 104zM499 567
c-17 18 -42 29 -79 29c-47 0 -93 -24 -121 -61c-55 -72 -92 -225 -92 -318v-6zM524 478l-290 -354c18 -20 45 -28 81 -28c40 0 81 13 113 52c59 73 95 233 96 330zM674 820l-239 -103l-40 75l231 133z" />
    <glyph glyph-name="oslashacute" unicode="&#x1ff;" horiz-adv-x="546" 
d="M563 557l-83 -101c21 -28 32 -64 32 -109c0 -180 -96 -358 -299 -358c-38 0 -71 8 -98 22l-80 -98l-49 42l81 97c-23 30 -36 72 -36 121c0 193 119 349 295 349c41 0 77 -8 105 -24l82 100zM354 404c-10 14 -26 19 -48 19c-80 0 -123 -154 -132 -242zM367 317l-177 -214
c11 -12 27 -17 46 -17c78 0 123 132 131 231zM494 657l-239 -103l-40 75l231 133z" />
    <glyph glyph-name="uni0218" unicode="&#x218;" horiz-adv-x="612" 
d="M634 646l-84 -96c-45 34 -94 49 -154 49c-63 0 -116 -40 -116 -88c0 -28 18 -50 64 -67l80 -30c89 -33 137 -85 137 -164c0 -151 -129 -265 -337 -265c-98 0 -171 26 -229 63l74 107c58 -34 110 -54 180 -54c88 0 145 46 145 115c0 35 -24 57 -74 75l-73 27
c-78 29 -127 73 -127 154c0 140 132 244 297 244c85 0 166 -26 217 -70zM312 -124c0 -45 -26 -85 -66 -116c-29 -22 -64 -38 -98 -48l-31 47c26 8 66 28 70 55c-9 16 -37 20 -37 65c0 40 30 77 86 77c47 0 76 -37 76 -80z" />
    <glyph glyph-name="uni0219" unicode="&#x219;" horiz-adv-x="484" 
d="M469 480l-53 -90c-45 26 -87 35 -125 35c-44 0 -76 -16 -76 -53c0 -23 17 -38 54 -51l58 -21c51 -18 102 -58 102 -124c0 -102 -80 -192 -247 -192c-75 0 -141 23 -199 57l54 98c40 -28 107 -53 165 -53c44 0 79 30 79 64c0 26 -22 37 -65 52l-57 20
c-53 19 -94 59 -94 129c0 88 67 175 235 175c67 0 127 -20 169 -46zM256 -124c0 -45 -26 -85 -66 -116c-29 -22 -64 -38 -98 -48l-31 47c26 8 66 28 70 55c-9 16 -37 20 -37 65c0 40 30 77 86 77c47 0 76 -37 76 -80z" />
    <glyph glyph-name="uni021A" unicode="&#x21a;" horiz-adv-x="501" 
d="M612 695l-48 -116h-164l-123 -579h-144l123 579h-170l25 116h501zM277 -124c0 -45 -26 -85 -66 -116c-29 -22 -64 -38 -98 -48l-31 47c26 8 66 28 70 55c-9 16 -37 20 -37 65c0 40 30 77 86 77c47 0 76 -37 76 -80z" />
    <glyph glyph-name="uni021B" unicode="&#x21b;" horiz-adv-x="316" 
d="M383 512l-48 -92h-89l-54 -257c-4 -17 -5 -33 -5 -45c0 -28 15 -37 45 -37c12 0 35 4 50 10v-81c-39 -15 -79 -22 -114 -22c-77 0 -121 38 -121 88c0 18 2 42 7 66l59 278h-51l20 92h51c10 50 17 83 31 121l141 34c-15 -47 -30 -103 -41 -155h119zM211 -124
c0 -45 -26 -85 -66 -116c-29 -22 -64 -38 -98 -48l-31 47c26 8 66 28 70 55c-9 16 -37 20 -37 65c0 40 30 77 86 77c47 0 76 -37 76 -80z" />
    <glyph glyph-name="uni0237" unicode="&#x237;" horiz-adv-x="268" 
d="M260 524l-108 -510c-21 -97 -49 -136 -72 -159c-30 -31 -70 -56 -120 -75l-42 78c23 9 49 36 63 54c17 22 27 50 37 98l105 493z" />
    <glyph glyph-name="uni0259" unicode="&#x259;" horiz-adv-x="516" 
d="M13 126c0 97 89 176 259 176c29 0 55 -5 61 -7c2 11 5 35 5 46c0 58 -30 82 -86 82c-46 0 -94 -20 -142 -54l-34 84c69 48 136 70 208 70c122 0 194 -64 194 -188c0 -106 -47 -215 -115 -281c-51 -49 -108 -68 -176 -68c-101 0 -174 40 -174 140zM148 137
c0 -31 14 -53 54 -53c51 0 89 30 109 119c-4 1 -22 5 -38 5c-58 0 -125 -20 -125 -71z" />
    <glyph glyph-name="uni02BB" unicode="&#x2bb;" horiz-adv-x="270" 
d="M327 660c-44 -16 -82 -37 -82 -58c0 -11 4 -21 14 -27c27 -16 34 -43 34 -75c0 -48 -39 -86 -87 -86c-58 0 -98 38 -98 108c0 87 97 174 181 195z" />
    <glyph glyph-name="uni02BC" unicode="&#x2bc;" horiz-adv-x="270" 
d="M304 603c0 -87 -97 -174 -181 -195l-38 57c44 16 82 37 82 58c0 11 -4 21 -14 27c-27 16 -34 43 -34 75c0 48 39 86 87 86c58 0 98 -38 98 -108z" />
    <glyph glyph-name="circumflex" unicode="&#x2c6;" horiz-adv-x="374" 
d="M448 625l-54 -73l-123 78l-151 -78l-36 73l209 135z" />
    <glyph glyph-name="caron" unicode="&#x2c7;" horiz-adv-x="374" 
d="M467 689l-208 -135l-156 135l55 73l123 -76l152 76z" />
    <glyph glyph-name="breve" unicode="&#x2d8;" horiz-adv-x="350" 
d="M442 693c-17 -19 -117 -115 -194 -115c-78 0 -137 96 -147 115l46 44c14 -17 62 -65 125 -65c54 0 130 52 149 65z" />
    <glyph glyph-name="dotaccent" unicode="&#x2d9;" horiz-adv-x="177" 
d="M260 653c0 -46 -37 -83 -83 -83c-45 0 -82 37 -82 83s38 83 84 83c45 0 81 -37 81 -83z" />
    <glyph glyph-name="ring" unicode="&#x2da;" horiz-adv-x="224" 
d="M307 659c0 -58 -48 -106 -106 -106c-57 0 -104 48 -104 106s49 106 106 106s104 -48 104 -106zM244 659c0 24 -18 43 -41 43c-25 0 -44 -19 -44 -43s19 -43 42 -43c24 0 43 19 43 43z" />
    <glyph glyph-name="ogonek" unicode="&#x2db;" horiz-adv-x="227" 
d="M124 -175c-23 -11 -62 -24 -92 -24c-61 0 -93 30 -93 70c0 55 50 117 105 155l62 -40c-29 -23 -73 -59 -73 -96c0 -8 7 -17 19 -17c22 0 38 8 55 15z" />
    <glyph glyph-name="tilde" unicode="&#x2dc;" horiz-adv-x="374" 
d="M459 645c-42 -41 -79 -67 -138 -67c-53 0 -70 40 -122 40c-32 0 -50 -15 -75 -37l-33 75c42 41 78 66 130 66c55 0 72 -40 130 -40c32 0 49 13 75 35z" />
    <glyph glyph-name="hungarumlaut" unicode="&#x2dd;" horiz-adv-x="433" 
d="M302 741l-163 -217l-70 34l131 229zM525 723l-189 -196l-62 46l162 213z" />
    <glyph glyph-name="gravecomb" unicode="&#x300;" 
d="M451 629l-46 -72l-216 100l66 106z" />
    <glyph glyph-name="acutecomb" unicode="&#x301;" 
d="M395 657l-239 -103l-40 75l231 133z" />
    <glyph glyph-name="uni0302" unicode="&#x302;" 
d="M448 625l-54 -73l-123 78l-151 -78l-36 73l209 135z" />
    <glyph glyph-name="tildecomb" unicode="&#x303;" 
d="M459 645c-42 -41 -79 -67 -138 -67c-53 0 -70 40 -122 40c-32 0 -50 -15 -75 -37l-33 75c42 41 78 66 130 66c55 0 72 -40 130 -40c32 0 49 13 75 35z" />
    <glyph glyph-name="uni0304" unicode="&#x304;" 
d="M384 682l-19 -92h-294l19 92h294z" />
    <glyph glyph-name="uni0306" unicode="&#x306;" 
d="M463 684c-19 -21 -131 -129 -217 -129c-87 0 -154 108 -165 129l52 49c16 -19 69 -73 140 -73c60 0 146 58 167 73z" />
    <glyph glyph-name="uni0307" unicode="&#x307;" 
d="M260 653c0 -46 -37 -83 -83 -83c-45 0 -82 37 -82 83s38 83 84 83c45 0 81 -37 81 -83z" />
    <glyph glyph-name="uni0308" unicode="&#x308;" 
d="M521 635c0 -42 -35 -77 -77 -77s-76 35 -76 77s35 77 78 77c41 0 75 -35 75 -77zM310 635c0 -42 -35 -77 -77 -77c-41 0 -76 35 -76 77s36 77 78 77c41 0 75 -35 75 -77z" />
    <glyph glyph-name="uni030A" unicode="&#x30a;" 
d="M458 659c0 -58 -48 -106 -106 -106c-57 0 -104 48 -104 106s49 106 106 106s104 -48 104 -106zM395 659c0 24 -18 43 -41 43c-25 0 -44 -19 -44 -43s19 -43 42 -43c24 0 43 19 43 43z" />
    <glyph glyph-name="uni030B" unicode="&#x30b;" 
d="M302 771l-163 -217l-70 34l131 229zM525 753l-189 -196l-62 46l162 213z" />
    <glyph glyph-name="uni030C" unicode="&#x30c;" 
d="M471 689l-208 -135l-156 135l55 73l123 -76l152 76z" />
    <glyph glyph-name="uni0312" unicode="&#x312;" 
d="M-18 650c0 45 26 85 66 116c29 22 64 38 98 48l31 -47c-26 -8 -66 -28 -70 -55c9 -16 37 -20 37 -65c0 -40 -30 -77 -86 -77c-47 0 -76 37 -76 80z" />
    <glyph glyph-name="uni0313" unicode="&#x313;" 
d="M-10 661c0 -45 -26 -85 -66 -116c-29 -22 -64 -38 -98 -48l-31 47c26 8 66 28 70 55c-9 16 -37 20 -37 65c0 40 30 77 86 77c47 0 76 -37 76 -80z" />
    <glyph glyph-name="uni0326" unicode="&#x326;" 
d="M178 -124c0 -45 -26 -85 -66 -116c-29 -22 -64 -38 -98 -48l-31 47c26 8 66 28 70 55c-9 16 -37 20 -37 65c0 40 30 77 86 77c47 0 76 -37 76 -80z" />
    <glyph glyph-name="uni0327" unicode="&#x327;" 
d="M138 -93c0 -56 -48 -106 -128 -106c-30 0 -65 13 -82 24l41 62c15 -7 31 -14 51 -14c16 0 31 8 31 22c0 9 -6 16 -23 16c-11 0 -19 -4 -28 -6l-9 20l43 87l70 -6l-22 -38c41 -4 56 -31 56 -61z" />
    <glyph glyph-name="uni0328" unicode="&#x328;" 
d="M124 -175c-23 -11 -62 -24 -92 -24c-61 0 -93 30 -93 70c0 55 50 117 105 155l62 -40c-29 -23 -73 -59 -73 -96c0 -8 7 -17 19 -17c22 0 38 8 55 15z" />
    <glyph glyph-name="uni037E" unicode="&#x37e;" horiz-adv-x="325" 
d="M212 48c0 -94 -97 -174 -181 -195l-38 57c44 16 82 37 82 58c0 11 -5 22 -14 27c-20 12 -34 39 -34 72c0 51 41 89 89 89c58 0 96 -38 96 -108zM272 368c0 -48 -39 -86 -87 -86s-87 38 -87 86s39 87 87 87s87 -39 87 -87z" />
    <glyph glyph-name="tonos" unicode="&#x384;" horiz-adv-x="328" 
d="M323 699l-167 -145l-56 55l135 169z" />
    <glyph glyph-name="dieresistonos" unicode="&#x385;" horiz-adv-x="536" 
d="M512 773l-167 -145l-56 55l135 169zM572 635c0 -42 -35 -77 -77 -77s-76 35 -76 77s35 77 78 77c41 0 75 -35 75 -77zM281 635c0 -42 -35 -77 -77 -77c-41 0 -76 35 -76 77s36 77 78 77c41 0 75 -35 75 -77z" />
    <glyph glyph-name="Alphatonos" unicode="&#x386;" horiz-adv-x="588" 
d="M119 642l-167 -145l-56 55l135 169zM543 0h-145l-14 165h-204l-84 -165h-151l376 697h151zM375 281l-10 145c-4 53 -3 106 -3 118c-7 -17 -40 -90 -61 -134l-62 -129h136z" />
    <glyph glyph-name="anoteleia" unicode="&#x387;" horiz-adv-x="311" 
d="M253 273c0 -48 -40 -88 -90 -88c-49 0 -88 40 -88 89s40 90 90 90c49 0 88 -41 88 -91z" />
    <glyph glyph-name="Epsilontonos" unicode="&#x388;" horiz-adv-x="495" 
d="M79 642l-167 -145l-56 55l135 169zM569 695l-43 -114h-236l-34 -161h197l-24 -114h-196l-39 -186h262l-26 -120h-405l148 695h396z" />
    <glyph glyph-name="Etatonos" unicode="&#x389;" horiz-adv-x="633" 
d="M79 642l-167 -145l-56 55l135 169zM654 695l-148 -695h-142l66 310h-200l-66 -310h-139l148 695h139l-58 -270h200l58 270h142z" />
    <glyph glyph-name="Iotatonos" unicode="&#x38a;" horiz-adv-x="297" 
d="M79 642l-167 -145l-56 55l135 169zM318 695l-148 -695h-145l148 695h145z" />
    <glyph glyph-name="Omicrontonos" unicode="&#x38c;" horiz-adv-x="694" 
d="M109 642l-167 -145l-56 55l135 169zM682 454c0 -175 -89 -365 -230 -432c-46 -22 -99 -33 -157 -33c-172 0 -238 104 -238 249c0 197 95 338 185 403c41 30 98 63 204 63c153 0 236 -95 236 -250zM525 483c0 68 -28 113 -104 113c-47 0 -93 -24 -121 -61
c-55 -72 -92 -225 -92 -318c0 -89 38 -121 108 -121c40 0 81 13 113 52c60 74 96 239 96 335z" />
    <glyph glyph-name="Upsilontonos" unicode="&#x38e;" horiz-adv-x="554" 
d="M59 642l-167 -145l-56 55l135 169zM665 695l-309 -409l-61 -286h-146l61 286l-129 409h162l48 -190c10 -38 14 -63 16 -89c13 20 34 54 56 87l131 192h171z" />
    <glyph glyph-name="Omegatonos" unicode="&#x38f;" horiz-adv-x="714" 
d="M694 470c0 -139 -75 -276 -189 -356h117l-47 -114h-251l20 99c107 84 193 227 193 366c0 70 -24 131 -114 131c-139 0 -211 -170 -211 -289c0 -74 30 -153 75 -207l-41 -100h-234l24 114h97c-42 42 -73 112 -73 190c0 208 175 400 384 400c153 0 250 -80 250 -234z
M109 642l-167 -145l-56 55l135 169z" />
    <glyph glyph-name="iotadieresistonos" unicode="&#x390;" horiz-adv-x="280" 
d="M240 433c0 -30 -3 -60 -8 -83l-30 -142c-13 -60 -17 -85 -17 -99c0 -19 8 -29 26 -29c5 0 10 0 15 2l6 -80c-24 -9 -52 -14 -81 -14c-72 0 -105 39 -105 92c0 18 7 56 15 93l37 172c6 27 9 52 9 74c0 23 -3 43 -9 61l124 49c13 -24 18 -60 18 -96zM372 773l-167 -145
l-56 55l135 169zM432 635c0 -42 -35 -77 -77 -77s-76 35 -76 77s35 77 78 77c41 0 75 -35 75 -77zM141 635c0 -42 -35 -77 -77 -77c-41 0 -76 35 -76 77s36 77 78 77c41 0 75 -35 75 -77z" />
    <glyph glyph-name="Alpha" unicode="&#x391;" horiz-adv-x="588" 
d="M543 0h-145l-14 165h-204l-84 -165h-151l376 697h151zM375 281l-10 145c-4 53 -3 106 -3 118c-7 -17 -40 -90 -61 -134l-62 -129h136z" />
    <glyph glyph-name="Beta" unicode="&#x392;" horiz-adv-x="598" 
d="M601 545c0 -68 -43 -146 -146 -176c64 -14 104 -70 104 -135c0 -44 -18 -112 -65 -160c-51 -52 -109 -74 -217 -74h-252l148 695h247c105 0 181 -50 181 -150zM405 237c0 49 -27 65 -89 65h-87l-40 -188h91c29 0 54 8 72 20c31 21 53 64 53 103zM450 515
c0 43 -19 61 -77 61h-87l-33 -159h82c38 0 56 8 73 20c22 16 42 44 42 78z" />
    <glyph glyph-name="Gamma" unicode="&#x393;" horiz-adv-x="432" 
d="M552 695l-43 -115h-216l-123 -580h-145l148 695h379z" />
    <glyph glyph-name="uni0394" unicode="&#x394;" horiz-adv-x="589" 
d="M544 105l-23 -105h-528v106l341 591h124zM400 116l-35 254c-3 22 -12 115 -10 140c-8 -25 -57 -116 -70 -140l-139 -254h254z" />
    <glyph glyph-name="Epsilon" unicode="&#x395;" horiz-adv-x="495" 
d="M569 695l-43 -114h-236l-34 -161h197l-24 -114h-196l-39 -186h262l-26 -120h-405l148 695h396z" />
    <glyph glyph-name="Zeta" unicode="&#x396;" horiz-adv-x="540" 
d="M598 695l-22 -101l-346 -435c-18 -22 -38 -41 -43 -45c8 0 41 2 66 2h228l-48 -116h-444l21 98l342 423c23 28 48 55 54 61c-6 -1 -33 -3 -70 -3h-207l45 116h424z" />
    <glyph glyph-name="Eta" unicode="&#x397;" horiz-adv-x="633" 
d="M654 695l-148 -695h-142l66 310h-200l-66 -310h-139l148 695h139l-58 -270h200l58 270h142z" />
    <glyph glyph-name="Theta" unicode="&#x398;" horiz-adv-x="714" 
d="M702 454c0 -175 -97 -365 -238 -432c-46 -22 -101 -33 -159 -33c-172 0 -248 104 -248 249c0 197 103 338 193 403c41 30 100 63 206 63c153 0 246 -95 246 -250zM515 306h-297c-6 -32 -10 -63 -10 -89c0 -89 48 -121 118 -121c40 0 83 13 115 52c30 37 56 96 74 158z
M545 483c0 68 -38 113 -114 113c-47 0 -95 -24 -123 -61c-22 -29 -43 -71 -59 -117h291c3 24 5 46 5 65z" />
    <glyph glyph-name="Iota" unicode="&#x399;" horiz-adv-x="297" 
d="M318 695l-148 -695h-145l148 695h145z" />
    <glyph glyph-name="Kappa" unicode="&#x39a;" horiz-adv-x="600" 
d="M686 695l-294 -327l168 -368h-178l-137 363l-77 -363h-143l148 695h143l-68 -317l263 317h175z" />
    <glyph glyph-name="Lambda" unicode="&#x39b;" horiz-adv-x="567" 
d="M507 0h-147l-20 281c-6 83 -10 167 -8 251c-35 -84 -68 -168 -109 -251l-140 -281h-148l363 697h151z" />
    <glyph glyph-name="Mu" unicode="&#x39c;" horiz-adv-x="827" 
d="M809 695l-86 -695h-135l53 371c6 44 12 79 20 116c-17 -40 -28 -65 -49 -107l-191 -380h-119l-21 365c-2 34 -4 83 -2 123c-9 -41 -20 -82 -32 -125l-101 -363h-141l213 695h177l17 -348c2 -50 2 -74 0 -110c14 36 29 72 49 113l168 345h180z" />
    <glyph glyph-name="Nu" unicode="&#x39d;" horiz-adv-x="635" 
d="M656 695l-148 -695h-144l-62 266c-20 87 -44 187 -48 230c-7 -57 -23 -141 -35 -199l-59 -297h-135l148 695h153l74 -278c20 -74 32 -150 36 -200c6 54 19 147 29 194l58 284h133z" />
    <glyph glyph-name="Xi" unicode="&#x39e;" horiz-adv-x="534" 
d="M487 0h-462l33 130h429v-130zM594 695l-32 -124h-421v124h453zM525 426l-31 -124h-392l32 124h391z" />
    <glyph glyph-name="Omicron" unicode="&#x39f;" horiz-adv-x="694" 
d="M682 454c0 -175 -89 -365 -230 -432c-46 -22 -99 -33 -157 -33c-172 0 -238 104 -238 249c0 197 95 338 185 403c41 30 98 63 204 63c153 0 236 -95 236 -250zM525 483c0 68 -28 113 -104 113c-47 0 -93 -24 -121 -61c-55 -72 -92 -225 -92 -318c0 -89 38 -121 108 -121
c40 0 81 13 113 52c60 74 96 239 96 335z" />
    <glyph glyph-name="Pi" unicode="&#x3a0;" horiz-adv-x="627" 
d="M648 695l-148 -695h-142l123 580h-194l-123 -580h-139l148 695h475z" />
    <glyph glyph-name="Rho" unicode="&#x3a1;" horiz-adv-x="571" 
d="M606 536c0 -120 -57 -208 -161 -256c-35 -16 -94 -24 -149 -24h-74l-54 -256h-143l148 695h183c94 0 146 -10 180 -32c44 -27 70 -73 70 -127zM455 509c0 46 -25 73 -77 73h-86l-45 -212h70c54 0 84 12 102 34c21 25 36 65 36 105z" />
    <glyph glyph-name="Sigma" unicode="&#x3a3;" horiz-adv-x="524" 
d="M594 695l-49 -116h-164c-37 0 -72 4 -80 5c5 -6 25 -35 40 -63l80 -151l-180 -211c-16 -19 -40 -41 -47 -47c8 1 45 4 70 4h216l-48 -116h-433l19 91l245 277l-124 229l40 98h415z" />
    <glyph glyph-name="Tau" unicode="&#x3a4;" horiz-adv-x="501" 
d="M612 695l-48 -116h-164l-123 -579h-144l123 579h-170l25 116h501z" />
    <glyph glyph-name="Upsilon" unicode="&#x3a5;" horiz-adv-x="554" 
d="M665 695l-309 -409l-61 -286h-146l61 286l-129 409h162l48 -190c10 -38 14 -63 16 -89c13 20 34 54 56 87l131 192h171z" />
    <glyph glyph-name="Phi" unicode="&#x3a6;" horiz-adv-x="813" 
d="M801 406c0 -203 -177 -316 -366 -334l-15 -72h-141l15 72c-184 17 -244 120 -244 222c0 202 172 319 363 334l14 67h141l-14 -66c186 -14 247 -120 247 -223zM389 516c-116 -19 -188 -105 -188 -217c0 -49 25 -101 117 -117zM644 404c0 47 -24 96 -114 112l-71 -334
c121 19 185 107 185 222z" />
    <glyph glyph-name="Chi" unicode="&#x3a7;" horiz-adv-x="538" 
d="M634 695l-250 -329l134 -366h-164l-74 240l-171 -240h-180l300 375l-122 320h163l61 -194l136 194h167z" />
    <glyph glyph-name="Psi" unicode="&#x3a8;" horiz-adv-x="748" 
d="M803 695l-56 -264c-30 -141 -103 -274 -323 -274l-34 -157h-138l34 157c-165 0 -216 107 -216 207c0 23 5 48 9 67l56 264h136l-56 -265c-6 -26 -13 -52 -13 -76c0 -44 23 -80 106 -92l92 433h138l-92 -433c136 21 154 118 165 168l56 265h136z" />
    <glyph glyph-name="uni03A9" unicode="&#x3a9;" horiz-adv-x="714" 
d="M694 470c0 -139 -75 -276 -189 -356h117l-47 -114h-251l20 99c107 84 193 227 193 366c0 70 -24 131 -114 131c-139 0 -211 -170 -211 -289c0 -74 30 -153 75 -207l-41 -100h-234l24 114h97c-42 42 -73 112 -73 190c0 208 175 400 384 400c153 0 250 -80 250 -234z" />
    <glyph glyph-name="Iotadieresis" unicode="&#x3aa;" horiz-adv-x="297" 
d="M318 695l-148 -695h-145l148 695h145zM439 800c0 -42 -35 -77 -77 -77s-76 35 -76 77s35 77 78 77c41 0 75 -35 75 -77zM228 800c0 -42 -35 -77 -77 -77c-41 0 -76 35 -76 77s36 77 78 77c41 0 75 -35 75 -77z" />
    <glyph glyph-name="Upsilondieresis" unicode="&#x3ab;" horiz-adv-x="554" 
d="M665 695l-309 -409l-61 -286h-146l61 286l-129 409h162l48 -190c10 -38 14 -63 16 -89c13 20 34 54 56 87l131 192h171zM555 800c0 -42 -35 -77 -77 -77s-76 35 -76 77s35 77 78 77c41 0 75 -35 75 -77zM344 800c0 -42 -35 -77 -77 -77c-41 0 -76 35 -76 77s36 77 78 77
c41 0 75 -35 75 -77z" />
    <glyph glyph-name="alphatonos" unicode="&#x3ac;" horiz-adv-x="540" 
d="M519 487c-11 -31 -25 -87 -33 -126l-41 -194c-3 -14 -4 -26 -4 -38c0 -25 7 -44 23 -62l-111 -83c-24 16 -35 43 -39 63c-38 -40 -80 -61 -136 -61c-93 0 -141 57 -141 163c0 123 47 232 108 293c56 56 119 80 204 80c60 0 127 -10 170 -35zM367 410c-6 4 -24 8 -36 8
c-33 0 -58 -2 -94 -44c-42 -50 -63 -151 -63 -219c0 -46 12 -66 41 -66c42 0 85 43 99 80zM521 699l-167 -145l-56 55l135 169z" />
    <glyph glyph-name="epsilontonos" unicode="&#x3ad;" horiz-adv-x="497" 
d="M516 467l-66 -91c-37 28 -79 41 -128 41c-45 0 -87 -17 -87 -66c0 -27 26 -35 84 -35h54l-19 -91h-47c-51 0 -119 -12 -119 -77c0 -29 29 -46 78 -46c55 0 105 23 151 52l38 -98c-61 -39 -153 -74 -240 -74c-119 0 -187 31 -187 118c0 71 53 151 128 165l1 2
c-35 12 -61 37 -61 76c0 121 131 184 231 184c78 0 129 -23 189 -60zM510 699l-167 -145l-56 55l135 169z" />
    <glyph glyph-name="etatonos" unicode="&#x3ae;" horiz-adv-x="551" 
d="M511 422c0 -22 -3 -50 -8 -72l-30 -142c-13 -60 -17 -85 -17 -99c0 -19 8 -29 26 -29c5 0 10 0 15 2l6 -80c-24 -9 -52 -14 -81 -14c-72 0 -103 39 -103 92c0 18 7 56 15 93l34 160c4 20 7 35 7 46c0 25 -11 32 -35 32c-32 0 -70 -20 -112 -77l-71 -334h-132l73 345
c6 27 9 52 9 74c0 23 -3 43 -9 61l124 49c9 -17 15 -61 13 -83c43 46 98 77 173 77c65 0 103 -39 103 -101zM520 699l-167 -145l-56 55l135 169z" />
    <glyph glyph-name="iotatonos" unicode="&#x3af;" horiz-adv-x="280" 
d="M240 433c0 -30 -3 -60 -8 -83l-30 -142c-13 -60 -17 -85 -17 -99c0 -19 8 -29 26 -29c5 0 10 0 15 2l6 -80c-24 -9 -52 -14 -81 -14c-72 0 -105 39 -105 92c0 18 7 56 15 93l37 172c6 27 9 52 9 74c0 23 -3 43 -9 61l124 49c13 -24 18 -60 18 -96zM370 699l-167 -145
l-56 55l135 169z" />
    <glyph glyph-name="upsilondieresistonos" unicode="&#x3b0;" horiz-adv-x="541" 
d="M527 524l-78 -365c-24 -116 -108 -171 -242 -171c-112 0 -164 45 -164 122c0 14 1 26 5 42l74 348l137 25l-79 -374c-2 -8 -3 -13 -3 -18c0 -28 16 -45 59 -45c46 0 78 32 85 66l73 343zM502 773l-167 -145l-56 55l135 169zM562 635c0 -42 -35 -77 -77 -77s-76 35 -76 77
s35 77 78 77c41 0 75 -35 75 -77zM271 635c0 -42 -35 -77 -77 -77c-41 0 -76 35 -76 77s36 77 78 77c41 0 75 -35 75 -77z" />
    <glyph glyph-name="alpha" unicode="&#x3b1;" horiz-adv-x="540" 
d="M519 487c-11 -31 -25 -87 -33 -126l-41 -194c-3 -14 -4 -26 -4 -38c0 -25 7 -44 23 -62l-111 -83c-24 16 -35 43 -39 63c-38 -40 -80 -61 -136 -61c-93 0 -141 57 -141 163c0 123 47 232 108 293c56 56 119 80 204 80c60 0 127 -10 170 -35zM367 410c-6 4 -24 8 -36 8
c-33 0 -58 -2 -94 -44c-42 -50 -63 -151 -63 -219c0 -46 12 -66 41 -66c42 0 85 43 99 80z" />
    <glyph glyph-name="beta" unicode="&#x3b2;" horiz-adv-x="601" 
d="M573 575c0 -86 -52 -160 -134 -188c69 -19 111 -85 111 -145c0 -163 -132 -254 -284 -254c-52 0 -80 18 -110 37l-45 -211l-136 -34l139 653c40 191 127 281 285 281c110 0 174 -64 174 -139zM438 555c0 37 -18 60 -61 60c-82 0 -112 -75 -131 -165l-66 -312
c16 -25 63 -54 96 -54c89 0 129 80 129 155c0 52 -27 83 -121 83h-16l21 100h24c79 0 125 55 125 133z" />
    <glyph glyph-name="gamma" unicode="&#x3b3;" horiz-adv-x="486" 
d="M555 512l-295 -512c-3 -28 -16 -143 -28 -186l-133 -32c35 170 42 239 42 331c0 180 -18 303 -67 303c-13 0 -28 -2 -36 -5l-9 87c30 14 64 24 97 24c123 0 135 -152 135 -262c0 -25 -1 -48 -1 -66c10 30 18 50 32 80l115 238h148z" />
    <glyph glyph-name="delta" unicode="&#x3b4;" horiz-adv-x="546" 
d="M566 695l-46 -106h-145c77 -67 136 -135 136 -242c0 -207 -116 -358 -298 -358c-115 0 -182 65 -182 181c0 143 93 321 247 330c-36 39 -74 70 -111 87l44 108h355zM368 338c0 36 -16 65 -65 65c-97 0 -130 -168 -130 -246c0 -42 15 -71 65 -71c93 0 130 184 130 252z
" />
    <glyph glyph-name="epsilon" unicode="&#x3b5;" horiz-adv-x="497" 
d="M516 467l-66 -91c-37 28 -79 41 -128 41c-45 0 -87 -17 -87 -66c0 -27 26 -35 84 -35h54l-19 -91h-47c-51 0 -119 -12 -119 -77c0 -29 29 -46 78 -46c55 0 105 23 151 52l38 -98c-61 -39 -153 -74 -240 -74c-119 0 -187 31 -187 118c0 71 53 151 128 165l1 2
c-35 12 -61 37 -61 76c0 121 131 184 231 184c78 0 129 -23 189 -60z" />
    <glyph glyph-name="zeta" unicode="&#x3b6;" horiz-adv-x="483" 
d="M556 695l-23 -111c-133 -57 -350 -247 -350 -393c0 -49 34 -60 74 -60h66c81 0 114 -27 114 -106c0 -91 -74 -172 -135 -239l-65 50c28 28 58 81 58 123c0 34 -27 41 -56 41h-38c-93 0 -173 42 -173 144c0 166 183 365 327 432h-223l46 119h378z" />
    <glyph glyph-name="eta" unicode="&#x3b7;" horiz-adv-x="551" 
d="M511 422c0 -22 -3 -50 -8 -72l-30 -142c-13 -60 -17 -85 -17 -99c0 -19 8 -29 26 -29c5 0 10 0 15 2l6 -80c-24 -9 -52 -14 -81 -14c-72 0 -103 39 -103 92c0 18 7 56 15 93l34 160c4 20 7 35 7 46c0 25 -11 32 -35 32c-32 0 -70 -20 -112 -77l-71 -334h-132l73 345
c6 27 9 52 9 74c0 23 -3 43 -9 61l124 49c9 -17 15 -61 13 -83c43 46 98 77 173 77c65 0 103 -39 103 -101z" />
    <glyph glyph-name="theta" unicode="&#x3b8;" horiz-adv-x="556" 
d="M548 503c0 -197 -88 -514 -326 -514c-126 0 -175 81 -175 199c0 197 87 516 326 516c127 0 175 -83 175 -201zM369 307h-160c-13 -64 -21 -115 -21 -151c0 -48 16 -72 53 -72c64 0 103 108 128 223zM408 537c0 48 -16 72 -52 72c-67 0 -102 -97 -127 -207h160
c11 57 19 101 19 135z" />
    <glyph glyph-name="iota" unicode="&#x3b9;" horiz-adv-x="280" 
d="M240 433c0 -30 -3 -60 -8 -83l-30 -142c-13 -60 -17 -85 -17 -99c0 -19 8 -29 26 -29c5 0 10 0 15 2l6 -80c-24 -9 -52 -14 -81 -14c-72 0 -105 39 -105 92c0 18 7 56 15 93l37 172c6 27 9 52 9 74c0 23 -3 43 -9 61l124 49c13 -24 18 -60 18 -96z" />
    <glyph glyph-name="kappa" unicode="&#x3ba;" horiz-adv-x="525" 
d="M573 512l-222 -227l132 -285h-157l-105 277l189 235h163zM241 433c0 -30 -3 -60 -8 -83l-74 -350h-134l73 345c6 29 9 54 9 77c0 22 -3 41 -8 58l124 49c13 -24 18 -60 18 -96z" />
    <glyph glyph-name="lambda" unicode="&#x3bb;" horiz-adv-x="530" 
d="M476 3c-25 -9 -46 -20 -75 -20c-75 0 -94 35 -95 89l-5 221c-1 24 1 82 2 90c-2 -3 -28 -62 -43 -92l-155 -299l-134 16l281 504h41c-3 49 8 140 -58 140c-13 0 -28 -4 -41 -7l-7 77c33 11 59 18 90 18c120 0 127 -86 129 -131l28 -505c1 -21 6 -24 17 -24c5 0 11 1 19 3
z" />
    <glyph glyph-name="uni03BC" unicode="&#x3bc;" horiz-adv-x="548" 
d="M531 524l-83 -391c-2 -11 -3 -21 -3 -32c0 -23 5 -45 15 -61l-107 -54c-14 12 -25 29 -29 50c-40 -32 -92 -49 -144 -49c-13 0 -26 4 -34 11c0 -3 -1 -16 -4 -28l-34 -156l-136 -34l153 720l138 25l-70 -329c-6 -30 -9 -48 -9 -73c0 -20 18 -35 44 -35c33 0 78 24 93 49
l77 360z" />
    <glyph glyph-name="nu" unicode="&#x3bd;" horiz-adv-x="464" 
d="M535 512l-296 -512h-111l-79 504l138 17l25 -231c4 -34 7 -90 6 -123c11 30 32 79 59 130l115 215h143z" />
    <glyph glyph-name="xi" unicode="&#x3be;" horiz-adv-x="498" 
d="M534 695l-25 -118h-138c-50 0 -106 -42 -106 -94c0 -45 37 -62 75 -62h116l-23 -108h-105c-71 0 -143 -48 -143 -122c0 -49 33 -60 74 -60h66c80 0 114 -27 114 -106c0 -91 -74 -172 -136 -239l-64 50c27 28 58 81 58 123c0 34 -28 41 -57 41h-38c-92 0 -173 42 -173 144
c0 92 71 192 162 219v2c-43 18 -69 50 -69 98c0 44 34 97 74 113h-88l46 119h380z" />
    <glyph glyph-name="omicron" unicode="&#x3bf;" horiz-adv-x="546" 
d="M512 347c0 -180 -96 -358 -299 -358c-116 0 -182 64 -182 181c0 193 119 352 295 352c115 0 186 -63 186 -175zM368 347c0 59 -22 76 -62 76c-90 0 -133 -188 -133 -266c0 -49 25 -71 63 -71c86 0 132 161 132 261z" />
    <glyph glyph-name="pi" unicode="&#x3c0;" horiz-adv-x="564" 
d="M604 512l-50 -96h-40l-44 -208c-13 -60 -18 -85 -18 -99c0 -19 8 -29 26 -29c5 0 10 0 15 2l6 -80c-24 -9 -52 -14 -81 -14c-72 0 -103 39 -103 92c0 18 7 56 15 93l52 243h-126l-89 -416h-133l88 416h-55l20 96h517z" />
    <glyph glyph-name="rho" unicode="&#x3c1;" horiz-adv-x="546" 
d="M512 338c0 -162 -98 -349 -274 -349c-40 0 -78 10 -104 27c2 -13 -3 -35 -5 -42l-34 -160l-141 -34l105 491c32 151 112 251 277 251c92 0 176 -52 176 -184zM368 345c0 51 -20 78 -59 78c-49 0 -92 -42 -105 -102l-42 -196c15 -15 41 -30 68 -30c105 0 138 165 138 250z
" />
    <glyph glyph-name="sigma1" unicode="&#x3c2;" horiz-adv-x="446" 
d="M471 466l-78 -84c-22 25 -47 38 -76 38c-38 0 -70 -28 -96 -84c-22 -46 -33 -91 -33 -135c0 -29 16 -54 52 -72l98 -48c35 -21 52 -48 52 -81c0 -45 -46 -116 -139 -213l-62 50c14 14 27 31 39 51c14 23 21 42 21 59c0 13 -18 28 -55 45c-49 21 -83 40 -102 57
c-37 32 -55 74 -55 125c0 58 15 117 45 178c31 63 70 108 118 137c43 25 88 38 135 38c55 0 100 -20 136 -61z" />
    <glyph glyph-name="sigma" unicode="&#x3c3;" horiz-adv-x="564" 
d="M610 512l-50 -94h-79c23 -26 31 -47 31 -84c0 -182 -110 -345 -298 -345c-115 0 -183 65 -183 181c0 167 110 342 295 342h284zM368 347c0 59 -20 71 -60 71c-90 0 -135 -183 -135 -261c0 -49 25 -71 63 -71c86 0 132 161 132 261z" />
    <glyph glyph-name="tau" unicode="&#x3c4;" horiz-adv-x="409" 
d="M459 512l-53 -97h-111l-54 -252c-4 -17 -5 -33 -5 -45c0 -28 15 -37 45 -37c12 0 35 4 50 10v-81c-39 -15 -79 -22 -114 -22c-77 0 -121 38 -121 88c0 18 2 42 7 66l59 273h-121l20 97h398z" />
    <glyph glyph-name="upsilon" unicode="&#x3c5;" horiz-adv-x="541" 
d="M527 524l-78 -365c-24 -116 -108 -171 -242 -171c-112 0 -164 45 -164 122c0 14 1 26 5 42l74 348l137 25l-79 -374c-2 -8 -3 -13 -3 -18c0 -28 16 -45 59 -45c46 0 78 32 85 66l73 343z" />
    <glyph glyph-name="phi" unicode="&#x3c6;" horiz-adv-x="697" 
d="M663 317c0 -179 -128 -310 -306 -326l-38 -177l-140 -34l45 211c-122 17 -193 87 -193 205c0 156 116 287 268 318l-21 -99c-67 -35 -101 -141 -101 -214c0 -58 24 -95 68 -109l42 197c33 157 93 226 205 226c103 0 171 -85 171 -198zM517 313c0 69 -20 100 -42 100
c-33 0 -41 -57 -57 -131l-40 -190c90 27 139 136 139 221z" />
    <glyph glyph-name="chi" unicode="&#x3c7;" horiz-adv-x="468" 
d="M525 512l-211 -247l128 -265h-158c-25 70 -55 139 -60 171c-17 -29 -94 -128 -130 -171h-176l251 276l-96 213l138 37c17 -39 42 -107 54 -153c23 38 76 110 98 139h162z" />
    <glyph glyph-name="psi" unicode="&#x3c8;" horiz-adv-x="681" 
d="M675 524l-57 -267c-33 -157 -111 -250 -267 -258l-39 -185l-140 -34l46 219c-99 7 -169 57 -169 176c0 27 5 58 13 93l49 232l137 25l-56 -264c-6 -27 -13 -59 -13 -84c0 -39 14 -65 61 -78l98 461c14 67 18 108 10 143l139 43c7 -30 4 -87 -6 -136l-108 -510
c63 20 96 67 113 146l53 251z" />
    <glyph glyph-name="omega" unicode="&#x3c9;" horiz-adv-x="713" 
d="M679 289c0 -137 -78 -302 -237 -302c-63 0 -97 25 -117 84c-43 -60 -86 -84 -155 -84c-99 0 -139 75 -139 156c0 164 112 314 217 383l77 -45c-78 -80 -149 -195 -149 -311c0 -42 21 -62 40 -62c16 0 53 16 66 78l41 194h133l-41 -194c-3 -12 -4 -22 -4 -31
c0 -41 13 -47 30 -47c68 0 94 154 94 210s-11 108 -41 163l95 45c56 -64 90 -147 90 -237z" />
    <glyph glyph-name="iotadieresis" unicode="&#x3ca;" horiz-adv-x="280" 
d="M240 433c0 -30 -3 -60 -8 -83l-30 -142c-13 -60 -17 -85 -17 -99c0 -19 8 -29 26 -29c5 0 10 0 15 2l6 -80c-24 -9 -52 -14 -81 -14c-72 0 -105 39 -105 92c0 18 7 56 15 93l37 172c6 27 9 52 9 74c0 23 -3 43 -9 61l124 49c13 -24 18 -60 18 -96zM389 635
c0 -42 -35 -77 -77 -77s-76 35 -76 77s35 77 78 77c41 0 75 -35 75 -77zM178 635c0 -42 -35 -77 -77 -77c-41 0 -76 35 -76 77s36 77 78 77c41 0 75 -35 75 -77z" />
    <glyph glyph-name="upsilondieresis" unicode="&#x3cb;" horiz-adv-x="541" 
d="M527 524l-78 -365c-24 -116 -108 -171 -242 -171c-112 0 -164 45 -164 122c0 14 1 26 5 42l74 348l137 25l-79 -374c-2 -8 -3 -13 -3 -18c0 -28 16 -45 59 -45c46 0 78 32 85 66l73 343zM528 635c0 -42 -35 -77 -77 -77s-76 35 -76 77s35 77 78 77c41 0 75 -35 75 -77z
M317 635c0 -42 -35 -77 -77 -77c-41 0 -76 35 -76 77s36 77 78 77c41 0 75 -35 75 -77z" />
    <glyph glyph-name="omicrontonos" unicode="&#x3cc;" horiz-adv-x="546" 
d="M512 347c0 -180 -96 -358 -299 -358c-116 0 -182 64 -182 181c0 193 119 352 295 352c115 0 186 -63 186 -175zM368 347c0 59 -22 76 -62 76c-90 0 -133 -188 -133 -266c0 -49 25 -71 63 -71c86 0 132 161 132 261zM531 699l-167 -145l-56 55l135 169z" />
    <glyph glyph-name="upsilontonos" unicode="&#x3cd;" horiz-adv-x="541" 
d="M527 524l-78 -365c-24 -116 -108 -171 -242 -171c-112 0 -164 45 -164 122c0 14 1 26 5 42l74 348l137 25l-79 -374c-2 -8 -3 -13 -3 -18c0 -28 16 -45 59 -45c46 0 78 32 85 66l73 343zM510 699l-167 -145l-56 55l135 169z" />
    <glyph glyph-name="omegatonos" unicode="&#x3ce;" horiz-adv-x="713" 
d="M679 289c0 -137 -78 -302 -237 -302c-63 0 -97 25 -117 84c-43 -60 -86 -84 -155 -84c-99 0 -139 75 -139 156c0 164 112 314 217 383l77 -45c-78 -80 -149 -195 -149 -311c0 -42 21 -62 40 -62c16 0 53 16 66 78l41 194h133l-41 -194c-3 -12 -4 -22 -4 -31
c0 -41 13 -47 30 -47c68 0 94 154 94 210s-11 108 -41 163l95 45c56 -64 90 -147 90 -237zM600 699l-167 -145l-56 55l135 169z" />
    <glyph glyph-name="uni03D0" unicode="&#x3d0;" horiz-adv-x="603" 
d="M575 575c0 -86 -52 -160 -134 -188c69 -19 111 -85 111 -145c0 -163 -139 -258 -291 -258c-82 0 -185 24 -228 52c6 18 16 53 20 73l69 324c40 191 125 281 283 281c110 0 170 -64 170 -139zM440 555c0 37 -14 60 -57 60c-82 0 -107 -75 -126 -165l-71 -337
c11 -11 58 -29 91 -29c89 0 130 80 130 155c0 52 -21 83 -115 83h-13l21 100h21c79 0 119 55 119 133z" />
    <glyph glyph-name="theta1" unicode="&#x3d1;" horiz-adv-x="561" 
d="M88 178c10 42 12 74 12 90c0 2 0 7 -1 12l119 15c1 -5 1 -11 1 -14c0 -19 -3 -54 -14 -104c-3 -13 -4 -25 -4 -35c0 -45 28 -58 73 -58c86 0 119 52 157 200c-135 21 -258 74 -258 225c0 113 81 206 225 206c160 0 213 -109 213 -236c0 -39 -6 -80 -14 -120
c-55 -257 -131 -372 -343 -372c-92 0 -172 44 -172 139c0 16 2 33 6 52zM389 616c-59 0 -89 -60 -89 -119c0 -71 39 -95 152 -113c8 38 15 82 15 120c0 62 -18 112 -78 112z" />
    <glyph glyph-name="Upsilon1" unicode="&#x3d2;" horiz-adv-x="531" 
d="M358 237l-50 -237h-147l50 237c8 36 12 70 12 101c0 103 -44 182 -142 251l102 116c90 -61 127 -146 146 -258c60 119 146 197 262 258l51 -118c-166 -90 -251 -194 -284 -350z" />
    <glyph glyph-name="uni03D3" unicode="&#x3d3;" horiz-adv-x="531" 
d="M358 237l-50 -237h-147l50 237c8 36 12 70 12 101c0 103 -44 182 -142 251l102 116c90 -61 127 -146 146 -258c60 119 146 197 262 258l51 -118c-166 -90 -251 -194 -284 -350zM35 642l-167 -145l-56 55l135 169z" />
    <glyph glyph-name="uni03D4" unicode="&#x3d4;" horiz-adv-x="531" 
d="M358 237l-50 -237h-147l50 237c8 36 12 70 12 101c0 103 -44 182 -142 251l102 116c90 -61 127 -146 146 -258c60 119 146 197 262 258l51 -118c-166 -90 -251 -194 -284 -350zM573 818c0 -42 -35 -77 -77 -77s-76 35 -76 77s35 77 78 77c41 0 75 -35 75 -77zM362 818
c0 -42 -35 -77 -77 -77c-41 0 -76 35 -76 77s36 77 78 77c41 0 75 -35 75 -77z" />
    <glyph glyph-name="phi1" unicode="&#x3d5;" horiz-adv-x="685" 
d="M651 319c0 -176 -126 -307 -301 -327l-39 -186l-140 -30l46 217c-118 18 -186 90 -186 200c0 173 131 299 298 324l9 43c14 67 18 108 10 143l139 43c7 -30 4 -87 -6 -136l-19 -93c109 -18 189 -83 189 -198zM307 414c-92 -25 -134 -125 -134 -213c0 -54 26 -89 67 -104z
M507 314c0 55 -24 85 -67 101l-67 -318c83 23 134 131 134 217z" />
    <glyph glyph-name="uni0400" unicode="&#x400;" horiz-adv-x="495" 
d="M569 695l-43 -114h-236l-34 -161h197l-24 -114h-196l-39 -186h262l-26 -120h-405l148 695h396zM464 792l-46 -72l-216 100l66 106z" />
    <glyph glyph-name="uni0401" unicode="&#x401;" horiz-adv-x="495" 
d="M569 695l-43 -114h-236l-34 -161h197l-24 -114h-196l-39 -186h262l-26 -120h-405l148 695h396zM349 800c0 -42 -35 -77 -77 -77c-41 0 -76 35 -76 77s36 77 78 77c41 0 75 -35 75 -77zM560 800c0 -42 -35 -77 -77 -77c-41 0 -76 35 -76 77s36 77 78 77
c41 0 75 -35 75 -77z" />
    <glyph glyph-name="uni0402" unicode="&#x402;" horiz-adv-x="693" 
d="M612 695l-48 -116h-179l-36 -170c57 22 102 31 148 31c34 0 78 -5 113 -45c23 -26 34 -68 34 -116c0 -85 -35 -187 -100 -243c-45 -39 -90 -48 -132 -48c-32 0 -57 4 -85 15l-13 5l43 99c7 -4 13 -6 21 -9s18 -5 28 -5c53 0 65 48 73 87l8 37c5 21 6 32 6 49
c0 16 -2 32 -11 42c-10 12 -29 21 -57 21c-36 0 -72 -10 -98 -21l-65 -308h-142l123 579h-157l25 116h501z" />
    <glyph glyph-name="uni0403" unicode="&#x403;" horiz-adv-x="432" 
d="M552 695l-43 -115h-216l-123 -580h-145l148 695h379zM476 820l-239 -103l-40 75l231 133z" />
    <glyph glyph-name="uni0404" unicode="&#x404;" horiz-adv-x="559" 
d="M629 652l-83 -94c-36 32 -80 39 -110 39c-55 0 -105 -22 -136 -58c-20 -23 -36 -55 -42 -79l-10 -38h199l-24 -112h-202l-7 -33c-5 -23 -7 -42 -7 -59c0 -50 18 -74 30 -86c31 -32 75 -34 101 -34c24 0 73 4 133 45l45 -90c-52 -36 -122 -65 -212 -65
c-120 0 -181 55 -207 96c-27 41 -40 103 -40 152c0 70 21 159 53 232c24 55 53 99 94 139c87 84 179 100 249 100c92 0 143 -29 176 -55z" />
    <glyph glyph-name="uni0405" unicode="&#x405;" horiz-adv-x="612" 
d="M634 646l-84 -96c-45 34 -94 49 -154 49c-63 0 -116 -40 -116 -88c0 -28 18 -50 64 -67l80 -30c89 -33 137 -85 137 -164c0 -151 -129 -265 -337 -265c-98 0 -171 26 -229 63l74 107c58 -34 110 -54 180 -54c88 0 145 46 145 115c0 35 -24 57 -74 75l-73 27
c-78 29 -127 73 -127 154c0 140 132 244 297 244c85 0 166 -26 217 -70z" />
    <glyph glyph-name="uni0406" unicode="&#x406;" horiz-adv-x="297" 
d="M318 695l-148 -695h-145l148 695h145z" />
    <glyph glyph-name="uni0407" unicode="&#x407;" horiz-adv-x="297" 
d="M318 695l-148 -695h-145l148 695h145zM228 800c0 -42 -35 -77 -77 -77c-41 0 -76 35 -76 77s36 77 78 77c41 0 75 -35 75 -77zM439 800c0 -42 -35 -77 -77 -77c-41 0 -76 35 -76 77s36 77 78 77c41 0 75 -35 75 -77z" />
    <glyph glyph-name="uni0408" unicode="&#x408;" horiz-adv-x="297" 
d="M318 695l-119 -560c-19 -90 -26 -108 -39 -136c-38 -85 -133 -142 -201 -166l-49 75c41 22 81 56 99 84c17 25 26 53 42 128l122 575h145z" />
    <glyph glyph-name="uni0409" unicode="&#x409;" horiz-adv-x="938" 
d="M603 436h91c41 0 118 -4 164 -48c21 -20 45 -57 45 -116c0 -83 -35 -166 -107 -217c-48 -34 -115 -55 -189 -55h-236l124 585h-132l-27 -108c-14 -58 -51 -194 -83 -289c-19 -56 -37 -98 -83 -138c-24 -21 -62 -46 -140 -55l-45 -5l-5 103l18 3c27 4 51 19 57 23
c14 9 36 25 53 54c6 11 24 49 46 116c42 127 63 226 78 286l31 120h395zM534 114h79c24 0 63 3 97 39c21 22 35 56 35 96c0 21 -4 41 -23 56c-20 16 -48 17 -65 17h-79z" />
    <glyph glyph-name="uni040A" unicode="&#x40a;" horiz-adv-x="938" 
d="M658 695l-55 -259h91c41 0 118 -4 164 -48c21 -20 45 -57 45 -116c0 -83 -35 -166 -107 -217c-48 -34 -115 -55 -189 -55h-239l66 310h-201l-66 -310h-142l148 695h142l-58 -270h201l58 270h142zM534 114h79c24 0 63 3 97 39c21 22 35 56 35 96c0 21 -4 41 -23 56
c-20 16 -48 17 -65 17h-79z" />
    <glyph glyph-name="uni040B" unicode="&#x40b;" horiz-adv-x="692" 
d="M612 695l-48 -116h-179l-36 -170c57 22 101 31 148 31c63 0 104 -21 125 -48c13 -17 21 -40 21 -72c0 -14 -1 -29 -5 -46l-58 -274h-142l46 217c5 21 6 36 6 49c0 24 -6 35 -11 42c-10 12 -29 21 -57 21c-35 0 -69 -10 -95 -21l-65 -308h-142l123 579h-157l25 116h501z
" />
    <glyph glyph-name="uni040C" unicode="&#x40c;" horiz-adv-x="650" 
d="M672 707l8 -93l-34 -8c-11 -3 -23 -6 -35 -14c-20 -13 -34 -42 -36 -46l-33 -68c-21 -44 -33 -61 -44 -72c-19 -19 -51 -33 -74 -39c18 -7 35 -19 45 -32c12 -15 23 -48 25 -72l10 -103c2 -17 2 -38 22 -51c8 -5 28 -13 37 -16l19 -6l-46 -97l-74 9c-27 3 -61 23 -75 42
c-15 20 -16 38 -17 86l-3 99c-1 22 -9 53 -21 66c-18 20 -45 20 -61 20h-52l-66 -312h-142l148 695h142l-58 -272h69c20 0 51 10 64 20c15 11 27 32 42 65l40 89c11 25 23 49 48 70c23 19 49 27 80 31zM571 820l-239 -103l-40 75l231 133z" />
    <glyph glyph-name="uni040D" unicode="&#x40d;" horiz-adv-x="652" 
d="M525 0h-142l73 344c7 35 25 103 37 147c-28 -54 -50 -86 -73 -121l-248 -370h-147l148 695h142l-73 -344c-9 -40 -24 -100 -38 -147c29 53 51 87 74 121l248 370h147zM554 792l-46 -72l-216 100l66 106z" />
    <glyph glyph-name="uni040E" unicode="&#x40e;" horiz-adv-x="560" 
d="M246 695l48 -259c7 -38 13 -75 17 -140c36 88 55 118 83 169l124 230h147l-274 -489c-54 -96 -88 -157 -133 -189c-42 -30 -101 -40 -134 -44l-35 -4l-4 101l18 5c20 6 35 11 57 22c35 18 55 34 80 82l19 36l-69 -10l-94 490h150zM502 883l62 -29
c-18 -34 -43 -61 -70 -80c-42 -29 -77 -31 -113 -31c-30 0 -66 0 -99 31c-16 15 -34 41 -36 80l74 29c3 -13 16 -28 24 -34c12 -9 37 -13 57 -13c12 0 38 1 61 13c14 7 31 21 40 34z" />
    <glyph glyph-name="uni040F" unicode="&#x40f;" horiz-adv-x="622" 
d="M315 695l-124 -580h186l124 580h142l-148 -695h-168l-37 -172h-134l37 172h-168l148 695h142z" />
    <glyph glyph-name="uni0410" unicode="&#x410;" horiz-adv-x="588" 
d="M543 0h-145l-14 165h-204l-84 -165h-151l376 697h151zM375 281l-10 145c-4 53 -3 106 -3 118c-7 -17 -40 -90 -61 -134l-62 -129h136z" />
    <glyph glyph-name="uni0411" unicode="&#x411;" horiz-adv-x="620" 
d="M173 695h437l-40 -118h-280l-33 -153h112c50 0 116 -5 159 -49c22 -22 42 -59 42 -118c0 -69 -26 -162 -126 -217c-48 -27 -112 -40 -159 -40h-260zM191 114h97c24 0 57 4 86 35c22 23 35 60 35 95c0 14 -3 31 -15 44c-18 20 -44 22 -64 22h-97z" />
    <glyph glyph-name="uni0412" unicode="&#x412;" horiz-adv-x="598" 
d="M601 545c0 -68 -43 -146 -146 -176c64 -14 104 -70 104 -135c0 -44 -18 -112 -65 -160c-51 -52 -109 -74 -217 -74h-252l148 695h247c105 0 181 -50 181 -150zM405 237c0 49 -27 65 -89 65h-87l-40 -188h91c29 0 54 8 72 20c31 21 53 64 53 103zM450 515
c0 43 -19 61 -77 61h-87l-33 -159h82c38 0 56 8 73 20c22 16 42 44 42 78z" />
    <glyph glyph-name="uni0413" unicode="&#x413;" horiz-adv-x="432" 
d="M552 695l-43 -115h-216l-123 -580h-145l148 695h379z" />
    <glyph glyph-name="uni0414" unicode="&#x414;" horiz-adv-x="647" 
d="M-24 116h47c49 68 104 161 142 255c22 55 57 166 74 234l22 90h396l-122 -579h67l-60 -288h-135l37 172h-359l-36 -172h-135zM352 585l-9 -48c-14 -78 -50 -178 -90 -260c-33 -68 -63 -115 -100 -161h240l100 469h-141z" />
    <glyph glyph-name="uni0415" unicode="&#x415;" horiz-adv-x="495" 
d="M569 695l-43 -114h-236l-34 -161h197l-24 -114h-196l-39 -186h262l-26 -120h-405l148 695h396z" />
    <glyph glyph-name="uni0416" unicode="&#x416;" horiz-adv-x="936" 
d="M963 707l8 -93l-34 -8c-18 -5 -24 -7 -35 -14c-20 -13 -34 -42 -36 -46l-33 -68c-21 -44 -33 -61 -44 -72c-19 -19 -51 -33 -74 -39c18 -7 35 -19 45 -32c12 -15 23 -48 25 -72l10 -103c2 -17 2 -38 22 -51c8 -5 28 -13 37 -16l19 -6l-46 -97l-74 9c-27 3 -61 23 -75 42
c-14 20 -16 38 -17 86l-3 99c-1 22 -9 53 -21 66c-18 20 -45 20 -61 20h-30l-66 -312h-138l66 312h-30c-29 0 -83 -5 -118 -86l-44 -101c-12 -27 -27 -61 -52 -86c-32 -31 -71 -38 -92 -40l-81 -9l-6 97l20 6c11 3 35 12 43 16c19 9 30 23 44 51l51 103c12 25 28 47 50 66
c22 18 50 31 76 38c-21 7 -39 19 -50 33c-21 26 -18 48 -21 78l-6 68c-3 29 -10 40 -16 46c-8 7 -19 12 -29 14l-34 8l46 93l62 -9c31 -5 53 -11 68 -31c18 -24 17 -49 18 -70l5 -89c1 -20 2 -47 16 -63c11 -13 36 -22 57 -22h47l58 272h138l-58 -272h47c20 0 51 10 64 20
c15 11 27 32 42 65l40 89c11 25 23 49 48 70c23 19 49 27 80 31z" />
    <glyph glyph-name="uni0417" unicode="&#x417;" horiz-adv-x="531" 
d="M228 306h-82l23 105h69c26 0 58 4 84 23c39 29 42 71 42 93c0 17 -3 37 -23 54s-43 18 -64 18c-33 0 -73 -4 -127 -38l-46 89c22 13 104 57 226 57c35 0 103 -4 149 -51c17 -17 42 -50 42 -105c0 -26 -4 -85 -55 -134c-21 -20 -54 -41 -96 -52c28 -4 57 -18 75 -37
c15 -16 32 -43 32 -89c0 -43 -11 -137 -120 -203c-42 -25 -97 -48 -202 -48c-96 0 -152 23 -195 65l84 91c41 -41 95 -48 127 -48c37 0 80 12 104 32c29 24 45 67 45 103c0 31 -13 48 -24 57c-21 17 -53 18 -68 18z" />
    <glyph glyph-name="uni0418" unicode="&#x418;" horiz-adv-x="652" 
d="M525 0h-142l73 344c7 35 25 103 37 147c-28 -54 -50 -86 -73 -121l-248 -370h-147l148 695h142l-73 -344c-9 -40 -24 -100 -38 -147c29 53 51 87 74 121l248 370h147z" />
    <glyph glyph-name="uni0419" unicode="&#x419;" horiz-adv-x="652" 
d="M525 0h-142l73 344c7 35 25 103 37 147c-28 -54 -50 -86 -73 -121l-248 -370h-147l148 695h142l-73 -344c-9 -40 -24 -100 -38 -147c29 53 51 87 74 121l248 370h147zM543 883l62 -29c-18 -34 -43 -61 -70 -80c-42 -29 -77 -31 -113 -31c-30 0 -66 0 -99 31
c-16 15 -34 41 -36 80l74 29c3 -13 16 -28 24 -34c12 -9 37 -13 57 -13c12 0 38 1 61 13c14 7 31 21 40 34z" />
    <glyph glyph-name="uni041A" unicode="&#x41a;" horiz-adv-x="650" 
d="M672 707l8 -93l-34 -8c-11 -3 -23 -6 -35 -14c-20 -13 -34 -42 -36 -46l-33 -68c-21 -44 -33 -61 -44 -72c-19 -19 -51 -33 -74 -39c18 -7 35 -19 45 -32c12 -15 23 -48 25 -72l10 -103c2 -17 2 -38 22 -51c8 -5 28 -13 37 -16l19 -6l-46 -97l-74 9c-27 3 -61 23 -75 42
c-15 20 -16 38 -17 86l-3 99c-1 22 -9 53 -21 66c-18 20 -45 20 -61 20h-52l-66 -312h-142l148 695h142l-58 -272h69c20 0 51 10 64 20c15 11 27 32 42 65l40 89c11 25 23 49 48 70c23 19 49 27 80 31z" />
    <glyph glyph-name="uni041B" unicode="&#x41b;" horiz-adv-x="632" 
d="M505 0h-142l124 585h-129l-27 -108c-25 -101 -39 -159 -83 -289c-19 -56 -37 -98 -83 -138c-24 -21 -62 -46 -140 -55l-45 -5l-5 103l18 3c27 4 51 19 57 23c14 9 35 24 53 54c7 12 24 48 46 116c29 88 56 192 78 286l28 120h398z" />
    <glyph glyph-name="uni041C" unicode="&#x41c;" horiz-adv-x="827" 
d="M809 695l-86 -695h-135l53 371c6 44 12 79 20 116c-17 -40 -28 -65 -49 -107l-191 -380h-119l-21 365c-2 34 -4 83 -2 123c-9 -41 -20 -82 -32 -125l-101 -363h-141l213 695h177l17 -348c2 -50 2 -74 0 -110c14 36 29 72 49 113l168 345h180z" />
    <glyph glyph-name="uni041D" unicode="&#x41d;" horiz-adv-x="633" 
d="M654 695l-148 -695h-142l66 310h-200l-66 -310h-139l148 695h139l-58 -270h200l58 270h142z" />
    <glyph glyph-name="uni041E" unicode="&#x41e;" horiz-adv-x="694" 
d="M682 454c0 -175 -89 -365 -230 -432c-46 -22 -99 -33 -157 -33c-172 0 -238 104 -238 249c0 197 95 338 185 403c41 30 98 63 204 63c153 0 236 -95 236 -250zM525 483c0 68 -28 113 -104 113c-47 0 -93 -24 -121 -61c-55 -72 -92 -225 -92 -318c0 -89 38 -121 108 -121
c40 0 81 13 113 52c60 74 96 239 96 335z" />
    <glyph glyph-name="uni041F" unicode="&#x41f;" horiz-adv-x="626" 
d="M647 695l-148 -695h-138l124 585h-198l-124 -585h-138l148 695h474z" />
    <glyph glyph-name="uni0420" unicode="&#x420;" horiz-adv-x="571" 
d="M606 536c0 -120 -57 -208 -161 -256c-35 -16 -94 -24 -149 -24h-74l-54 -256h-143l148 695h183c94 0 146 -10 180 -32c44 -27 70 -73 70 -127zM455 509c0 46 -25 73 -77 73h-86l-45 -212h70c54 0 84 12 102 34c21 25 36 65 36 105z" />
    <glyph glyph-name="uni0421" unicode="&#x421;" horiz-adv-x="563" 
d="M625 655l-81 -92c-29 26 -66 36 -105 36c-47 0 -98 -25 -130 -62c-61 -68 -96 -229 -96 -309c0 -92 45 -132 123 -132c41 0 80 15 128 48l48 -91c-64 -45 -130 -65 -209 -65c-156 0 -246 88 -246 244c0 108 41 239 105 324c75 101 187 154 299 154c69 0 133 -22 164 -55z
" />
    <glyph glyph-name="uni0422" unicode="&#x422;" horiz-adv-x="501" 
d="M612 695l-48 -116h-164l-123 -579h-144l123 579h-170l25 116h501z" />
    <glyph glyph-name="uni0423" unicode="&#x423;" horiz-adv-x="560" 
d="M246 695l48 -259c7 -38 13 -75 17 -140c36 88 55 118 83 169l124 230h147l-274 -489c-54 -96 -88 -157 -133 -189c-42 -30 -101 -40 -134 -44l-35 -4l-4 101l18 5c20 6 35 11 57 22c35 18 55 34 80 82l19 36l-69 -10l-94 490h150z" />
    <glyph glyph-name="uni0424" unicode="&#x424;" horiz-adv-x="788" 
d="M408 0h-140l22 102h-24c-67 0 -128 23 -163 61c-30 32 -46 82 -46 138c0 93 47 211 128 272c52 39 127 60 194 60h24l20 97h140l-20 -97h24c67 0 120 -20 152 -48c51 -45 57 -107 57 -147c0 -109 -43 -199 -108 -257c-45 -40 -116 -79 -214 -79h-24zM389 538h-13
c-46 0 -76 -18 -91 -30c-47 -38 -80 -126 -80 -209c0 -24 3 -48 19 -69c24 -30 57 -33 80 -33h13zM515 538l-72 -341h13c31 0 63 7 94 33c55 47 76 149 76 211c0 26 -2 51 -24 72c-24 23 -55 25 -74 25h-13z" />
    <glyph glyph-name="uni0425" unicode="&#x425;" horiz-adv-x="538" 
d="M634 695l-250 -329l134 -366h-164l-74 240l-171 -240h-180l300 375l-122 320h163l61 -194l136 194h167z" />
    <glyph glyph-name="uni0426" unicode="&#x426;" horiz-adv-x="627" 
d="M173 695h138l-123 -579h188l123 579h138l-124 -579h68l-60 -288h-135l37 172h-398z" />
    <glyph glyph-name="uni0427" unicode="&#x427;" horiz-adv-x="588" 
d="M457 0h-138l61 285c-19 -7 -79 -26 -152 -26c-31 0 -79 6 -110 36c-27 27 -34 67 -34 96c0 14 1 23 3 33l58 271h138l-47 -218c-3 -13 -6 -31 -6 -48c0 -19 4 -37 16 -49c14 -14 39 -15 55 -15c29 0 53 4 100 21l66 309h138z" />
    <glyph glyph-name="uni0428" unicode="&#x428;" horiz-adv-x="909" 
d="M312 695l-124 -579h170l124 579h139l-124 -579h170l124 579h139l-148 -695h-757l148 695h139z" />
    <glyph glyph-name="uni0429" unicode="&#x429;" horiz-adv-x="909" 
d="M312 695l-124 -579h170l124 579h139l-124 -579h170l124 579h139l-124 -579h67l-60 -288h-135l37 172h-690l148 695h139z" />
    <glyph glyph-name="uni042A" unicode="&#x42a;" horiz-adv-x="673" 
d="M392 695l-55 -259h91c56 0 122 -5 167 -50c14 -15 43 -51 43 -121c0 -88 -49 -176 -132 -224c-25 -14 -80 -41 -165 -41h-239l123 580h-170l25 115h312zM268 112h79c17 0 68 2 104 47c20 25 29 62 29 91c0 26 -9 41 -16 49c-11 13 -34 25 -72 25h-79z" />
    <glyph glyph-name="uni042B" unicode="&#x42b;" horiz-adv-x="868" 
d="M173 695h142l-55 -259h91c56 0 122 -5 167 -50c36 -35 42 -81 42 -119c0 -129 -80 -197 -131 -226c-35 -20 -90 -41 -165 -41h-239zM191 112h79c21 0 63 3 96 38c24 26 37 67 37 98c0 33 -13 50 -23 59c-19 16 -46 17 -65 17h-79zM889 695l-148 -695h-145l148 695h145z
" />
    <glyph glyph-name="uni042C" unicode="&#x42c;" horiz-adv-x="595" 
d="M173 695h142l-55 -259h91c56 0 122 -5 167 -50c36 -35 42 -81 42 -119c0 -129 -80 -197 -131 -226c-35 -20 -90 -41 -165 -41h-239zM191 112h79c21 0 63 3 96 38c24 26 37 67 37 98c0 33 -13 50 -23 59c-19 16 -46 17 -65 17h-79z" />
    <glyph glyph-name="uni042D" unicode="&#x42d;" horiz-adv-x="577" 
d="M162 558l-45 94c43 28 106 55 196 55c113 0 176 -47 210 -99c30 -46 42 -110 42 -170c0 -86 -29 -255 -144 -361c-81 -75 -178 -89 -241 -89c-100 0 -155 37 -185 65l80 89c46 -38 87 -44 116 -44c45 0 103 12 141 57c27 31 45 79 52 120l6 33h-202l20 111h198l3 25
c1 10 3 23 3 36c0 20 -4 42 -15 63c-17 32 -51 54 -109 54c-40 0 -86 -12 -126 -39z" />
    <glyph glyph-name="uni042E" unicode="&#x42e;" horiz-adv-x="954" 
d="M173 695h139l-58 -270h112c19 61 57 137 115 192c42 39 116 90 230 90c62 0 141 -15 192 -93c27 -41 39 -97 39 -157c0 -131 -58 -285 -153 -375c-62 -59 -136 -94 -231 -94c-114 0 -174 53 -204 115c-17 35 -25 79 -25 124c0 28 3 57 9 83h-108l-66 -310h-139zM689 600
c-72 0 -108 -47 -126 -74c-44 -67 -81 -213 -81 -307c0 -19 2 -36 5 -49c7 -29 24 -75 94 -75c73 0 107 46 126 75c44 67 81 213 81 307c0 19 -2 36 -5 49c-7 27 -24 74 -94 74z" />
    <glyph glyph-name="uni042F" unicode="&#x42f;" horiz-adv-x="614" 
d="M635 695l-148 -695h-138l60 283h-56c-21 0 -49 -2 -71 -20c-15 -12 -37 -46 -46 -67l-32 -71c-17 -38 -26 -65 -54 -90c-11 -10 -38 -30 -90 -36l-84 -9l-6 97l23 6c13 3 34 12 46 19c10 6 25 16 41 48l40 79c13 25 24 47 50 68c31 25 65 34 77 37c-45 6 -81 30 -98 55
c-17 24 -23 56 -23 83c0 56 31 120 83 160c60 46 132 53 191 53h235zM473 583h-77c-21 0 -46 -1 -72 -15c-39 -22 -53 -63 -53 -97c0 -16 4 -36 20 -52c20 -21 47 -24 69 -24h73z" />
    <glyph glyph-name="uni0430" unicode="&#x430;" horiz-adv-x="540" 
d="M519 487c-11 -31 -25 -87 -33 -126l-41 -194c-3 -14 -4 -26 -4 -38c0 -25 7 -44 23 -62l-111 -83c-24 16 -35 43 -39 63c-38 -40 -80 -61 -136 -61c-93 0 -141 57 -141 163c0 123 47 232 108 293c56 56 119 80 204 80c60 0 127 -10 170 -35zM367 410c-6 4 -24 8 -36 8
c-33 0 -58 -2 -94 -44c-42 -50 -63 -151 -63 -219c0 -46 12 -66 41 -66c42 0 85 43 99 80z" />
    <glyph glyph-name="uni0431" unicode="&#x431;" horiz-adv-x="574" 
d="M574 765l23 -105c-20 -10 -45 -20 -134 -48c-88 -27 -79 -18 -146 -44c-31 -12 -58 -25 -83 -66c-12 -18 -22 -45 -30 -74c21 25 48 45 66 55c31 18 74 29 115 29c54 0 96 -25 119 -63c20 -31 27 -73 27 -112c0 -90 -35 -200 -111 -274c-32 -31 -88 -75 -185 -75
c-73 0 -115 29 -139 55c-28 31 -47 80 -47 136c0 36 5 94 38 201c16 51 34 98 57 141c60 112 133 150 223 177l59 18c48 15 37 9 148 49zM324 414c-36 0 -55 -18 -64 -27c-18 -19 -29 -43 -36 -64c-13 -36 -32 -112 -32 -154c0 -5 0 -35 9 -53c8 -16 23 -30 54 -30
c30 0 48 12 64 30c17 19 27 39 36 64c11 32 32 117 32 161c0 16 -3 32 -11 46c-7 13 -21 27 -52 27z" />
    <glyph glyph-name="uni0432" unicode="&#x432;" horiz-adv-x="554" 
d="M32 19l66 309c17 78 51 123 85 149c34 27 86 47 155 47c83 0 122 -25 136 -37s40 -40 40 -87c0 -34 -14 -70 -42 -95c-16 -14 -40 -27 -61 -34c23 -5 46 -18 59 -33c18 -20 22 -43 22 -59c0 -57 -32 -112 -70 -140c-46 -34 -120 -51 -201 -51c-63 0 -129 10 -189 31z
M209 225l-29 -135c23 -7 52 -9 64 -9c24 0 50 3 70 18c16 11 35 34 35 72c0 16 -3 29 -16 40c-16 13 -32 14 -49 14h-75zM226 304h64c30 0 49 11 58 19c17 14 29 36 29 65c0 11 -2 23 -14 32c-10 8 -25 11 -41 11c-19 0 -40 -6 -55 -19c-19 -15 -26 -32 -34 -72z" />
    <glyph glyph-name="uni0433" unicode="&#x433;" horiz-adv-x="448" 
d="M130 384l-44 83c23 17 43 27 68 36c39 14 80 22 125 22c35 0 80 -6 115 -37c36 -32 42 -69 42 -101c0 -39 -8 -69 -39 -100c-32 -33 -73 -51 -109 -63l-35 -12c-52 -18 -81 -25 -100 -41c-13 -11 -19 -22 -19 -40c0 -13 3 -21 11 -29c15 -14 40 -15 52 -15
c45 0 84 13 110 25c15 7 30 16 44 25l32 -91l-14 -9c-24 -16 -59 -28 -86 -35c-34 -9 -67 -13 -104 -13c-38 0 -85 6 -119 35c-28 24 -45 62 -45 104c0 34 10 74 47 107c20 18 51 36 107 55l27 9c75 25 93 38 101 44c8 7 20 20 20 40c0 18 -9 28 -19 34c-11 7 -29 9 -42 9
c-23 0 -55 -6 -77 -15c-17 -7 -37 -18 -49 -27z" />
    <glyph glyph-name="uni0434" unicode="&#x434;" horiz-adv-x="578" 
d="M195 637l43 102c22 3 46 5 70 5c34 0 67 -3 95 -11c41 -11 76 -32 102 -71c38 -56 39 -124 39 -174c0 -153 -47 -329 -120 -413c-37 -43 -106 -87 -203 -87c-47 0 -98 11 -134 51c-36 39 -43 90 -43 129c0 111 47 218 111 275c29 26 79 57 146 57c24 0 41 -4 61 -11
c19 -6 33 -12 50 -26c2 13 3 29 3 45c0 26 -3 54 -11 74c-10 23 -26 39 -47 49c-29 15 -60 16 -85 16c-35 0 -56 -3 -77 -10zM381 317l12 54c-11 10 -23 17 -34 22c-13 5 -28 9 -41 9c-67 0 -92 -65 -105 -104c-24 -72 -27 -116 -27 -139c0 -54 28 -73 54 -73
c23 0 55 9 82 53c26 42 42 99 59 178z" />
    <glyph glyph-name="uni0435" unicode="&#x435;" horiz-adv-x="514" 
d="M502 383c0 -97 -89 -176 -259 -176c-29 0 -55 5 -61 7c-2 -11 -5 -35 -5 -46c0 -58 30 -82 86 -82c46 0 94 20 142 54l34 -84c-69 -48 -136 -70 -208 -70c-122 0 -194 64 -194 188c0 106 47 215 115 281c51 49 108 68 176 68c101 0 174 -40 174 -140zM367 372
c0 31 -14 53 -54 53c-51 0 -89 -30 -109 -119c4 -1 22 -5 38 -5c58 0 125 20 125 71z" />
    <glyph glyph-name="uni0436" unicode="&#x436;" horiz-adv-x="883" 
d="M324 0l47 223h-62c-19 -78 -61 -135 -90 -166c-30 -33 -74 -69 -144 -69c-44 0 -85 13 -116 49l67 82c10 -20 30 -33 51 -33c30 0 47 17 66 48c31 50 64 129 64 212c0 19 0 47 -16 66c-9 11 -18 14 -32 14c-19 0 -46 -7 -73 -42l-43 73c38 45 90 67 150 67
c36 0 70 -10 99 -43c27 -31 41 -75 41 -132c0 -10 0 -20 -1 -31h60l38 182l138 25l-44 -207h65c14 42 37 87 82 136c31 34 73 70 144 70c46 0 87 -16 116 -51l-67 -80c-15 29 -44 33 -52 33c-27 0 -48 -19 -66 -47c-28 -44 -64 -134 -64 -212c0 -20 0 -48 16 -67
c10 -12 20 -14 32 -14c27 0 49 11 73 42l43 -75c-54 -61 -118 -65 -149 -65c-28 0 -70 6 -101 42c-27 32 -39 81 -39 130c0 23 2 44 5 63h-59l-47 -223h-132z" />
    <glyph glyph-name="uni0437" unicode="&#x437;" horiz-adv-x="466" 
d="M163 315h52c17 0 39 6 54 17c14 10 23 24 23 43c0 14 -2 29 -16 40c-12 9 -29 12 -42 12c-29 0 -51 -5 -73 -15c-18 -8 -32 -16 -45 -27l-38 77c18 14 44 32 80 44c37 13 79 18 115 18c33 0 75 -4 111 -31c33 -25 47 -58 47 -96c0 -48 -20 -78 -37 -94
c-22 -22 -48 -32 -58 -35c19 -4 34 -14 48 -33c14 -20 16 -38 16 -63c0 -79 -48 -122 -87 -145c-42 -26 -105 -39 -164 -39c-62 0 -98 16 -124 34c-16 11 -29 22 -40 36l77 80c8 -12 18 -22 30 -31c23 -17 42 -21 69 -21c19 0 44 3 63 16s34 36 34 69c0 23 -11 34 -19 40
c-13 9 -39 11 -56 11h-38z" />
    <glyph glyph-name="uni0438" unicode="&#x438;" horiz-adv-x="547" 
d="M530 524l-83 -391c-7 -34 -4 -80 11 -104l-116 -46c-12 18 -22 44 -24 68c-38 -35 -88 -64 -148 -64c-79 0 -125 40 -125 104c0 19 2 44 10 81l69 328l138 25l-70 -329c-6 -27 -10 -55 -10 -69c0 -22 16 -39 32 -39c41 0 90 44 110 76l71 333z" />
    <glyph glyph-name="uni0439" unicode="&#x439;" horiz-adv-x="547" 
d="M530 524l-83 -391c-7 -34 -4 -80 11 -104l-116 -46c-12 18 -22 44 -24 68c-38 -35 -88 -64 -148 -64c-79 0 -125 40 -125 104c0 19 2 44 10 81l69 328l138 25l-70 -329c-6 -27 -10 -55 -10 -69c0 -22 16 -39 32 -39c41 0 90 44 110 76l71 333zM474 742l65 -29
c-18 -37 -47 -69 -75 -88c-34 -23 -78 -33 -119 -33c-48 0 -83 14 -105 34c-20 18 -36 50 -38 87l78 29c4 -12 13 -26 28 -36c20 -13 41 -14 58 -14c20 0 44 2 65 14c13 7 34 24 43 36z" />
    <glyph glyph-name="uni043A" unicode="&#x43a;" horiz-adv-x="540" 
d="M148 0h-126l106 500l137 25l-37 -164l-33 -105h2l24 42c21 37 41 72 83 115c26 26 54 49 88 67c37 20 83 36 128 45l25 -90l-20 -6c-61 -18 -144 -57 -199 -136c32 -2 64 -12 81 -36c10 -14 18 -40 19 -60l2 -59c0 -5 1 -27 8 -36c6 -7 14 -11 23 -13l28 -8l-38 -91
l-46 5c-31 3 -64 12 -81 41c-10 18 -13 37 -14 72l-2 68c0 8 -1 17 -11 24c-8 5 -20 7 -28 7c-42 -52 -75 -110 -119 -207z" />
    <glyph glyph-name="uni043B" unicode="&#x43b;" horiz-adv-x="540" 
d="M288 0l89 420h-91l-11 -45c-5 -20 -18 -74 -31 -118c-25 -87 -39 -126 -51 -151s-31 -57 -59 -78s-60 -28 -100 -33l-42 -5l-12 92l27 7c12 3 40 13 59 35c15 18 25 41 33 61c17 44 31 87 44 134c10 37 20 77 33 129l16 64h337l-109 -512h-132z" />
    <glyph glyph-name="uni043C" unicode="&#x43c;" horiz-adv-x="684" 
d="M599 0h-118l36 266c2 13 2 24 6 45l9 41c-12 -28 -33 -67 -39 -79l-152 -273h-102l-29 261c-2 15 -4 45 -4 76v15c-7 -36 -18 -76 -23 -93l-74 -259h-119l162 512h156l20 -253c1 -17 4 -30 4 -48v-33c10 26 29 66 38 83l132 251h154z" />
    <glyph glyph-name="uni043D" unicode="&#x43d;" horiz-adv-x="547" 
d="M154 0h-132l106 500l138 25l-45 -208h138l39 183l138 25l-112 -525h-132l47 223h-138z" />
    <glyph glyph-name="uni043E" unicode="&#x43e;" horiz-adv-x="546" 
d="M512 347c0 -180 -96 -358 -299 -358c-116 0 -182 64 -182 181c0 193 119 352 295 352c115 0 186 -63 186 -175zM368 347c0 59 -22 76 -62 76c-90 0 -133 -188 -133 -266c0 -49 25 -71 63 -71c86 0 132 161 132 261z" />
    <glyph glyph-name="uni043F" unicode="&#x43f;" horiz-adv-x="551" 
d="M511 422c0 -22 -3 -50 -8 -72l-74 -350h-132l71 333c4 20 7 35 7 46c0 25 -11 32 -35 32c-32 0 -70 -20 -112 -77l-71 -334h-132l73 345c6 27 9 52 9 74c0 23 -3 43 -9 61l124 49c9 -17 15 -61 13 -83c43 46 98 77 173 77c65 0 103 -39 103 -101z" />
    <glyph glyph-name="uni0440" unicode="&#x440;" horiz-adv-x="565" 
d="M535 354c0 -93 -40 -227 -102 -289c-46 -46 -108 -76 -174 -76c-40 0 -82 7 -104 20c1 -9 -3 -25 -5 -35l-34 -160l-136 -34l122 573c12 57 8 97 -2 127l124 49c9 -14 15 -59 13 -82c38 40 98 76 161 76c87 0 137 -65 137 -169zM391 350c0 41 -13 61 -47 61
c-33 0 -77 -23 -115 -81l-47 -219c8 -11 41 -22 68 -22c43 0 66 20 82 44c38 57 59 160 59 217z" />
    <glyph glyph-name="uni0441" unicode="&#x441;" horiz-adv-x="446" 
d="M471 466l-78 -84c-22 25 -51 38 -76 38c-24 0 -45 -10 -63 -30c-37 -42 -71 -148 -71 -227c0 -53 25 -76 61 -76c37 0 74 21 112 51l45 -83c-56 -43 -113 -68 -188 -68c-114 0 -176 66 -176 176c0 127 59 243 130 303c46 39 97 61 168 61c47 0 99 -19 136 -61z" />
    <glyph glyph-name="uni0442" unicode="&#x442;" horiz-adv-x="800" 
d="M760 417c0 -20 -3 -44 -8 -67l-74 -350h-130l72 338c4 19 6 33 6 44c0 22 -9 29 -33 29c-35 0 -76 -30 -106 -77l-71 -334h-127l71 333c5 22 7 38 7 50c0 21 -9 28 -32 28c-35 0 -72 -28 -108 -77l-71 -334h-131l75 350c4 19 6 41 6 61c0 28 -3 55 -8 69l124 49
c7 -16 14 -55 12 -82c50 51 107 76 164 76c52 0 89 -23 94 -76c55 55 111 76 165 76c57 0 103 -30 103 -106z" />
    <glyph glyph-name="uni0443" unicode="&#x443;" horiz-adv-x="514" 
d="M575 512l-297 -520c-56 -99 -91 -142 -134 -169c-39 -25 -86 -41 -134 -47l-27 90c31 7 67 18 90 32c41 25 57 48 89 102h-37c-2 38 -7 100 -13 144l-46 360l138 16l25 -299c2 -28 4 -91 4 -106c7 18 39 96 69 153l129 244h144z" />
    <glyph glyph-name="uni0444" unicode="&#x444;" horiz-adv-x="770" 
d="M397 16l-43 -204l-139 -33l50 237c-36 -26 -69 -28 -87 -28c-67 0 -102 34 -120 63c-18 28 -26 68 -26 114c0 105 44 237 115 303c44 41 92 56 131 56c24 0 62 -5 88 -33l47 218l139 32l-54 -250c33 24 73 33 102 33c31 0 76 -9 107 -56c20 -30 29 -71 29 -114
c0 -111 -56 -245 -116 -303c-52 -50 -107 -63 -148 -63c-23 0 -51 4 -75 28zM476 387l-57 -268c18 -22 33 -26 52 -26c26 0 45 7 66 34c31 40 59 149 59 217c0 18 -2 33 -6 43c-10 23 -24 28 -44 28c-19 0 -44 -5 -70 -28zM287 119l57 268c-18 26 -45 28 -58 28
c-23 0 -39 -8 -56 -28c-30 -36 -61 -160 -61 -227c0 -14 1 -25 4 -33c12 -30 30 -34 52 -34c17 0 37 3 62 26z" />
    <glyph glyph-name="uni0445" unicode="&#x445;" horiz-adv-x="468" 
d="M525 512l-211 -247l128 -265h-158c-25 70 -55 139 -60 171c-17 -29 -94 -128 -130 -171h-176l251 276l-96 213l138 37c17 -39 42 -107 54 -153c23 38 76 110 98 139h162z" />
    <glyph glyph-name="uni0446" unicode="&#x446;" horiz-adv-x="547" 
d="M530 524l-83 -391c-2 -8 -4 -17 -4 -25h32l-58 -273h-123l35 166c-7 15 -10 34 -11 50c-38 -35 -88 -64 -148 -64c-79 0 -125 40 -125 104c0 19 2 44 10 81l69 328l138 25l-70 -329c-6 -27 -10 -55 -10 -69c0 -22 16 -39 32 -39c41 0 90 44 110 76l71 333z" />
    <glyph glyph-name="uni0447" unicode="&#x447;" horiz-adv-x="500" 
d="M352 500l138 25l-112 -525h-132l42 198c-34 -13 -74 -20 -104 -20c-63 0 -97 24 -111 46c-11 16 -14 35 -14 53c0 16 3 32 6 47l37 176l138 25l-40 -188c-2 -8 -3 -16 -3 -25s2 -18 8 -26c11 -13 28 -14 38 -14c16 0 41 4 64 15z" />
    <glyph glyph-name="uni0448" unicode="&#x448;" horiz-adv-x="801" 
d="M646 500l136 24l-77 -363c-5 -24 -5 -63 -5 -87c0 -15 3 -28 7 -43l-124 -49c-9 26 -12 42 -12 70v12c-45 -47 -107 -76 -164 -76s-91 30 -94 76c-40 -42 -101 -76 -165 -76c-56 0 -104 27 -104 106c0 14 1 31 9 67l71 339l135 24l-74 -351c-6 -27 -6 -39 -6 -44
c0 -10 1 -29 30 -29c38 0 82 32 109 77l68 323l132 24l-73 -346c-6 -27 -7 -37 -7 -50c0 -7 1 -28 30 -28c44 0 81 36 110 77z" />
    <glyph glyph-name="uni0449" unicode="&#x449;" horiz-adv-x="801" 
d="M646 500l136 24l-77 -363c-3 -15 -5 -34 -5 -53h24l-58 -273h-123l35 164c-5 17 -7 31 -7 53v12c-45 -47 -107 -76 -164 -76s-91 30 -94 76c-40 -42 -101 -76 -165 -76c-56 0 -104 27 -104 106c0 14 1 31 9 67l71 339l135 24l-74 -351c-6 -27 -6 -39 -6 -44
c0 -10 1 -29 30 -29c38 0 82 32 109 77l68 323l132 24l-73 -346c-6 -27 -7 -37 -7 -50c0 -7 1 -28 30 -28c44 0 81 36 110 77z" />
    <glyph glyph-name="uni044A" unicode="&#x44a;" horiz-adv-x="575" 
d="M326 512l-40 -188c28 6 61 9 84 9c39 0 86 -8 117 -32c33 -26 43 -62 43 -96c0 -49 -15 -107 -63 -151c-64 -59 -153 -66 -216 -66c-65 0 -110 8 -162 31l84 399h-118l34 94h237zM266 232l-29 -138c5 -2 22 -9 51 -9c38 0 60 10 72 21c15 14 28 39 28 73
c0 15 -2 33 -20 47c-14 11 -31 12 -45 12c-10 0 -34 -1 -57 -6z" />
    <glyph glyph-name="uni044B" unicode="&#x44b;" horiz-adv-x="766" 
d="M265 525l-43 -201c28 6 61 9 84 9c39 0 86 -8 117 -32c33 -26 43 -62 43 -96c0 -49 -15 -107 -63 -151c-64 -59 -153 -66 -216 -66c-65 0 -110 8 -162 31l102 481zM202 232l-29 -138c5 -2 22 -9 51 -9c38 0 60 10 72 21c15 14 28 39 28 73c0 15 -2 33 -20 47
c-14 11 -31 12 -45 12c-10 0 -34 -1 -57 -6zM757 524l-111 -524h-134l107 503z" />
    <glyph glyph-name="uni044C" unicode="&#x44c;" horiz-adv-x="507" 
d="M265 525l-43 -201c28 6 61 9 84 9c39 0 86 -8 117 -32c33 -26 43 -62 43 -96c0 -49 -15 -107 -63 -151c-64 -59 -153 -66 -216 -66c-65 0 -110 8 -162 31l102 481zM202 232l-29 -138c5 -2 22 -9 51 -9c38 0 60 10 72 21c15 14 28 39 28 73c0 15 -2 33 -20 47
c-14 11 -31 12 -45 12c-10 0 -34 -1 -57 -6z" />
    <glyph glyph-name="uni044D" unicode="&#x44d;" horiz-adv-x="473" 
d="M143 223l20 94h128c2 8 4 23 4 35c0 14 -3 33 -9 45c-8 14 -24 28 -58 28c-29 0 -52 -8 -67 -15c-20 -10 -35 -20 -41 -25l-44 83c19 15 84 59 185 59c44 0 104 -11 141 -63c6 -9 35 -52 35 -142c0 -82 -31 -197 -97 -261c-34 -33 -97 -73 -198 -73c-43 0 -75 8 -109 25
c-24 12 -41 24 -58 45l79 81c26 -32 63 -49 99 -49c29 0 63 5 87 40c14 20 23 55 27 74l4 19h-128z" />
    <glyph glyph-name="uni044E" unicode="&#x44e;" horiz-adv-x="788" 
d="M221 317h89c17 55 48 101 82 133c46 43 108 72 179 72c73 0 181 -30 181 -194c0 -77 -23 -158 -66 -218c-39 -55 -111 -120 -228 -120c-51 0 -98 11 -133 51c-34 39 -42 90 -42 131c0 21 2 39 4 51h-86l-47 -223h-132l106 500l138 25zM561 424c-28 0 -74 -13 -105 -104
c-13 -37 -33 -106 -33 -163c0 -15 2 -36 15 -51c8 -9 20 -18 39 -18c40 0 63 27 78 53c31 52 54 134 54 200c0 49 -12 65 -17 70c-8 8 -21 13 -31 13z" />
    <glyph glyph-name="uni044F" unicode="&#x44f;" horiz-adv-x="526" 
d="M318 195h-31c-15 0 -31 -1 -49 -13c-20 -13 -31 -33 -38 -49l-19 -43c-12 -27 -24 -48 -40 -64c-26 -25 -61 -32 -109 -34l-47 -2l-5 92l19 4c16 4 26 7 33 12c18 11 27 27 33 38l22 37c12 20 21 31 38 44c16 12 29 19 48 22c-26 6 -49 20 -64 39c-14 18 -20 38 -20 61
c0 54 26 110 86 145c19 11 71 38 164 38c79 0 148 -18 176 -26l-106 -496h-132zM337 280l29 139c-6 2 -19 6 -46 6c-23 0 -48 -5 -65 -18c-19 -13 -33 -38 -33 -70c0 -26 11 -38 17 -43c16 -13 44 -14 53 -14h45z" />
    <glyph glyph-name="uni0450" unicode="&#x450;" horiz-adv-x="514" 
d="M502 383c0 -97 -89 -176 -259 -176c-29 0 -55 5 -61 7c-2 -11 -5 -35 -5 -46c0 -58 30 -82 86 -82c46 0 94 20 142 54l34 -84c-69 -48 -136 -70 -208 -70c-122 0 -194 64 -194 188c0 106 47 215 115 281c51 49 108 68 176 68c101 0 174 -40 174 -140zM367 372
c0 31 -14 53 -54 53c-51 0 -89 -30 -109 -119c4 -1 22 -5 38 -5c58 0 125 20 125 71zM445 629l-46 -72l-216 100l66 106z" />
    <glyph glyph-name="uni0451" unicode="&#x451;" horiz-adv-x="514" 
d="M502 383c0 -97 -89 -176 -259 -176c-29 0 -55 5 -61 7c-2 -11 -5 -35 -5 -46c0 -58 30 -82 86 -82c46 0 94 20 142 54l34 -84c-69 -48 -136 -70 -208 -70c-122 0 -194 64 -194 188c0 106 47 215 115 281c51 49 108 68 176 68c101 0 174 -40 174 -140zM367 372
c0 31 -14 53 -54 53c-51 0 -89 -30 -109 -119c4 -1 22 -5 38 -5c58 0 125 20 125 71zM314 635c0 -42 -35 -77 -77 -77c-41 0 -76 35 -76 77s36 77 78 77c41 0 75 -35 75 -77zM525 635c0 -42 -35 -77 -77 -77c-41 0 -76 35 -76 77s36 77 78 77c41 0 75 -35 75 -77z" />
    <glyph glyph-name="uni0452" unicode="&#x452;" horiz-adv-x="575" 
d="M535 423c0 -16 -2 -34 -9 -65l-65 -304c-13 -59 -37 -145 -106 -206c-27 -24 -67 -50 -113 -68l-40 74c19 15 49 42 61 55c28 30 54 83 66 141l63 294c3 13 4 24 4 33c0 27 -13 37 -41 37c-36 0 -93 -39 -126 -81l-71 -333h-133l120 561c0 1 0 2 1 4h-49l15 68h46
c1 12 2 25 2 35c0 14 -2 25 -4 35l135 43c3 -9 5 -24 5 -43c0 -21 -2 -46 -5 -70h199l-38 -68h-174l-11 -51c-3 -16 -12 -51 -17 -62c39 43 103 74 166 74c81 0 119 -37 119 -103z" />
    <glyph glyph-name="uni0453" unicode="&#x453;" horiz-adv-x="448" 
d="M130 384l-44 83c23 17 43 27 68 36c39 14 80 22 125 22c35 0 80 -6 115 -37c36 -32 42 -69 42 -101c0 -39 -8 -69 -39 -100c-32 -33 -73 -51 -109 -63l-35 -12c-52 -18 -81 -25 -100 -41c-13 -11 -19 -22 -19 -40c0 -13 3 -21 11 -29c15 -14 40 -15 52 -15
c45 0 84 13 110 25c15 7 30 16 44 25l32 -91l-14 -9c-24 -16 -59 -28 -86 -35c-34 -9 -67 -13 -104 -13c-38 0 -85 6 -119 35c-28 24 -45 62 -45 104c0 34 10 74 47 107c20 18 51 36 107 55l27 9c75 25 93 38 101 44c8 7 20 20 20 40c0 18 -9 28 -19 34c-11 7 -29 9 -42 9
c-23 0 -55 -6 -77 -15c-17 -7 -37 -18 -49 -27zM450 657l-239 -103l-40 75l231 133z" />
    <glyph glyph-name="uni0454" unicode="&#x454;" horiz-adv-x="446" 
d="M320 223h-133l-5 -19c-4 -17 -8 -35 -8 -51c0 -11 1 -31 16 -47c18 -19 46 -20 58 -20c32 0 59 9 84 23c15 8 28 19 37 26l44 -77c-15 -12 -40 -29 -57 -38c-55 -30 -107 -32 -130 -32c-36 0 -92 5 -136 46c-46 43 -53 100 -53 142c0 60 16 113 31 153
c13 32 42 93 85 133c42 40 99 65 174 65c39 0 71 -6 103 -20c24 -10 40 -22 56 -39l-77 -79c-8 9 -18 17 -31 25c-20 11 -37 15 -61 15c-37 0 -58 -15 -68 -25c-18 -17 -33 -50 -39 -74l-3 -13h133z" />
    <glyph glyph-name="uni0455" unicode="&#x455;" horiz-adv-x="484" 
d="M469 480l-53 -90c-45 26 -87 35 -125 35c-44 0 -76 -16 -76 -53c0 -23 17 -38 54 -51l58 -21c51 -18 102 -58 102 -124c0 -102 -80 -192 -247 -192c-75 0 -141 23 -199 57l54 98c40 -28 107 -53 165 -53c44 0 79 30 79 64c0 26 -22 37 -65 52l-57 20
c-53 19 -94 59 -94 129c0 88 67 175 235 175c67 0 127 -20 169 -46z" />
    <glyph glyph-name="uni0456" unicode="&#x456;" horiz-adv-x="280" 
d="M270 524l-111 -524h-134l107 503zM314 653c0 -46 -37 -83 -83 -83c-45 0 -82 37 -82 83s38 83 84 83c45 0 81 -37 81 -83z" />
    <glyph glyph-name="uni0457" unicode="&#x457;" horiz-adv-x="280" 
d="M270 524l-111 -524h-134l107 503zM188 635c0 -42 -35 -77 -77 -77c-41 0 -76 35 -76 77s36 77 78 77c41 0 75 -35 75 -77zM399 635c0 -42 -35 -77 -77 -77c-41 0 -76 35 -76 77s36 77 78 77c41 0 75 -35 75 -77z" />
    <glyph glyph-name="uni0458" unicode="&#x458;" horiz-adv-x="268" 
d="M260 524l-108 -510c-21 -97 -49 -136 -72 -159c-30 -31 -70 -56 -120 -75l-42 78c23 9 49 36 63 54c17 22 27 50 37 98l105 493zM304 653c0 -46 -37 -83 -83 -83c-45 0 -82 37 -82 83s38 83 84 83c45 0 81 -37 81 -83z" />
    <glyph glyph-name="uni0459" unicode="&#x459;" horiz-adv-x="758" 
d="M519 512l-40 -188c28 6 61 9 84 9c39 0 86 -8 117 -32c33 -26 43 -62 43 -96c0 -59 -22 -114 -63 -151c-56 -51 -135 -64 -215 -64c-64 0 -110 9 -163 31l85 399h-91l-11 -45c-5 -20 -18 -74 -31 -118c-25 -87 -39 -126 -51 -151s-31 -57 -59 -78s-60 -28 -100 -33
l-42 -5l-12 92l27 7c12 3 40 13 59 35c15 18 25 41 33 61c17 44 31 87 44 134c10 37 20 77 33 129l16 64h337zM459 232l-29 -138c5 -2 22 -9 51 -9c38 0 60 10 72 21c15 14 28 39 28 73c0 15 -2 33 -20 47c-14 11 -31 12 -49 12c-28 0 -45 -4 -53 -6z" />
    <glyph glyph-name="uni045A" unicode="&#x45a;" horiz-adv-x="778" 
d="M536 525l-43 -201c28 6 61 9 84 9c39 0 86 -8 117 -32c33 -26 43 -62 43 -96c0 -49 -15 -107 -63 -151c-64 -59 -153 -66 -215 -66c-63 0 -111 10 -163 33l43 202h-138l-47 -223h-132l106 500l138 25l-45 -208h138l39 183zM473 232l-29 -138c5 -2 22 -9 51 -9
c38 0 60 10 72 21c15 14 28 39 28 73c0 15 -2 33 -20 47c-14 11 -31 12 -49 12c-28 0 -45 -4 -53 -6z" />
    <glyph glyph-name="uni045B" unicode="&#x45b;" horiz-adv-x="572" 
d="M535 423c0 -16 -2 -34 -9 -65l-76 -358h-131l73 344c3 13 4 24 4 33c0 27 -13 37 -41 37c-36 0 -93 -39 -126 -81l-71 -333h-133l120 561c0 1 0 2 1 4h-49l15 68h46c1 12 2 25 2 35c0 14 -2 25 -4 35l135 43c3 -9 5 -24 5 -43c0 -21 -2 -46 -5 -70h199l-38 -68h-174
l-11 -51c-3 -16 -12 -51 -17 -62c39 43 103 74 166 74c81 0 119 -37 119 -103z" />
    <glyph glyph-name="uni045C" unicode="&#x45c;" horiz-adv-x="540" 
d="M148 0h-126l106 500l137 25l-37 -164l-33 -105h2l24 42c21 37 41 72 83 115c26 26 54 49 88 67c37 20 83 36 128 45l25 -90l-20 -6c-61 -18 -144 -57 -199 -136c32 -2 64 -12 81 -36c10 -14 18 -40 19 -60l2 -59c0 -5 1 -27 8 -36c6 -7 14 -11 23 -13l28 -8l-38 -91
l-46 5c-31 3 -64 12 -81 41c-10 18 -13 37 -14 72l-2 68c0 8 -1 17 -11 24c-8 5 -20 7 -28 7c-42 -52 -75 -110 -119 -207zM496 657l-239 -103l-40 75l231 133z" />
    <glyph glyph-name="uni045D" unicode="&#x45d;" horiz-adv-x="547" 
d="M530 524l-83 -391c-7 -34 -4 -80 11 -104l-116 -46c-12 18 -22 44 -24 68c-38 -35 -88 -64 -148 -64c-79 0 -125 40 -125 104c0 19 2 44 10 81l69 328l138 25l-70 -329c-6 -27 -10 -55 -10 -69c0 -22 16 -39 32 -39c41 0 90 44 110 76l71 333zM477 629l-46 -72l-216 100
l66 106z" />
    <glyph glyph-name="uni045E" unicode="&#x45e;" horiz-adv-x="514" 
d="M575 512l-297 -520c-56 -99 -91 -142 -134 -169c-39 -25 -86 -41 -134 -47l-27 90c31 7 67 18 90 32c41 25 57 48 89 102h-37c-2 38 -7 100 -13 144l-46 360l138 16l25 -299c2 -28 4 -91 4 -106c7 18 39 96 69 153l129 244h144zM450 742l65 -29c-18 -37 -47 -69 -75 -88
c-34 -23 -78 -33 -119 -33c-48 0 -83 14 -105 34c-20 18 -36 50 -38 87l78 29c4 -12 13 -26 28 -36c20 -13 41 -14 58 -14c20 0 44 2 65 14c13 7 34 24 43 36z" />
    <glyph glyph-name="uni045F" unicode="&#x45f;" horiz-adv-x="547" 
d="M253 -183h-123l25 121l131 36zM530 524l-83 -391c-7 -34 -4 -80 11 -104l-116 -46c-12 18 -22 44 -24 68c-38 -35 -88 -64 -148 -64c-79 0 -125 40 -125 104c0 19 2 44 10 81l69 328l138 25l-70 -329c-6 -27 -10 -55 -10 -69c0 -22 16 -39 32 -39c41 0 90 44 110 76
l71 333z" />
    <glyph glyph-name="uni0462" unicode="&#x462;" horiz-adv-x="595" 
d="M173 695h142l-17 -79h146l-25 -78h-138l-21 -102h91c56 0 122 -5 167 -50c36 -35 42 -81 42 -119c0 -129 -80 -197 -131 -226c-35 -20 -90 -41 -165 -41h-239l114 538h-54l17 78h54zM191 112h79c21 0 63 3 96 38c24 26 37 67 37 98c0 33 -13 50 -23 59
c-19 16 -46 17 -65 17h-79z" />
    <glyph glyph-name="uni0463" unicode="&#x463;" horiz-adv-x="507" 
d="M265 525l-15 -67h122l-19 -76h-119l-12 -58c28 6 61 9 84 9c39 0 86 -8 117 -32c33 -26 43 -62 43 -96c0 -49 -15 -107 -63 -151c-64 -59 -153 -66 -216 -66c-65 0 -110 8 -162 31l77 363h-47l18 76h45l9 42zM202 232l-29 -138c5 -2 22 -9 51 -9c38 0 60 10 72 21
c15 14 28 39 28 73c0 15 -2 33 -20 47c-14 11 -31 12 -45 12c-10 0 -34 -1 -57 -6z" />
    <glyph glyph-name="uni0472" unicode="&#x472;" horiz-adv-x="714" 
d="M702 454c0 -175 -97 -365 -238 -432c-46 -22 -101 -33 -159 -33c-172 0 -248 104 -248 249c0 197 103 338 193 403c41 30 100 63 206 63c153 0 246 -95 246 -250zM515 306h-297c-6 -32 -10 -63 -10 -89c0 -89 48 -121 118 -121c40 0 83 13 115 52c30 37 56 96 74 158z
M545 483c0 68 -38 113 -114 113c-47 0 -95 -24 -123 -61c-22 -29 -43 -71 -59 -117h291c3 24 5 46 5 65z" />
    <glyph glyph-name="uni0473" unicode="&#x473;" horiz-adv-x="546" 
d="M512 347c0 -180 -96 -358 -299 -358c-116 0 -182 64 -182 181c0 193 119 352 295 352c115 0 186 -63 186 -175zM236 86c51 0 88 56 109 123h-168c-3 -20 -4 -38 -4 -52c0 -49 25 -71 63 -71zM368 347c0 59 -22 76 -62 76c-51 0 -86 -59 -108 -124h167c2 17 3 33 3 48z
" />
    <glyph glyph-name="uni0474" unicode="&#x474;" horiz-adv-x="595" 
d="M562 455l-257 -460h-127l-87 700h149l36 -372c3 -31 6 -70 6 -121c18 43 49 101 70 139l104 190c52 95 97 155 223 173l30 -102c-73 -22 -101 -65 -147 -147z" />
    <glyph glyph-name="uni0475" unicode="&#x475;" horiz-adv-x="464" 
d="M277 297l44 81c51 94 98 127 189 145l23 -93c-58 -24 -74 -51 -105 -104l-189 -326h-111l-79 504l138 17l25 -231c4 -34 7 -90 6 -123c11 30 32 79 59 130z" />
    <glyph glyph-name="uni0490" unicode="&#x490;" horiz-adv-x="432" 
d="M173 695h245l20 97h135l-44 -212h-236l-124 -580h-144z" />
    <glyph glyph-name="uni0491" unicode="&#x491;" horiz-adv-x="439" 
d="M493 590l-36 -172h-209l-89 -418h-134l109 512h209l12 57z" />
    <glyph glyph-name="uni0492" unicode="&#x492;" horiz-adv-x="432" 
d="M552 695l-43 -115h-216l-39 -181h124l-18 -87h-124l-66 -312h-145l66 312h-94l18 87h95l63 296h379z" />
    <glyph glyph-name="uni0493" unicode="&#x493;" horiz-adv-x="448" 
d="M37 291h184c60 18 96 42 96 84c0 34 -20 51 -61 51c-23 0 -55 -6 -77 -15c-17 -7 -37 -18 -49 -27l-44 83c23 17 43 27 68 36c39 14 80 22 125 22c94 0 157 -50 157 -124c0 -67 -45 -95 -87 -117h86l-34 -67h-171c-60 -22 -96 -49 -96 -80c0 -34 20 -50 63 -50
c45 0 84 13 110 25c15 7 30 16 44 25l32 -91l-14 -9c-24 -16 -59 -28 -86 -35c-34 -9 -67 -13 -104 -13c-107 0 -164 56 -164 129c0 56 36 88 81 107h-73z" />
    <glyph glyph-name="uni0496" unicode="&#x496;" horiz-adv-x="936" 
d="M963 707l8 -93l-34 -8c-18 -5 -24 -7 -35 -14c-20 -13 -34 -42 -36 -46l-33 -68c-21 -44 -33 -61 -44 -72c-19 -19 -51 -33 -74 -39c18 -7 35 -19 45 -32c12 -15 23 -48 25 -72l10 -103c1 -14 2 -31 13 -44h71l-60 -288h-135l38 179c-18 9 -35 21 -44 34
c-14 20 -16 38 -17 86l-3 99c-1 22 -9 53 -21 66c-18 20 -45 20 -61 20h-30l-66 -312h-138l66 312h-30c-29 0 -83 -5 -118 -86l-44 -101c-12 -27 -27 -61 -52 -86c-32 -31 -71 -38 -92 -40l-81 -9l-6 97l20 6c11 3 35 12 43 16c19 9 30 23 44 51l51 103c12 25 28 47 50 66
c22 18 50 31 76 38c-21 7 -39 19 -50 33c-21 26 -18 48 -21 78l-6 68c-3 29 -10 40 -16 46c-8 7 -19 12 -29 14l-34 8l46 93l62 -9c31 -5 53 -11 68 -31c18 -24 17 -49 18 -70l5 -89c1 -20 2 -47 16 -63c11 -13 36 -22 57 -22h47l58 272h138l-58 -272h47c20 0 51 10 64 20
c15 11 27 32 42 65l40 89c11 25 23 49 48 70c23 19 49 27 80 31z" />
    <glyph glyph-name="uni0497" unicode="&#x497;" horiz-adv-x="883" 
d="M785 108h72l-58 -273h-123l32 153h-11c-28 0 -70 6 -101 42c-27 32 -39 81 -39 130c0 23 2 44 5 63h-59l-47 -223h-132l47 223h-62c-19 -78 -61 -135 -90 -166c-30 -33 -74 -69 -144 -69c-44 0 -85 13 -116 49l67 82c10 -20 30 -33 51 -33c30 0 47 17 66 48
c31 50 64 129 64 212c0 19 0 47 -16 66c-9 11 -18 14 -32 14c-19 0 -46 -7 -73 -42l-43 73c38 45 90 67 150 67c36 0 70 -10 99 -43c27 -31 41 -75 41 -132c0 -10 0 -20 -1 -31h60l38 182l138 25l-44 -207h65c14 42 37 87 82 136c31 34 73 70 144 70c46 0 87 -16 116 -51
l-67 -80c-15 29 -44 33 -52 33c-27 0 -48 -19 -66 -47c-28 -44 -64 -134 -64 -212c0 -20 0 -48 16 -67c10 -12 19 -14 31 -14c22 0 41 8 56 22z" />
    <glyph glyph-name="uni049A" unicode="&#x49a;" horiz-adv-x="650" 
d="M672 707l8 -93l-34 -8c-11 -3 -23 -6 -35 -14c-20 -13 -34 -42 -36 -46l-33 -68c-21 -44 -33 -61 -44 -72c-19 -19 -51 -33 -74 -39c18 -7 35 -19 45 -32c12 -15 23 -48 25 -72l10 -103c1 -14 2 -31 13 -44h71l-60 -288h-135l38 179c-18 9 -35 21 -44 34
c-15 20 -16 38 -17 86l-3 99c-1 22 -9 53 -21 66c-18 20 -45 20 -61 20h-52l-66 -312h-142l148 695h142l-58 -272h69c20 0 51 10 64 20c15 11 27 32 42 65l40 89c11 25 23 49 48 70c23 19 49 27 80 31z" />
    <glyph glyph-name="uni049B" unicode="&#x49b;" horiz-adv-x="540" 
d="M148 0h-126l106 500l137 25l-37 -164l-33 -105h2l24 42c21 37 41 72 83 115c26 26 54 49 88 67c37 20 83 36 128 45l25 -90l-20 -6c-61 -18 -144 -57 -199 -136c32 -2 64 -12 81 -36c10 -14 18 -40 19 -60l2 -59c0 -4 0 -20 4 -30h61l-58 -273h-123l37 175
c-11 6 -20 14 -27 26c-10 18 -13 37 -14 72l-2 68c0 8 -1 17 -11 24c-8 5 -20 7 -28 7c-42 -52 -75 -110 -119 -207z" />
    <glyph glyph-name="uni049C" unicode="&#x49c;" horiz-adv-x="673" 
d="M326 552h89l-26 -121c10 3 18 7 24 12c15 11 27 32 42 65l40 89c11 25 23 49 48 70c23 19 49 27 80 31l72 9l8 -93l-34 -8c-11 -3 -23 -6 -35 -14c-20 -13 -34 -42 -36 -46l-33 -68c-21 -44 -33 -61 -44 -72c-19 -19 -51 -33 -74 -39c18 -7 35 -19 45 -32
c12 -15 23 -48 25 -72l10 -103c2 -17 2 -38 22 -51c8 -5 28 -13 37 -16l19 -6l-46 -97l-74 9c-27 3 -61 23 -75 42c-15 20 -16 38 -17 86l-3 99c-1 22 -8 57 -29 73l-27 -124h-89l29 137h-41l-66 -312h-142l148 695h142l-58 -272h41z" />
    <glyph glyph-name="uni049D" unicode="&#x49d;" horiz-adv-x="583" 
d="M283 421h74l-21 -99c9 1 17 6 23 10c11 8 20 18 29 42l20 55c7 18 21 45 44 63c28 20 61 24 85 26l45 4l6 -87l-23 -5c-16 -4 -23 -5 -31 -10c-15 -10 -24 -25 -28 -34l-20 -46c-10 -24 -37 -61 -80 -68c36 -16 56 -47 57 -90l1 -46c0 -12 1 -27 13 -39
c6 -6 20 -9 31 -12l15 -4l-38 -91l-43 5c-33 4 -62 9 -81 37c-10 15 -17 43 -17 66l-1 56c0 24 -5 42 -16 53c-3 3 -10 8 -16 8l-22 -108h-72l24 116h-40l-47 -223h-132l106 500l137 25l-44 -208h40z" />
    <glyph glyph-name="uni04A2" unicode="&#x4a2;" horiz-adv-x="633" 
d="M654 695l-124 -579h67l-60 -288h-135l37 172h-75l66 310h-200l-66 -310h-139l148 695h139l-58 -270h200l58 270h142z" />
    <glyph glyph-name="uni04A3" unicode="&#x4a3;" horiz-adv-x="547" 
d="M154 0h-132l106 500l138 25l-45 -208h138l39 183l138 25l-89 -417h62l-58 -273h-123l35 165h-71l47 223h-138z" />
    <glyph glyph-name="uni04AE" unicode="&#x4ae;" horiz-adv-x="554" 
d="M665 695l-309 -409l-61 -286h-146l61 286l-129 409h162l48 -190c10 -38 14 -63 16 -89c13 20 34 54 56 87l131 192h171z" />
    <glyph glyph-name="uni04AF" unicode="&#x4af;" horiz-adv-x="455" 
d="M93 293l-27 211l138 16l16 -192c2 -23 2 -46 2 -68c0 -25 -1 -48 -1 -66c10 30 18 50 32 80l115 238h148l-295 -512c-3 -28 -16 -143 -28 -186l-133 -32c35 170 42 239 42 331c0 70 -3 131 -9 180z" />
    <glyph glyph-name="uni04B0" unicode="&#x4b0;" horiz-adv-x="554" 
d="M665 695l-268 -354h139l-18 -87h-169l-54 -254h-146l54 254h-162l18 87h133l-111 354h162l48 -190c10 -38 14 -63 16 -89c13 20 34 54 56 87l131 192h171z" />
    <glyph glyph-name="uni04B1" unicode="&#x4b1;" horiz-adv-x="455" 
d="M345 0h-117c-3 -28 -16 -143 -28 -186l-133 -32c20 99 29 163 32 218h-114l20 92h97v21c0 70 -3 131 -9 180l-27 211l138 16l16 -192c2 -23 2 -46 2 -68c0 -25 -1 -48 -1 -66c10 30 18 50 32 80l115 238h148l-242 -420h119z" />
    <glyph glyph-name="uni04B2" unicode="&#x4b2;" horiz-adv-x="538" 
d="M634 695l-250 -329l91 -250h67l-60 -288h-135l37 172h-30l-74 240l-171 -240h-180l300 375l-122 320h163l61 -194l136 194h167z" />
    <glyph glyph-name="uni04B3" unicode="&#x4b3;" horiz-adv-x="468" 
d="M525 512l-211 -247l76 -157h75l-58 -273h-123l35 165h-35c-25 70 -55 139 -60 171c-17 -29 -94 -128 -130 -171h-176l251 276l-96 213l138 37c17 -39 42 -107 54 -153c23 38 76 110 98 139h162z" />
    <glyph glyph-name="uni04B6" unicode="&#x4b6;" horiz-adv-x="588" 
d="M605 695l-124 -579h67l-60 -288h-135l37 172h-71l61 285c-19 -7 -79 -26 -152 -26c-31 0 -79 6 -110 36c-27 27 -34 67 -34 96c0 14 1 23 3 33l58 271h138l-47 -218c-3 -13 -6 -31 -6 -48c0 -19 4 -37 16 -49c14 -14 39 -15 55 -15c29 0 53 4 100 21l66 309h138z" />
    <glyph glyph-name="uni04B7" unicode="&#x4b7;" horiz-adv-x="500" 
d="M352 500l138 25l-89 -417h62l-58 -273h-123l35 165h-71l42 198c-34 -13 -74 -20 -104 -20c-63 0 -97 24 -111 46c-11 16 -14 35 -14 53c0 16 3 32 6 47l37 176l138 25l-40 -188c-2 -8 -3 -16 -3 -25s2 -18 8 -26c11 -13 28 -14 38 -14c16 0 41 4 64 15z" />
    <glyph glyph-name="uni04B8" unicode="&#x4b8;" horiz-adv-x="588" 
d="M457 0h-138l61 285c-9 -4 -28 -10 -52 -15l-30 -139h-88l27 128h-9c-31 0 -79 6 -110 36c-27 27 -34 67 -34 96c0 14 1 23 3 33l58 271h138l-47 -218c-3 -13 -6 -31 -6 -48c0 -19 4 -37 16 -49c4 -5 9 -8 15 -10l30 138h88l-30 -138c15 3 31 8 52 16l66 309h138z" />
    <glyph glyph-name="uni04B9" unicode="&#x4b9;" horiz-adv-x="514" 
d="M244 74h-71l22 104h-11c-63 0 -97 24 -111 46c-11 16 -14 35 -14 53c0 16 3 32 6 47l37 176l138 25l-40 -188c-2 -8 -3 -16 -3 -25c0 -12 7 -33 23 -35l23 111h68l-24 -112c9 2 23 7 34 11l45 213l138 25l-112 -525h-132l42 198l-34 -10z" />
    <glyph glyph-name="uni04BA" unicode="&#x4ba;" horiz-adv-x="582" 
d="M173 695h138l-61 -285c19 7 79 26 152 26c31 0 79 -6 110 -36c27 -27 34 -67 34 -96c0 -14 -1 -23 -3 -33l-58 -271h-138l47 218c3 13 6 31 6 48c0 19 -4 37 -16 49c-14 14 -39 15 -55 15c-29 0 -53 -4 -100 -21l-66 -309h-138z" />
    <glyph glyph-name="uni04BB" unicode="&#x4bb;" horiz-adv-x="572" 
d="M535 423c0 -16 -2 -34 -9 -65l-76 -358h-131l73 344c3 13 4 24 4 33c0 27 -13 37 -41 37c-36 0 -93 -39 -126 -81l-71 -333h-133l120 561c11 50 15 82 15 107c0 14 -2 25 -4 35l135 43c3 -9 5 -24 5 -43c0 -31 -4 -71 -11 -104l-18 -85c-3 -16 -12 -51 -17 -62
c39 43 103 74 166 74c81 0 119 -37 119 -103z" />
    <glyph glyph-name="uni04C0" unicode="&#x4c0;" horiz-adv-x="297" 
d="M318 695l-148 -695h-145l148 695h145z" />
    <glyph glyph-name="uni04CF" unicode="&#x4cf;" horiz-adv-x="272" 
d="M290 746c1 -8 2 -22 2 -39c0 -33 -3 -78 -12 -120l-125 -587h-137l118 555c10 46 16 83 16 112c0 13 -1 25 -4 36z" />
    <glyph glyph-name="uni04D8" unicode="&#x4d8;" horiz-adv-x="632" 
d="M24 170c0 126 121 231 337 231c36 0 80 -6 91 -10c5 22 9 59 9 81c0 86 -45 124 -112 124s-132 -34 -200 -75l-39 98c103 68 179 85 262 85c163 0 248 -84 248 -247c0 -124 -56 -288 -148 -376c-65 -66 -139 -92 -225 -92c-130 0 -223 51 -223 181zM183 184
c0 -51 21 -88 85 -88c68 0 129 51 161 191c-13 4 -45 6 -67 6c-83 0 -179 -31 -179 -109z" />
    <glyph glyph-name="uni04D9" unicode="&#x4d9;" horiz-adv-x="516" 
d="M13 126c0 97 89 176 259 176c29 0 55 -5 61 -7c2 11 5 35 5 46c0 58 -30 82 -86 82c-46 0 -94 -20 -142 -54l-34 84c69 48 136 70 208 70c122 0 194 -64 194 -188c0 -106 -47 -215 -115 -281c-51 -49 -108 -68 -176 -68c-101 0 -174 40 -174 140zM148 137
c0 -31 14 -53 54 -53c51 0 89 30 109 119c-4 1 -22 5 -38 5c-58 0 -125 -20 -125 -71z" />
    <glyph glyph-name="uni04E2" unicode="&#x4e2;" horiz-adv-x="652" 
d="M525 0h-142l73 344c7 35 25 103 37 147c-28 -54 -50 -86 -73 -121l-248 -370h-147l148 695h142l-73 -344c-9 -40 -24 -100 -38 -147c29 53 51 87 74 121l248 370h147zM600 826l-16 -78h-314l16 78h314z" />
    <glyph glyph-name="uni04E3" unicode="&#x4e3;" horiz-adv-x="547" 
d="M530 524l-83 -391c-7 -34 -4 -80 11 -104l-116 -46c-12 18 -22 44 -24 68c-38 -35 -88 -64 -148 -64c-79 0 -125 40 -125 104c0 19 2 44 10 81l69 328l138 25l-70 -329c-6 -27 -10 -55 -10 -69c0 -22 16 -39 32 -39c41 0 90 44 110 76l71 333zM511 714l-19 -92h-294
l19 92h294z" />
    <glyph glyph-name="uni04E8" unicode="&#x4e8;" horiz-adv-x="714" 
d="M702 454c0 -175 -97 -365 -238 -432c-46 -22 -101 -33 -159 -33c-172 0 -248 104 -248 249c0 197 103 338 193 403c41 30 100 63 206 63c153 0 246 -95 246 -250zM515 306h-297c-6 -32 -10 -63 -10 -89c0 -89 48 -121 118 -121c40 0 83 13 115 52c30 37 56 96 74 158z
M545 483c0 68 -38 113 -114 113c-47 0 -95 -24 -123 -61c-22 -29 -43 -71 -59 -117h291c3 24 5 46 5 65z" />
    <glyph glyph-name="uni04E9" unicode="&#x4e9;" horiz-adv-x="546" 
d="M512 347c0 -180 -96 -358 -299 -358c-116 0 -182 64 -182 181c0 193 119 352 295 352c115 0 186 -63 186 -175zM236 86c51 0 88 56 109 123h-168c-3 -20 -4 -38 -4 -52c0 -49 25 -71 63 -71zM368 347c0 59 -22 76 -62 76c-51 0 -86 -59 -108 -124h167c2 17 3 33 3 48z
" />
    <glyph glyph-name="uni04EE" unicode="&#x4ee;" horiz-adv-x="560" 
d="M246 695l48 -259c7 -38 13 -75 17 -140c36 88 55 118 83 169l124 230h147l-274 -489c-54 -96 -88 -157 -133 -189c-42 -30 -101 -40 -134 -44l-35 -4l-4 101l18 5c20 6 35 11 57 22c35 18 55 34 80 82l19 36l-69 -10l-94 490h150zM560 826l-16 -78h-314l16 78h314z" />
    <glyph glyph-name="uni04EF" unicode="&#x4ef;" horiz-adv-x="514" 
d="M575 512l-297 -520c-56 -99 -91 -142 -134 -169c-39 -25 -86 -41 -134 -47l-27 90c31 7 67 18 90 32c41 25 57 48 89 102h-37c-2 38 -7 100 -13 144l-46 360l138 16l25 -299c2 -28 4 -91 4 -106c7 18 39 96 69 153l129 244h144zM495 714l-19 -92h-294l19 92h294z" />
    <glyph glyph-name="Wgrave" unicode="&#x1e80;" horiz-adv-x="822" 
d="M923 695l-317 -699h-153l-2 281c-1 94 5 151 13 224c-8 -24 -44 -131 -82 -222l-118 -283h-156l-17 699h145l1 -274c0 -116 -9 -212 -11 -233c19 58 46 138 84 226l122 281h151l-2 -311c0 -60 -7 -164 -9 -188c6 22 53 154 88 235l113 264h150zM662 792l-46 -72l-216 100
l66 106z" />
    <glyph glyph-name="wgrave" unicode="&#x1e81;" horiz-adv-x="699" 
d="M756 512l-255 -512h-123l-9 176c-2 41 -3 90 -2 124c1 24 1 31 3 51c-8 -22 -10 -29 -26 -66c-19 -44 -61 -132 -83 -180l-48 -105h-125l-33 503l134 15v-197c0 -58 -5 -150 -5 -158c3 12 35 96 75 177l85 172h126l5 -169c3 -85 0 -164 -1 -181c8 22 36 102 64 167
l78 183h140zM552 629l-46 -72l-216 100l66 106z" />
    <glyph glyph-name="Wacute" unicode="&#x1e82;" horiz-adv-x="822" 
d="M923 695l-317 -699h-153l-2 281c-1 94 5 151 13 224c-8 -24 -44 -131 -82 -222l-118 -283h-156l-17 699h145l1 -274c0 -116 -9 -212 -11 -233c19 58 46 138 84 226l122 281h151l-2 -311c0 -60 -7 -164 -9 -188c6 22 53 154 88 235l113 264h150zM657 820l-239 -103l-40 75
l231 133z" />
    <glyph glyph-name="wacute" unicode="&#x1e83;" horiz-adv-x="699" 
d="M756 512l-255 -512h-123l-9 176c-2 41 -3 90 -2 124c1 24 1 31 3 51c-8 -22 -10 -29 -26 -66c-19 -44 -61 -132 -83 -180l-48 -105h-125l-33 503l134 15v-197c0 -58 -5 -150 -5 -158c3 12 35 96 75 177l85 172h126l5 -169c3 -85 0 -164 -1 -181c8 22 36 102 64 167
l78 183h140zM561 657l-239 -103l-40 75l231 133z" />
    <glyph glyph-name="Wdieresis" unicode="&#x1e84;" horiz-adv-x="822" 
d="M923 695l-317 -699h-153l-2 281c-1 94 5 151 13 224c-8 -24 -44 -131 -82 -222l-118 -283h-156l-17 699h145l1 -274c0 -116 -9 -212 -11 -233c19 58 46 138 84 226l122 281h151l-2 -311c0 -60 -7 -164 -9 -188c6 22 53 154 88 235l113 264h150zM692 800
c0 -42 -35 -77 -77 -77s-76 35 -76 77s35 77 78 77c41 0 75 -35 75 -77zM481 800c0 -42 -35 -77 -77 -77c-41 0 -76 35 -76 77s36 77 78 77c41 0 75 -35 75 -77z" />
    <glyph glyph-name="wdieresis" unicode="&#x1e85;" horiz-adv-x="699" 
d="M756 512l-255 -512h-123l-9 176c-2 41 -3 90 -2 124c1 24 1 31 3 51c-8 -22 -10 -29 -26 -66c-19 -44 -61 -132 -83 -180l-48 -105h-125l-33 503l134 15v-197c0 -58 -5 -150 -5 -158c3 12 35 96 75 177l85 172h126l5 -169c3 -85 0 -164 -1 -181c8 22 36 102 64 167
l78 183h140zM595 635c0 -42 -35 -77 -77 -77s-76 35 -76 77s35 77 78 77c41 0 75 -35 75 -77zM384 635c0 -42 -35 -77 -77 -77c-41 0 -76 35 -76 77s36 77 78 77c41 0 75 -35 75 -77z" />
    <glyph glyph-name="uni1E8A" unicode="&#x1e8a;" horiz-adv-x="538" 
d="M634 695l-250 -329l134 -366h-164l-74 240l-171 -240h-180l300 375l-122 320h163l61 -194l136 194h167zM461 806c0 -46 -37 -83 -83 -83c-45 0 -82 37 -82 83s38 83 84 83c45 0 81 -37 81 -83z" />
    </font>
</defs>
</svg>
