<?xml version="1.0" standalone="no"?>
<!DOCTYPE svg PUBLIC "-//W3C//DTD SVG 1.1//EN" "http://www.w3.org/Graphics/SVG/1.1/DTD/svg11.dtd" >
<svg xmlns="http://www.w3.org/2000/svg" xmlns:xlink="http://www.w3.org/1999/xlink" version="1.1">
<metadata>
Created by FontForge 20190801 at Wed Mar 13 15:10:28 2019
 By mimo
Copyright (c) 2005 - 2017 Monotype GmbH. All rights reserved
</metadata>
<defs>
<font id="MetaPro-Medium" horiz-adv-x="1" >
  <font-face 
    font-family="Meta Pro"
    font-weight="500"
    font-stretch="normal"
    units-per-em="1000"
    panose-1="2 0 6 3 6 0 0 2 0 4"
    ascent="800"
    descent="-200"
    x-height="506"
    cap-height="692"
    bbox="-451 -301 1413 1121"
    underline-thickness="50"
    underline-position="-125"
    stemh="90"
    stemv="136"
    unicode-range="U+000D-FEFF"
  />
<missing-glyph horiz-adv-x="556" 
d="M66 0v692h424v-692h-424zM116 50h324v592h-324v-592z" />
    <glyph glyph-name="IJ" unicode="IJ" horiz-adv-x="581" 
d="M203 0h-118v692h118v-692zM496 128c0 -114 -11 -152 -41 -193c-29 -40 -74 -69 -117 -85l-54 61c36 20 67 51 80 78c12 25 16 54 16 129v574h116v-564z" />
    <glyph glyph-name="ij" unicode="ij" horiz-adv-x="562" 
d="M196 0h-111v498l111 20v-518zM214 654c0 -40 -33 -73 -74 -73c-40 0 -71 33 -71 73c0 41 32 74 73 74c39 0 72 -32 72 -74zM477 12c0 -89 -19 -129 -37 -152c-23 -29 -54 -54 -95 -72l-47 64c53 37 68 77 68 159v487l111 20v-506zM494 656c0 -42 -33 -75 -74 -75
c-40 0 -72 32 -72 73c0 40 33 74 73 74s73 -33 73 -72z" />
    <glyph glyph-name="f_b" unicode="fb" horiz-adv-x="870" 
d="M815 261c0 -162 -84 -272 -202 -272c-50 0 -92 20 -123 58c-5 -28 -6 -33 -14 -47h-101c9 23 13 45 13 113v507c-38 17 -86 34 -133 34c-38 0 -62 -26 -62 -71v-77h132l-28 -76h-103v-430h-109v430h-47v76h49c-1 6 -3 33 -3 75c0 105 64 154 154 154
c92 0 183 -29 259 -70v-147c0 -29 -2 -45 -3 -48l4 -1c35 34 72 49 120 49c121 0 197 -99 197 -257zM691 260c0 91 -18 165 -97 165c-46 0 -76 -26 -96 -51v-247c22 -23 54 -44 94 -44c69 0 99 50 99 177z" />
    <glyph glyph-name="f_f" unicode="ff" horiz-adv-x="601" 
d="M636 712l-36 -70c-15 7 -38 13 -55 13c-38 0 -61 -26 -61 -71v-78h127l-29 -76h-96v-430h-109v430h-183v-430h-109v430h-47v76h49c0 16 -3 62 -3 76c0 66 27 108 61 130c24 16 55 24 94 24c42 0 78 -9 114 -29l-36 -70c-25 12 -41 18 -61 18c-39 0 -63 -26 -63 -71v-78
h184c0 16 -3 62 -3 76c0 66 26 108 60 130c25 16 56 24 94 24c43 0 83 -10 108 -24z" />
    <glyph glyph-name="f_f_i" unicode="ffi" horiz-adv-x="873" 
d="M788 0h-111v429h-190v-429h-109v429h-184v-429h-109v429h-47v76h49c0 16 -3 62 -3 76c0 105 65 154 154 154c42 0 80 -9 115 -29l-36 -70c-25 12 -42 18 -62 18c-39 0 -62 -26 -62 -71v-78h185c0 16 -3 64 -3 76c0 107 64 154 154 154c43 0 84 -10 108 -24l-36 -70
c-15 7 -38 13 -55 13c-38 0 -61 -26 -61 -71v-78h303v-505zM733 581c-40 0 -73 33 -73 73c0 41 33 74 73 74s73 -32 73 -74c0 -40 -33 -73 -73 -73z" />
    <glyph glyph-name="f_f_j" unicode="ffj" horiz-adv-x="890" 
d="M805 12c0 -89 -19 -129 -37 -152c-23 -29 -54 -54 -95 -72l-47 64c53 37 68 77 68 159v419h-199v-430h-109v430h-192v-430h-109v430h-47v76h49c-1 6 -3 33 -3 75c0 105 64 154 154 154c39 0 75 -8 108 -24l-36 -71c-21 10 -36 14 -55 14c-38 0 -62 -26 -62 -71v-77h195
c-1 6 -3 33 -3 75c0 105 64 154 154 154c39 0 75 -8 108 -24l-36 -71c-21 10 -36 14 -55 14c-38 0 -62 -26 -62 -71v-77h311v-494zM822 656c0 -42 -33 -75 -74 -75c-40 0 -72 32 -72 73c0 40 33 74 73 74s73 -33 73 -72z" />
    <glyph glyph-name="f_f_l" unicode="ffl" horiz-adv-x="868" 
d="M636 710l-36 -69c-15 7 -38 13 -55 13c-38 0 -62 -26 -62 -72v-78h127l-28 -76h-96v-428h-109v428h-183v-428h-109v428h-47v76h49c0 16 -3 62 -3 76c0 102 63 154 154 154c43 0 79 -8 114 -29l-36 -70c-25 13 -40 19 -60 19c-39 0 -63 -26 -63 -72v-78h184
c0 16 -3 62 -3 76c0 107 65 154 154 154c43 0 83 -9 108 -24zM848 1c-20 -8 -41 -12 -66 -12c-111 0 -111 100 -111 143v431c0 69 -3 106 -10 148l113 25c8 -31 9 -73 9 -139v-429c0 -68 2 -80 11 -91c6 -9 23 -14 36 -8z" />
    <glyph glyph-name="f_f_t" unicode="fft" horiz-adv-x="944" 
d="M688 506c0 43 0 87 5 125l113 27c-5 -41 -9 -102 -9 -152h121l-29 -76h-93v-284c0 -63 14 -81 62 -81c15 0 28 3 47 10l14 -66c-33 -15 -65 -22 -99 -22c-98 0 -132 58 -132 130v313h-193v-430h-109v430h-192v-430h-109v430h-47v76h49c0 16 -3 57 -3 76
c0 66 27 108 61 130c24 16 55 24 94 24c42 0 78 -9 114 -29l-36 -70c-25 12 -41 18 -61 18c-39 0 -63 -26 -63 -71v-78h195c0 16 -3 57 -3 76c0 66 27 108 61 130c24 16 55 24 94 24c42 0 78 -9 114 -29l-36 -70c-25 12 -41 18 -61 18c-39 0 -63 -26 -63 -71v-78h194z" />
    <glyph glyph-name="f_h" unicode="fh" horiz-adv-x="877" 
d="M792 0h-107v344c0 63 -22 81 -64 81c-39 0 -86 -25 -122 -62v-363h-111v620c-38 17 -86 34 -133 34c-38 0 -62 -26 -62 -71v-77h132l-28 -76h-103v-430h-109v430h-47v76h49c-1 6 -3 33 -3 75c0 105 64 154 154 154c92 0 185 -29 261 -70v-156c0 -28 -2 -52 -2 -57
c50 45 101 66 155 66c60 0 106 -29 123 -62c13 -25 17 -48 17 -99v-357z" />
    <glyph glyph-name="f_i" unicode="fi" horiz-adv-x="580" 
d="M495 0h-112v430h-189v-430h-109v430h-47v76h48c0 16 -2 61 -2 75c0 103 64 154 154 154c42 0 83 -10 108 -24l-36 -70c-16 7 -38 13 -55 13c-38 0 -62 -26 -62 -71v-77h302v-506zM512 654c0 -40 -32 -73 -73 -73c-40 0 -72 33 -72 73c0 41 33 74 73 74s72 -32 72 -74z
" />
    <glyph glyph-name="f_j" unicode="fj" horiz-adv-x="589" 
d="M504 12c0 -89 -19 -129 -37 -152c-23 -29 -54 -54 -95 -72l-47 64c53 37 68 77 68 159v419h-199v-430h-109v430h-47v76h49c-1 6 -3 33 -3 75c0 105 64 154 154 154c39 0 75 -8 108 -24l-36 -71c-21 10 -36 14 -55 14c-38 0 -62 -26 -62 -71v-77h311v-494zM521 656
c0 -42 -33 -75 -74 -75c-40 0 -72 32 -72 73c0 40 33 74 73 74s73 -33 73 -72z" />
    <glyph glyph-name="f_k" unicode="fk" horiz-adv-x="824" 
d="M497 0h-109v620c-38 17 -86 34 -133 34c-38 0 -62 -26 -62 -71v-77h132l-28 -76h-103v-430h-109v430h-47v76h49c-1 6 -3 33 -3 75c0 105 64 154 154 154c92 0 183 -29 259 -70v-665zM829 0h-133l-191 286l150 220h133l-173 -214z" />
    <glyph glyph-name="f_t" unicode="ft" horiz-adv-x="643" 
d="M387 506c0 43 0 87 5 125l113 27c-5 -41 -9 -102 -9 -152h121l-29 -76h-93v-284c0 -63 14 -81 62 -81c15 0 28 3 47 10l14 -66c-33 -15 -65 -22 -99 -22c-98 0 -132 58 -132 130v313h-193v-430h-109v430h-47v76h49c0 16 -3 57 -3 76c0 66 27 108 61 130
c24 16 55 24 94 24c42 0 78 -9 114 -29l-36 -70c-25 12 -41 18 -61 18c-39 0 -63 -26 -63 -71v-78h194z" />
    <glyph glyph-name="f_u" unicode="fu" horiz-adv-x="864" 
d="M810 36l-76 -52c-22 16 -35 34 -44 63c-37 -42 -86 -62 -144 -62c-57 0 -101 20 -126 50c-20 24 -28 57 -28 120v275h-198v-430h-109v430h-47v76h49c-1 6 -3 33 -3 75c0 105 64 154 154 154c43 0 79 -9 114 -29l-36 -70c-25 12 -40 18 -61 18c-38 0 -62 -26 -62 -71v-77
h307v-327c0 -63 9 -109 74 -109c37 0 82 30 99 66v362l106 20v-381c0 -68 25 -96 31 -101z" />
    <glyph glyph-name="f_v" unicode="fv" horiz-adv-x="820" 
d="M810 506l-184 -508h-97l-156 432h-179v-430h-109v430h-47v76h49c-1 6 -3 33 -3 75c0 105 64 154 154 154c43 0 79 -9 114 -29l-36 -70c-25 12 -40 18 -61 18c-38 0 -62 -26 -62 -71v-77h271l84 -261c12 -38 25 -90 31 -113h2c2 12 13 66 30 117l84 257h115z" />
    <glyph glyph-name="f_w" unicode="fw" horiz-adv-x="1045" 
d="M1030 506l-143 -508h-103l-62 233c-14 53 -30 122 -33 138h-2c-3 -17 -11 -60 -33 -143l-61 -228h-103l-119 432h-177v-430h-109v430h-47v76h49c-1 6 -3 33 -3 75c0 105 64 154 154 154c43 0 79 -9 114 -29l-36 -70c-25 12 -40 18 -61 18c-38 0 -62 -26 -62 -71v-77h270
l53 -237c12 -56 24 -119 26 -133h3c2 13 12 74 29 136l65 234h108l57 -228c19 -73 30 -132 32 -144h3c2 15 13 83 25 136l52 236h114z" />
    <glyph glyph-name="f_y" unicode="fy" horiz-adv-x="830" 
d="M820 506l-179 -517c-42 -122 -78 -183 -197 -205l-36 71c69 19 108 48 137 145h-35c-14 57 -33 112 -48 157l-92 273h-176v-430h-109v430h-47v76h49c-1 6 -3 33 -3 75c0 105 64 154 154 154c43 0 79 -9 114 -29l-36 -70c-25 12 -40 18 -61 18c-38 0 -62 -26 -62 -71v-77
h269l90 -297c9 -30 26 -106 28 -114c1 4 19 76 38 137l84 274h118z" />
    <glyph glyph-name=".notdef" horiz-adv-x="556" 
d="M66 0v692h424v-692h-424zM116 50h324v592h-324v-592z" />
    <glyph glyph-name=".null" horiz-adv-x="0" 
 />
    <glyph glyph-name=".null" horiz-adv-x="0" 
 />
    <glyph glyph-name="CR" unicode="&#xd;" horiz-adv-x="225" 
 />
    <glyph glyph-name="space" unicode=" " horiz-adv-x="225" 
 />
    <glyph glyph-name="exclam" unicode="!" horiz-adv-x="296" 
d="M213 706l-24 -494h-84l-25 475zM221 64c0 -41 -34 -74 -74 -74c-41 0 -72 33 -72 74c0 40 32 73 73 73c40 0 73 -33 73 -73z" />
    <glyph glyph-name="quotedbl" unicode="&#x22;" horiz-adv-x="453" 
d="M378 442h-102v267h102v-267zM177 442h-102v267h102v-267z" />
    <glyph glyph-name="numbersign" unicode="#" horiz-adv-x="566" 
d="M531 425h-100l-20 -141h90v-77h-100l-29 -207h-83l29 207h-112l-29 -207h-82l28 207h-88v77h99l19 141h-89v77h100l28 206h83l-29 -206h112l29 206h82l-28 -206h90v-77zM348 425h-112l-20 -141h113z" />
    <glyph glyph-name="dollar" unicode="$" horiz-adv-x="589" 
d="M544 210c0 -129 -106 -208 -222 -221v-88h-72v87c-74 2 -146 25 -205 60l44 89c58 -33 112 -56 192 -56c91 0 133 50 133 109c0 51 -33 85 -95 103l-84 25c-67 20 -105 43 -130 78c-22 30 -33 67 -33 107c0 112 77 189 197 206v76h72v-76c67 -4 135 -29 187 -66l-52 -81
c-58 35 -103 53 -159 53c-81 0 -118 -41 -118 -94c0 -41 24 -70 80 -85l94 -26c55 -15 97 -40 125 -73c30 -34 46 -79 46 -127z" />
    <glyph glyph-name="percent" unicode="%" horiz-adv-x="844" 
d="M368 528c0 -53 -15 -94 -45 -124s-69 -46 -122 -46c-103 0 -166 66 -166 171c0 104 66 171 165 171c103 0 168 -62 168 -172zM809 162c0 -101 -62 -171 -167 -171c-103 0 -166 66 -166 171c0 104 66 171 165 171c106 0 168 -65 168 -171zM638 690l-351 -690h-79l350 690
h80zM277 527c0 77 -24 109 -77 109c-52 0 -75 -35 -75 -104c0 -79 24 -110 77 -110c52 0 75 34 75 105zM718 160c0 79 -25 109 -77 109c-54 0 -75 -38 -75 -103c0 -81 23 -110 77 -110c52 0 75 33 75 104z" />
    <glyph glyph-name="ampersand" unicode="&#x26;" horiz-adv-x="699" 
d="M694 0h-151l-53 53c-43 -43 -112 -66 -193 -66c-158 0 -242 74 -242 186c0 85 50 134 133 174c-66 53 -89 94 -89 153c0 93 78 163 190 163c110 0 194 -60 194 -156c0 -77 -54 -124 -137 -163l136 -132c13 33 14 72 14 122h92c0 -97 -10 -143 -34 -195zM425 115l-178 174
c-50 -28 -74 -64 -74 -113c0 -67 47 -109 128 -109c55 0 99 18 124 48zM367 507c0 47 -32 79 -77 79c-44 0 -77 -27 -77 -76c0 -33 16 -59 72 -111c54 27 82 62 82 108z" />
    <glyph glyph-name="quotesingle" unicode="'" horiz-adv-x="252" 
d="M177 442h-102v267h102v-267z" />
    <glyph glyph-name="parenleft" unicode="(" horiz-adv-x="313" 
d="M328 -103l-29 -60c-91 33 -163 107 -203 205c-30 75 -41 181 -41 280c0 91 10 172 35 236c35 89 101 172 208 220l28 -61c-85 -58 -108 -105 -124 -143c-28 -65 -36 -169 -36 -250c0 -50 4 -152 21 -221c22 -88 55 -162 141 -206z" />
    <glyph glyph-name="parenright" unicode=")" horiz-adv-x="314" 
d="M259 310c0 -78 -10 -176 -32 -242c-35 -104 -111 -190 -213 -231l-29 61c76 43 114 110 135 172c23 69 27 167 27 240c0 80 -5 122 -19 196c-17 90 -55 160 -141 211l28 61c89 -35 158 -108 199 -194c33 -70 45 -175 45 -274z" />
    <glyph glyph-name="asterisk" unicode="*" horiz-adv-x="466" 
d="M436 531l-136 -45l86 -118l-67 -51l-87 121l-84 -118l-66 50l86 116l-138 47l27 79l136 -48v144h82v-144l136 46z" />
    <glyph glyph-name="plus" unicode="+" horiz-adv-x="610" 
d="M555 232h-199v-200h-102v200h-199v104h199v200h102v-200h199v-104z" />
    <glyph glyph-name="comma" unicode="," horiz-adv-x="292" 
d="M227 35c0 -83 -56 -153 -132 -179l-40 50c41 13 68 43 68 71c0 6 -8 15 -22 21c-26 10 -43 35 -43 67c0 45 35 80 79 80c52 0 90 -45 90 -110z" />
    <glyph glyph-name="hyphen" unicode="-" horiz-adv-x="329" 
d="M274 221h-219v102h219v-102z" />
    <glyph glyph-name="period" unicode="." horiz-adv-x="287" 
d="M222 67c0 -45 -36 -82 -78 -82c-44 0 -79 37 -79 82c0 44 34 79 77 79c44 0 80 -35 80 -79z" />
    <glyph glyph-name="slash" unicode="/" horiz-adv-x="450" 
d="M395 762l-264 -913h-76l263 913h77z" />
    <glyph glyph-name="zero" unicode="0" horiz-adv-x="572" 
d="M517 252c0 -161 -93 -265 -231 -265c-144 0 -231 103 -231 265s93 266 231 266c144 0 231 -104 231 -266zM397 245c0 148 -41 191 -112 191c-77 0 -110 -64 -110 -177c0 -147 41 -190 112 -190c77 0 110 64 110 176z" />
    <glyph glyph-name="one" unicode="1" horiz-adv-x="440" 
d="M390 0h-294v89h103v301c-43 -27 -83 -46 -127 -63l-27 58l183 132h77v-428h85v-89z" />
    <glyph glyph-name="two" unicode="2" horiz-adv-x="561" 
d="M496 91l-23 -91h-401v98l119 77c110 71 159 117 159 177c0 50 -36 76 -92 76c-62 0 -120 -44 -144 -63l-59 64c72 64 142 96 233 96c112 0 188 -61 188 -156c0 -86 -71 -161 -214 -248l-56 -34c9 1 50 4 101 4h189z" />
    <glyph glyph-name="three" unicode="3" horiz-adv-x="534" 
d="M479 51c0 -47 -16 -89 -47 -125c-62 -69 -160 -109 -299 -109c-28 0 -39 0 -69 4l-25 75c19 -3 40 -5 61 -5c68 0 140 17 185 50c42 31 67 72 67 119c0 43 -22 74 -58 90c-24 11 -65 13 -98 13c-19 0 -35 -1 -42 -1v88c7 -1 39 -3 62 -3c84 0 125 34 125 91
c0 53 -36 90 -100 90c-63 0 -107 -26 -151 -55l-55 65c62 52 147 82 223 82c119 0 204 -71 204 -168c0 -67 -37 -122 -113 -149c83 -25 130 -82 130 -152z" />
    <glyph glyph-name="four" unicode="4" horiz-adv-x="545" 
d="M510 8h-47c-14 0 -28 2 -31 2c1 -3 4 -19 4 -36v-143l-105 -18v164c0 10 1 28 1 32c-4 0 -21 -1 -37 -1h-260v78l205 437h115l-160 -342c-23 -50 -42 -78 -46 -84c4 1 19 3 31 3h120c11 0 30 -1 35 -1c-4 31 -2 67 7 163l8 88l86 21v-185c0 -45 -2 -80 -3 -87
c4 0 22 1 34 1h43v-92z" />
    <glyph glyph-name="five" unicode="5" horiz-adv-x="520" 
d="M455 63c0 -147 -132 -248 -303 -248c-31 0 -45 1 -74 8l-23 80c31 -9 56 -13 85 -13c113 0 196 69 196 163c0 72 -50 117 -126 117c-43 0 -87 -8 -137 -25l32 361h320l-16 -93h-203l-15 -163c28 4 36 5 57 5c119 0 207 -75 207 -192z" />
    <glyph glyph-name="six" unicode="6" horiz-adv-x="586" 
d="M526 209c0 -126 -98 -224 -227 -224c-141 0 -239 114 -239 279c0 131 66 244 157 324c55 48 135 96 224 122l24 -77c-69 -22 -133 -59 -176 -102c-48 -48 -78 -103 -94 -161c34 30 78 44 125 44c110 0 206 -83 206 -205zM408 207c0 76 -43 120 -106 120
c-37 0 -75 -14 -116 -41c-1 -5 -3 -29 -3 -59c0 -102 41 -157 112 -157c69 0 113 53 113 137z" />
    <glyph glyph-name="seven" unicode="7" horiz-adv-x="508" 
d="M473 506l-20 -100c-23 -33 -62 -93 -89 -141c-73 -126 -133 -277 -169 -427l-124 -32c20 90 34 130 61 201c27 70 55 134 91 203c49 93 88 151 131 203c-13 -3 -43 -4 -65 -4h-254l25 97h413z" />
    <glyph glyph-name="eight" unicode="8" horiz-adv-x="597" 
d="M542 186c0 -116 -93 -204 -251 -204c-143 0 -236 76 -236 188c0 84 58 147 130 173c-68 26 -109 90 -109 153c0 105 88 177 227 177c126 0 214 -67 214 -165c0 -50 -30 -119 -135 -153c82 -30 160 -84 160 -169zM420 163c0 67 -43 91 -163 139c-49 -28 -82 -65 -82 -123
c0 -71 50 -116 128 -116c69 0 117 41 117 100zM399 509c0 53 -39 85 -106 85c-64 0 -106 -35 -106 -88c0 -42 23 -67 115 -110c68 34 97 70 97 113z" />
    <glyph glyph-name="nine" unicode="9" horiz-adv-x="571" 
d="M516 262c0 -126 -53 -239 -150 -332c-68 -64 -160 -115 -236 -135l-59 66c59 13 131 51 185 96s90 98 109 151c-35 -21 -69 -31 -103 -31c-118 0 -207 92 -207 217c0 132 99 230 233 230c137 0 228 -99 228 -262zM397 284c0 95 -44 155 -112 155
c-67 0 -110 -57 -110 -142c0 -82 43 -133 111 -133c38 0 67 13 101 44c7 29 10 48 10 76z" />
    <glyph glyph-name="colon" unicode=":" horiz-adv-x="305" 
d="M229 63c0 -43 -35 -77 -78 -77c-42 0 -76 34 -76 77c0 44 34 80 78 80c42 0 76 -36 76 -80zM230 372c0 -44 -35 -78 -78 -78c-42 0 -76 34 -76 76c0 44 34 80 77 80c42 0 77 -35 77 -78z" />
    <glyph glyph-name="semicolon" unicode=";" horiz-adv-x="323" 
d="M248 32c0 -81 -57 -152 -133 -178l-40 49c41 14 68 44 68 70c0 27 -65 20 -65 89c0 46 35 81 79 81c53 0 91 -46 91 -111zM234 371c0 -42 -34 -78 -77 -78s-78 36 -78 78c0 43 34 79 76 79c43 0 79 -36 79 -79z" />
    <glyph glyph-name="less" unicode="&#x3c;" horiz-adv-x="378" 
d="M333 81l-88 -69l-220 287l220 288l88 -71l-165 -217z" />
    <glyph glyph-name="equal" unicode="=" horiz-adv-x="645" 
d="M590 344h-535v101h535v-101zM590 162h-535v101h535v-101z" />
    <glyph glyph-name="greater" unicode="&#x3e;" horiz-adv-x="377" 
d="M352 299l-219 -287l-88 69l164 218l-164 217l88 71z" />
    <glyph glyph-name="question" unicode="?" horiz-adv-x="473" 
d="M408 543c0 -93 -68 -135 -97 -154c-51 -34 -67 -79 -67 -127c0 -13 1 -26 3 -39h-94c-5 22 -8 43 -8 62c0 61 27 107 78 148c33 26 75 45 75 97c0 51 -39 77 -87 77c-46 0 -89 -22 -118 -45l-48 71c33 30 100 69 188 69c96 0 175 -60 175 -159zM287 64
c0 -42 -34 -77 -76 -77c-41 0 -74 35 -74 77s33 74 75 74c40 0 75 -32 75 -74z" />
    <glyph glyph-name="at" unicode="@" horiz-adv-x="921" 
d="M866 276c0 -176 -104 -290 -227 -290c-79 0 -111 41 -115 87c-35 -42 -91 -75 -150 -75c-60 0 -123 46 -123 145c0 159 95 310 276 310c49 0 94 -13 137 -36c-27 -89 -44 -179 -63 -269c-5 -22 -7 -39 -7 -52c0 -34 16 -43 48 -43c71 0 131 95 131 223
c0 155 -120 282 -304 282c-195 0 -320 -172 -320 -353c0 -177 134 -301 302 -301c54 0 102 8 144 22l18 -68c-49 -16 -106 -23 -162 -23c-211 0 -396 131 -396 370c0 235 174 420 414 420c223 0 397 -137 397 -349zM561 380c-11 5 -24 7 -41 7c-126 0 -177 -137 -177 -248
c0 -53 18 -68 52 -68c41 0 108 41 127 130z" />
    <glyph glyph-name="A" unicode="A" horiz-adv-x="587" 
d="M584 0h-126l-56 182h-224l-56 -182h-119l227 693h133zM376 278c-7 15 -77 273 -82 300h-1c-14 -51 -73 -259 -87 -300h170z" />
    <glyph glyph-name="B" unicode="B" horiz-adv-x="611" 
d="M556 196c0 -137 -95 -196 -270 -196h-201v692h183c103 0 139 -7 182 -34c52 -33 78 -78 78 -136c0 -74 -42 -129 -119 -151c115 -28 147 -106 147 -175zM429 207c0 49 -27 90 -65 101c-17 5 -31 6 -64 6h-101v-219h104c88 0 126 50 126 112zM407 504c0 40 -23 74 -56 86
c-14 5 -32 8 -65 8h-87v-189h96c42 0 63 3 85 26c21 22 27 51 27 69z" />
    <glyph glyph-name="C" unicode="C" horiz-adv-x="577" 
d="M542 50c-54 -41 -115 -61 -189 -61c-92 0 -165 35 -219 100c-52 63 -79 147 -79 247c0 83 15 152 46 210c52 99 147 159 255 159c67 0 131 -20 172 -54l-53 -76c-37 27 -75 39 -118 39c-59 0 -108 -30 -138 -83c-24 -42 -36 -100 -36 -182c0 -85 9 -133 27 -172
c30 -66 87 -98 154 -98c49 0 85 13 124 44z" />
    <glyph glyph-name="D" unicode="D" horiz-adv-x="631" 
d="M576 344c0 -105 -26 -187 -73 -247c-58 -74 -118 -97 -247 -97h-171v692h144c130 0 207 -24 272 -98c51 -59 75 -142 75 -250zM448 332c0 89 -8 160 -44 209c-32 44 -68 60 -130 60h-73v-507h76c122 0 171 81 171 238z" />
    <glyph glyph-name="E" unicode="E" horiz-adv-x="509" 
d="M479 0h-394v692h384l-15 -94h-252v-189h211v-95h-211v-216h277v-98z" />
    <glyph glyph-name="F" unicode="F" horiz-adv-x="441" 
d="M451 692l-14 -94h-237v-188h193v-93h-193v-317h-115v692h366z" />
    <glyph glyph-name="G" unicode="G" horiz-adv-x="649" 
d="M574 49c-63 -38 -139 -58 -216 -58c-97 0 -172 31 -226 98c-53 65 -77 143 -77 252c0 142 43 241 130 306c50 38 104 54 171 54c79 0 149 -24 206 -73l-58 -72c-48 37 -93 53 -146 53c-128 0 -175 -112 -175 -274c0 -97 18 -165 51 -204c28 -33 78 -52 131 -52
c36 0 66 8 92 22v180h-118l-16 94h251v-326z" />
    <glyph glyph-name="H" unicode="H" horiz-adv-x="636" 
d="M551 0h-116v320h-236v-320h-114v692h114v-278h236v278h116v-692z" />
    <glyph glyph-name="I" unicode="I" horiz-adv-x="288" 
d="M203 0h-118v692h118v-692z" />
    <glyph glyph-name="J" unicode="J" horiz-adv-x="293" 
d="M208 128c0 -114 -11 -152 -41 -193c-29 -40 -74 -69 -117 -85l-54 61c36 20 67 51 80 78c12 25 16 54 16 129v574h116v-564z" />
    <glyph glyph-name="K" unicode="K" horiz-adv-x="581" 
d="M586 0h-150l-233 369l225 323h142l-240 -321zM202 0h-117v692h117v-692z" />
    <glyph glyph-name="L" unicode="L" horiz-adv-x="473" 
d="M458 95l-19 -95h-354v692h117v-597h256z" />
    <glyph glyph-name="M" unicode="M" horiz-adv-x="826" 
d="M761 0h-113l-32 429c-3 44 -5 99 -5 120c-5 -23 -14 -67 -27 -111l-126 -438h-98l-115 419c-13 46 -26 108 -30 131c0 -23 -4 -89 -7 -132l-30 -418h-113l63 692h153l106 -392c16 -58 22 -97 26 -118c3 21 12 68 25 116l109 394h153z" />
    <glyph glyph-name="N" unicode="N" horiz-adv-x="639" 
d="M554 0h-121l-155 325c-37 77 -75 164 -88 205l-3 -3c5 -58 6 -124 7 -192l4 -335h-113v692h130l168 -338c32 -64 62 -146 71 -178l3 3c-3 35 -10 134 -10 197l-2 316h109v-692z" />
    <glyph glyph-name="O" unicode="O" horiz-adv-x="688" 
d="M633 345c0 -216 -104 -356 -284 -356c-197 0 -294 152 -294 357c0 228 116 356 289 356c195 0 289 -155 289 -357zM502 338c0 169 -35 275 -159 275c-116 0 -160 -94 -160 -260c0 -178 45 -277 163 -277c103 0 156 76 156 262z" />
    <glyph glyph-name="P" unicode="P" horiz-adv-x="565" 
d="M540 485c0 -136 -99 -221 -224 -221h-117v-264h-114v692h184c101 0 138 -10 176 -33c61 -36 95 -98 95 -174zM413 478c0 38 -9 67 -28 87c-21 22 -51 34 -96 34h-90v-243h90c85 0 124 40 124 122z" />
    <glyph glyph-name="Q" unicode="Q" horiz-adv-x="688" 
d="M707 -39l-31 -77c-19 -8 -37 -11 -55 -11c-51 0 -97 26 -133 50c-39 26 -82 51 -143 67c-193 0 -290 153 -290 357c0 226 116 355 288 355c189 0 290 -142 290 -357c0 -154 -51 -261 -142 -318c25 -10 45 -22 76 -41c28 -17 52 -29 95 -29c13 0 28 1 45 4zM501 338
c0 179 -39 275 -159 275c-112 0 -159 -88 -159 -260c0 -208 61 -276 163 -276c101 0 155 70 155 261z" />
    <glyph glyph-name="R" unicode="R" horiz-adv-x="583" 
d="M558 0h-137l-60 107c-48 85 -80 133 -118 171c-13 13 -23 20 -45 21v-299h-113v692h211c155 0 225 -90 225 -198c0 -99 -64 -190 -172 -190c25 -13 71 -80 107 -138zM401 493c0 70 -38 106 -140 106h-63v-219h59c60 0 92 8 113 29c19 19 31 48 31 84z" />
    <glyph glyph-name="S" unicode="S" horiz-adv-x="597" 
d="M547 209c0 -115 -93 -222 -270 -222c-79 0 -159 21 -227 62l44 88c62 -36 117 -57 187 -57c85 0 136 41 136 110c0 51 -32 83 -103 103l-74 21c-63 18 -108 44 -134 83c-19 28 -29 61 -29 101c0 122 96 205 235 205c79 0 158 -23 219 -66l-52 -81c-64 38 -108 53 -163 53
c-68 0 -113 -37 -113 -94c0 -43 24 -65 92 -85l82 -24c100 -29 170 -93 170 -197z" />
    <glyph glyph-name="T" unicode="T" horiz-adv-x="484" 
d="M499 692l-15 -96h-174v-596h-115v596h-175v96h479z" />
    <glyph glyph-name="U" unicode="U" horiz-adv-x="639" 
d="M559 194c0 -127 -88 -206 -240 -206c-182 0 -239 94 -239 205v499h116v-465c0 -106 38 -141 123 -141c84 0 125 49 125 141v465h115v-498z" />
    <glyph glyph-name="V" unicode="V" horiz-adv-x="568" 
d="M573 692l-238 -695h-107l-233 695h126l125 -392c18 -55 30 -105 36 -139h2c8 33 18 73 42 145l127 386h120z" />
    <glyph glyph-name="W" unicode="W" horiz-adv-x="826" 
d="M816 692l-164 -696h-132l-71 321c-20 93 -32 181 -34 200h-3c-4 -23 -20 -122 -35 -197l-67 -324h-135l-165 696h123l69 -322c16 -75 32 -176 37 -222h3c4 26 22 139 38 214l72 330h129l72 -344c15 -73 31 -172 34 -195h3c5 29 25 155 40 225l66 314h120z" />
    <glyph glyph-name="X" unicode="X" horiz-adv-x="550" 
d="M555 0h-138l-143 274l-138 -274h-141l212 371l-186 321h140l111 -214l109 214h136l-176 -313z" />
    <glyph glyph-name="Y" unicode="Y" horiz-adv-x="528" 
d="M543 692l-221 -413v-279h-119v280l-218 412h139l104 -217c19 -39 34 -80 37 -89c4 10 22 53 38 87l106 219h134z" />
    <glyph glyph-name="Z" unicode="Z" horiz-adv-x="541" 
d="M496 94l-29 -94h-422v84l270 449c19 31 41 61 46 68c-7 -1 -39 -4 -75 -4h-228l26 95h406v-87l-269 -454c-13 -23 -35 -52 -40 -59c6 0 33 2 69 2h246z" />
    <glyph glyph-name="bracketleft" unicode="[" horiz-adv-x="299" 
d="M274 -155h-189v888h189v-76h-91v-738h91v-74z" />
    <glyph glyph-name="backslash" unicode="\" horiz-adv-x="420" 
d="M405 -19l-92 -30l-298 776l91 31z" />
    <glyph glyph-name="bracketright" unicode="]" horiz-adv-x="299" 
d="M214 -155h-189v74h91v738h-91v76h189v-888z" />
    <glyph glyph-name="asciicircum" unicode="^" horiz-adv-x="610" 
d="M555 318h-112l-138 286l-138 -286h-112l194 390h112z" />
    <glyph glyph-name="underscore" unicode="_" horiz-adv-x="510" 
d="M505 -143h-500v81h500v-81z" />
    <glyph glyph-name="grave" unicode="`" horiz-adv-x="324" 
d="M289 623l-34 -63l-220 102l50 93z" />
    <glyph glyph-name="a" unicode="a" horiz-adv-x="525" 
d="M483 49l-57 -70c-31 12 -57 36 -69 68c-41 -46 -85 -62 -139 -62c-116 0 -168 64 -168 152c0 117 88 176 250 176h34v27c0 58 -10 89 -70 89c-65 0 -135 -46 -151 -58l-49 79c76 48 139 69 215 69c79 0 132 -29 154 -84c9 -22 9 -49 8 -124l-2 -145c-1 -68 5 -90 44 -117
zM332 238c-2 0 -13 1 -20 1c-110 0 -143 -32 -143 -96c0 -48 26 -78 70 -78c35 0 69 21 91 53z" />
    <glyph glyph-name="b" unicode="b" horiz-adv-x="567" 
d="M512 261c0 -162 -84 -272 -202 -272c-50 0 -92 20 -123 58c-5 -27 -7 -35 -14 -47h-101c9 23 13 45 13 113v477c0 58 -4 94 -13 122l114 25c6 -36 8 -61 8 -101v-118c0 -29 -2 -45 -3 -48l4 -1c35 34 72 49 120 49c121 0 197 -99 197 -257zM388 260c0 91 -18 165 -97 165
c-46 0 -76 -26 -96 -51v-247c22 -23 54 -44 94 -44c69 0 99 50 99 177z" />
    <glyph glyph-name="c" unicode="c" horiz-adv-x="467" 
d="M432 54c-46 -46 -94 -67 -162 -67c-138 0 -215 97 -215 260c0 184 110 272 223 272c55 0 95 -13 140 -55l-55 -73c-30 27 -56 39 -85 39c-35 0 -64 -18 -80 -51c-15 -31 -21 -78 -21 -141c0 -69 11 -113 34 -138c16 -18 40 -29 67 -29c35 0 69 17 102 50z" />
    <glyph glyph-name="d" unicode="d" horiz-adv-x="565" 
d="M496 0h-101c-5 11 -6 18 -9 39c-34 -34 -74 -50 -124 -50c-129 0 -207 101 -207 259c0 159 88 267 210 267c43 0 78 -14 109 -46c-1 8 -3 44 -3 83v185l109 -17v-544c0 -100 6 -151 16 -176zM371 129v257c-25 27 -55 41 -92 41c-70 0 -102 -56 -102 -178
c0 -112 22 -168 105 -168c41 0 74 23 89 48z" />
    <glyph glyph-name="e" unicode="e" horiz-adv-x="523" 
d="M478 223h-302v-8c0 -70 26 -144 125 -144c47 0 88 17 126 50l43 -67c-53 -45 -114 -67 -182 -67c-143 0 -233 103 -233 265c0 89 19 148 63 198c41 47 91 68 155 68c50 0 96 -13 139 -52c44 -40 66 -102 66 -220v-23zM364 304c0 82 -36 131 -91 131
c-62 0 -96 -49 -96 -131h187z" />
    <glyph glyph-name="f" unicode="f" horiz-adv-x="317" 
d="M352 706l-36 -70c-25 12 -40 18 -61 18c-38 0 -62 -26 -62 -71v-77h132l-28 -76h-103v-430h-109v430h-47v76h49c-1 6 -3 33 -3 75c0 105 64 154 154 154c43 0 79 -9 114 -29z" />
    <glyph glyph-name="g" unicode="g" horiz-adv-x="546" 
d="M556 458c-28 -24 -54 -33 -88 -33c-21 0 -36 4 -39 5c3 -3 33 -36 33 -88c0 -88 -73 -155 -192 -155c-36 -13 -68 -32 -68 -48c0 -19 7 -21 126 -21c81 0 168 -41 168 -144c0 -108 -90 -166 -225 -166c-131 0 -226 43 -226 138c0 21 8 48 10 54h104c-2 -4 -8 -22 -8 -36
c0 -47 40 -73 111 -73c78 0 120 32 120 79c0 55 -46 70 -140 70c-136 0 -166 27 -166 77s42 70 96 87c-76 22 -115 71 -115 143c0 103 81 171 202 171c72 0 113 -26 154 -26c33 0 64 12 92 35zM345 348c0 57 -29 87 -87 87c-56 0 -87 -31 -87 -88c0 -58 33 -85 87 -85
c57 0 87 30 87 86z" />
    <glyph glyph-name="h" unicode="h" horiz-adv-x="574" 
d="M489 0h-107v344c0 63 -22 81 -64 81c-39 0 -86 -25 -122 -62v-363h-111v602c0 45 -4 84 -10 110l111 24c7 -29 10 -70 10 -119v-108c0 -28 -2 -52 -2 -57c50 45 101 66 155 66c60 0 106 -29 123 -62c13 -25 17 -48 17 -99v-357z" />
    <glyph glyph-name="i" unicode="i" horiz-adv-x="281" 
d="M196 0h-111v498l111 20v-518zM214 654c0 -40 -33 -73 -74 -73c-40 0 -71 33 -71 73c0 41 32 74 73 74c39 0 72 -32 72 -74z" />
    <glyph glyph-name="j" unicode="j" horiz-adv-x="281" 
d="M196 12c0 -89 -19 -129 -37 -152c-23 -29 -54 -54 -95 -72l-47 64c53 37 68 77 68 159v487l111 20v-506zM213 656c0 -42 -33 -75 -74 -75c-40 0 -72 32 -72 73c0 40 33 74 73 74s73 -33 73 -72z" />
    <glyph glyph-name="k" unicode="k" horiz-adv-x="521" 
d="M194 0h-109v589c0 49 -3 83 -11 122l110 27c6 -32 10 -81 10 -134v-604zM526 0h-133l-191 286l150 220h133l-173 -214z" />
    <glyph glyph-name="l" unicode="l" horiz-adv-x="282" 
d="M262 1c-20 -8 -41 -12 -66 -12c-111 0 -111 100 -111 143v431c0 69 -3 106 -10 148l113 25c8 -31 9 -73 9 -139v-429c0 -68 3 -79 11 -91c6 -9 23 -14 36 -8z" />
    <glyph glyph-name="m" unicode="m" horiz-adv-x="808" 
d="M723 0h-108v350c0 59 -13 76 -52 76c-37 0 -72 -25 -107 -58v-368h-105v347c0 59 -13 78 -55 78c-31 0 -67 -16 -104 -50v-375h-107v363c0 63 -6 101 -18 128l100 28c10 -16 16 -37 18 -65c40 41 87 64 134 64c45 0 84 -15 121 -74c49 50 97 74 151 74
c83 0 132 -43 132 -148v-370z" />
    <glyph glyph-name="n" unicode="n" horiz-adv-x="556" 
d="M471 0h-109v336c0 69 -16 88 -58 88c-32 0 -78 -24 -111 -57v-367h-108v372c0 53 -5 84 -19 120l100 28c12 -23 18 -45 18 -72c54 46 101 70 155 70c78 0 132 -47 132 -140v-378z" />
    <glyph glyph-name="o" unicode="o" horiz-adv-x="547" 
d="M497 251c0 -163 -87 -264 -224 -264s-223 103 -223 265s87 266 221 266c144 0 226 -107 226 -267zM376 249c0 143 -40 186 -104 186c-70 0 -100 -53 -100 -176c0 -147 37 -190 103 -190c65 0 101 53 101 180z" />
    <glyph glyph-name="p" unicode="p" horiz-adv-x="565" 
d="M510 264c0 -168 -72 -274 -201 -274c-43 0 -85 14 -120 41c0 -4 2 -25 2 -50v-169l-106 -27v590c0 63 -3 89 -10 126l101 18c5 -17 7 -31 8 -62c32 39 82 60 135 60c102 0 191 -77 191 -253zM392 252c0 113 -22 174 -94 174c-40 0 -77 -18 -107 -52v-252
c26 -26 61 -45 94 -45c74 0 107 55 107 175z" />
    <glyph glyph-name="q" unicode="q" horiz-adv-x="565" 
d="M492 506c-8 -31 -12 -84 -12 -144v-551l-104 -27v188c0 32 2 61 2 67c-35 -35 -73 -51 -119 -51c-110 0 -204 81 -204 254c0 175 77 277 204 277c52 0 103 -23 129 -62c1 25 4 36 9 49h95zM375 134v242c-22 30 -60 50 -97 50c-74 0 -104 -65 -104 -166
c0 -142 42 -181 107 -181c38 0 74 24 94 55z" />
    <glyph glyph-name="r" unicode="r" horiz-adv-x="350" 
d="M355 512l-34 -102c-11 4 -19 7 -31 7c-46 0 -85 -34 -95 -75v-342h-110v357c0 64 -7 105 -18 136l101 26c12 -23 19 -52 19 -80c40 55 80 81 129 81c16 0 26 -2 39 -8z" />
    <glyph glyph-name="s" unicode="s" horiz-adv-x="484" 
d="M439 158c0 -102 -83 -172 -205 -172c-62 0 -129 20 -194 56l39 79c45 -26 107 -53 164 -53c48 0 82 29 82 71c0 39 -25 59 -82 71l-61 13c-76 16 -121 68 -121 139c0 95 76 161 188 161c69 0 124 -21 167 -44l-36 -76c-47 25 -84 37 -124 37c-47 0 -77 -26 -77 -65
c0 -31 17 -47 68 -60l63 -16c102 -26 129 -82 129 -141z" />
    <glyph glyph-name="t" unicode="t" horiz-adv-x="341" 
d="M316 9c-33 -15 -65 -22 -99 -22c-98 0 -132 58 -132 130v313h-56v76h56c0 43 0 87 5 125l113 27c-5 -41 -9 -102 -9 -152h121l-29 -76h-93v-284c0 -63 14 -81 62 -81c15 0 28 3 47 10z" />
    <glyph glyph-name="u" unicode="u" horiz-adv-x="552" 
d="M498 36l-76 -52c-22 16 -35 34 -44 63c-37 -42 -86 -62 -144 -62c-57 0 -101 20 -126 50c-20 24 -28 57 -28 120v343l108 20v-339c0 -63 9 -109 74 -109c37 0 82 30 99 66v362l106 20v-381c0 -68 25 -96 31 -101z" />
    <glyph glyph-name="v" unicode="v" horiz-adv-x="483" 
d="M473 506l-184 -508h-97l-182 504l113 16l88 -273c12 -37 25 -88 31 -113h2c2 12 13 66 30 117l84 257h115z" />
    <glyph glyph-name="w" unicode="w" horiz-adv-x="708" 
d="M693 506l-143 -508h-103l-62 233c-14 53 -30 122 -33 138h-2c-2 -14 -11 -60 -33 -143l-61 -228h-103l-138 501l109 15l55 -245c12 -56 24 -119 26 -133h3c2 13 12 74 29 136l65 234h108l57 -228c19 -73 30 -132 32 -144h3c2 15 13 83 25 136l52 236h114z" />
    <glyph glyph-name="x" unicode="x" horiz-adv-x="487" 
d="M492 0h-138c-18 29 -100 171 -110 189c-19 -38 -91 -161 -110 -189h-139l188 274l-146 217l119 24c23 -38 68 -117 92 -164c14 33 65 134 80 155h128l-149 -230z" />
    <glyph glyph-name="y" unicode="y" horiz-adv-x="493" 
d="M483 506l-179 -517c-42 -122 -78 -183 -197 -205l-36 71c69 19 108 48 137 145h-35c-14 57 -33 112 -48 157l-115 341l112 19l93 -308c9 -30 26 -106 28 -114c1 4 19 76 38 137l84 274h118z" />
    <glyph glyph-name="z" unicode="z" horiz-adv-x="469" 
d="M429 77l-32 -77h-357v73l254 355h-234v78h358v-78l-240 -351h251z" />
    <glyph glyph-name="braceleft" unicode="{" horiz-adv-x="358" 
d="M333 -155h-90c-62 0 -118 42 -118 137v174c0 66 -68 86 -100 87v91c32 1 100 23 100 88v175c0 93 55 136 118 136h90v-91h-49c-55 0 -61 -38 -61 -71v-168c0 -88 -57 -108 -93 -113v-4c36 -4 93 -19 93 -111v-168c0 -32 6 -72 61 -72h49v-90z" />
    <glyph glyph-name="bar" unicode="|" horiz-adv-x="270" 
d="M185 -207h-100v964h100v-964z" />
    <glyph glyph-name="braceright" unicode="}" horiz-adv-x="358" 
d="M333 243c-34 -1 -100 -21 -100 -87v-175c0 -94 -54 -136 -118 -136h-90v90h48c56 0 62 40 62 72v167c0 94 58 108 94 112v5c-36 4 -94 21 -94 111v169c0 33 -6 71 -62 71h-48v91h91c60 0 117 -43 117 -137v-174c0 -65 66 -87 100 -88v-91z" />
    <glyph glyph-name="asciitilde" unicode="~" horiz-adv-x="566" 
d="M511 305c-24 -43 -58 -88 -123 -88c-29 0 -65 13 -107 33c-50 24 -83 37 -107 37c-41 0 -66 -35 -87 -68l-32 84c24 42 58 87 123 87c34 0 70 -15 107 -32c37 -16 74 -38 107 -38c41 0 65 36 87 68z" />
    <glyph glyph-name="uni00A0" unicode="&#xa0;" horiz-adv-x="225" 
 />
    <glyph glyph-name="exclamdown" unicode="&#xa1;" horiz-adv-x="295" 
d="M215 -175l-134 -20l25 493h83zM220 449c0 -41 -33 -74 -74 -74c-40 0 -71 33 -71 73c0 42 32 74 73 74c39 0 72 -32 72 -73z" />
    <glyph glyph-name="cent" unicode="&#xa2;" horiz-adv-x="471" 
d="M436 56c-41 -41 -77 -58 -123 -64v-94h-75v94c-59 7 -103 32 -133 76c-32 45 -50 107 -50 181c0 170 95 252 182 268v88h76v-87c31 -1 72 -20 109 -53l-54 -72c-22 22 -52 40 -89 40c-71 0 -107 -80 -107 -190c0 -105 39 -170 110 -170c42 0 79 21 102 50z" />
    <glyph glyph-name="sterling" unicode="&#xa3;" horiz-adv-x="592" 
d="M567 656l-81 -87c-29 28 -64 45 -97 45c-94 0 -122 -67 -122 -146v-62h158v-86h-158v-223h250v-97h-472v97h100v223h-96v86h96v77c0 138 88 237 233 237c68 0 138 -17 189 -64z" />
    <glyph glyph-name="currency" unicode="&#xa4;" horiz-adv-x="457" 
d="M402 94l-94 -57l-39 67c-16 -2 -29 -5 -45 -5c-17 0 -33 4 -48 6l-39 -68l-91 57l43 68c-22 28 -30 67 -30 108c0 44 11 82 33 111l-46 69l96 56l39 -67c14 2 28 4 41 4c17 0 32 -3 48 -5l36 68l92 -56l-42 -66c20 -22 33 -64 33 -115c0 -43 -11 -77 -32 -105zM298 269
c0 75 -24 110 -77 110c-59 0 -72 -40 -72 -104c0 -44 5 -75 20 -91c14 -15 31 -22 55 -22c43 0 74 27 74 107z" />
    <glyph glyph-name="yen" unicode="&#xa5;" horiz-adv-x="568" 
d="M563 692l-159 -295h123v-83h-166l-19 -35v-53h185v-83h-185v-143h-119v143h-179v83h179v53l-20 35h-159v83h118l-157 295h139l104 -217c20 -41 34 -80 37 -89c4 10 22 53 38 87l106 219h134z" />
    <glyph glyph-name="brokenbar" unicode="&#xa6;" horiz-adv-x="270" 
d="M185 363h-100v394h100v-394zM185 -207h-100v394h100v-394z" />
    <glyph glyph-name="section" unicode="&#xa7;" horiz-adv-x="562" 
d="M517 282c0 -57 -36 -105 -87 -131c40 -30 62 -72 62 -122c0 -125 -124 -177 -229 -177c-93 0 -176 32 -218 123l106 51c15 -52 66 -75 117 -75c42 0 93 18 93 69c0 47 -57 70 -113 93c-36 15 -89 41 -120 62c-40 28 -67 68 -67 123c0 68 36 113 95 146
c-44 28 -71 67 -71 117c0 113 107 166 205 166c78 0 166 -25 204 -101l-104 -59c-16 40 -56 61 -97 61s-82 -21 -82 -67c0 -31 23 -55 57 -70l98 -44c74 -33 151 -75 151 -165zM403 260c0 46 -43 70 -79 87l-95 45c-30 -14 -55 -35 -55 -70c0 -52 43 -71 82 -89l99 -46
c28 14 48 42 48 73z" />
    <glyph glyph-name="dieresis" unicode="&#xa8;" horiz-adv-x="454" 
d="M399 630c0 -38 -31 -70 -68 -70s-67 32 -67 70c0 39 30 70 68 70c36 0 67 -31 67 -70zM189 630c0 -38 -30 -70 -67 -70s-67 32 -67 70c0 39 30 70 67 70s67 -31 67 -70z" />
    <glyph glyph-name="copyright" unicode="&#xa9;" horiz-adv-x="850" 
d="M795 355c0 -208 -167 -372 -370 -372s-370 164 -370 372c0 207 167 372 370 372s370 -165 370 -372zM711 355c0 166 -128 298 -286 298s-285 -132 -285 -298s127 -300 285 -300s286 134 286 300zM551 179c-33 -27 -68 -39 -116 -39c-57 0 -102 19 -136 58
c-33 38 -50 88 -50 149c0 53 9 94 28 130c32 61 92 97 160 97c41 0 82 -14 105 -33l-38 -57c-21 15 -43 23 -66 23c-28 0 -56 -14 -71 -36c-16 -24 -23 -59 -23 -107c0 -57 4 -89 17 -112c17 -31 44 -47 80 -47c25 0 47 7 72 27z" />
    <glyph glyph-name="ordfeminine" unicode="&#xaa;" horiz-adv-x="422" 
d="M375 417l-41 -54c-23 10 -45 27 -54 53c-29 -33 -58 -48 -105 -48c-86 0 -125 49 -125 115c0 88 65 131 187 131h26v27c0 43 -14 61 -53 61c-34 0 -76 -17 -114 -43l-36 60c56 32 107 51 162 51c48 0 81 -16 99 -36c19 -22 25 -51 24 -85l-3 -143c-1 -54 5 -68 33 -89z
M382 234h-342v66h342v-66zM261 559c-2 0 -11 1 -15 1c-46 0 -74 -7 -90 -21c-13 -12 -18 -28 -18 -52c0 -37 20 -59 53 -59c26 0 52 16 69 40z" />
    <glyph glyph-name="guillemotleft" unicode="&#xab;" horiz-adv-x="517" 
d="M482 70l-74 -50l-152 226l152 227l74 -50l-116 -177zM260 70l-74 -50l-151 226l151 227l74 -50l-115 -177z" />
    <glyph glyph-name="logicalnot" unicode="&#xac;" horiz-adv-x="535" 
d="M480 66h-107v140h-318v93h425v-233z" />
    <glyph glyph-name="uni00AD" unicode="&#xad;" horiz-adv-x="329" 
d="M274 221h-219v102h219v-102z" />
    <glyph glyph-name="registered" unicode="&#xae;" horiz-adv-x="850" 
d="M795 355c0 -208 -167 -372 -370 -372s-370 164 -370 372c0 207 167 372 370 372s370 -165 370 -372zM711 355c0 166 -128 298 -286 298s-285 -132 -285 -298s127 -300 285 -300s286 134 286 300zM597 149h-99c-16 28 -23 39 -39 69c-41 75 -54 96 -69 102
c-4 2 -8 3 -13 3v-174h-82v417h155c74 0 123 -49 123 -122c0 -63 -42 -114 -93 -115c8 -7 12 -11 17 -18c21 -27 85 -136 100 -162zM484 442c0 26 -10 43 -30 51c-9 3 -27 6 -47 6h-30v-113h28c36 0 52 4 63 14c10 10 16 25 16 42z" />
    <glyph glyph-name="macron" unicode="&#xaf;" horiz-adv-x="355" 
d="M325 672h-295v70h295v-70z" />
    <glyph glyph-name="degree" unicode="&#xb0;" horiz-adv-x="403" 
d="M368 528c0 -106 -65 -170 -167 -170c-103 0 -166 66 -166 171c0 104 66 171 165 171c105 0 168 -64 168 -172zM277 527c0 77 -24 109 -77 109c-52 0 -75 -35 -75 -104c0 -76 23 -110 77 -110c52 0 75 34 75 105z" />
    <glyph glyph-name="plusminus" unicode="&#xb1;" horiz-adv-x="517" 
d="M462 277h-150v-143h-107v143h-150v100h150v137h107v-137h150v-100zM460 0h-403v100h403v-100z" />
    <glyph glyph-name="twosuperior" unicode="&#xb2;" horiz-adv-x="384" 
d="M339 321l-19 -71h-263v56c27 21 67 58 99 92c58 61 75 100 75 129c0 35 -22 52 -50 52c-32 0 -55 -16 -89 -41l-47 51c53 44 100 64 156 64c73 0 125 -49 125 -117c0 -70 -67 -134 -117 -182l-36 -34c10 0 21 1 30 1h136z" />
    <glyph glyph-name="threesuperior" unicode="&#xb3;" horiz-adv-x="381" 
d="M336 374c0 -56 -42 -100 -100 -123c-32 -12 -73 -20 -118 -20c-17 0 -23 1 -48 4l-23 64c32 -6 37 -6 54 -6c48 0 86 10 113 32c17 14 26 34 26 55s-12 38 -30 44c-12 4 -23 6 -59 6h-30v66h34c34 0 79 3 79 43c0 24 -16 42 -50 42c-35 0 -57 -13 -93 -37l-46 53
c44 35 101 56 149 56c75 0 132 -44 132 -106c0 -41 -17 -63 -50 -85c36 -18 60 -48 60 -88z" />
    <glyph glyph-name="acute" unicode="&#xb4;" horiz-adv-x="324" 
d="M289 662l-220 -102l-34 63l204 132z" />
    <glyph glyph-name="mu" unicode="&#xb5;" horiz-adv-x="551" 
d="M497 37l-76 -51c-21 16 -35 34 -44 63c-37 -42 -85 -63 -144 -63c-15 0 -32 3 -46 17c1 -10 3 -31 3 -45v-146l-110 -27v714l108 21v-349c0 -35 3 -60 18 -77c12 -13 31 -22 53 -22c40 0 84 28 100 64v360l107 22v-384c0 -63 25 -92 31 -97z" />
    <glyph glyph-name="paragraph" unicode="&#xb6;" horiz-adv-x="607" 
d="M522 -125h-79v767h-115v-767h-80v458c-128 0 -213 78 -213 182c0 132 91 194 229 194h258v-834z" />
    <glyph glyph-name="periodcentered" unicode="&#xb7;" horiz-adv-x="286" 
d="M221 276c0 -44 -35 -81 -78 -81c-44 0 -78 37 -78 81c0 45 35 81 78 81c44 0 78 -36 78 -81z" />
    <glyph glyph-name="cedilla" unicode="&#xb8;" horiz-adv-x="296" 
d="M241 -112c0 -45 -36 -86 -103 -86c-29 0 -63 13 -83 24l26 54c19 -9 34 -15 54 -15c16 0 31 11 31 25c0 15 -12 26 -32 26c-12 0 -21 -3 -29 -5l-5 21l21 80l64 -7l-14 -41c52 -6 70 -39 70 -76z" />
    <glyph glyph-name="onesuperior" unicode="&#xb9;" horiz-adv-x="336" 
d="M291 250h-204v70h64v229c-26 -15 -54 -29 -82 -38l-24 49l130 87h60v-327h56v-70z" />
    <glyph glyph-name="ordmasculine" unicode="&#xba;" horiz-adv-x="421" 
d="M376 564c0 -115 -59 -196 -167 -196c-102 0 -166 76 -166 197s65 198 165 198c108 0 168 -78 168 -199zM282 563c0 103 -28 132 -73 132c-51 0 -72 -40 -72 -124c0 -104 27 -136 74 -136c46 0 71 38 71 128zM381 234h-341v66h341v-66z" />
    <glyph glyph-name="guillemotright" unicode="&#xbb;" horiz-adv-x="518" 
d="M483 246l-152 -226l-74 50l116 176l-116 177l74 50zM261 246l-151 -226l-75 50l117 176l-117 177l75 50z" />
    <glyph glyph-name="onequarter" unicode="&#xbc;" horiz-adv-x="990" 
d="M291 250h-204v70h64v229c-26 -15 -54 -29 -82 -38l-24 49l130 87h60v-327h56v-70zM814 764l-525 -917h-88l525 917h88zM922 308v-162c0 -2 -1 -4 -1 -5c2 0 5 1 7 1h39v-71h-39c-2 0 -5 1 -7 1c0 -3 1 -8 1 -12v-68l-83 -14v86c0 2 1 6 1 8c-3 0 -7 -1 -11 -1h-167v56
l110 271h92c-11 -22 -66 -181 -109 -256h81l4 -1v4c0 48 7 100 11 146z" />
    <glyph glyph-name="onehalf" unicode="&#xbd;" horiz-adv-x="979" 
d="M291 250h-204v70h64v229c-26 -15 -54 -29 -82 -38l-24 49l130 87h60v-327h56v-70zM794 764l-525 -917h-88l525 917h88zM956 71l-19 -71h-263v56c27 21 67 58 99 92c58 61 75 100 75 129c0 35 -22 52 -50 52c-32 0 -55 -16 -89 -41l-47 51c53 44 100 64 156 64
c73 0 125 -49 125 -117c0 -70 -67 -134 -117 -182l-36 -34c10 0 21 1 30 1h136z" />
    <glyph glyph-name="threequarters" unicode="&#xbe;" horiz-adv-x="1035" 
d="M336 374c0 -56 -42 -100 -100 -123c-32 -12 -73 -20 -118 -20c-17 0 -23 1 -48 4l-23 64c32 -6 37 -6 54 -6c48 0 86 10 113 32c17 14 26 34 26 55s-12 38 -30 44c-12 4 -23 6 -59 6h-30v66h34c34 0 79 3 79 43c0 24 -16 42 -50 42c-35 0 -57 -13 -93 -37l-46 53
c44 35 101 56 149 56c75 0 132 -44 132 -106c0 -41 -17 -63 -50 -85c36 -18 60 -48 60 -88zM839 764l-525 -917h-88l525 917h88zM967 308v-162c0 -2 -1 -4 -1 -5c2 0 5 1 7 1h39v-71h-39c-2 0 -5 1 -7 1c0 -3 1 -8 1 -12v-68l-83 -14v86c0 2 1 6 1 8c-3 0 -7 -1 -11 -1h-167
v56l110 271h92c-11 -22 -66 -181 -109 -256h81l4 -1v4c0 48 7 100 11 146z" />
    <glyph glyph-name="questiondown" unicode="&#xbf;" horiz-adv-x="471" 
d="M426 -123c-33 -30 -100 -69 -187 -69c-97 0 -174 59 -174 158c0 94 66 136 95 155c47 32 68 78 68 124c0 18 -2 30 -3 41h94c0 -3 7 -34 7 -64c0 -58 -26 -107 -76 -144l-11 -8c-38 -29 -65 -50 -65 -90c0 -51 38 -77 86 -77c45 0 93 24 118 45zM335 446
c0 -41 -34 -75 -76 -75c-40 0 -74 34 -74 75c0 43 34 76 75 76s75 -33 75 -76z" />
    <glyph glyph-name="Agrave" unicode="&#xc0;" horiz-adv-x="587" 
d="M584 0h-126l-56 182h-224l-56 -182h-119l227 693h133zM376 278c-7 15 -77 273 -82 300h-1c-14 -51 -73 -259 -87 -300h170zM399 783l-34 -63l-220 102l50 93z" />
    <glyph glyph-name="Aacute" unicode="&#xc1;" horiz-adv-x="587" 
d="M584 0h-126l-56 182h-224l-56 -182h-119l227 693h133zM376 278c-7 15 -77 273 -82 300h-1c-14 -51 -73 -259 -87 -300h170zM451 822l-220 -102l-34 63l204 132z" />
    <glyph glyph-name="Acircumflex" unicode="&#xc2;" horiz-adv-x="587" 
d="M584 0h-126l-56 182h-224l-56 -182h-119l227 693h133zM376 278c-7 15 -77 273 -82 300h-1c-14 -51 -73 -259 -87 -300h170zM471 776l-40 -61l-138 82l-134 -82l-38 61l174 136z" />
    <glyph glyph-name="Atilde" unicode="&#xc3;" horiz-adv-x="587" 
d="M584 0h-126l-56 182h-224l-56 -182h-119l227 693h133zM376 278c-7 15 -77 273 -82 300h-1c-14 -51 -73 -259 -87 -300h170zM466 809c-33 -41 -63 -66 -121 -66c-61 0 -72 41 -130 41c-31 0 -45 -14 -66 -37l-36 61c33 42 62 66 120 66c61 0 72 -41 130 -41
c32 0 46 15 67 37z" />
    <glyph glyph-name="Adieresis" unicode="&#xc4;" horiz-adv-x="587" 
d="M584 0h-126l-56 182h-224l-56 -182h-119l227 693h133zM376 278c-7 15 -77 273 -82 300h-1c-14 -51 -73 -259 -87 -300h170zM259 790c0 -38 -30 -70 -67 -70s-67 32 -67 70c0 39 30 70 67 70s67 -31 67 -70zM468 790c0 -38 -30 -70 -67 -70s-67 32 -67 70
c0 39 30 70 67 70s67 -31 67 -70z" />
    <glyph glyph-name="Aring" unicode="&#xc5;" horiz-adv-x="587" 
d="M584 0h-126l-56 182h-224l-56 -182h-119l227 693h133zM376 278c-7 15 -77 273 -82 300h-1c-14 -51 -73 -259 -87 -300h170zM399 820c0 -58 -48 -105 -106 -105s-106 47 -106 105s48 106 106 106s106 -48 106 -106zM351 820c0 32 -26 59 -58 59s-58 -27 -58 -59
s26 -59 58 -59s58 27 58 59z" />
    <glyph glyph-name="AE" unicode="&#xc6;" horiz-adv-x="853" 
d="M823 0h-393v184h-212l-106 -184h-127l416 691h412l-15 -94h-252v-188h211v-95h-211v-216h277v-98zM434 560c-1 0 -4 0 -5 -1c-6 -13 -139 -250 -157 -280h158v181c0 34 3 88 4 100z" />
    <glyph glyph-name="Ccedilla" unicode="&#xc7;" horiz-adv-x="577" 
d="M542 50c-54 -41 -116 -61 -193 -61h-8l-8 -27c51 -6 70 -39 70 -75c0 -44 -37 -85 -103 -85c-29 0 -63 13 -83 24l25 53c24 -11 37 -15 55 -15c16 0 31 11 31 25c0 15 -13 25 -32 25c-9 0 -23 -4 -26 -5l-10 15l19 73c-141 37 -224 165 -224 340c0 82 15 151 46 209
c52 99 146 159 255 159c67 0 131 -20 172 -54l-53 -76c-38 27 -75 39 -118 39c-59 0 -105 -28 -135 -76c-27 -44 -39 -107 -39 -188c0 -83 8 -136 29 -177c36 -69 94 -93 152 -93c42 0 84 12 124 44z" />
    <glyph glyph-name="Egrave" unicode="&#xc8;" horiz-adv-x="509" 
d="M479 0h-394v692h384l-15 -94h-252v-189h211v-95h-211v-216h277v-98zM384 783l-34 -63l-220 102l50 93z" />
    <glyph glyph-name="Eacute" unicode="&#xc9;" horiz-adv-x="509" 
d="M479 0h-394v692h384l-15 -94h-252v-189h211v-95h-211v-216h277v-98zM404 822l-220 -102l-34 63l204 132z" />
    <glyph glyph-name="Ecircumflex" unicode="&#xca;" horiz-adv-x="509" 
d="M479 0h-394v692h384l-15 -94h-252v-189h211v-95h-211v-216h277v-98zM454 776l-40 -61l-138 82l-134 -82l-38 61l174 136z" />
    <glyph glyph-name="Edieresis" unicode="&#xcb;" horiz-adv-x="509" 
d="M479 0h-394v692h384l-15 -94h-252v-189h211v-95h-211v-216h277v-98zM233 790c0 -38 -30 -70 -67 -70s-67 32 -67 70c0 39 30 70 67 70s67 -31 67 -70zM442 790c0 -38 -30 -70 -67 -70s-67 32 -67 70c0 39 30 70 67 70s67 -31 67 -70z" />
    <glyph glyph-name="Igrave" unicode="&#xcc;" horiz-adv-x="288" 
d="M203 0h-118v692h118v-692zM243 785l-34 -63l-220 102l50 93z" />
    <glyph glyph-name="Iacute" unicode="&#xcd;" horiz-adv-x="288" 
d="M203 0h-118v692h118v-692zM302 824l-220 -102l-34 63l204 132z" />
    <glyph glyph-name="Icircumflex" unicode="&#xce;" horiz-adv-x="288" 
d="M203 0h-118v692h118v-692zM319 778l-40 -61l-138 82l-134 -82l-38 61l174 136z" />
    <glyph glyph-name="Idieresis" unicode="&#xcf;" horiz-adv-x="288" 
d="M203 0h-118v692h118v-692zM106 791c0 -38 -30 -70 -67 -70s-67 32 -67 70c0 39 30 70 67 70s67 -31 67 -70zM315 791c0 -38 -30 -70 -67 -70s-67 32 -67 70c0 39 30 70 67 70s67 -31 67 -70z" />
    <glyph glyph-name="Eth" unicode="&#xd0;" horiz-adv-x="631" 
d="M576 344c0 -105 -26 -187 -73 -247c-58 -74 -118 -97 -247 -97h-171v311h-79v79h79v302h144c130 0 207 -24 272 -98c51 -59 75 -142 75 -250zM448 332c0 89 -8 160 -44 209c-32 44 -68 60 -130 60h-73v-211h130l-5 -79h-125v-217h76c122 0 171 81 171 238z" />
    <glyph glyph-name="Ntilde" unicode="&#xd1;" horiz-adv-x="639" 
d="M554 0h-121l-155 325c-37 77 -75 164 -88 205l-3 -3c5 -58 6 -124 7 -192l4 -335h-113v692h130l168 -338c32 -64 62 -146 71 -178l3 3c-3 35 -10 134 -10 197l-2 316h109v-692zM496 809c-33 -41 -63 -66 -121 -66c-61 0 -72 41 -130 41c-31 0 -45 -14 -66 -37l-36 61
c33 42 62 66 120 66c61 0 72 -41 130 -41c32 0 46 15 67 37z" />
    <glyph glyph-name="Ograve" unicode="&#xd2;" horiz-adv-x="688" 
d="M633 345c0 -216 -104 -356 -284 -356c-197 0 -294 152 -294 357c0 228 116 356 289 356c195 0 289 -155 289 -357zM502 338c0 169 -35 275 -159 275c-116 0 -160 -94 -160 -260c0 -178 45 -277 163 -277c103 0 156 76 156 262zM455 783l-34 -63l-220 102l50 93z" />
    <glyph glyph-name="Oacute" unicode="&#xd3;" horiz-adv-x="688" 
d="M633 345c0 -216 -104 -356 -284 -356c-197 0 -294 152 -294 357c0 228 116 356 289 356c195 0 289 -155 289 -357zM502 338c0 169 -35 275 -159 275c-116 0 -160 -94 -160 -260c0 -178 45 -277 163 -277c103 0 156 76 156 262zM490 824l-220 -102l-34 63l204 132z" />
    <glyph glyph-name="Ocircumflex" unicode="&#xd4;" horiz-adv-x="688" 
d="M633 345c0 -216 -104 -356 -284 -356c-197 0 -294 152 -294 357c0 228 116 356 289 356c195 0 289 -155 289 -357zM502 338c0 169 -35 275 -159 275c-116 0 -160 -94 -160 -260c0 -178 45 -277 163 -277c103 0 156 76 156 262zM521 776l-40 -61l-138 82l-134 -82l-38 61
l174 136z" />
    <glyph glyph-name="Otilde" unicode="&#xd5;" horiz-adv-x="688" 
d="M633 345c0 -216 -104 -356 -284 -356c-197 0 -294 152 -294 357c0 228 116 356 289 356c195 0 289 -155 289 -357zM502 338c0 169 -35 275 -159 275c-116 0 -160 -94 -160 -260c0 -178 45 -277 163 -277c103 0 156 76 156 262zM511 809c-33 -41 -63 -66 -121 -66
c-61 0 -72 41 -130 41c-31 0 -45 -14 -66 -37l-36 61c33 42 62 66 120 66c61 0 72 -41 130 -41c32 0 46 15 67 37z" />
    <glyph glyph-name="Odieresis" unicode="&#xd6;" horiz-adv-x="688" 
d="M633 345c0 -216 -104 -356 -284 -356c-197 0 -294 152 -294 357c0 228 116 356 289 356c195 0 289 -155 289 -357zM502 338c0 169 -35 275 -159 275c-116 0 -160 -94 -160 -260c0 -178 45 -277 163 -277c103 0 156 76 156 262zM306 790c0 -38 -30 -70 -67 -70
s-67 32 -67 70c0 39 30 70 67 70s67 -31 67 -70zM516 790c0 -38 -30 -70 -67 -70s-67 32 -67 70c0 39 30 70 67 70s67 -31 67 -70z" />
    <glyph glyph-name="multiply" unicode="&#xd7;" horiz-adv-x="598" 
d="M513 142l-72 -72l-141 141l-141 -141l-74 74l141 141l-141 141l72 72l141 -141l141 141l74 -74l-141 -141z" />
    <glyph glyph-name="Oslash" unicode="&#xd8;" horiz-adv-x="688" 
d="M633 344c0 -129 -34 -221 -99 -282c-56 -53 -110 -74 -186 -74c-61 0 -111 13 -154 40l-67 -114l-62 36l75 125c-57 69 -85 163 -85 271c0 222 112 356 288 356c59 0 108 -15 150 -40l61 103l63 -36l-69 -114c67 -77 85 -154 85 -271zM441 575c-25 23 -57 38 -97 38
c-110 0 -161 -80 -161 -262c0 -66 7 -124 21 -170zM501 337c0 71 -7 123 -20 167l-236 -394c16 -16 58 -35 101 -35c105 0 155 79 155 262z" />
    <glyph glyph-name="Ugrave" unicode="&#xd9;" horiz-adv-x="639" 
d="M559 194c0 -127 -88 -206 -240 -206c-182 0 -239 94 -239 205v499h116v-465c0 -106 38 -141 123 -141c84 0 125 49 125 141v465h115v-498zM425 783l-34 -63l-220 102l50 93z" />
    <glyph glyph-name="Uacute" unicode="&#xda;" horiz-adv-x="639" 
d="M559 194c0 -127 -88 -206 -240 -206c-182 0 -239 94 -239 205v499h116v-465c0 -106 38 -141 123 -141c84 0 125 49 125 141v465h115v-498zM456 822l-220 -102l-34 63l204 132z" />
    <glyph glyph-name="Ucircumflex" unicode="&#xdb;" horiz-adv-x="639" 
d="M559 194c0 -127 -88 -206 -240 -206c-182 0 -239 94 -239 205v499h116v-465c0 -106 38 -141 123 -141c84 0 125 49 125 141v465h115v-498zM496 776l-40 -61l-138 82l-134 -82l-38 61l174 136z" />
    <glyph glyph-name="Udieresis" unicode="&#xdc;" horiz-adv-x="639" 
d="M559 194c0 -127 -88 -206 -240 -206c-182 0 -239 94 -239 205v499h116v-465c0 -106 38 -141 123 -141c84 0 125 49 125 141v465h115v-498zM293 790c0 -38 -30 -70 -67 -70s-67 32 -67 70c0 39 30 70 67 70s67 -31 67 -70zM502 791c0 -38 -30 -70 -67 -70s-67 32 -67 70
c0 39 30 70 67 70s67 -31 67 -70z" />
    <glyph glyph-name="Yacute" unicode="&#xdd;" horiz-adv-x="528" 
d="M543 692l-221 -413v-279h-119v280l-218 412h139l104 -217c19 -39 34 -80 37 -89c4 10 22 53 38 87l106 219h134zM410 824l-220 -102l-34 63l204 132z" />
    <glyph glyph-name="Thorn" unicode="&#xde;" horiz-adv-x="565" 
d="M540 375c0 -136 -99 -221 -224 -221h-117v-154h-114v692h114v-110h70c101 0 138 -10 176 -33c61 -36 95 -98 95 -174zM413 368c0 38 -9 67 -28 87c-21 22 -51 34 -96 34h-90v-243h90c85 0 124 40 124 122z" />
    <glyph glyph-name="germandbls" unicode="&#xdf;" horiz-adv-x="597" 
d="M552 185c0 -116 -85 -198 -212 -198c-34 0 -62 4 -81 13l26 75c19 -6 26 -8 42 -8c64 0 105 44 105 112c0 128 -166 108 -166 212c0 87 107 66 107 158c0 56 -34 85 -83 85c-58 0 -85 -42 -85 -122v-411c0 -47 -10 -84 -16 -101h-109c5 21 14 76 14 122v301h-79v83h79v18
c0 45 7 86 26 114c31 45 90 80 173 80c121 0 201 -64 201 -160c0 -47 -22 -79 -51 -102c-38 -31 -80 -35 -80 -57c0 -26 60 -38 113 -72c41 -26 76 -68 76 -142z" />
    <glyph glyph-name="agrave" unicode="&#xe0;" horiz-adv-x="525" 
d="M483 49l-57 -70c-31 12 -57 36 -69 68c-41 -46 -85 -62 -139 -62c-116 0 -168 64 -168 152c0 117 88 176 250 176h34v27c0 58 -10 89 -70 89c-65 0 -135 -46 -151 -58l-49 79c76 48 139 69 215 69c79 0 132 -29 154 -84c9 -22 9 -49 8 -124l-2 -145c-1 -68 5 -90 44 -117
zM332 238c-2 0 -13 1 -20 1c-110 0 -143 -32 -143 -96c0 -48 26 -78 70 -78c35 0 69 21 91 53zM369 623l-34 -63l-220 102l50 93z" />
    <glyph glyph-name="aacute" unicode="&#xe1;" horiz-adv-x="525" 
d="M483 49l-57 -70c-31 12 -57 36 -69 68c-41 -46 -85 -62 -139 -62c-116 0 -168 64 -168 152c0 117 88 176 250 176h34v27c0 58 -10 89 -70 89c-65 0 -135 -46 -151 -58l-49 79c76 48 139 69 215 69c79 0 132 -29 154 -84c9 -22 9 -49 8 -124l-2 -145c-1 -68 5 -90 44 -117
zM332 238c-2 0 -13 1 -20 1c-110 0 -143 -32 -143 -96c0 -48 26 -78 70 -78c35 0 69 21 91 53zM405 662l-220 -102l-34 63l204 132z" />
    <glyph glyph-name="acircumflex" unicode="&#xe2;" horiz-adv-x="525" 
d="M483 49l-57 -70c-31 12 -57 36 -69 68c-41 -46 -85 -62 -139 -62c-116 0 -168 64 -168 152c0 117 88 176 250 176h34v27c0 58 -10 89 -70 89c-65 0 -135 -46 -151 -58l-49 79c76 48 139 69 215 69c79 0 132 -29 154 -84c9 -22 9 -49 8 -124l-2 -145c-1 -68 5 -90 44 -117
zM332 238c-2 0 -13 1 -20 1c-110 0 -143 -32 -143 -96c0 -48 26 -78 70 -78c35 0 69 21 91 53zM437 616l-40 -61l-138 82l-134 -82l-38 61l174 136z" />
    <glyph glyph-name="atilde" unicode="&#xe3;" horiz-adv-x="525" 
d="M483 49l-57 -70c-31 12 -57 36 -69 68c-41 -46 -85 -62 -139 -62c-116 0 -168 64 -168 152c0 117 88 176 250 176h34v27c0 58 -10 89 -70 89c-65 0 -135 -46 -151 -58l-49 79c76 48 139 69 215 69c79 0 132 -29 154 -84c9 -22 9 -49 8 -124l-2 -145c-1 -68 5 -90 44 -117
zM332 238c-2 0 -13 1 -20 1c-110 0 -143 -32 -143 -96c0 -48 26 -78 70 -78c35 0 69 21 91 53zM432 649c-33 -41 -63 -66 -121 -66c-61 0 -72 41 -130 41c-31 0 -45 -14 -66 -37l-36 61c33 42 62 66 120 66c61 0 72 -41 130 -41c32 0 46 15 67 37z" />
    <glyph glyph-name="adieresis" unicode="&#xe4;" horiz-adv-x="525" 
d="M483 49l-57 -70c-31 12 -57 36 -69 68c-41 -46 -85 -62 -139 -62c-116 0 -168 64 -168 152c0 117 88 176 250 176h34v27c0 58 -10 89 -70 89c-65 0 -135 -46 -151 -58l-49 79c76 48 139 69 215 69c79 0 132 -29 154 -84c9 -22 9 -49 8 -124l-2 -145c-1 -68 5 -90 44 -117
zM332 238c-2 0 -13 1 -20 1c-110 0 -143 -32 -143 -96c0 -48 26 -78 70 -78c35 0 69 21 91 53zM225 630c0 -38 -30 -70 -67 -70s-67 32 -67 70c0 39 30 70 67 70s67 -31 67 -70zM434 630c0 -38 -30 -70 -67 -70s-67 32 -67 70c0 39 30 70 67 70s67 -31 67 -70z" />
    <glyph glyph-name="aring" unicode="&#xe5;" horiz-adv-x="525" 
d="M483 49l-57 -70c-31 12 -57 36 -69 68c-41 -46 -85 -62 -139 -62c-116 0 -168 64 -168 152c0 117 88 176 250 176h34v27c0 58 -10 89 -70 89c-65 0 -135 -46 -151 -58l-49 79c76 48 139 69 215 69c79 0 132 -29 154 -84c9 -22 9 -49 8 -124l-2 -145c-1 -68 5 -90 44 -117
zM332 238c-2 0 -13 1 -20 1c-110 0 -143 -32 -143 -96c0 -48 26 -78 70 -78c35 0 69 21 91 53zM371 660c0 -58 -48 -105 -106 -105s-106 47 -106 105s48 106 106 106s106 -48 106 -106zM323 660c0 32 -26 59 -58 59s-58 -27 -58 -59s26 -59 58 -59s58 27 58 59z" />
    <glyph glyph-name="ae" unicode="&#xe6;" horiz-adv-x="785" 
d="M740 223h-301v-21c0 -78 46 -132 123 -132c47 0 89 17 127 50l41 -66c-52 -45 -112 -67 -180 -67c-90 0 -145 37 -171 77c-42 -49 -94 -80 -161 -80c-118 0 -168 66 -168 152c0 117 88 176 250 176c11 0 17 -1 34 -1v29c0 35 -2 53 -13 68s-29 21 -57 21
c-47 0 -102 -22 -152 -57l-48 78c72 45 139 69 215 69c56 0 98 -23 127 -54c33 32 78 54 128 54c57 0 109 -20 142 -54c44 -47 64 -107 64 -219v-23zM332 237c-8 0 -15 1 -20 1c-109 0 -143 -28 -143 -95c0 -49 26 -79 70 -79c35 0 69 20 91 53zM625 304
c0 77 -29 133 -91 133c-59 0 -94 -46 -94 -133h185z" />
    <glyph glyph-name="ccedilla" unicode="&#xe7;" horiz-adv-x="467" 
d="M432 57c-45 -47 -100 -68 -158 -68l-8 -27c51 -6 69 -39 69 -75c0 -45 -36 -85 -103 -85c-29 0 -62 12 -82 23l25 54c18 -8 35 -15 54 -15c17 0 31 11 31 25c0 15 -12 25 -32 25c-12 0 -23 -4 -25 -5l-11 15l19 72c-45 11 -80 35 -106 70c-33 46 -50 106 -50 183
c0 115 40 186 93 227c36 29 83 44 129 44c59 0 97 -15 141 -54l-55 -73c-30 27 -56 39 -85 39c-74 0 -101 -64 -101 -192c0 -68 12 -112 33 -136c14 -16 37 -31 68 -31c35 0 72 19 102 50z" />
    <glyph glyph-name="egrave" unicode="&#xe8;" horiz-adv-x="523" 
d="M478 223h-302v-8c0 -70 26 -144 125 -144c47 0 88 17 126 50l43 -67c-53 -45 -114 -67 -182 -67c-143 0 -233 103 -233 265c0 89 19 148 63 198c41 47 91 68 155 68c50 0 96 -13 139 -52c44 -40 66 -102 66 -220v-23zM364 304c0 82 -36 131 -91 131
c-62 0 -96 -49 -96 -131h187zM368 623l-34 -63l-220 102l50 93z" />
    <glyph glyph-name="eacute" unicode="&#xe9;" horiz-adv-x="523" 
d="M478 223h-302v-8c0 -70 26 -144 125 -144c47 0 88 17 126 50l43 -67c-53 -45 -114 -67 -182 -67c-143 0 -233 103 -233 265c0 89 19 148 63 198c41 47 91 68 155 68c50 0 96 -13 139 -52c44 -40 66 -102 66 -220v-23zM364 304c0 82 -36 131 -91 131
c-62 0 -96 -49 -96 -131h187zM407 662l-220 -102l-34 63l204 132z" />
    <glyph glyph-name="ecircumflex" unicode="&#xea;" horiz-adv-x="523" 
d="M478 223h-302v-8c0 -70 26 -144 125 -144c47 0 88 17 126 50l43 -67c-53 -45 -114 -67 -182 -67c-143 0 -233 103 -233 265c0 89 19 148 63 198c41 47 91 68 155 68c50 0 96 -13 139 -52c44 -40 66 -102 66 -220v-23zM364 304c0 82 -36 131 -91 131
c-62 0 -96 -49 -96 -131h187zM449 616l-40 -61l-138 82l-134 -82l-38 61l174 136z" />
    <glyph glyph-name="edieresis" unicode="&#xeb;" horiz-adv-x="523" 
d="M478 223h-302v-8c0 -70 26 -144 125 -144c47 0 88 17 126 50l43 -67c-53 -45 -114 -67 -182 -67c-143 0 -233 103 -233 265c0 89 19 148 63 198c41 47 91 68 155 68c50 0 96 -13 139 -52c44 -40 66 -102 66 -220v-23zM364 304c0 82 -36 131 -91 131
c-62 0 -96 -49 -96 -131h187zM234 630c0 -38 -30 -70 -67 -70s-67 32 -67 70c0 39 30 70 67 70s67 -31 67 -70zM443 630c0 -38 -30 -70 -67 -70s-67 32 -67 70c0 39 30 70 67 70s67 -31 67 -70z" />
    <glyph glyph-name="igrave" unicode="&#xec;" horiz-adv-x="281" 
d="M196 0h-111v498l111 20v-518zM239 623l-34 -63l-220 102l50 93z" />
    <glyph glyph-name="iacute" unicode="&#xed;" horiz-adv-x="281" 
d="M196 0h-111v498l111 20v-518zM299 662l-220 -102l-34 63l204 132z" />
    <glyph glyph-name="icircumflex" unicode="&#xee;" horiz-adv-x="281" 
d="M196 0h-111v498l111 20v-518zM317 616l-40 -61l-138 82l-134 -82l-38 61l174 136z" />
    <glyph glyph-name="idieresis" unicode="&#xef;" horiz-adv-x="281" 
d="M196 0h-111v498l111 20v-518zM103 630c0 -38 -30 -70 -67 -70s-67 32 -67 70c0 39 30 70 67 70s67 -31 67 -70zM312 630c0 -38 -30 -70 -67 -70s-67 32 -67 70c0 39 30 70 67 70s67 -31 67 -70z" />
    <glyph glyph-name="eth" unicode="&#xf0;" horiz-adv-x="570" 
d="M373 645l-36 -40c22 -17 43 -36 61 -57c76 -89 117 -191 117 -302c0 -167 -96 -260 -224 -260c-126 0 -221 91 -221 232c0 127 88 212 210 212c31 0 56 -4 76 -9c-20 34 -50 70 -82 97l-7 6l-30 -35l-71 36l35 40c-43 22 -92 38 -147 44l67 81c44 -5 97 -20 149 -46
l32 37zM397 238c0 24 -6 58 -8 74c-21 12 -65 24 -101 24c-60 0 -97 -43 -97 -120c0 -78 40 -130 106 -130s100 62 100 152z" />
    <glyph glyph-name="ntilde" unicode="&#xf1;" horiz-adv-x="556" 
d="M471 0h-109v336c0 69 -16 88 -58 88c-32 0 -78 -24 -111 -57v-367h-108v372c0 53 -5 84 -19 120l100 28c12 -23 18 -45 18 -72c54 46 101 70 155 70c78 0 132 -47 132 -140v-378zM450 649c-33 -41 -63 -66 -121 -66c-61 0 -72 41 -130 41c-31 0 -45 -14 -66 -37l-36 61
c33 42 62 66 120 66c61 0 72 -41 130 -41c32 0 46 15 67 37z" />
    <glyph glyph-name="ograve" unicode="&#xf2;" horiz-adv-x="547" 
d="M497 251c0 -163 -87 -264 -224 -264s-223 103 -223 265s87 266 221 266c144 0 226 -107 226 -267zM376 249c0 143 -40 186 -104 186c-70 0 -100 -53 -100 -176c0 -147 37 -190 103 -190c65 0 101 53 101 180zM366 623l-34 -63l-220 102l50 93z" />
    <glyph glyph-name="oacute" unicode="&#xf3;" horiz-adv-x="547" 
d="M497 251c0 -163 -87 -264 -224 -264s-223 103 -223 265s87 266 221 266c144 0 226 -107 226 -267zM376 249c0 143 -40 186 -104 186c-70 0 -100 -53 -100 -176c0 -147 37 -190 103 -190c65 0 101 53 101 180zM415 662l-220 -102l-34 63l204 132z" />
    <glyph glyph-name="ocircumflex" unicode="&#xf4;" horiz-adv-x="547" 
d="M497 251c0 -163 -87 -264 -224 -264s-223 103 -223 265s87 266 221 266c144 0 226 -107 226 -267zM376 249c0 143 -40 186 -104 186c-70 0 -100 -53 -100 -176c0 -147 37 -190 103 -190c65 0 101 53 101 180zM447 616l-40 -61l-138 82l-134 -82l-38 61l174 136z" />
    <glyph glyph-name="otilde" unicode="&#xf5;" horiz-adv-x="547" 
d="M497 251c0 -163 -87 -264 -224 -264s-223 103 -223 265s87 266 221 266c144 0 226 -107 226 -267zM376 249c0 143 -40 186 -104 186c-70 0 -100 -53 -100 -176c0 -147 37 -190 103 -190c65 0 101 53 101 180zM445 649c-33 -41 -63 -66 -121 -66c-61 0 -72 41 -130 41
c-31 0 -45 -14 -66 -37l-36 61c33 42 62 66 120 66c61 0 72 -41 130 -41c32 0 46 15 67 37z" />
    <glyph glyph-name="odieresis" unicode="&#xf6;" horiz-adv-x="547" 
d="M497 251c0 -163 -87 -264 -224 -264s-223 103 -223 265s87 266 221 266c144 0 226 -107 226 -267zM376 249c0 143 -40 186 -104 186c-70 0 -100 -53 -100 -176c0 -147 37 -190 103 -190c65 0 101 53 101 180zM233 630c0 -38 -30 -70 -67 -70s-67 32 -67 70
c0 39 30 70 67 70s67 -31 67 -70zM441 630c0 -38 -30 -70 -67 -70s-67 32 -67 70c0 39 30 70 67 70s67 -31 67 -70z" />
    <glyph glyph-name="divide" unicode="&#xf7;" horiz-adv-x="615" 
d="M560 220h-505v93h505v-93zM382 63c0 -43 -35 -77 -78 -77c-42 0 -76 34 -76 77c0 44 34 80 78 80c42 0 76 -36 76 -80zM383 472c0 -44 -35 -78 -78 -78c-42 0 -76 34 -76 76c0 44 34 80 77 80c42 0 77 -35 77 -78z" />
    <glyph glyph-name="oslash" unicode="&#xf8;" horiz-adv-x="546" 
d="M496 251c0 -165 -85 -264 -224 -264c-39 0 -75 8 -106 27l-55 -91l-53 31l58 98c-43 48 -66 116 -66 200c0 162 86 266 221 266c41 0 76 -8 110 -25l55 91l53 -31l-60 -100c48 -50 67 -115 67 -202zM375 249c0 40 -4 69 -11 96l-152 -254c19 -14 41 -22 63 -22
c69 0 100 55 100 180zM333 413c-18 15 -39 22 -61 22c-67 0 -101 -51 -101 -176c0 -36 5 -69 11 -99z" />
    <glyph glyph-name="ugrave" unicode="&#xf9;" horiz-adv-x="552" 
d="M498 36l-76 -52c-22 16 -35 34 -44 63c-37 -42 -86 -62 -144 -62c-57 0 -101 20 -126 50c-20 24 -28 57 -28 120v343l108 20v-339c0 -63 9 -109 74 -109c37 0 82 30 99 66v362l106 20v-381c0 -68 25 -96 31 -101zM395 623l-34 -63l-220 102l50 93z" />
    <glyph glyph-name="uacute" unicode="&#xfa;" horiz-adv-x="552" 
d="M498 36l-76 -52c-22 16 -35 34 -44 63c-37 -42 -86 -62 -144 -62c-57 0 -101 20 -126 50c-20 24 -28 57 -28 120v343l108 20v-339c0 -63 9 -109 74 -109c37 0 82 30 99 66v362l106 20v-381c0 -68 25 -96 31 -101zM415 662l-220 -102l-34 63l204 132z" />
    <glyph glyph-name="ucircumflex" unicode="&#xfb;" horiz-adv-x="552" 
d="M498 36l-76 -52c-22 16 -35 34 -44 63c-37 -42 -86 -62 -144 -62c-57 0 -101 20 -126 50c-20 24 -28 57 -28 120v343l108 20v-339c0 -63 9 -109 74 -109c37 0 82 30 99 66v362l106 20v-381c0 -68 25 -96 31 -101zM450 616l-40 -61l-138 82l-134 -82l-38 61l174 136z" />
    <glyph glyph-name="udieresis" unicode="&#xfc;" horiz-adv-x="552" 
d="M498 36l-76 -52c-22 16 -35 34 -44 63c-37 -42 -86 -62 -144 -62c-57 0 -101 20 -126 50c-20 24 -28 57 -28 120v343l108 20v-339c0 -63 9 -109 74 -109c37 0 82 30 99 66v362l106 20v-381c0 -68 25 -96 31 -101zM237 630c0 -38 -30 -70 -67 -70s-67 32 -67 70
c0 39 30 70 67 70s67 -31 67 -70zM446 630c0 -38 -30 -70 -67 -70s-67 32 -67 70c0 39 30 70 67 70s67 -31 67 -70z" />
    <glyph glyph-name="yacute" unicode="&#xfd;" horiz-adv-x="493" 
d="M483 506l-179 -517c-42 -122 -78 -183 -197 -205l-36 71c69 19 108 48 137 145h-35c-14 57 -33 112 -48 157l-115 341l112 19l93 -308c9 -30 26 -106 28 -114c1 4 19 76 38 137l84 274h118zM408 662l-220 -102l-34 63l204 132z" />
    <glyph glyph-name="thorn" unicode="&#xfe;" horiz-adv-x="567" 
d="M512 261c0 -162 -84 -272 -202 -272c-50 0 -90 22 -119 55v-232l-106 -26v804c0 58 -4 94 -13 122l114 25c6 -36 8 -61 8 -101v-118c0 -29 -2 -45 -3 -48l4 -1c35 34 72 49 120 49c121 0 197 -99 197 -257zM388 260c0 91 -18 165 -97 165c-46 0 -76 -26 -96 -51v-247
c22 -23 54 -44 94 -44c69 0 99 50 99 177z" />
    <glyph glyph-name="ydieresis" unicode="&#xff;" horiz-adv-x="493" 
d="M483 506l-179 -517c-42 -122 -78 -183 -197 -205l-36 71c69 19 108 48 137 145h-35c-14 57 -33 112 -48 157l-115 341l112 19l93 -308c9 -30 26 -106 28 -114c1 4 19 76 38 137l84 274h118zM219 630c0 -38 -30 -70 -67 -70s-67 32 -67 70c0 39 30 70 67 70s67 -31 67 -70
zM428 630c0 -38 -30 -70 -67 -70s-67 32 -67 70c0 39 30 70 67 70s67 -31 67 -70z" />
    <glyph glyph-name="Amacron" unicode="&#x100;" horiz-adv-x="587" 
d="M584 0h-126l-56 182h-224l-56 -182h-119l227 693h133zM376 278c-7 15 -77 273 -82 300h-1c-14 -51 -73 -259 -87 -300h170zM447 752h-295v76h295v-76z" />
    <glyph glyph-name="amacron" unicode="&#x101;" horiz-adv-x="525" 
d="M483 49l-57 -70c-31 12 -57 36 -69 68c-41 -46 -85 -62 -139 -62c-116 0 -168 64 -168 152c0 117 88 176 250 176h34v27c0 58 -10 89 -70 89c-65 0 -135 -46 -151 -58l-49 79c76 48 139 69 215 69c79 0 132 -29 154 -84c9 -22 9 -49 8 -124l-2 -145c-1 -68 5 -90 44 -117
zM332 238c-2 0 -13 1 -20 1c-110 0 -143 -32 -143 -96c0 -48 26 -78 70 -78c35 0 69 21 91 53zM413 591h-295v76h295v-76z" />
    <glyph glyph-name="Abreve" unicode="&#x102;" horiz-adv-x="587" 
d="M584 0h-126l-56 182h-224l-56 -182h-119l227 693h133zM376 278c-7 15 -77 273 -82 300h-1c-14 -51 -73 -259 -87 -300h170zM474 822c-17 -23 -97 -122 -176 -122c-80 0 -159 99 -176 122l35 45c21 -20 80 -71 145 -71c56 0 122 54 141 71z" />
    <glyph glyph-name="abreve" unicode="&#x103;" horiz-adv-x="525" 
d="M483 49l-57 -70c-31 12 -57 36 -69 68c-41 -46 -85 -62 -139 -62c-116 0 -168 64 -168 152c0 117 88 176 250 176h34v27c0 58 -10 89 -70 89c-65 0 -135 -46 -151 -58l-49 79c76 48 139 69 215 69c79 0 132 -29 154 -84c9 -22 9 -49 8 -124l-2 -145c-1 -68 5 -90 44 -117
zM332 238c-2 0 -13 1 -20 1c-110 0 -143 -32 -143 -96c0 -48 26 -78 70 -78c35 0 69 21 91 53zM439 658c-17 -23 -97 -122 -176 -122c-80 0 -159 99 -176 122l35 45c20 -20 80 -71 145 -71c56 0 122 54 141 71z" />
    <glyph glyph-name="Aogonek" unicode="&#x104;" horiz-adv-x="587" 
d="M601 -173c-27 -13 -61 -26 -99 -26c-62 0 -101 38 -101 90c0 44 28 81 57 110l-56 181h-224l-56 -182h-119l227 693h133l221 -693h-5c-45 0 -94 -53 -94 -95c0 -21 12 -34 34 -34c20 0 35 3 57 14zM376 278c-7 15 -77 273 -82 300h-1c-14 -51 -73 -259 -87 -300h170z" />
    <glyph glyph-name="aogonek" unicode="&#x105;" horiz-adv-x="525" 
d="M502 -173c-27 -13 -61 -26 -99 -26c-62 0 -101 38 -101 90c0 53 42 93 74 122c-8 9 -14 20 -19 34c-41 -46 -85 -62 -139 -62c-116 0 -168 64 -168 152c0 117 88 176 250 176h34v27c0 58 -10 89 -70 89c-65 0 -135 -46 -151 -58l-49 79c76 48 139 69 215 69
c79 0 132 -29 154 -84c9 -22 9 -49 8 -124l-2 -159c-1 -53 36 -105 45 -117c-53 -42 -97 -88 -97 -129c0 -22 11 -35 33 -35c20 0 35 3 57 14zM332 238c-2 0 -13 1 -20 1c-110 0 -143 -32 -143 -96c0 -48 26 -78 70 -78c35 0 69 21 91 53z" />
    <glyph glyph-name="Cacute" unicode="&#x106;" horiz-adv-x="577" 
d="M542 50c-54 -41 -115 -61 -189 -61c-92 0 -165 35 -219 100c-52 63 -79 147 -79 247c0 83 15 152 46 210c52 99 147 159 255 159c67 0 131 -20 172 -54l-53 -76c-37 27 -75 39 -118 39c-59 0 -108 -30 -138 -83c-24 -42 -36 -100 -36 -182c0 -85 9 -133 27 -172
c30 -66 87 -98 154 -98c49 0 85 13 124 44zM500 822l-220 -102l-34 63l204 132z" />
    <glyph glyph-name="cacute" unicode="&#x107;" horiz-adv-x="467" 
d="M432 54c-46 -46 -94 -67 -162 -67c-138 0 -215 97 -215 260c0 184 110 272 223 272c55 0 95 -13 140 -55l-55 -73c-30 27 -56 39 -85 39c-35 0 -64 -18 -80 -51c-15 -31 -21 -78 -21 -141c0 -69 11 -113 34 -138c16 -18 40 -29 67 -29c35 0 69 17 102 50zM419 662
l-220 -102l-34 63l204 132z" />
    <glyph glyph-name="Ccircumflex" unicode="&#x108;" horiz-adv-x="577" 
d="M542 50c-54 -41 -115 -61 -189 -61c-92 0 -165 35 -219 100c-52 63 -79 147 -79 247c0 83 15 152 46 210c52 99 147 159 255 159c67 0 131 -20 172 -54l-53 -76c-37 27 -75 39 -118 39c-59 0 -108 -30 -138 -83c-24 -42 -36 -100 -36 -182c0 -85 9 -133 27 -172
c30 -66 87 -98 154 -98c49 0 85 13 124 44zM531 776l-40 -61l-138 82l-134 -82l-38 61l174 136z" />
    <glyph glyph-name="ccircumflex" unicode="&#x109;" horiz-adv-x="467" 
d="M432 54c-46 -46 -94 -67 -162 -67c-138 0 -215 97 -215 260c0 184 110 272 223 272c55 0 95 -13 140 -55l-55 -73c-30 27 -56 39 -85 39c-35 0 -64 -18 -80 -51c-15 -31 -21 -78 -21 -141c0 -69 11 -113 34 -138c16 -18 40 -29 67 -29c35 0 69 17 102 50zM453 616
l-40 -61l-138 82l-134 -82l-38 61l174 136z" />
    <glyph glyph-name="Cdotaccent" unicode="&#x10a;" horiz-adv-x="577" 
d="M542 50c-54 -41 -115 -61 -189 -61c-92 0 -165 35 -219 100c-52 63 -79 147 -79 247c0 83 15 152 46 210c52 99 147 159 255 159c67 0 131 -20 172 -54l-53 -76c-37 27 -75 39 -118 39c-59 0 -108 -30 -138 -83c-24 -42 -36 -100 -36 -182c0 -85 9 -133 27 -172
c30 -66 87 -98 154 -98c49 0 85 13 124 44zM429 795c0 -41 -33 -75 -74 -75c-40 0 -72 34 -72 75s33 75 73 75s73 -33 73 -75z" />
    <glyph glyph-name="cdotaccent" unicode="&#x10b;" horiz-adv-x="467" 
d="M432 54c-46 -46 -94 -67 -162 -67c-138 0 -215 97 -215 260c0 184 110 272 223 272c55 0 95 -13 140 -55l-55 -73c-30 27 -56 39 -85 39c-35 0 -64 -18 -80 -51c-15 -31 -21 -78 -21 -141c0 -69 11 -113 34 -138c16 -18 40 -29 67 -29c35 0 69 17 102 50zM352 653
c0 -41 -33 -75 -74 -75c-40 0 -72 34 -72 75s33 75 73 75s73 -33 73 -75z" />
    <glyph glyph-name="Ccaron" unicode="&#x10c;" horiz-adv-x="577" 
d="M542 50c-54 -41 -115 -61 -189 -61c-92 0 -165 35 -219 100c-52 63 -79 147 -79 247c0 83 15 152 46 210c52 99 147 159 255 159c67 0 131 -20 172 -54l-53 -76c-37 27 -75 39 -118 39c-59 0 -108 -30 -138 -83c-24 -42 -36 -100 -36 -182c0 -85 9 -133 27 -172
c30 -66 87 -98 154 -98c49 0 85 13 124 44zM527 857l-174 -137l-176 137l40 60l139 -81l134 81z" />
    <glyph glyph-name="ccaron" unicode="&#x10d;" horiz-adv-x="467" 
d="M432 54c-46 -46 -94 -67 -162 -67c-138 0 -215 97 -215 260c0 184 110 272 223 272c55 0 95 -13 140 -55l-55 -73c-30 27 -56 39 -85 39c-35 0 -64 -18 -80 -51c-15 -31 -21 -78 -21 -141c0 -69 11 -113 34 -138c16 -18 40 -29 67 -29c35 0 69 17 102 50zM448 697
l-174 -137l-176 137l40 60l139 -81l134 81z" />
    <glyph glyph-name="Dcaron" unicode="&#x10e;" horiz-adv-x="631" 
d="M576 344c0 -105 -26 -187 -73 -247c-58 -74 -118 -97 -247 -97h-171v692h144c130 0 207 -24 272 -98c51 -59 75 -142 75 -250zM448 332c0 89 -8 160 -44 209c-32 44 -68 60 -130 60h-73v-507h76c122 0 171 81 171 238zM467 857l-174 -137l-176 137l40 60l139 -81l134 81z
" />
    <glyph glyph-name="dcaron" unicode="&#x10f;" horiz-adv-x="560" 
d="M496 0h-101c-5 11 -6 18 -9 39c-34 -34 -74 -50 -124 -50c-129 0 -207 101 -207 259c0 159 88 267 210 267c43 0 78 -14 109 -46c-1 8 -3 44 -3 83v185l109 -17v-544c0 -100 6 -151 16 -176zM371 129v257c-25 27 -55 41 -92 41c-70 0 -102 -56 -102 -178
c0 -112 22 -168 105 -168c41 0 74 23 89 48zM673 648c0 -32 -12 -63 -33 -89c-17 -21 -48 -43 -80 -55l-35 41c35 13 58 36 58 61c0 7 -7 8 -17 12c-23 8 -37 27 -37 54c0 36 29 64 67 64c47 0 77 -35 77 -88z" />
    <glyph glyph-name="Dcroat" unicode="&#x110;" horiz-adv-x="631" 
d="M576 344c0 -105 -26 -187 -73 -247c-58 -74 -118 -97 -247 -97h-171v311h-79v79h79v302h144c130 0 207 -24 272 -98c51 -59 75 -142 75 -250zM448 332c0 89 -8 160 -44 209c-32 44 -68 60 -130 60h-73v-211h130l-5 -79h-125v-217h76c122 0 171 81 171 238z" />
    <glyph glyph-name="dcroat" unicode="&#x111;" horiz-adv-x="565" 
d="M558 581h-78v-405c0 -100 6 -151 16 -176h-101c-5 11 -6 18 -9 39c-34 -34 -74 -50 -124 -50c-129 0 -207 101 -207 259c0 159 88 267 210 267c43 0 78 -14 109 -46c-1 8 -3 44 -3 83v29h-108v70h108v86l109 -17v-69h78v-70zM371 129v257c-25 27 -55 41 -92 41
c-70 0 -102 -56 -102 -178c0 -112 22 -168 105 -168c41 0 74 23 89 48z" />
    <glyph glyph-name="Emacron" unicode="&#x112;" horiz-adv-x="509" 
d="M479 0h-394v692h384l-15 -94h-252v-189h211v-95h-211v-216h277v-98zM426 752h-295v76h295v-76z" />
    <glyph glyph-name="emacron" unicode="&#x113;" horiz-adv-x="523" 
d="M478 223h-302v-8c0 -70 26 -144 125 -144c47 0 88 17 126 50l43 -67c-53 -45 -114 -67 -182 -67c-143 0 -233 103 -233 265c0 89 19 148 63 198c41 47 91 68 155 68c50 0 96 -13 139 -52c44 -40 66 -102 66 -220v-23zM364 304c0 82 -36 131 -91 131
c-62 0 -96 -49 -96 -131h187zM420 591h-295v76h295v-76z" />
    <glyph glyph-name="Ebreve" unicode="&#x114;" horiz-adv-x="509" 
d="M479 0h-394v692h384l-15 -94h-252v-189h211v-95h-211v-216h277v-98zM451 855c-17 -23 -97 -122 -176 -122c-80 0 -159 99 -176 122l35 45c21 -20 80 -71 145 -71c56 0 122 54 141 71z" />
    <glyph glyph-name="ebreve" unicode="&#x115;" horiz-adv-x="523" 
d="M478 223h-302v-8c0 -70 26 -144 125 -144c47 0 88 17 126 50l43 -67c-53 -45 -114 -67 -182 -67c-143 0 -233 103 -233 265c0 89 19 148 63 198c41 47 91 68 155 68c50 0 96 -13 139 -52c44 -40 66 -102 66 -220v-23zM364 304c0 82 -36 131 -91 131
c-62 0 -96 -49 -96 -131h187zM456 682c-17 -23 -97 -122 -176 -122c-80 0 -159 99 -176 122l35 45c20 -20 80 -71 145 -71c56 0 122 54 141 71z" />
    <glyph glyph-name="Edotaccent" unicode="&#x116;" horiz-adv-x="509" 
d="M479 0h-394v692h384l-15 -94h-252v-189h211v-95h-211v-216h277v-98zM356 795c0 -41 -33 -75 -74 -75c-40 0 -72 34 -72 75s33 75 73 75s73 -33 73 -75z" />
    <glyph glyph-name="edotaccent" unicode="&#x117;" horiz-adv-x="523" 
d="M478 223h-302v-8c0 -70 26 -144 125 -144c47 0 88 17 126 50l43 -67c-53 -45 -114 -67 -182 -67c-143 0 -233 103 -233 265c0 89 19 148 63 198c41 47 91 68 155 68c50 0 96 -13 139 -52c44 -40 66 -102 66 -220v-23zM364 304c0 82 -36 131 -91 131
c-62 0 -96 -49 -96 -131h187zM349 656c0 -41 -33 -75 -74 -75c-40 0 -72 34 -72 75s33 75 73 75s73 -33 73 -75z" />
    <glyph glyph-name="Eogonek" unicode="&#x118;" horiz-adv-x="509" 
d="M501 -173c-27 -13 -61 -26 -99 -26c-62 0 -101 38 -101 90c0 44 28 80 57 109h-273v692h384l-15 -94h-252v-189h211v-95h-211v-216h277v-98c-45 0 -93 -53 -93 -95c0 -22 12 -34 34 -34c20 0 34 3 56 14z" />
    <glyph glyph-name="eogonek" unicode="&#x119;" horiz-adv-x="523" 
d="M478 223h-302v-8c0 -70 26 -144 125 -144c47 0 88 17 126 50l43 -67c-40 -30 -122 -90 -122 -148c0 -22 11 -35 33 -35c20 0 35 3 57 14l25 -58c-27 -13 -61 -26 -99 -26c-62 0 -101 38 -101 90c0 39 23 71 48 97c-8 -1 -15 -1 -23 -1c-143 0 -233 103 -233 265
c0 89 19 148 63 198c41 47 91 68 155 68c50 0 96 -13 139 -52c44 -40 66 -102 66 -220v-23zM364 304c0 82 -36 131 -91 131c-62 0 -96 -49 -96 -131h187z" />
    <glyph glyph-name="Ecaron" unicode="&#x11a;" horiz-adv-x="509" 
d="M479 0h-394v692h384l-15 -94h-252v-189h211v-95h-211v-216h277v-98zM450 857l-174 -137l-176 137l40 60l139 -81l134 81z" />
    <glyph glyph-name="ecaron" unicode="&#x11b;" horiz-adv-x="523" 
d="M478 223h-302v-8c0 -70 26 -144 125 -144c47 0 88 17 126 50l43 -67c-53 -45 -114 -67 -182 -67c-143 0 -233 103 -233 265c0 89 19 148 63 198c41 47 91 68 155 68c50 0 96 -13 139 -52c44 -40 66 -102 66 -220v-23zM364 304c0 82 -36 131 -91 131
c-62 0 -96 -49 -96 -131h187zM447 697l-174 -137l-176 137l40 60l139 -81l134 81z" />
    <glyph glyph-name="Gcircumflex" unicode="&#x11c;" horiz-adv-x="649" 
d="M574 49c-63 -38 -139 -58 -216 -58c-97 0 -172 31 -226 98c-53 65 -77 143 -77 252c0 142 43 241 130 306c50 38 104 54 171 54c79 0 149 -24 206 -73l-58 -72c-48 37 -93 53 -146 53c-128 0 -175 -112 -175 -274c0 -97 18 -165 51 -204c28 -33 78 -52 131 -52
c36 0 66 8 92 22v180h-118l-16 94h251v-326zM531 776l-40 -61l-138 82l-134 -82l-38 61l174 136z" />
    <glyph glyph-name="gcircumflex" unicode="&#x11d;" horiz-adv-x="546" 
d="M556 458c-28 -24 -54 -33 -88 -33c-21 0 -36 4 -39 5c3 -3 33 -36 33 -88c0 -88 -73 -155 -192 -155c-36 -13 -68 -32 -68 -48c0 -19 7 -21 126 -21c81 0 168 -41 168 -144c0 -108 -90 -166 -225 -166c-131 0 -226 43 -226 138c0 21 8 48 10 54h104c-2 -4 -8 -22 -8 -36
c0 -47 40 -73 111 -73c78 0 120 32 120 79c0 55 -46 70 -140 70c-136 0 -166 27 -166 77s42 70 96 87c-76 22 -115 71 -115 143c0 103 81 171 202 171c72 0 113 -26 154 -26c33 0 64 12 92 35zM345 348c0 57 -29 87 -87 87c-56 0 -87 -31 -87 -88c0 -58 33 -85 87 -85
c57 0 87 30 87 86zM435 616l-40 -61l-138 82l-134 -82l-38 61l174 136z" />
    <glyph glyph-name="Gbreve" unicode="&#x11e;" horiz-adv-x="649" 
d="M574 49c-63 -38 -139 -58 -216 -58c-97 0 -172 31 -226 98c-53 65 -77 143 -77 252c0 142 43 241 130 306c50 38 104 54 171 54c79 0 149 -24 206 -73l-58 -72c-48 37 -93 53 -146 53c-128 0 -175 -112 -175 -274c0 -97 18 -165 51 -204c28 -33 78 -52 131 -52
c36 0 66 8 92 22v180h-118l-16 94h251v-326zM531 855c-17 -23 -97 -122 -176 -122c-80 0 -159 99 -176 122l35 45c21 -20 80 -71 145 -71c56 0 122 54 141 71z" />
    <glyph glyph-name="gbreve" unicode="&#x11f;" horiz-adv-x="546" 
d="M556 458c-28 -24 -54 -33 -88 -33c-21 0 -36 4 -39 5c3 -3 33 -36 33 -88c0 -88 -73 -155 -192 -155c-36 -13 -68 -32 -68 -48c0 -19 7 -21 126 -21c81 0 168 -41 168 -144c0 -108 -90 -166 -225 -166c-131 0 -226 43 -226 138c0 21 8 48 10 54h104c-2 -4 -8 -22 -8 -36
c0 -47 40 -73 111 -73c78 0 120 32 120 79c0 55 -46 70 -140 70c-136 0 -166 27 -166 77s42 70 96 87c-76 22 -115 71 -115 143c0 103 81 171 202 171c72 0 113 -26 154 -26c33 0 64 12 92 35zM345 348c0 57 -29 87 -87 87c-56 0 -87 -31 -87 -88c0 -58 33 -85 87 -85
c57 0 87 30 87 86zM453 658c-17 -23 -97 -122 -176 -122c-80 0 -159 99 -176 122l35 45c20 -20 80 -71 145 -71c56 0 122 54 141 71z" />
    <glyph glyph-name="Gdotaccent" unicode="&#x120;" horiz-adv-x="649" 
d="M574 49c-63 -38 -139 -58 -216 -58c-97 0 -172 31 -226 98c-53 65 -77 143 -77 252c0 142 43 241 130 306c50 38 104 54 171 54c79 0 149 -24 206 -73l-58 -72c-48 37 -93 53 -146 53c-128 0 -175 -112 -175 -274c0 -97 18 -165 51 -204c28 -33 78 -52 131 -52
c36 0 66 8 92 22v180h-118l-16 94h251v-326zM429 795c0 -41 -33 -75 -74 -75c-40 0 -72 34 -72 75s33 75 73 75s73 -33 73 -75z" />
    <glyph glyph-name="gdotaccent" unicode="&#x121;" horiz-adv-x="546" 
d="M556 458c-28 -24 -54 -33 -88 -33c-21 0 -36 4 -39 5c3 -3 33 -36 33 -88c0 -88 -73 -155 -192 -155c-36 -13 -68 -32 -68 -48c0 -19 7 -21 126 -21c81 0 168 -41 168 -144c0 -108 -90 -166 -225 -166c-131 0 -226 43 -226 138c0 21 8 48 10 54h104c-2 -4 -8 -22 -8 -36
c0 -47 40 -73 111 -73c78 0 120 32 120 79c0 55 -46 70 -140 70c-136 0 -166 27 -166 77s42 70 96 87c-76 22 -115 71 -115 143c0 103 81 171 202 171c72 0 113 -26 154 -26c33 0 64 12 92 35zM345 348c0 57 -29 87 -87 87c-56 0 -87 -31 -87 -88c0 -58 33 -85 87 -85
c57 0 87 30 87 86zM333 653c0 -41 -33 -75 -74 -75c-40 0 -72 34 -72 75s33 75 73 75s73 -33 73 -75z" />
    <glyph glyph-name="uni0122" unicode="&#x122;" horiz-adv-x="649" 
d="M574 49c-63 -38 -139 -58 -216 -58c-97 0 -172 31 -226 98c-53 65 -77 143 -77 252c0 142 43 241 130 306c50 38 104 54 171 54c79 0 149 -24 206 -73l-58 -72c-48 37 -93 53 -146 53c-128 0 -175 -112 -175 -274c0 -97 18 -165 51 -204c28 -33 78 -52 131 -52
c36 0 66 8 92 22v180h-118l-16 94h251v-326zM425 -138c0 -32 -12 -63 -33 -89c-17 -21 -48 -43 -80 -55l-35 41c35 13 58 36 58 61c0 7 -7 8 -17 12c-23 8 -37 27 -37 54c0 36 29 64 67 64c47 0 77 -35 77 -88z" />
    <glyph glyph-name="uni0123" unicode="&#x123;" horiz-adv-x="546" 
d="M556 458c-28 -24 -54 -33 -88 -33c-21 0 -36 4 -39 5c3 -3 33 -36 33 -88c0 -88 -73 -155 -192 -155c-36 -13 -68 -32 -68 -48c0 -19 7 -21 126 -21c81 0 168 -41 168 -144c0 -108 -90 -166 -225 -166c-131 0 -226 43 -226 138c0 21 8 48 10 54h104c-2 -4 -8 -22 -8 -36
c0 -47 40 -73 111 -73c78 0 120 32 120 79c0 55 -46 70 -140 70c-136 0 -166 27 -166 77s42 70 96 87c-76 22 -115 71 -115 143c0 103 81 171 202 171c72 0 113 -26 154 -26c33 0 64 12 92 35zM345 348c0 57 -29 87 -87 87c-56 0 -87 -31 -87 -88c0 -58 33 -85 87 -85
c57 0 87 30 87 86zM337 755c-35 -13 -55 -36 -58 -61c0 -7 7 -8 17 -12c23 -8 37 -27 37 -54c0 -36 -29 -64 -67 -64c-47 0 -77 35 -77 88c0 32 12 63 33 89c17 21 48 43 80 55z" />
    <glyph glyph-name="Hcircumflex" unicode="&#x124;" horiz-adv-x="636" 
d="M551 0h-116v320h-236v-320h-114v692h114v-278h236v278h116v-692zM491 776l-40 -61l-138 82l-134 -82l-38 61l174 136z" />
    <glyph glyph-name="hcircumflex" unicode="&#x125;" horiz-adv-x="574" 
d="M489 0h-107v344c0 63 -22 81 -64 81c-39 0 -86 -25 -122 -62v-363h-111v602c0 45 -4 84 -10 110l111 24c7 -29 10 -70 10 -119v-108c0 -28 -2 -52 -2 -57c50 45 101 66 155 66c60 0 106 -29 123 -62c13 -25 17 -48 17 -99v-357zM315 776l-40 -61l-138 82l-134 -82l-38 61
l174 136z" />
    <glyph glyph-name="Hbar" unicode="&#x126;" horiz-adv-x="636" 
d="M551 0h-116v320h-236v-320h-114v494h-80v90h80v108h114v-108h236v108h116v-108h80v-90h-80v-494zM199 414h236v80h-236v-80z" />
    <glyph glyph-name="hbar" unicode="&#x127;" horiz-adv-x="574" 
d="M489 0h-107v344c0 63 -22 81 -64 81c-39 0 -86 -25 -122 -62v-363h-111v581h-55v70h53c-1 24 -5 45 -8 61l111 24c5 -22 8 -51 9 -85h170v-70h-169v-72c0 -28 -2 -52 -2 -57c50 45 101 66 155 66c60 0 106 -29 123 -62c13 -25 17 -48 17 -99v-357z" />
    <glyph glyph-name="Itilde" unicode="&#x128;" horiz-adv-x="288" 
d="M203 0h-118v692h118v-692zM319 809c-33 -41 -63 -66 -121 -66c-61 0 -72 41 -130 41c-31 0 -45 -14 -66 -37l-36 61c33 42 62 66 120 66c61 0 72 -41 130 -41c32 0 46 15 67 37z" />
    <glyph glyph-name="itilde" unicode="&#x129;" horiz-adv-x="281" 
d="M196 0h-111v498l111 20v-518zM322 649c-33 -41 -63 -66 -121 -66c-61 0 -72 41 -130 41c-31 0 -45 -14 -66 -37l-36 61c33 42 62 66 120 66c61 0 72 -41 130 -41c32 0 46 15 67 37z" />
    <glyph glyph-name="Imacron" unicode="&#x12a;" horiz-adv-x="288" 
d="M203 0h-118v692h118v-692zM294 752h-295v76h295v-76z" />
    <glyph glyph-name="imacron" unicode="&#x12b;" horiz-adv-x="281" 
d="M196 0h-111v498l111 20v-518zM288 591h-295v76h295v-76z" />
    <glyph glyph-name="Ibreve" unicode="&#x12c;" horiz-adv-x="288" 
d="M203 0h-118v692h118v-692zM319 855c-17 -23 -97 -122 -176 -122c-80 0 -159 99 -176 122l35 45c21 -20 80 -71 145 -71c56 0 122 54 141 71z" />
    <glyph glyph-name="ibreve" unicode="&#x12d;" horiz-adv-x="281" 
d="M196 0h-111v498l111 20v-518zM321 682c-17 -23 -97 -122 -176 -122c-80 0 -159 99 -176 122l35 45c20 -20 80 -71 145 -71c56 0 122 54 141 71z" />
    <glyph glyph-name="Iogonek" unicode="&#x12e;" horiz-adv-x="288" 
d="M236 -173c-27 -13 -61 -26 -99 -26c-66 0 -101 42 -101 90c0 38 21 80 49 109v692h118v-692h-5c-39 0 -79 -47 -79 -90c0 -24 11 -39 35 -39c20 0 35 3 57 14z" />
    <glyph glyph-name="iogonek" unicode="&#x12f;" horiz-adv-x="281" 
d="M236 -173c-27 -13 -61 -26 -99 -26c-66 0 -101 42 -101 90c0 38 21 80 49 109v498l111 20v-518c-37 0 -77 -49 -77 -90c0 -23 11 -39 35 -39c20 0 35 3 57 14zM214 654c0 -40 -33 -73 -74 -73c-40 0 -71 33 -71 73c0 41 32 74 73 74c39 0 72 -32 72 -74z" />
    <glyph glyph-name="Idotaccent" unicode="&#x130;" horiz-adv-x="288" 
d="M203 0h-118v692h118v-692zM218 795c0 -41 -33 -75 -74 -75c-40 0 -72 34 -72 75s33 75 73 75s73 -33 73 -75z" />
    <glyph glyph-name="dotlessi" unicode="&#x131;" horiz-adv-x="281" 
d="M196 0h-111v498l111 20v-518z" />
    <glyph glyph-name="Jcircumflex" unicode="&#x134;" horiz-adv-x="293" 
d="M208 128c0 -114 -11 -152 -41 -193c-29 -40 -74 -69 -117 -85l-54 61c36 20 67 51 80 78c12 25 16 54 16 129v574h116v-564zM325 776l-40 -61l-138 82l-134 -82l-38 61l174 136z" />
    <glyph glyph-name="jcircumflex" unicode="&#x135;" horiz-adv-x="281" 
d="M196 12c0 -89 -19 -129 -37 -152c-23 -29 -54 -54 -95 -72l-47 64c53 37 68 77 68 159v487l111 20v-506zM315 616l-40 -61l-138 82l-134 -82l-38 61l174 136z" />
    <glyph glyph-name="uni0136" unicode="&#x136;" horiz-adv-x="581" 
d="M586 0h-150l-233 369l225 323h142l-240 -321zM202 0h-117v692h117v-692zM379 -139c0 -32 -12 -63 -33 -89c-17 -21 -48 -43 -80 -55l-35 41c35 13 58 36 58 61c0 7 -7 8 -17 12c-23 8 -37 27 -37 54c0 36 29 64 67 64c47 0 77 -35 77 -88z" />
    <glyph glyph-name="uni0137" unicode="&#x137;" horiz-adv-x="521" 
d="M194 0h-109v589c0 49 -3 83 -11 122l110 27c6 -32 10 -81 10 -134v-604zM526 0h-133l-191 286l150 220h133l-173 -214zM357 -139c0 -32 -12 -63 -33 -89c-17 -21 -48 -43 -80 -55l-35 41c35 13 58 36 58 61c0 7 -7 8 -17 12c-23 8 -37 27 -37 54c0 36 29 64 67 64
c47 0 77 -35 77 -88z" />
    <glyph glyph-name="kgreenlandic" unicode="&#x138;" horiz-adv-x="521" 
d="M194 0h-109v384c0 49 -3 83 -11 122l110 27c6 -32 10 -81 10 -134v-399zM526 0h-133l-191 286l150 220h133l-173 -214z" />
    <glyph glyph-name="Lacute" unicode="&#x139;" horiz-adv-x="473" 
d="M458 95l-19 -95h-354v692h117v-597h256zM301 822l-220 -102l-34 63l204 132z" />
    <glyph glyph-name="lacute" unicode="&#x13a;" horiz-adv-x="282" 
d="M262 1c-20 -8 -41 -12 -66 -12c-111 0 -111 100 -111 143v431c0 69 -3 106 -10 148l113 25c8 -31 9 -73 9 -139v-429c0 -68 3 -79 11 -91c6 -9 23 -14 36 -8zM284 843l-220 -102l-34 63l204 132z" />
    <glyph glyph-name="uni013B" unicode="&#x13b;" horiz-adv-x="473" 
d="M458 95l-19 -95h-354v692h117v-597h256zM334 -138c0 -32 -12 -63 -33 -89c-17 -21 -48 -43 -80 -55l-35 41c35 13 58 36 58 61c0 7 -7 8 -17 12c-23 8 -37 27 -37 54c0 36 29 64 67 64c47 0 77 -35 77 -88z" />
    <glyph glyph-name="uni013C" unicode="&#x13c;" horiz-adv-x="282" 
d="M262 1c-20 -8 -41 -12 -66 -12c-111 0 -111 100 -111 143v431c0 69 -3 106 -10 148l113 25c8 -31 9 -73 9 -139v-429c0 -68 3 -79 11 -91c6 -9 23 -14 36 -8zM246 -140c0 -32 -12 -63 -33 -89c-17 -21 -48 -43 -80 -55l-35 41c35 13 58 36 58 61c0 7 -7 8 -17 12
c-23 8 -37 27 -37 54c0 36 29 64 67 64c47 0 77 -35 77 -88z" />
    <glyph glyph-name="Lcaron" unicode="&#x13d;" horiz-adv-x="473" 
d="M458 95l-19 -95h-354v692h117v-597h256zM439 608c0 -32 -12 -63 -33 -89c-17 -21 -48 -43 -80 -55l-35 41c35 13 58 36 58 61c0 7 -7 8 -17 12c-23 8 -37 27 -37 54c0 36 29 64 67 64c47 0 77 -35 77 -88z" />
    <glyph glyph-name="lcaron" unicode="&#x13e;" horiz-adv-x="282" 
d="M262 1c-20 -8 -41 -12 -66 -12c-111 0 -111 100 -111 143v431c0 69 -3 106 -10 148l113 25c8 -31 9 -73 9 -139v-429c0 -68 3 -79 11 -91c6 -9 23 -14 36 -8zM390 648c0 -32 -12 -63 -33 -89c-17 -21 -48 -43 -80 -55l-35 41c35 13 58 36 58 61c0 7 -7 8 -17 12
c-23 8 -37 27 -37 54c0 36 29 64 67 64c47 0 77 -35 77 -88z" />
    <glyph glyph-name="Ldot" unicode="&#x13f;" horiz-adv-x="473" 
d="M458 95l-19 -95h-354v692h117v-597h256zM448 385c0 -41 -33 -75 -74 -75c-40 0 -72 34 -72 75s33 75 73 75s73 -33 73 -75z" />
    <glyph glyph-name="ldot" unicode="&#x140;" horiz-adv-x="383" 
d="M262 1c-20 -8 -41 -12 -66 -12c-111 0 -111 100 -111 143v431c0 69 -3 106 -10 148l113 25c8 -31 9 -73 9 -139v-429c0 -68 3 -79 11 -91c6 -9 23 -14 36 -8zM403 384c0 -41 -33 -75 -74 -75c-40 0 -72 34 -72 75s33 75 73 75s73 -33 73 -75z" />
    <glyph glyph-name="Lslash" unicode="&#x141;" horiz-adv-x="473" 
d="M458 95l-19 -95h-354v294l-56 -18v92l56 18v306h117v-268l174 56v-92l-174 -56v-237h256z" />
    <glyph glyph-name="lslash" unicode="&#x142;" horiz-adv-x="282" 
d="M262 1c-20 -8 -41 -12 -66 -12c-111 0 -111 100 -111 143v158l-42 -14v92l42 14v181c0 69 -3 106 -10 148l113 25c8 -31 9 -73 9 -139v-177l57 20v-92l-57 -20v-160c0 -68 3 -79 11 -91c6 -9 23 -14 36 -8z" />
    <glyph glyph-name="Nacute" unicode="&#x143;" horiz-adv-x="639" 
d="M554 0h-121l-155 325c-37 77 -75 164 -88 205l-3 -3c5 -58 6 -124 7 -192l4 -335h-113v692h130l168 -338c32 -64 62 -146 71 -178l3 3c-3 35 -10 134 -10 197l-2 316h109v-692zM457 822l-220 -102l-34 63l204 132z" />
    <glyph glyph-name="nacute" unicode="&#x144;" horiz-adv-x="556" 
d="M471 0h-109v336c0 69 -16 88 -58 88c-32 0 -78 -24 -111 -57v-367h-108v372c0 53 -5 84 -19 120l100 28c12 -23 18 -45 18 -72c54 46 101 70 155 70c78 0 132 -47 132 -140v-378zM411 662l-220 -102l-34 63l204 132z" />
    <glyph glyph-name="uni0145" unicode="&#x145;" horiz-adv-x="639" 
d="M554 0h-121l-155 325c-37 77 -75 164 -88 205l-3 -3c5 -58 6 -124 7 -192l4 -335h-113v692h130l168 -338c32 -64 62 -146 71 -178l3 3c-3 35 -10 134 -10 197l-2 316h109v-692zM390 -139c0 -32 -12 -63 -33 -89c-17 -21 -48 -43 -80 -55l-35 41c35 13 58 36 58 61
c0 7 -7 8 -17 12c-23 8 -37 27 -37 54c0 36 29 64 67 64c47 0 77 -35 77 -88z" />
    <glyph glyph-name="uni0146" unicode="&#x146;" horiz-adv-x="556" 
d="M471 0h-109v336c0 69 -16 88 -58 88c-32 0 -78 -24 -111 -57v-367h-108v372c0 53 -5 84 -19 120l100 28c12 -23 18 -45 18 -72c54 46 101 70 155 70c78 0 132 -47 132 -140v-378zM351 -140c0 -32 -12 -63 -33 -89c-17 -21 -48 -43 -80 -55l-35 41c35 13 58 36 58 61
c0 7 -7 8 -17 12c-23 8 -37 27 -37 54c0 36 29 64 67 64c47 0 77 -35 77 -88z" />
    <glyph glyph-name="Ncaron" unicode="&#x147;" horiz-adv-x="639" 
d="M554 0h-121l-155 325c-37 77 -75 164 -88 205l-3 -3c5 -58 6 -124 7 -192l4 -335h-113v692h130l168 -338c32 -64 62 -146 71 -178l3 3c-3 35 -10 134 -10 197l-2 316h109v-692zM498 857l-174 -137l-176 137l40 60l139 -81l134 81z" />
    <glyph glyph-name="ncaron" unicode="&#x148;" horiz-adv-x="556" 
d="M471 0h-109v336c0 69 -16 88 -58 88c-32 0 -78 -24 -111 -57v-367h-108v372c0 53 -5 84 -19 120l100 28c12 -23 18 -45 18 -72c54 46 101 70 155 70c78 0 132 -47 132 -140v-378zM449 697l-174 -137l-176 137l40 60l139 -81l134 81z" />
    <glyph glyph-name="napostrophe" unicode="&#x149;" horiz-adv-x="556" 
d="M471 0h-109v336c0 69 -16 88 -58 88c-32 0 -78 -24 -111 -57v-367h-108v372c0 53 -5 84 -19 120l100 28c12 -23 18 -45 18 -72c54 46 101 70 155 70c78 0 132 -47 132 -140v-378zM66 637c0 -32 -12 -63 -33 -89c-17 -21 -48 -43 -80 -55l-35 41c35 13 58 36 58 61
c0 7 -7 8 -17 12c-23 8 -37 27 -37 54c0 36 29 64 67 64c47 0 77 -35 77 -88z" />
    <glyph glyph-name="Eng" unicode="&#x14a;" horiz-adv-x="639" 
d="M554 25c0 -89 -19 -129 -37 -152c-23 -29 -54 -54 -95 -72l-47 64c40 26 64 70 64 110c0 7 -2 16 -6 25l-155 325c-37 77 -75 164 -88 205l-3 -3c5 -58 6 -124 7 -192l4 -335h-113v692h130l168 -338c32 -64 62 -146 71 -178l3 3c-3 35 -10 134 -10 197l-2 316h109v-667z
" />
    <glyph glyph-name="eng" unicode="&#x14b;" horiz-adv-x="556" 
d="M295 -136c48 34 67 70 67 136v336c0 69 -16 88 -58 88c-32 0 -78 -24 -111 -57v-367h-108v372c0 53 -5 84 -19 120l100 28c12 -23 18 -45 18 -72c54 46 101 70 155 70c78 0 132 -47 132 -140v-353c0 -89 -19 -129 -37 -152c-23 -29 -54 -54 -95 -72z" />
    <glyph glyph-name="Omacron" unicode="&#x14c;" horiz-adv-x="688" 
d="M633 345c0 -216 -104 -356 -284 -356c-197 0 -294 152 -294 357c0 228 116 356 289 356c195 0 289 -155 289 -357zM502 338c0 169 -35 275 -159 275c-116 0 -160 -94 -160 -260c0 -178 45 -277 163 -277c103 0 156 76 156 262zM494 752h-295v76h295v-76z" />
    <glyph glyph-name="omacron" unicode="&#x14d;" horiz-adv-x="547" 
d="M497 251c0 -163 -87 -264 -224 -264s-223 103 -223 265s87 266 221 266c144 0 226 -107 226 -267zM376 249c0 143 -40 186 -104 186c-70 0 -100 -53 -100 -176c0 -147 37 -190 103 -190c65 0 101 53 101 180zM419 591h-295v76h295v-76z" />
    <glyph glyph-name="Obreve" unicode="&#x14e;" horiz-adv-x="688" 
d="M633 345c0 -216 -104 -356 -284 -356c-197 0 -294 152 -294 357c0 228 116 356 289 356c195 0 289 -155 289 -357zM502 338c0 169 -35 275 -159 275c-116 0 -160 -94 -160 -260c0 -178 45 -277 163 -277c103 0 156 76 156 262zM518 855c-17 -23 -97 -122 -176 -122
c-80 0 -159 99 -176 122l35 45c21 -20 80 -71 145 -71c56 0 122 54 141 71z" />
    <glyph glyph-name="obreve" unicode="&#x14f;" horiz-adv-x="547" 
d="M497 251c0 -163 -87 -264 -224 -264s-223 103 -223 265s87 266 221 266c144 0 226 -107 226 -267zM376 249c0 143 -40 186 -104 186c-70 0 -100 -53 -100 -176c0 -147 37 -190 103 -190c65 0 101 53 101 180zM447 682c-17 -23 -97 -122 -176 -122c-80 0 -159 99 -176 122
l35 45c20 -20 80 -71 145 -71c56 0 122 54 141 71z" />
    <glyph glyph-name="Ohungarumlaut" unicode="&#x150;" horiz-adv-x="688" 
d="M633 345c0 -216 -104 -356 -284 -356c-197 0 -294 152 -294 357c0 228 116 356 289 356c195 0 289 -155 289 -357zM502 338c0 169 -35 275 -159 275c-116 0 -160 -94 -160 -260c0 -178 45 -277 163 -277c103 0 156 76 156 262zM418 910l-146 -191l-60 38l117 207z
M643 886l-175 -163l-51 48l147 184z" />
    <glyph glyph-name="ohungarumlaut" unicode="&#x151;" horiz-adv-x="547" 
d="M497 251c0 -163 -87 -264 -224 -264s-223 103 -223 265s87 266 221 266c144 0 226 -107 226 -267zM376 249c0 143 -40 186 -104 186c-70 0 -100 -53 -100 -176c0 -147 37 -190 103 -190c65 0 101 53 101 180zM314 771l-114 -211l-65 28l83 223zM528 752l-147 -188l-58 39
l117 205z" />
    <glyph glyph-name="OE" unicode="&#x152;" horiz-adv-x="861" 
d="M831 0h-422c-131 0 -185 6 -252 65s-102 154 -102 282c0 104 28 185 73 244c57 74 138 102 240 102c20 0 54 0 62 -1h384l-15 -94h-252v-189h210v-95h-210v-216h284v-98zM437 99v486c-14 2 -49 9 -82 9c-47 0 -77 -9 -104 -33c-46 -40 -61 -120 -61 -202
c0 -92 12 -155 38 -200c27 -46 69 -69 124 -69c31 0 70 6 85 9z" />
    <glyph glyph-name="oe" unicode="&#x153;" horiz-adv-x="830" 
d="M785 223h-301v-16c0 -91 51 -137 124 -137c47 0 88 17 126 50l42 -66c-58 -45 -114 -67 -181 -67c-65 0 -127 22 -163 69c-37 -44 -90 -69 -159 -69c-140 0 -223 106 -223 265c0 166 91 266 221 266c68 0 120 -25 158 -67c34 41 84 68 151 68c135 0 205 -92 205 -260v-36
zM376 249c0 143 -40 186 -104 186c-67 0 -100 -49 -100 -176c0 -136 33 -190 103 -190c78 0 101 77 101 180zM672 304c0 82 -32 133 -92 133c-59 0 -95 -46 -95 -133h187z" />
    <glyph glyph-name="Racute" unicode="&#x154;" horiz-adv-x="583" 
d="M558 0h-137l-60 107c-48 85 -80 133 -118 171c-13 13 -23 20 -45 21v-299h-113v692h211c155 0 225 -90 225 -198c0 -99 -64 -190 -172 -190c25 -13 71 -80 107 -138zM401 493c0 70 -38 106 -140 106h-63v-219h59c60 0 92 8 113 29c19 19 31 48 31 84zM410 822l-220 -102
l-34 63l204 132z" />
    <glyph glyph-name="racute" unicode="&#x155;" horiz-adv-x="350" 
d="M355 512l-34 -102c-11 4 -19 7 -31 7c-46 0 -85 -34 -95 -75v-342h-110v357c0 64 -7 105 -18 136l101 26c12 -23 19 -52 19 -80c40 55 80 81 129 81c16 0 26 -2 39 -8zM333 662l-220 -102l-34 63l204 132z" />
    <glyph glyph-name="uni0156" unicode="&#x156;" horiz-adv-x="583" 
d="M558 0h-137l-60 107c-48 85 -80 133 -118 171c-13 13 -23 20 -45 21v-299h-113v692h211c155 0 225 -90 225 -198c0 -99 -64 -190 -172 -190c25 -13 71 -80 107 -138zM401 493c0 70 -38 106 -140 106h-63v-219h59c60 0 92 8 113 29c19 19 31 48 31 84zM369 -140
c0 -32 -12 -63 -33 -89c-17 -21 -48 -43 -80 -55l-35 41c35 13 58 36 58 61c0 7 -7 8 -17 12c-23 8 -37 27 -37 54c0 36 29 64 67 64c47 0 77 -35 77 -88z" />
    <glyph glyph-name="uni0157" unicode="&#x157;" horiz-adv-x="350" 
d="M355 512l-34 -102c-11 4 -19 7 -31 7c-46 0 -85 -34 -95 -75v-342h-110v357c0 64 -7 105 -18 136l101 26c12 -23 19 -52 19 -80c40 55 80 81 129 81c16 0 26 -2 39 -8zM217 -140c0 -32 -12 -63 -33 -89c-17 -21 -48 -43 -80 -55l-35 41c35 13 58 36 58 61
c0 7 -7 8 -17 12c-23 8 -37 27 -37 54c0 36 29 64 67 64c47 0 77 -35 77 -88z" />
    <glyph glyph-name="Rcaron" unicode="&#x158;" horiz-adv-x="583" 
d="M558 0h-137l-60 107c-48 85 -80 133 -118 171c-13 13 -23 20 -45 21v-299h-113v692h211c155 0 225 -90 225 -198c0 -99 -64 -190 -172 -190c25 -13 71 -80 107 -138zM401 493c0 70 -38 106 -140 106h-63v-219h59c60 0 92 8 113 29c19 19 31 48 31 84zM456 857l-174 -137
l-176 137l40 60l139 -81l134 81z" />
    <glyph glyph-name="rcaron" unicode="&#x159;" horiz-adv-x="350" 
d="M355 512l-34 -102c-11 4 -19 7 -31 7c-46 0 -85 -34 -95 -75v-342h-110v357c0 64 -7 105 -18 136l101 26c12 -23 19 -52 19 -80c40 55 80 81 129 81c16 0 26 -2 39 -8zM381 697l-174 -137l-176 137l40 60l139 -81l134 81z" />
    <glyph glyph-name="Sacute" unicode="&#x15a;" horiz-adv-x="597" 
d="M547 209c0 -115 -93 -222 -270 -222c-79 0 -159 21 -227 62l44 88c62 -36 117 -57 187 -57c85 0 136 41 136 110c0 51 -32 83 -103 103l-74 21c-63 18 -108 44 -134 83c-19 28 -29 61 -29 101c0 122 96 205 235 205c79 0 158 -23 219 -66l-52 -81c-64 38 -108 53 -163 53
c-68 0 -113 -37 -113 -94c0 -43 24 -65 92 -85l82 -24c100 -29 170 -93 170 -197zM460 822l-220 -102l-34 63l204 132z" />
    <glyph glyph-name="sacute" unicode="&#x15b;" horiz-adv-x="484" 
d="M439 158c0 -102 -83 -172 -205 -172c-62 0 -129 20 -194 56l39 79c45 -26 107 -53 164 -53c48 0 82 29 82 71c0 39 -25 59 -82 71l-61 13c-76 16 -121 68 -121 139c0 95 76 161 188 161c69 0 124 -21 167 -44l-36 -76c-47 25 -84 37 -124 37c-47 0 -77 -26 -77 -65
c0 -31 17 -47 68 -60l63 -16c102 -26 129 -82 129 -141zM385 662l-220 -102l-34 63l204 132z" />
    <glyph glyph-name="Scircumflex" unicode="&#x15c;" horiz-adv-x="597" 
d="M547 209c0 -115 -93 -222 -270 -222c-79 0 -159 21 -227 62l44 88c62 -36 117 -57 187 -57c85 0 136 41 136 110c0 51 -32 83 -103 103l-74 21c-63 18 -108 44 -134 83c-19 28 -29 61 -29 101c0 122 96 205 235 205c79 0 158 -23 219 -66l-52 -81c-64 38 -108 53 -163 53
c-68 0 -113 -37 -113 -94c0 -43 24 -65 92 -85l82 -24c100 -29 170 -93 170 -197zM493 776l-40 -61l-138 82l-134 -82l-38 61l174 136z" />
    <glyph glyph-name="scircumflex" unicode="&#x15d;" horiz-adv-x="484" 
d="M439 158c0 -102 -83 -172 -205 -172c-62 0 -129 20 -194 56l39 79c45 -26 107 -53 164 -53c48 0 82 29 82 71c0 39 -25 59 -82 71l-61 13c-76 16 -121 68 -121 139c0 95 76 161 188 161c69 0 124 -21 167 -44l-36 -76c-47 25 -84 37 -124 37c-47 0 -77 -26 -77 -65
c0 -31 17 -47 68 -60l63 -16c102 -26 129 -82 129 -141zM428 616l-40 -61l-138 82l-134 -82l-38 61l174 136z" />
    <glyph glyph-name="Scedilla" unicode="&#x15e;" horiz-adv-x="597" 
d="M547 209c0 -107 -81 -207 -235 -220l-8 -25c52 -6 70 -39 70 -76c0 -45 -36 -86 -103 -86c-29 0 -63 13 -83 24l26 54c25 -11 36 -15 54 -15c16 0 31 11 31 25c0 15 -12 26 -32 26c-12 0 -21 -3 -29 -5l-5 21l14 56c-69 5 -138 25 -197 61l44 88c62 -36 117 -57 187 -57
c85 0 136 41 136 110c0 51 -32 83 -103 103l-74 21c-63 18 -108 44 -134 83c-19 28 -29 61 -29 101c0 122 96 205 235 205c79 0 158 -23 219 -66l-52 -81c-64 38 -108 53 -163 53c-68 0 -113 -37 -113 -94c0 -43 24 -65 92 -85l82 -24c100 -29 170 -93 170 -197z" />
    <glyph glyph-name="scedilla" unicode="&#x15f;" horiz-adv-x="484" 
d="M331 -112c0 -45 -36 -86 -103 -86c-29 0 -63 13 -83 24l26 54c29 -13 39 -15 54 -15c16 0 31 11 31 25c0 15 -12 26 -32 26c-12 0 -21 -3 -29 -5l-5 21l14 56c-53 5 -109 23 -164 54l39 79c45 -26 107 -53 164 -53c48 0 82 29 82 71c0 39 -25 59 -82 71l-61 13
c-76 16 -121 68 -121 139c0 95 76 161 188 161c69 0 124 -21 167 -44l-36 -76c-47 25 -84 37 -124 37c-47 0 -77 -26 -77 -65c0 -31 17 -47 68 -60l63 -16c102 -26 129 -82 129 -141c0 -92 -68 -158 -170 -170l-8 -24c52 -6 70 -39 70 -76z" />
    <glyph glyph-name="Scaron" unicode="&#x160;" horiz-adv-x="597" 
d="M547 209c0 -115 -93 -222 -270 -222c-79 0 -159 21 -227 62l44 88c62 -36 117 -57 187 -57c85 0 136 41 136 110c0 51 -32 83 -103 103l-74 21c-63 18 -108 44 -134 83c-19 28 -29 61 -29 101c0 122 96 205 235 205c79 0 158 -23 219 -66l-52 -81c-64 38 -108 53 -163 53
c-68 0 -113 -37 -113 -94c0 -43 24 -65 92 -85l82 -24c100 -29 170 -93 170 -197zM475 863l-174 -137l-176 137l40 60l139 -81l134 81z" />
    <glyph glyph-name="scaron" unicode="&#x161;" horiz-adv-x="484" 
d="M439 158c0 -102 -83 -172 -205 -172c-62 0 -129 20 -194 56l39 79c45 -26 107 -53 164 -53c48 0 82 29 82 71c0 39 -25 59 -82 71l-61 13c-76 16 -121 68 -121 139c0 95 76 161 188 161c69 0 124 -21 167 -44l-36 -76c-47 25 -84 37 -124 37c-47 0 -77 -26 -77 -65
c0 -31 17 -47 68 -60l63 -16c102 -26 129 -82 129 -141zM411 693l-174 -137l-176 137l40 60l139 -81l134 81z" />
    <glyph glyph-name="uni0162" unicode="&#x162;" horiz-adv-x="484" 
d="M344 -112c0 -45 -36 -86 -103 -86c-29 0 -63 13 -83 24l26 54c31 -14 40 -15 54 -15c16 0 31 11 31 25c0 15 -12 26 -32 26c-12 0 -21 -3 -29 -5l-5 21l18 68h-26v596h-175v96h479l-15 -96h-174v-596h-24l-12 -36c52 -6 70 -39 70 -76z" />
    <glyph glyph-name="uni0163" unicode="&#x163;" horiz-adv-x="341" 
d="M308 -112c0 -45 -36 -86 -103 -86c-29 0 -63 13 -83 24l26 54c25 -11 36 -15 54 -15c16 0 31 11 31 25c0 15 -12 26 -32 26c-12 0 -21 -3 -29 -5l-5 21l15 58c-72 12 -97 64 -97 127v313h-56v76h56c0 43 0 87 5 125l113 27c-5 -41 -9 -102 -9 -152h121l-29 -76h-93v-284
c0 -63 14 -81 62 -81c15 0 28 3 47 10l14 -66c-24 -10 -46 -17 -70 -20l-8 -25c52 -6 70 -39 70 -76z" />
    <glyph glyph-name="Tcaron" unicode="&#x164;" horiz-adv-x="484" 
d="M499 692l-15 -96h-174v-596h-115v596h-175v96h479zM423 857l-174 -137l-176 137l40 60l139 -81l134 81z" />
    <glyph glyph-name="tcaron" unicode="&#x165;" horiz-adv-x="341" 
d="M316 9c-33 -15 -65 -22 -99 -22c-98 0 -132 58 -132 130v313h-56v76h56c0 43 0 87 5 125l113 27c-5 -41 -9 -102 -9 -152h121l-29 -76h-93v-284c0 -63 14 -81 62 -81c15 0 28 3 47 10zM388 689c0 -32 -12 -63 -33 -89c-17 -21 -48 -43 -80 -55l-35 41c35 13 58 36 58 61
c0 7 -7 8 -17 12c-23 8 -37 27 -37 54c0 36 29 64 67 64c47 0 77 -35 77 -88z" />
    <glyph glyph-name="Tbar" unicode="&#x166;" horiz-adv-x="484" 
d="M499 692l-15 -96h-174v-180h99v-83h-99v-333h-115v333h-101v83h101v180h-175v96h479z" />
    <glyph glyph-name="tbar" unicode="&#x167;" horiz-adv-x="341" 
d="M85 284v146h-56v76h56c0 43 0 87 5 125l113 27c-5 -41 -9 -102 -9 -152h121l-29 -76h-93v-146h122l-29 -76h-93v-62c0 -63 14 -81 62 -81c15 0 28 3 47 10l14 -66c-33 -15 -65 -22 -99 -22c-98 0 -132 58 -132 130v91h-56v76h56z" />
    <glyph glyph-name="Utilde" unicode="&#x168;" horiz-adv-x="639" 
d="M559 194c0 -127 -88 -206 -240 -206c-182 0 -239 94 -239 205v499h116v-465c0 -106 38 -141 123 -141c84 0 125 49 125 141v465h115v-498zM494 809c-33 -41 -63 -66 -121 -66c-61 0 -72 41 -130 41c-31 0 -45 -14 -66 -37l-36 61c33 42 62 66 120 66c61 0 72 -41 130 -41
c32 0 46 15 67 37z" />
    <glyph glyph-name="utilde" unicode="&#x169;" horiz-adv-x="552" 
d="M498 36l-76 -52c-22 16 -35 34 -44 63c-37 -42 -86 -62 -144 -62c-57 0 -101 20 -126 50c-20 24 -28 57 -28 120v343l108 20v-339c0 -63 9 -109 74 -109c37 0 82 30 99 66v362l106 20v-381c0 -68 25 -96 31 -101zM453 649c-33 -41 -63 -66 -121 -66c-61 0 -72 41 -130 41
c-31 0 -45 -14 -66 -37l-36 61c33 42 62 66 120 66c61 0 72 -41 130 -41c32 0 46 15 67 37z" />
    <glyph glyph-name="Umacron" unicode="&#x16a;" horiz-adv-x="639" 
d="M559 194c0 -127 -88 -206 -240 -206c-182 0 -239 94 -239 205v499h116v-465c0 -106 38 -141 123 -141c84 0 125 49 125 141v465h115v-498zM470 752h-295v76h295v-76z" />
    <glyph glyph-name="umacron" unicode="&#x16b;" horiz-adv-x="552" 
d="M498 36l-76 -52c-22 16 -35 34 -44 63c-37 -42 -86 -62 -144 -62c-57 0 -101 20 -126 50c-20 24 -28 57 -28 120v343l108 20v-339c0 -63 9 -109 74 -109c37 0 82 30 99 66v362l106 20v-381c0 -68 25 -96 31 -101zM425 591h-295v76h295v-76z" />
    <glyph glyph-name="Ubreve" unicode="&#x16c;" horiz-adv-x="639" 
d="M559 194c0 -127 -88 -206 -240 -206c-182 0 -239 94 -239 205v499h116v-465c0 -106 38 -141 123 -141c84 0 125 49 125 141v465h115v-498zM494 855c-17 -23 -97 -122 -176 -122c-80 0 -159 99 -176 122l35 45c21 -20 80 -71 145 -71c56 0 122 54 141 71z" />
    <glyph glyph-name="ubreve" unicode="&#x16d;" horiz-adv-x="552" 
d="M498 36l-76 -52c-22 16 -35 34 -44 63c-37 -42 -86 -62 -144 -62c-57 0 -101 20 -126 50c-20 24 -28 57 -28 120v343l108 20v-339c0 -63 9 -109 74 -109c37 0 82 30 99 66v362l106 20v-381c0 -68 25 -96 31 -101zM450 682c-17 -23 -97 -122 -176 -122
c-80 0 -159 99 -176 122l35 45c20 -20 80 -71 145 -71c56 0 122 54 141 71z" />
    <glyph glyph-name="Uring" unicode="&#x16e;" horiz-adv-x="639" 
d="M559 194c0 -127 -88 -206 -240 -206c-182 0 -239 94 -239 205v499h116v-465c0 -106 38 -141 123 -141c84 0 125 49 125 141v465h115v-498zM424 820c0 -58 -48 -105 -106 -105s-106 47 -106 105s48 106 106 106s106 -48 106 -106zM376 820c0 32 -26 59 -58 59
s-58 -27 -58 -59s26 -59 58 -59s58 27 58 59z" />
    <glyph glyph-name="uring" unicode="&#x16f;" horiz-adv-x="552" 
d="M498 36l-76 -52c-22 16 -35 34 -44 63c-37 -42 -86 -62 -144 -62c-57 0 -101 20 -126 50c-20 24 -28 57 -28 120v343l108 20v-339c0 -63 9 -109 74 -109c37 0 82 30 99 66v362l106 20v-381c0 -68 25 -96 31 -101zM388 660c0 -58 -48 -105 -106 -105s-106 47 -106 105
s48 106 106 106s106 -48 106 -106zM340 660c0 32 -26 59 -58 59s-58 -27 -58 -59s26 -59 58 -59s58 27 58 59z" />
    <glyph glyph-name="Uhungarumlaut" unicode="&#x170;" horiz-adv-x="639" 
d="M559 194c0 -127 -88 -206 -240 -206c-182 0 -239 94 -239 205v499h116v-465c0 -106 38 -141 123 -141c84 0 125 49 125 141v465h115v-498zM386 910l-146 -191l-60 38l117 207zM611 886l-175 -163l-51 48l147 184z" />
    <glyph glyph-name="uhungarumlaut" unicode="&#x171;" horiz-adv-x="552" 
d="M498 36l-76 -52c-22 16 -35 34 -44 63c-37 -42 -86 -62 -144 -62c-57 0 -101 20 -126 50c-20 24 -28 57 -28 120v343l108 20v-339c0 -63 9 -109 74 -109c37 0 82 30 99 66v362l106 20v-381c0 -68 25 -96 31 -101zM316 771l-114 -211l-65 28l83 223zM530 752l-147 -188
l-58 39l117 205z" />
    <glyph glyph-name="Uogonek" unicode="&#x172;" horiz-adv-x="639" 
d="M559 194c0 -83 -37 -166 -155 -196c-31 -8 -82 -45 -82 -93c0 -22 12 -34 34 -34c20 0 35 3 57 14l25 -58c-27 -13 -61 -26 -99 -26c-62 0 -101 38 -101 90c0 39 21 71 46 98c-154 12 -204 101 -204 204v499h116v-465c0 -106 38 -141 123 -141c84 0 125 49 125 141v465
h115v-498z" />
    <glyph glyph-name="uogonek" unicode="&#x173;" horiz-adv-x="552" 
d="M521 -173c-27 -13 -61 -26 -99 -26c-62 0 -101 38 -101 90s41 92 73 121c-7 10 -12 21 -16 35c-37 -42 -86 -62 -144 -62c-57 0 -101 20 -126 50c-20 24 -28 57 -28 120v343l108 20v-339c0 -63 9 -109 74 -109c37 0 82 30 99 66v362l106 20v-381c0 -69 26 -99 33 -104
c-50 -39 -94 -85 -94 -128c0 -21 11 -34 33 -34c20 0 35 3 57 14z" />
    <glyph glyph-name="Wcircumflex" unicode="&#x174;" horiz-adv-x="826" 
d="M816 692l-164 -696h-132l-71 321c-20 93 -32 181 -34 200h-3c-4 -23 -20 -122 -35 -197l-67 -324h-135l-165 696h123l69 -322c16 -75 32 -176 37 -222h3c4 26 22 139 38 214l72 330h129l72 -344c15 -73 31 -172 34 -195h3c5 29 25 155 40 225l66 314h120zM588 776
l-40 -61l-138 82l-134 -82l-38 61l174 136z" />
    <glyph glyph-name="wcircumflex" unicode="&#x175;" horiz-adv-x="708" 
d="M693 506l-143 -508h-103l-62 233c-14 53 -30 122 -33 138h-2c-2 -14 -11 -60 -33 -143l-61 -228h-103l-138 501l109 15l55 -245c12 -56 24 -119 26 -133h3c2 13 12 74 29 136l65 234h108l57 -228c19 -73 30 -132 32 -144h3c2 15 13 83 25 136l52 236h114zM526 616
l-40 -61l-138 82l-134 -82l-38 61l174 136z" />
    <glyph glyph-name="Ycircumflex" unicode="&#x176;" horiz-adv-x="528" 
d="M543 692l-221 -413v-279h-119v280l-218 412h139l104 -217c19 -39 34 -80 37 -89c4 10 22 53 38 87l106 219h134zM441 776l-40 -61l-138 82l-134 -82l-38 61l174 136z" />
    <glyph glyph-name="ycircumflex" unicode="&#x177;" horiz-adv-x="493" 
d="M483 506l-179 -517c-42 -122 -78 -183 -197 -205l-36 71c69 19 108 48 137 145h-35c-14 57 -33 112 -48 157l-115 341l112 19l93 -308c9 -30 26 -106 28 -114c1 4 19 76 38 137l84 274h118zM418 616l-40 -61l-138 82l-134 -82l-38 61l174 136z" />
    <glyph glyph-name="Ydieresis" unicode="&#x178;" horiz-adv-x="528" 
d="M543 692l-221 -413v-279h-119v280l-218 412h139l104 -217c19 -39 34 -80 37 -89c4 10 22 53 38 87l106 219h134zM225 790c0 -38 -30 -70 -67 -70s-67 32 -67 70c0 39 30 70 67 70s67 -31 67 -70zM434 790c0 -38 -30 -70 -67 -70s-67 32 -67 70c0 39 30 70 67 70
s67 -31 67 -70z" />
    <glyph glyph-name="Zacute" unicode="&#x179;" horiz-adv-x="541" 
d="M496 94l-29 -94h-422v84l270 449c19 31 41 61 46 68c-7 -1 -39 -4 -75 -4h-228l26 95h406v-87l-269 -454c-13 -23 -35 -52 -40 -59c6 0 33 2 69 2h246zM425 822l-220 -102l-34 63l204 132z" />
    <glyph glyph-name="zacute" unicode="&#x17a;" horiz-adv-x="469" 
d="M429 77l-32 -77h-357v73l254 355h-234v78h358v-78l-240 -351h251zM377 662l-220 -102l-34 63l204 132z" />
    <glyph glyph-name="Zdotaccent" unicode="&#x17b;" horiz-adv-x="541" 
d="M496 94l-29 -94h-422v84l270 449c19 31 41 61 46 68c-7 -1 -39 -4 -75 -4h-228l26 95h406v-87l-269 -454c-13 -23 -35 -52 -40 -59c6 0 33 2 69 2h246zM356 795c0 -41 -33 -75 -74 -75c-40 0 -72 34 -72 75s33 75 73 75s73 -33 73 -75z" />
    <glyph glyph-name="zdotaccent" unicode="&#x17c;" horiz-adv-x="469" 
d="M429 77l-32 -77h-357v73l254 355h-234v78h358v-78l-240 -351h251zM315 656c0 -41 -33 -75 -74 -75c-40 0 -72 34 -72 75s33 75 73 75s73 -33 73 -75z" />
    <glyph glyph-name="Zcaron" unicode="&#x17d;" horiz-adv-x="541" 
d="M496 94l-29 -94h-422v84l270 449c19 31 41 61 46 68c-7 -1 -39 -4 -75 -4h-228l26 95h406v-87l-269 -454c-13 -23 -35 -52 -40 -59c6 0 33 2 69 2h246zM444 863l-174 -137l-176 137l40 60l139 -81l134 81z" />
    <glyph glyph-name="zcaron" unicode="&#x17e;" horiz-adv-x="469" 
d="M429 77l-32 -77h-357v73l254 355h-234v78h358v-78l-240 -351h251zM400 693l-174 -137l-176 137l40 60l139 -81l134 81z" />
    <glyph glyph-name="longs" unicode="&#x17f;" horiz-adv-x="347" 
d="M290 735c37 0 69 -14 98 -27l-44 -74c-15 10 -37 17 -57 17c-58 0 -82 -42 -82 -122v-529h-111v423h-79v83h79v35c0 45 7 86 26 114c31 45 87 80 170 80z" />
    <glyph glyph-name="uni018F" unicode="&#x18f;" horiz-adv-x="663" 
d="M52 377h421v23c0 104 -43 213 -188 213c-62 0 -120 -22 -171 -64l-47 71c83 63 147 82 240 82c189 0 301 -130 301 -354c0 -182 -86 -358 -283 -358c-66 0 -131 15 -181 63c-58 56 -92 144 -92 303v21zM471 288h-287c0 -141 55 -212 141 -212c93 0 146 85 146 212z" />
    <glyph glyph-name="florin" unicode="&#x192;" horiz-adv-x="329" 
d="M374 707l-35 -70c-23 12 -38 18 -57 18c-36 0 -62 -25 -65 -71l-5 -78h123l-29 -78h-98l-26 -387c-10 -155 -28 -182 -136 -252l-51 75c71 52 79 77 84 159l26 405h-43v78h51l4 76c6 110 76 154 154 154c40 0 82 -16 103 -29z" />
    <glyph glyph-name="uni01B5" unicode="&#x1b5;" horiz-adv-x="541" 
d="M496 94l-29 -94h-422v84l133 221h-76v81h124l89 147c19 31 41 61 46 68c-7 -1 -39 -4 -75 -4h-228l26 95h406v-87l-130 -219h77v-81h-125l-91 -154c-13 -23 -35 -52 -40 -59c6 0 33 2 69 2h246z" />
    <glyph glyph-name="uni01B6" unicode="&#x1b6;" horiz-adv-x="469" 
d="M429 77l-32 -77h-357v73l100 140h-55v81h113l96 134h-234v78h358v-78l-92 -134h54v-81h-109l-93 -136h251z" />
    <glyph glyph-name="uni01C4" unicode="&#x1c4;" horiz-adv-x="1172" 
d="M576 344c0 -105 -26 -187 -73 -247c-58 -74 -118 -97 -247 -97h-171v692h144c130 0 207 -24 272 -98c51 -59 75 -142 75 -250zM448 332c0 89 -8 160 -44 209c-32 44 -68 60 -130 60h-73v-507h76c122 0 171 81 171 238zM1127 94l-29 -94h-422v84l270 449
c19 31 41 61 46 68c-7 -1 -39 -4 -75 -4h-228l26 95h406v-87l-269 -454c-13 -23 -35 -52 -40 -59c6 0 33 2 69 2h246zM1075 863l-174 -137l-176 137l40 60l139 -81l134 81z" />
    <glyph glyph-name="uni01C5" unicode="&#x1c5;" horiz-adv-x="1100" 
d="M576 344c0 -105 -26 -187 -73 -247c-58 -74 -118 -97 -247 -97h-171v692h144c130 0 207 -24 272 -98c51 -59 75 -142 75 -250zM448 332c0 89 -8 160 -44 209c-32 44 -68 60 -130 60h-73v-507h76c122 0 171 81 171 238zM1060 77l-32 -77h-357v73l254 355h-234v78h358v-78
l-240 -351h251zM1031 693l-174 -137l-176 137l40 60l139 -81l134 81z" />
    <glyph glyph-name="uni01C6" unicode="&#x1c6;" horiz-adv-x="1034" 
d="M496 0h-101c-5 11 -6 18 -9 39c-34 -34 -74 -50 -124 -50c-129 0 -207 101 -207 259c0 159 88 267 210 267c43 0 78 -14 109 -46c-1 8 -3 44 -3 83v185l109 -17v-544c0 -100 6 -151 16 -176zM371 129v257c-25 27 -55 41 -92 41c-70 0 -102 -56 -102 -178
c0 -112 22 -168 105 -168c41 0 74 23 89 48zM994 77l-32 -77h-357v73l254 355h-234v78h358v-78l-240 -351h251zM965 693l-174 -137l-176 137l40 60l139 -81l134 81z" />
    <glyph glyph-name="uni01C7" unicode="&#x1c7;" horiz-adv-x="766" 
d="M458 95l-19 -95h-354v692h117v-597h256zM681 128c0 -114 -11 -152 -41 -193c-29 -40 -74 -69 -117 -85l-54 61c36 20 67 51 80 78c12 25 16 54 16 129v574h116v-564z" />
    <glyph glyph-name="uni01C8" unicode="&#x1c8;" horiz-adv-x="754" 
d="M458 95l-19 -95h-354v692h117v-597h256zM669 12c0 -89 -19 -129 -37 -152c-23 -29 -54 -54 -95 -72l-47 64c53 37 68 77 68 159v487l111 20v-506zM686 656c0 -42 -33 -75 -74 -75c-40 0 -72 32 -72 73c0 40 33 74 73 74s73 -33 73 -72z" />
    <glyph glyph-name="uni01C9" unicode="&#x1c9;" horiz-adv-x="563" 
d="M262 1c-20 -8 -41 -12 -66 -12c-111 0 -111 100 -111 143v431c0 69 -3 106 -10 148l113 25c8 -31 9 -73 9 -139v-429c0 -68 3 -79 11 -91c6 -9 23 -14 36 -8zM478 12c0 -89 -19 -129 -37 -152c-23 -29 -54 -54 -95 -72l-47 64c53 37 68 77 68 159v487l111 20v-506z
M495 656c0 -42 -33 -75 -74 -75c-40 0 -72 32 -72 73c0 40 33 74 73 74s73 -33 73 -72z" />
    <glyph glyph-name="uni01CA" unicode="&#x1ca;" horiz-adv-x="932" 
d="M554 0h-121l-155 325c-37 77 -75 164 -88 205l-3 -3c5 -58 6 -124 7 -192l4 -335h-113v692h130l168 -338c32 -64 62 -146 71 -178l3 3c-3 35 -10 134 -10 197l-2 316h109v-692zM847 128c0 -114 -11 -152 -41 -193c-29 -40 -74 -69 -117 -85l-54 61c36 20 67 51 80 78
c12 25 16 54 16 129v574h116v-564z" />
    <glyph glyph-name="uni01CB" unicode="&#x1cb;" horiz-adv-x="920" 
d="M554 0h-121l-155 325c-37 77 -75 164 -88 205l-3 -3c5 -58 6 -124 7 -192l4 -335h-113v692h130l168 -338c32 -64 62 -146 71 -178l3 3c-3 35 -10 134 -10 197l-2 316h109v-692zM835 12c0 -89 -19 -129 -37 -152c-23 -29 -54 -54 -95 -72l-47 64c53 37 68 77 68 159v487
l111 20v-506zM852 656c0 -42 -33 -75 -74 -75c-40 0 -72 32 -72 73c0 40 33 74 73 74s73 -33 73 -72z" />
    <glyph glyph-name="uni01CC" unicode="&#x1cc;" horiz-adv-x="837" 
d="M471 0h-109v336c0 69 -16 88 -58 88c-32 0 -78 -24 -111 -57v-367h-108v372c0 53 -5 84 -19 120l100 28c12 -23 18 -45 18 -72c54 46 101 70 155 70c78 0 132 -47 132 -140v-378zM752 12c0 -89 -19 -129 -37 -152c-23 -29 -54 -54 -95 -72l-47 64c53 37 68 77 68 159v487
l111 20v-506zM769 656c0 -42 -33 -75 -74 -75c-40 0 -72 32 -72 73c0 40 33 74 73 74s73 -33 73 -72z" />
    <glyph glyph-name="uni01F1" unicode="&#x1f1;" horiz-adv-x="1172" 
d="M576 344c0 -105 -26 -187 -73 -247c-58 -74 -118 -97 -247 -97h-171v692h144c130 0 207 -24 272 -98c51 -59 75 -142 75 -250zM448 332c0 89 -8 160 -44 209c-32 44 -68 60 -130 60h-73v-507h76c122 0 171 81 171 238zM1127 94l-29 -94h-422v84l270 449
c19 31 41 61 46 68c-7 -1 -39 -4 -75 -4h-228l26 95h406v-87l-269 -454c-13 -23 -35 -52 -40 -59c6 0 33 2 69 2h246z" />
    <glyph glyph-name="uni01F2" unicode="&#x1f2;" horiz-adv-x="1100" 
d="M576 344c0 -105 -26 -187 -73 -247c-58 -74 -118 -97 -247 -97h-171v692h144c130 0 207 -24 272 -98c51 -59 75 -142 75 -250zM448 332c0 89 -8 160 -44 209c-32 44 -68 60 -130 60h-73v-507h76c122 0 171 81 171 238zM1060 77l-32 -77h-357v73l254 355h-234v78h358v-78
l-240 -351h251z" />
    <glyph glyph-name="uni01F3" unicode="&#x1f3;" horiz-adv-x="1034" 
d="M496 0h-101c-5 11 -6 18 -9 39c-34 -34 -74 -50 -124 -50c-129 0 -207 101 -207 259c0 159 88 267 210 267c43 0 78 -14 109 -46c-1 8 -3 44 -3 83v185l109 -17v-544c0 -100 6 -151 16 -176zM371 129v257c-25 27 -55 41 -92 41c-70 0 -102 -56 -102 -178
c0 -112 22 -168 105 -168c41 0 74 23 89 48zM994 77l-32 -77h-357v73l254 355h-234v78h358v-78l-240 -351h251z" />
    <glyph glyph-name="Aringacute" unicode="&#x1fa;" horiz-adv-x="587" 
d="M584 0h-126l-56 182h-224l-56 -182h-119l227 693h133zM376 278c-7 15 -77 273 -82 300h-1c-14 -51 -73 -259 -87 -300h170zM399 820c0 -58 -48 -105 -106 -105s-106 47 -106 105s48 106 106 106s106 -48 106 -106zM351 820c0 32 -26 59 -58 59s-58 -27 -58 -59
s26 -59 58 -59s58 27 58 59zM451 1028l-220 -102l-34 63l204 132z" />
    <glyph glyph-name="aringacute" unicode="&#x1fb;" horiz-adv-x="525" 
d="M483 49l-57 -70c-31 12 -57 36 -69 68c-41 -46 -85 -62 -139 -62c-116 0 -168 64 -168 152c0 117 88 176 250 176h34v27c0 58 -10 89 -70 89c-65 0 -135 -46 -151 -58l-49 79c76 48 139 69 215 69c79 0 132 -29 154 -84c9 -22 9 -49 8 -124l-2 -145c-1 -68 5 -90 44 -117
zM332 238c-2 0 -13 1 -20 1c-110 0 -143 -32 -143 -96c0 -48 26 -78 70 -78c35 0 69 21 91 53zM371 660c0 -58 -48 -105 -106 -105s-106 47 -106 105s48 106 106 106s106 -48 106 -106zM323 660c0 32 -26 59 -58 59s-58 -27 -58 -59s26 -59 58 -59s58 27 58 59zM405 868
l-220 -102l-34 63l204 132z" />
    <glyph glyph-name="AEacute" unicode="&#x1fc;" horiz-adv-x="853" 
d="M823 0h-393v184h-212l-106 -184h-127l416 691h412l-15 -94h-252v-188h211v-95h-211v-216h277v-98zM434 560c-1 0 -4 0 -5 -1c-6 -13 -139 -250 -157 -280h158v181c0 34 3 88 4 100zM758 824l-220 -102l-34 63l204 132z" />
    <glyph glyph-name="aeacute" unicode="&#x1fd;" horiz-adv-x="785" 
d="M740 223h-301v-21c0 -78 46 -132 123 -132c47 0 89 17 127 50l41 -66c-52 -45 -112 -67 -180 -67c-90 0 -145 37 -171 77c-42 -49 -94 -80 -161 -80c-118 0 -168 66 -168 152c0 117 88 176 250 176c11 0 17 -1 34 -1v29c0 35 -2 53 -13 68s-29 21 -57 21
c-47 0 -102 -22 -152 -57l-48 78c72 45 139 69 215 69c56 0 98 -23 127 -54c33 32 78 54 128 54c57 0 109 -20 142 -54c44 -47 64 -107 64 -219v-23zM332 237c-8 0 -15 1 -20 1c-109 0 -143 -28 -143 -95c0 -49 26 -79 70 -79c35 0 69 20 91 53zM625 304
c0 77 -29 133 -91 133c-59 0 -94 -46 -94 -133h185zM515 662l-220 -102l-34 63l204 132z" />
    <glyph glyph-name="Oslashacute" unicode="&#x1fe;" horiz-adv-x="688" 
d="M633 344c0 -129 -34 -221 -99 -282c-56 -53 -110 -74 -186 -74c-61 0 -111 13 -154 40l-67 -114l-62 36l75 125c-57 69 -85 163 -85 271c0 222 112 356 288 356c59 0 108 -15 150 -40l61 103l63 -36l-69 -114c67 -77 85 -154 85 -271zM441 575c-25 23 -57 38 -97 38
c-110 0 -161 -80 -161 -262c0 -66 7 -124 21 -170zM501 337c0 71 -7 123 -20 167l-236 -394c16 -16 58 -35 101 -35c105 0 155 79 155 262zM495 824l-220 -102l-34 63l204 132z" />
    <glyph glyph-name="oslashacute" unicode="&#x1ff;" horiz-adv-x="546" 
d="M496 251c0 -165 -85 -264 -224 -264c-39 0 -75 8 -106 27l-55 -91l-53 31l58 98c-43 48 -66 116 -66 200c0 162 86 266 221 266c41 0 76 -8 110 -25l55 91l53 -31l-60 -100c48 -50 67 -115 67 -202zM375 249c0 40 -4 69 -11 96l-152 -254c19 -14 41 -22 63 -22
c69 0 100 55 100 180zM333 413c-18 15 -39 22 -61 22c-67 0 -101 -51 -101 -176c0 -36 5 -69 11 -99zM420 662l-220 -102l-34 63l204 132z" />
    <glyph glyph-name="uni0218" unicode="&#x218;" horiz-adv-x="597" 
d="M547 209c0 -115 -93 -222 -270 -222c-79 0 -159 21 -227 62l44 88c62 -36 117 -57 187 -57c85 0 136 41 136 110c0 51 -32 83 -103 103l-74 21c-63 18 -108 44 -134 83c-19 28 -29 61 -29 101c0 122 96 205 235 205c79 0 158 -23 219 -66l-52 -81c-64 38 -108 53 -163 53
c-68 0 -113 -37 -113 -94c0 -43 24 -65 92 -85l82 -24c100 -29 170 -93 170 -197zM368 -138c0 -32 -12 -63 -33 -89c-17 -21 -48 -43 -80 -55l-35 41c35 13 58 36 58 61c0 7 -7 8 -17 12c-23 8 -37 27 -37 54c0 36 29 64 67 64c47 0 77 -35 77 -88z" />
    <glyph glyph-name="uni0219" unicode="&#x219;" horiz-adv-x="484" 
d="M439 158c0 -102 -83 -172 -205 -172c-62 0 -129 20 -194 56l39 79c45 -26 107 -53 164 -53c48 0 82 29 82 71c0 39 -25 59 -82 71l-61 13c-76 16 -121 68 -121 139c0 95 76 161 188 161c69 0 124 -21 167 -44l-36 -76c-47 25 -84 37 -124 37c-47 0 -77 -26 -77 -65
c0 -31 17 -47 68 -60l63 -16c102 -26 129 -82 129 -141zM311 -139c0 -32 -12 -63 -33 -89c-17 -21 -48 -43 -80 -55l-35 41c35 13 58 36 58 61c0 7 -7 8 -17 12c-23 8 -37 27 -37 54c0 36 29 64 67 64c47 0 77 -35 77 -88z" />
    <glyph glyph-name="uni021A" unicode="&#x21a;" horiz-adv-x="484" 
d="M499 692l-15 -96h-174v-596h-115v596h-175v96h479zM328 -140c0 -32 -12 -63 -33 -89c-17 -21 -48 -43 -80 -55l-35 41c35 13 58 36 58 61c0 7 -7 8 -17 12c-23 8 -37 27 -37 54c0 36 29 64 67 64c47 0 77 -35 77 -88z" />
    <glyph glyph-name="uni021B" unicode="&#x21b;" horiz-adv-x="341" 
d="M316 9c-33 -15 -65 -22 -99 -22c-98 0 -132 58 -132 130v313h-56v76h56c0 43 0 87 5 125l113 27c-5 -41 -9 -102 -9 -152h121l-29 -76h-93v-284c0 -63 14 -81 62 -81c15 0 28 3 47 10zM264 -140c0 -32 -12 -63 -33 -89c-17 -21 -48 -43 -80 -55l-35 41c35 13 58 36 58 61
c0 7 -7 8 -17 12c-23 8 -37 27 -37 54c0 36 29 64 67 64c47 0 77 -35 77 -88z" />
    <glyph glyph-name="uni0237" unicode="&#x237;" horiz-adv-x="281" 
d="M196 12c0 -89 -19 -129 -37 -152c-23 -29 -54 -54 -95 -72l-47 64c53 37 68 77 68 159v487l111 20v-506z" />
    <glyph glyph-name="uni0259" unicode="&#x259;" horiz-adv-x="520" 
d="M47 282h302v8c0 70 -26 144 -125 144c-47 0 -88 -17 -126 -50l-43 67c53 45 114 67 182 67c143 0 233 -103 233 -265c0 -89 -19 -148 -63 -198c-41 -47 -91 -68 -155 -68c-50 0 -96 13 -139 52c-44 40 -66 102 -66 220v23zM348 201h-187c0 -82 36 -131 91 -131
c62 0 96 49 96 131z" />
    <glyph glyph-name="uni02BB" unicode="&#x2bb;" horiz-adv-x="277" 
d="M227 665c-41 -13 -68 -43 -68 -69c0 -28 65 -16 65 -90c0 -44 -35 -80 -79 -80c-52 0 -90 46 -90 111c0 78 53 150 132 178z" />
    <glyph glyph-name="uni02BC" unicode="&#x2bc;" horiz-adv-x="277" 
d="M222 597c0 -42 -14 -81 -39 -114c-22 -28 -57 -52 -92 -64l-41 49c41 13 68 42 68 71c0 6 -11 16 -22 21c-26 11 -43 34 -43 67c0 45 35 80 79 80c52 0 90 -46 90 -110z" />
    <glyph glyph-name="circumflex" unicode="&#x2c6;" horiz-adv-x="410" 
d="M380 616l-40 -61l-138 82l-134 -82l-38 61l174 136z" />
    <glyph glyph-name="caron" unicode="&#x2c7;" horiz-adv-x="410" 
d="M380 693l-174 -137l-176 137l40 60l139 -81l134 81z" />
    <glyph glyph-name="breve" unicode="&#x2d8;" horiz-adv-x="396" 
d="M366 695c-16 -22 -93 -116 -168 -116c-76 0 -152 94 -168 116l33 43c20 -19 77 -67 139 -67c53 0 116 51 134 67z" />
    <glyph glyph-name="dotaccent" unicode="&#x2d9;" horiz-adv-x="216" 
d="M181 653c0 -41 -33 -75 -74 -75c-40 0 -72 34 -72 75s33 75 73 75s73 -33 73 -75z" />
    <glyph glyph-name="ring" unicode="&#x2da;" horiz-adv-x="282" 
d="M247 660c0 -58 -48 -105 -106 -105s-106 47 -106 105s48 106 106 106s106 -48 106 -106zM199 660c0 32 -26 59 -58 59s-58 -27 -58 -59s26 -59 58 -59s58 27 58 59z" />
    <glyph glyph-name="ogonek" unicode="&#x2db;" horiz-adv-x="296" 
d="M241 -174c-20 -11 -55 -24 -83 -24c-67 0 -103 40 -103 88c0 67 49 118 68 133l60 -35c-18 -17 -52 -50 -52 -90c0 -17 11 -33 30 -33c22 0 36 7 54 15z" />
    <glyph glyph-name="tilde" unicode="&#x2dc;" horiz-adv-x="403" 
d="M378 649c-33 -41 -63 -66 -121 -66c-61 0 -72 41 -130 41c-31 0 -45 -14 -66 -37l-36 61c33 42 62 66 120 66c61 0 72 -41 130 -41c32 0 46 15 67 37z" />
    <glyph glyph-name="hungarumlaut" unicode="&#x2dd;" horiz-adv-x="463" 
d="M214 736l-114 -211l-65 28l83 223zM428 717l-147 -188l-58 39l117 205z" />
    <glyph glyph-name="gravecomb" unicode="&#x300;" 
d="M366 623l-34 -63l-220 102l50 93z" />
    <glyph glyph-name="acutecomb" unicode="&#x301;" 
d="M415 662l-220 -102l-34 63l204 132z" />
    <glyph glyph-name="uni0302" unicode="&#x302;" 
d="M447 616l-40 -61l-138 82l-134 -82l-38 61l174 136z" />
    <glyph glyph-name="tildecomb" unicode="&#x303;" 
d="M445 649c-33 -41 -63 -66 -121 -66c-61 0 -72 41 -130 41c-31 0 -45 -14 -66 -37l-36 61c33 42 62 66 120 66c61 0 72 -41 130 -41c32 0 46 15 67 37z" />
    <glyph glyph-name="uni0304" unicode="&#x304;" 
d="M325 559h-295v76h295v-76z" />
    <glyph glyph-name="uni0306" unicode="&#x306;" 
d="M375 682c-17 -23 -97 -122 -176 -122c-80 0 -159 99 -176 122l35 45c20 -20 80 -71 145 -71c56 0 122 54 141 71z" />
    <glyph glyph-name="uni0307" unicode="&#x307;" 
d="M181 653c0 -41 -33 -75 -74 -75c-40 0 -72 34 -72 75s33 75 73 75s73 -33 73 -75z" />
    <glyph glyph-name="uni0308" unicode="&#x308;" 
d="M-54 630c0 -38 -31 -70 -68 -70s-67 32 -67 70c0 39 30 70 68 70c36 0 67 -31 67 -70zM-264 630c0 -38 -30 -70 -67 -70s-67 32 -67 70c0 39 30 70 67 70s67 -31 67 -70z" />
    <glyph glyph-name="uni030A" unicode="&#x30a;" 
d="M371 660c0 -58 -48 -105 -106 -105s-106 47 -106 105s48 106 106 106s106 -48 106 -106zM323 660c0 32 -26 59 -58 59s-58 -27 -58 -59s26 -59 58 -59s58 27 58 59z" />
    <glyph glyph-name="uni030B" unicode="&#x30b;" 
d="M214 771l-114 -211l-65 28l83 223zM428 752l-147 -188l-58 39l117 205z" />
    <glyph glyph-name="uni030C" unicode="&#x30c;" 
d="M400 693l-174 -137l-176 137l40 60l139 -81l134 81z" />
    <glyph glyph-name="uni0312" unicode="&#x312;" 
d="M216 768c-35 -13 -55 -36 -58 -61c0 -7 7 -8 17 -12c23 -8 37 -27 37 -54c0 -36 -29 -64 -67 -64c-47 0 -77 35 -77 88c0 32 12 63 33 89c17 21 48 43 80 55z" />
    <glyph glyph-name="uni0313" unicode="&#x313;" 
d="M-6 608c0 -32 -12 -63 -33 -89c-17 -21 -48 -43 -80 -55l-35 41c35 13 55 36 58 61c0 7 -7 8 -17 12c-23 8 -37 27 -37 54c0 36 29 64 67 64c47 0 77 -35 77 -88z" />
    <glyph glyph-name="uni0326" unicode="&#x326;" 
d="M214 -139c0 -32 -12 -63 -33 -89c-17 -21 -48 -43 -80 -55l-35 41c35 13 58 36 58 61c0 7 -7 8 -17 12c-23 8 -37 27 -37 54c0 36 29 64 67 64c47 0 77 -35 77 -88z" />
    <glyph glyph-name="uni0327" unicode="&#x327;" 
d="M241 -112c0 -45 -36 -86 -103 -86c-29 0 -63 13 -83 24l26 54c19 -9 34 -15 54 -15c16 0 31 11 31 25c0 15 -12 26 -32 26c-12 0 -21 -3 -29 -5l-5 21l21 80l64 -7l-14 -41c52 -6 70 -39 70 -76z" />
    <glyph glyph-name="uni0328" unicode="&#x328;" 
d="M241 -174c-20 -11 -55 -24 -83 -24c-67 0 -103 40 -103 88c0 67 49 118 68 133l60 -35c-18 -17 -52 -50 -52 -90c0 -17 11 -33 30 -33c22 0 36 7 54 15z" />
    <glyph glyph-name="uni037E" unicode="&#x37e;" horiz-adv-x="323" 
d="M248 32c0 -81 -57 -152 -133 -178l-40 49c41 14 68 44 68 70c0 27 -65 20 -65 89c0 46 35 81 79 81c53 0 91 -46 91 -111zM234 371c0 -42 -34 -78 -77 -78s-78 36 -78 78c0 43 34 79 76 79c43 1 79 -36 79 -79z" />
    <glyph glyph-name="tonos" unicode="&#x384;" horiz-adv-x="325" 
d="M245 755l-101 -195l-62 26l69 206z" />
    <glyph glyph-name="dieresistonos" unicode="&#x385;" horiz-adv-x="513" 
d="M390 794l-101 -194l-62 26l69 206zM468 630c0 -37 -30 -69 -66 -69c-37 0 -66 32 -66 69s29 69 66 69c35 0 66 -32 66 -69zM207 630c0 -37 -29 -69 -66 -69c-36 0 -66 32 -66 69s31 69 67 69s65 -32 65 -69z" />
    <glyph glyph-name="Alphatonos" unicode="&#x386;" horiz-adv-x="587" 
d="M584 0h-126l-56 182h-224l-56 -182h-119l227 693h133zM376 278c-7 15 -77 273 -82 300h-1c-14 -51 -73 -259 -87 -300h170zM96 666l-101 -195l-62 26l69 206z" />
    <glyph glyph-name="anoteleia" unicode="&#x387;" horiz-adv-x="286" 
d="M221 276c0 -44 -35 -81 -78 -81c-44 0 -78 37 -78 81c0 45 35 81 78 81c44 0 78 -36 78 -81z" />
    <glyph glyph-name="Epsilontonos" unicode="&#x388;" horiz-adv-x="509" 
d="M479 0h-394v692h384l-15 -94h-252v-189h211v-95h-211v-216h277v-98zM14 664l-101 -195l-62 26l69 206z" />
    <glyph glyph-name="Etatonos" unicode="&#x389;" horiz-adv-x="636" 
d="M551 0h-116v320h-236v-320h-114v692h114v-278h236v278h116v-692zM14 664l-101 -195l-62 26l69 206z" />
    <glyph glyph-name="Iotatonos" unicode="&#x38a;" horiz-adv-x="288" 
d="M203 0h-118v692h118v-692zM14 665l-101 -195l-62 26l69 206z" />
    <glyph glyph-name="Omicrontonos" unicode="&#x38c;" horiz-adv-x="688" 
d="M633 345c0 -216 -104 -356 -284 -356c-197 0 -294 152 -294 357c0 228 116 356 289 356c195 0 289 -155 289 -357zM502 338c0 169 -35 275 -159 275c-116 0 -160 -94 -160 -260c0 -178 45 -277 163 -277c103 0 156 76 156 262zM55 665l-101 -195l-62 26l69 206z" />
    <glyph glyph-name="Upsilontonos" unicode="&#x38e;" horiz-adv-x="528" 
d="M543 692l-221 -413v-279h-119v280l-218 412h139l104 -217c19 -39 34 -80 37 -89c4 10 22 53 38 87l106 219h134zM-20 665l-101 -195l-62 26l69 206z" />
    <glyph glyph-name="Omegatonos" unicode="&#x38f;" horiz-adv-x="706" 
d="M651 369c0 -104 -57 -214 -135 -273h130l-20 -96h-239v85c89 59 133 190 133 290c0 115 -35 238 -167 238s-169 -114 -169 -240c0 -101 43 -229 133 -288v-85h-257l21 96h107c-79 60 -133 170 -133 273c0 193 109 333 299 333c181 0 297 -135 297 -333zM56 665l-101 -195
l-62 26l69 206z" />
    <glyph glyph-name="iotadieresistonos" unicode="&#x390;" horiz-adv-x="280" 
d="M267 1c-20 -8 -41 -12 -66 -12c-111 0 -111 100 -111 143v250c0 45 -3 84 -10 110l111 25c7 -29 11 -74 11 -120v-229c0 -68 3 -79 11 -91c6 -9 23 -14 36 -8zM268 794l-101 -194l-62 26l69 206zM346 630c0 -37 -30 -69 -66 -69c-37 0 -66 32 -66 69s29 69 66 69
c35 0 66 -32 66 -69zM85 630c0 -37 -29 -69 -66 -69c-36 0 -66 32 -66 69s31 69 67 69s65 -32 65 -69z" />
    <glyph glyph-name="Alpha" unicode="&#x391;" horiz-adv-x="587" 
d="M584 0h-126l-56 182h-224l-56 -182h-119l227 693h133zM376 278c-7 15 -77 273 -82 300h-1c-14 -51 -73 -259 -87 -300h170z" />
    <glyph glyph-name="Beta" unicode="&#x392;" horiz-adv-x="611" 
d="M556 196c0 -137 -95 -196 -270 -196h-201v692h183c103 0 139 -7 182 -34c52 -33 78 -78 78 -136c0 -74 -42 -129 -119 -151c115 -28 147 -106 147 -175zM429 207c0 49 -27 90 -65 101c-17 5 -31 6 -64 6h-101v-219h104c88 0 126 50 126 112zM407 504c0 40 -23 74 -56 86
c-14 5 -32 8 -65 8h-87v-189h96c42 0 63 3 85 26c21 22 27 51 27 69z" />
    <glyph glyph-name="Gamma" unicode="&#x393;" horiz-adv-x="429" 
d="M442 692l-15 -95h-227v-597h-116v692h358z" />
    <glyph glyph-name="uni0394" unicode="&#x394;" horiz-adv-x="608" 
d="M583 88l-18 -88h-542v81l223 612h119zM456 97l-104 324c-8 26 -41 123 -49 150h-2c-7 -24 -38 -125 -47 -151l-108 -323h310z" />
    <glyph glyph-name="Epsilon" unicode="&#x395;" horiz-adv-x="509" 
d="M479 0h-394v692h384l-15 -94h-252v-189h211v-95h-211v-216h277v-98z" />
    <glyph glyph-name="Zeta" unicode="&#x396;" horiz-adv-x="541" 
d="M496 94l-29 -94h-422v84l270 449c19 31 41 61 46 68c-7 -1 -39 -4 -75 -4h-228l26 95h406v-87l-269 -454c-13 -23 -35 -52 -40 -59c6 0 33 2 69 2h246z" />
    <glyph glyph-name="Eta" unicode="&#x397;" horiz-adv-x="636" 
d="M551 0h-116v320h-236v-320h-114v692h114v-278h236v278h116v-692z" />
    <glyph glyph-name="Theta" unicode="&#x398;" horiz-adv-x="696" 
d="M641 345c0 -204 -101 -356 -290 -356c-199 0 -298 155 -298 357c0 213 109 356 293 356c195 0 295 -154 295 -357zM510 314h-328c5 -131 43 -238 167 -238c98 0 156 70 161 238zM507 408c-10 120 -51 205 -161 205c-107 0 -154 -82 -163 -205h324z" />
    <glyph glyph-name="Iota" unicode="&#x399;" horiz-adv-x="288" 
d="M203 0h-118v692h118v-692z" />
    <glyph glyph-name="Kappa" unicode="&#x39a;" horiz-adv-x="581" 
d="M586 0h-150l-233 369l225 323h142l-240 -321zM202 0h-117v692h117v-692z" />
    <glyph glyph-name="Lambda" unicode="&#x39b;" horiz-adv-x="566" 
d="M561 0h-125l-110 385c-13 48 -37 154 -43 179h-4c-6 -25 -32 -133 -45 -180l-110 -384h-119l214 693h133z" />
    <glyph glyph-name="Mu" unicode="&#x39c;" horiz-adv-x="826" 
d="M761 0h-113l-32 429c-3 44 -5 99 -5 120c-5 -23 -14 -67 -27 -111l-126 -438h-98l-115 419c-13 46 -26 108 -30 131c0 -23 -4 -89 -7 -132l-30 -418h-113l63 692h153l106 -392c16 -58 22 -97 26 -118c3 21 12 68 25 116l109 394h153z" />
    <glyph glyph-name="Nu" unicode="&#x39d;" horiz-adv-x="639" 
d="M554 0h-121l-155 325c-37 77 -75 164 -88 205l-3 -3c5 -58 6 -124 7 -192l4 -335h-113v692h130l168 -338c32 -64 62 -146 71 -178l3 3c-3 35 -10 134 -10 197l-2 316h109v-692z" />
    <glyph glyph-name="Xi" unicode="&#x39e;" horiz-adv-x="519" 
d="M488 0h-460l18 106h442v-106zM478 692l-17 -102h-413v102h430zM433 413l-17 -101h-337l17 101h337z" />
    <glyph glyph-name="Omicron" unicode="&#x39f;" horiz-adv-x="688" 
d="M633 345c0 -216 -104 -356 -284 -356c-197 0 -294 152 -294 357c0 228 116 356 289 356c195 0 289 -155 289 -357zM502 338c0 169 -35 275 -159 275c-116 0 -160 -94 -160 -260c0 -178 45 -277 163 -277c103 0 156 76 156 262z" />
    <glyph glyph-name="Pi" unicode="&#x3a0;" horiz-adv-x="625" 
d="M540 0h-116v597h-227v-597h-113v692h456v-692z" />
    <glyph glyph-name="Rho" unicode="&#x3a1;" horiz-adv-x="565" 
d="M540 485c0 -136 -99 -221 -224 -221h-117v-264h-114v692h184c101 0 138 -10 176 -33c61 -36 95 -98 95 -174zM413 478c0 38 -9 67 -28 87c-21 22 -51 34 -96 34h-90v-243h90c85 0 124 40 124 122z" />
    <glyph glyph-name="Sigma" unicode="&#x3a3;" horiz-adv-x="504" 
d="M476 692l-30 -96h-192c-26 0 -51 3 -63 4c9 -7 30 -30 47 -53l129 -172l-153 -238c-11 -17 -26 -35 -34 -45c12 1 37 2 60 2h235l-16 -94h-418v79l194 292l-185 239l29 82h397z" />
    <glyph glyph-name="Tau" unicode="&#x3a4;" horiz-adv-x="484" 
d="M499 692l-15 -96h-174v-596h-115v596h-175v96h479z" />
    <glyph glyph-name="Upsilon" unicode="&#x3a5;" horiz-adv-x="528" 
d="M543 692l-221 -413v-279h-119v280l-218 412h139l104 -217c19 -39 34 -80 37 -89c4 10 22 53 38 87l106 219h134z" />
    <glyph glyph-name="Phi" unicode="&#x3a6;" horiz-adv-x="776" 
d="M733 348c0 -135 -90 -256 -287 -273v-75h-117v76c-203 16 -286 140 -286 274c0 140 94 260 286 273v69h117v-69c209 -16 287 -146 287 -275zM329 166v365c-116 -17 -158 -88 -158 -177s37 -170 158 -188zM602 343c0 92 -35 169 -156 188v-365c112 17 156 83 156 177z" />
    <glyph glyph-name="Chi" unicode="&#x3a7;" horiz-adv-x="550" 
d="M555 0h-138l-143 274l-138 -274h-141l212 371l-186 321h140l111 -214l109 214h136l-176 -313z" />
    <glyph glyph-name="Psi" unicode="&#x3a8;" horiz-adv-x="746" 
d="M691 420c0 -159 -101 -259 -261 -264v-156h-115v156c-161 5 -260 105 -260 264v272h113v-263c0 -86 21 -169 147 -185v448h115v-448c127 16 147 99 147 185v263h114v-272z" />
    <glyph glyph-name="uni03A9" unicode="&#x3a9;" horiz-adv-x="706" 
d="M651 369c0 -104 -57 -214 -135 -273h130l-20 -96h-239v85c89 59 133 190 133 290c0 115 -35 238 -167 238s-169 -114 -169 -240c0 -101 43 -229 133 -288v-85h-257l21 96h107c-79 60 -133 170 -133 273c0 193 109 333 299 333c181 0 297 -135 297 -333z" />
    <glyph glyph-name="Iotadieresis" unicode="&#x3aa;" horiz-adv-x="288" 
d="M203 0h-118v692h118v-692zM316 790c0 -38 -31 -70 -68 -70s-67 32 -67 70c0 39 30 70 68 70c36 0 67 -31 67 -70zM105 790c0 -38 -30 -70 -67 -70s-67 32 -67 70c0 39 30 70 67 70s67 -31 67 -70z" />
    <glyph glyph-name="Upsilondieresis" unicode="&#x3ab;" horiz-adv-x="528" 
d="M543 692l-221 -413v-279h-119v280l-218 412h139l104 -217c19 -39 34 -80 37 -89c4 10 22 53 38 87l106 219h134zM440 790c0 -38 -31 -70 -68 -70s-67 32 -67 70c0 39 30 70 68 70c36 0 67 -31 67 -70zM229 790c0 -38 -30 -70 -67 -70s-67 32 -67 70c0 39 30 70 67 70
s67 -31 67 -70z" />
    <glyph glyph-name="alphatonos" unicode="&#x3ac;" horiz-adv-x="570" 
d="M524 51l-57 -70c-36 15 -61 39 -74 72c-35 -44 -76 -63 -134 -63c-145 0 -204 127 -204 254c0 134 53 277 204 277c51 0 98 -21 127 -62c1 25 3 36 9 49h95c-8 -31 -12 -84 -12 -144v-195c0 -64 4 -89 46 -118zM373 136v242c-22 30 -58 50 -95 50
c-89 0 -104 -96 -104 -166c0 -77 7 -181 107 -181c38 0 72 24 92 55zM411 749l-101 -195l-62 26l69 206z" />
    <glyph glyph-name="epsilontonos" unicode="&#x3ad;" horiz-adv-x="510" 
d="M486 54c-60 -44 -133 -70 -221 -70c-102 0 -206 41 -206 157c0 69 47 116 105 130c-49 18 -86 52 -86 108c0 84 78 145 191 145c77 0 139 -23 200 -68l-42 -68c-44 31 -100 49 -148 49c-57 0 -86 -30 -86 -60c0 -45 33 -67 91 -67h68v-78h-63c-64 0 -105 -23 -105 -85
c0 -48 46 -72 100 -72c63 0 111 19 157 52zM406 749l-101 -195l-62 26l69 206z" />
    <glyph glyph-name="etatonos" unicode="&#x3ae;" horiz-adv-x="556" 
d="M516 49l-57 -70c-18 7 -35 16 -48 27c-32 28 -49 71 -49 123v207c0 69 -16 88 -58 88c-32 0 -78 -24 -111 -57v-367h-108v372c0 53 -5 84 -19 120l100 28c12 -23 18 -45 18 -72c54 46 101 70 155 70c78 0 132 -47 132 -140v-217c0 -64 3 -83 45 -112zM412 749l-101 -195
l-62 26l69 206z" />
    <glyph glyph-name="iotatonos" unicode="&#x3af;" horiz-adv-x="280" 
d="M267 1c-20 -8 -41 -12 -66 -12c-111 0 -111 100 -111 143v250c0 45 -3 84 -10 110l111 25c7 -29 11 -74 11 -120v-229c0 -68 3 -79 11 -91c6 -9 23 -14 36 -8zM287 749l-101 -195l-62 26l69 206z" />
    <glyph glyph-name="upsilondieresistonos" unicode="&#x3b0;" horiz-adv-x="544" 
d="M472 160c0 -103 -65 -174 -197 -174c-130 0 -190 70 -190 171v341l108 20v-345c0 -58 18 -103 86 -103s87 47 87 104v324l106 20v-358zM395 794l-101 -194l-62 26l69 206zM473 630c0 -37 -30 -69 -66 -69c-37 0 -66 32 -66 69s29 69 66 69c35 0 66 -32 66 -69zM212 630
c0 -37 -29 -69 -66 -69c-36 0 -66 32 -66 69s31 69 67 69s65 -32 65 -69z" />
    <glyph glyph-name="alpha" unicode="&#x3b1;" horiz-adv-x="570" 
d="M524 51l-57 -70c-36 15 -61 39 -74 72c-35 -44 -76 -63 -134 -63c-145 0 -204 127 -204 254c0 134 53 277 204 277c51 0 98 -21 127 -62c1 25 3 36 9 49h95c-8 -31 -12 -84 -12 -144v-195c0 -64 4 -89 46 -118zM373 136v242c-22 30 -58 50 -95 50
c-89 0 -104 -96 -104 -166c0 -77 7 -181 107 -181c38 0 72 24 92 55z" />
    <glyph glyph-name="beta" unicode="&#x3b2;" horiz-adv-x="582" 
d="M538 197c0 -98 -61 -210 -223 -210c-46 0 -95 24 -130 51c2 -10 3 -53 3 -57v-169l-106 -27v692c0 153 63 238 213 238c118 0 198 -77 198 -176c0 -71 -37 -128 -104 -150c95 -23 149 -101 149 -192zM419 195c0 93 -42 143 -158 143h-15l15 79h8c85 0 115 46 115 114
c0 60 -28 103 -94 103c-73 0 -102 -50 -102 -146v-361c27 -30 80 -56 115 -56c80 0 116 57 116 124z" />
    <glyph glyph-name="gamma" unicode="&#x3b3;" horiz-adv-x="497" 
d="M484 506l-174 -503v-191l-109 -27v218l-125 386c-5 15 -14 38 -37 38c-6 0 -12 -1 -18 -4l-23 70c23 13 55 24 83 24c58 0 80 -32 91 -72l58 -203c6 -22 23 -96 27 -114c3 15 18 78 30 118l79 260h118z" />
    <glyph glyph-name="delta" unicode="&#x3b4;" horiz-adv-x="544" 
d="M495 251c0 -154 -80 -264 -224 -264c-136 0 -222 103 -222 265c0 150 77 242 200 247c-51 43 -96 77 -145 102l15 91h342l-15 -90h-173c117 -77 222 -196 222 -351zM374 246c0 110 -28 172 -103 172c-79 0 -101 -69 -101 -163c0 -110 23 -186 104 -186
c64 0 100 53 100 177z" />
    <glyph glyph-name="epsilon" unicode="&#x3b5;" horiz-adv-x="510" 
d="M481 54c-60 -44 -133 -70 -221 -70c-102 0 -206 41 -206 157c0 69 47 116 105 130c-49 18 -86 52 -86 108c0 84 78 145 191 145c77 0 139 -23 200 -68l-42 -68c-44 31 -100 49 -148 49c-57 0 -86 -30 -86 -60c0 -45 33 -67 91 -67h68v-78h-63c-64 0 -105 -23 -105 -85
c0 -48 46 -72 100 -72c63 0 111 19 157 52z" />
    <glyph glyph-name="zeta" unicode="&#x3b6;" horiz-adv-x="467" 
d="M464 692l-14 -89c-171 -111 -274 -265 -274 -403c0 -52 25 -89 96 -89h45c97 0 136 -61 136 -137c0 -66 -39 -126 -82 -182l-62 41c24 34 41 65 41 105c0 33 -15 62 -62 62h-46c-116 0 -187 72 -187 177c0 171 120 321 257 420h-231l15 95h368z" />
    <glyph glyph-name="eta" unicode="&#x3b7;" horiz-adv-x="556" 
d="M516 49l-57 -70c-18 7 -35 16 -48 27c-32 28 -49 71 -49 123v207c0 69 -16 88 -58 88c-32 0 -78 -24 -111 -57v-367h-108v372c0 53 -5 84 -19 120l100 28c12 -23 18 -45 18 -72c54 46 101 70 155 70c78 0 132 -47 132 -140v-217c0 -64 3 -83 45 -112z" />
    <glyph glyph-name="theta" unicode="&#x3b8;" horiz-adv-x="557" 
d="M499 343c0 -173 -41 -354 -221 -354c-183 0 -220 184 -220 356c0 171 42 357 220 357c187 0 221 -184 221 -359zM381 319h-205c1 -108 7 -251 103 -251c100 0 102 156 102 251zM380 398c-2 104 -11 225 -102 225c-93 0 -100 -135 -102 -225h204z" />
    <glyph glyph-name="iota" unicode="&#x3b9;" horiz-adv-x="280" 
d="M262 1c-20 -8 -41 -12 -66 -12c-111 0 -111 100 -111 143v250c0 45 -3 84 -10 110l111 25c7 -29 11 -74 11 -120v-229c0 -68 3 -79 11 -91c6 -9 23 -14 36 -8z" />
    <glyph glyph-name="kappa" unicode="&#x3ba;" horiz-adv-x="514" 
d="M519 0h-133l-185 277l157 229h134l-180 -223zM194 0h-109v376c0 50 -3 90 -10 116l109 25c6 -27 10 -74 10 -115v-402z" />
    <glyph glyph-name="lambda" unicode="&#x3bb;" horiz-adv-x="504" 
d="M504 1c-21 -8 -39 -14 -64 -14c-56 0 -87 29 -99 75l-61 233c-10 37 -22 90 -26 110l-2 -1c-5 -25 -18 -78 -27 -107l-96 -308l-112 19l119 342c14 41 35 103 50 157l37 -3c-13 52 -26 154 -104 154c-20 0 -37 -5 -51 -10l-12 65c28 13 57 21 88 21
c99 0 130 -72 157 -162l145 -483c5 -18 10 -22 26 -22c4 0 10 0 14 1z" />
    <glyph glyph-name="uni03BC" unicode="&#x3bc;" horiz-adv-x="551" 
d="M497 37l-76 -51c-21 16 -35 34 -44 63c-37 -42 -85 -63 -144 -63c-15 0 -32 3 -46 17c1 -10 3 -31 3 -45v-146l-110 -27v714l108 21v-349c0 -35 3 -60 18 -77c12 -13 31 -22 53 -22c40 0 84 28 100 64v360l107 22v-384c0 -63 25 -92 31 -97z" />
    <glyph glyph-name="nu" unicode="&#x3bd;" horiz-adv-x="483" 
d="M473 506l-184 -508h-97l-182 504l113 16l88 -273c12 -37 25 -88 31 -113h2c2 12 13 66 30 117l84 257h115z" />
    <glyph glyph-name="xi" unicode="&#x3be;" horiz-adv-x="491" 
d="M480 692l-15 -95h-156c-63 0 -101 -57 -101 -104c0 -51 41 -87 100 -87h108l-14 -83h-86c-95 0 -141 -58 -141 -123c0 -52 25 -89 102 -89h58c97 0 136 -61 136 -137c0 -66 -40 -126 -83 -182l-62 41c24 34 41 65 41 105c0 33 -14 62 -61 62h-59c-117 0 -193 72 -193 177
c0 90 60 169 137 187c-53 16 -100 64 -100 124c0 44 31 96 66 109h-90l16 95h397z" />
    <glyph glyph-name="omicron" unicode="&#x3bf;" horiz-adv-x="547" 
d="M497 251c0 -163 -87 -264 -224 -264s-223 103 -223 265s87 266 221 266c144 0 226 -107 226 -267zM376 249c0 143 -40 186 -104 186c-70 0 -100 -53 -100 -176c0 -147 37 -190 103 -190c65 0 101 53 101 180z" />
    <glyph glyph-name="pi" unicode="&#x3c0;" horiz-adv-x="561" 
d="M540 506l-30 -80h-45v-264c0 -64 4 -83 46 -112l-57 -70c-18 7 -35 16 -48 27c-32 28 -50 71 -50 123v296h-152v-426h-109v426h-60v80h505z" />
    <glyph glyph-name="rho" unicode="&#x3c1;" horiz-adv-x="534" 
d="M485 259c0 -129 -51 -269 -201 -269c-43 0 -85 14 -120 41c2 -14 2 -33 2 -50v-169l-109 -27v489c0 153 64 244 210 244c129 0 218 -93 218 -259zM367 253c0 132 -36 182 -101 182c-66 0 -100 -46 -100 -149v-164c26 -25 60 -45 93 -45c75 0 108 56 108 176z" />
    <glyph glyph-name="sigma1" unicode="&#x3c2;" horiz-adv-x="466" 
d="M432 -32c0 -66 -44 -125 -83 -175l-62 41c27 37 41 70 41 102c0 22 -10 40 -31 50c-11 5 -62 19 -73 23c-112 38 -169 123 -169 242c0 184 110 268 223 268c55 0 95 -13 140 -55l-55 -73c-30 27 -56 39 -85 39c-35 0 -64 -18 -80 -51c-15 -31 -21 -76 -21 -139
c0 -69 50 -116 104 -134s90 -31 107 -43c29 -21 44 -53 44 -95z" />
    <glyph glyph-name="sigma" unicode="&#x3c3;" horiz-adv-x="557" 
d="M548 506l-29 -78h-85c42 -43 62 -104 62 -177c0 -154 -80 -264 -224 -264c-136 0 -222 103 -222 265s86 254 221 254h277zM375 249c0 115 -26 179 -103 179c-78 0 -101 -72 -101 -169c0 -114 22 -190 104 -190c65 0 100 53 100 180z" />
    <glyph glyph-name="tau" unicode="&#x3c4;" horiz-adv-x="414" 
d="M399 506l-29 -79h-118v-281c0 -63 14 -81 62 -81c15 0 29 3 48 10l13 -66c-33 -15 -64 -22 -98 -22c-92 0 -133 52 -133 138v302h-129v79h384z" />
    <glyph glyph-name="upsilon" unicode="&#x3c5;" horiz-adv-x="544" 
d="M467 160c0 -103 -65 -174 -197 -174c-130 0 -190 70 -190 171v341l108 20v-345c0 -58 18 -103 86 -103s87 47 87 104v324l106 20v-358z" />
    <glyph glyph-name="phi" unicode="&#x3c6;" horiz-adv-x="688" 
d="M639 251c0 -134 -78 -248 -241 -263v-176l-108 -27v203c-149 14 -241 116 -241 266c0 132 76 236 196 261v-82c-53 -25 -76 -83 -76 -173c0 -100 34 -170 121 -188v441c23 3 50 5 74 5c166 0 275 -100 275 -267zM519 249c0 100 -31 171 -121 185v-362
c82 17 121 86 121 177z" />
    <glyph glyph-name="chi" unicode="&#x3c7;" horiz-adv-x="487" 
d="M492 0h-138c-18 29 -100 171 -110 189c-19 -38 -91 -161 -110 -189h-139l188 274l-146 217l119 24c23 -38 68 -117 92 -164c14 33 65 134 80 155h128l-149 -230z" />
    <glyph glyph-name="psi" unicode="&#x3c8;" horiz-adv-x="679" 
d="M609 226c0 -146 -82 -229 -215 -235v-179l-108 -27v206c-124 6 -217 77 -217 239v268l108 20v-299c0 -72 31 -132 109 -143v522c0 51 -4 85 -11 114l111 24c6 -32 8 -62 8 -105v-555c71 10 109 61 109 137v285l106 20v-292z" />
    <glyph glyph-name="omega" unicode="&#x3c9;" horiz-adv-x="693" 
d="M644 200c0 -116 -57 -212 -175 -212c-58 0 -98 32 -122 81c-25 -51 -65 -81 -123 -81c-118 0 -175 96 -175 212c0 138 54 242 136 322l62 -36c-55 -76 -79 -156 -79 -258c0 -101 31 -144 69 -144c29 0 55 33 55 98v196h109v-196c0 -65 23 -98 55 -98c38 0 69 43 69 144
c0 102 -25 184 -76 256l59 40c82 -80 136 -186 136 -324z" />
    <glyph glyph-name="iotadieresis" unicode="&#x3ca;" horiz-adv-x="280" 
d="M262 1c-20 -8 -41 -12 -66 -12c-111 0 -111 100 -111 143v250c0 45 -3 84 -10 110l111 25c7 -29 11 -74 11 -120v-229c0 -68 3 -79 11 -91c6 -9 23 -14 36 -8zM114 630c0 -38 -30 -70 -67 -70s-67 32 -67 70c0 39 30 70 67 70s67 -31 67 -70zM300 630
c0 -38 -30 -70 -67 -70s-67 32 -67 70c0 39 30 70 67 70s67 -31 67 -70z" />
    <glyph glyph-name="upsilondieresis" unicode="&#x3cb;" horiz-adv-x="544" 
d="M467 160c0 -103 -65 -174 -197 -174c-130 0 -190 70 -190 171v341l108 20v-345c0 -58 18 -103 86 -103s87 47 87 104v324l106 20v-358zM444 630c0 -38 -31 -70 -68 -70s-67 32 -67 70c0 39 30 70 68 70c36 0 67 -31 67 -70zM235 630c0 -38 -30 -70 -67 -70s-67 32 -67 70
c0 39 30 70 67 70s67 -31 67 -70z" />
    <glyph glyph-name="omicrontonos" unicode="&#x3cc;" horiz-adv-x="547" 
d="M497 251c0 -163 -87 -264 -224 -264s-223 103 -223 265s87 266 221 266c144 0 226 -107 226 -267zM376 249c0 143 -40 186 -104 186c-70 0 -100 -53 -100 -176c0 -147 37 -190 103 -190c65 0 101 53 101 180zM399 749l-101 -195l-62 26l69 206z" />
    <glyph glyph-name="upsilontonos" unicode="&#x3cd;" horiz-adv-x="544" 
d="M472 160c0 -103 -65 -174 -197 -174c-130 0 -190 70 -190 171v341l108 20v-345c0 -58 18 -103 86 -103s87 47 87 104v324l106 20v-358zM406 749l-101 -195l-62 26l69 206z" />
    <glyph glyph-name="omegatonos" unicode="&#x3ce;" horiz-adv-x="693" 
d="M649 200c0 -116 -57 -212 -175 -212c-58 0 -98 32 -122 81c-25 -51 -65 -81 -123 -81c-118 0 -175 96 -175 212c0 138 54 242 136 322l62 -36c-55 -76 -79 -156 -79 -258c0 -101 31 -144 69 -144c29 0 55 33 55 98v196h109v-196c0 -65 23 -98 55 -98c38 0 69 43 69 144
c0 102 -25 184 -76 256l59 40c82 -80 136 -186 136 -324zM481 749l-101 -195l-62 26l69 206z" />
    <glyph glyph-name="uni03D0" unicode="&#x3d0;" horiz-adv-x="582" 
d="M538 197c0 -98 -61 -210 -223 -210c-49 0 -101 22 -132 61c-5 -27 -8 -38 -14 -48h-100c9 24 13 46 13 114v363c0 153 63 238 213 238c118 0 198 -77 198 -176c0 -71 -37 -128 -104 -150c95 -23 149 -101 149 -192zM419 195c0 93 -42 143 -158 143h-15l15 79h8
c85 0 115 46 115 114c0 60 -28 103 -94 103c-73 0 -99 -50 -99 -146v-361c27 -30 77 -56 112 -56c80 0 116 57 116 124z" />
    <glyph glyph-name="theta1" unicode="&#x3d1;" horiz-adv-x="568" 
d="M62 187c0 48 -10 85 -12 92l102 15c3 -8 13 -50 13 -108c0 -75 38 -117 98 -117c83 0 127 76 134 227c-152 22 -342 71 -342 233c0 108 92 186 196 186c176 0 267 -154 267 -357c0 -258 -96 -371 -253 -371c-115 0 -203 64 -203 200zM164 521c0 -103 97 -125 231 -145
c0 101 -27 256 -136 256c-49 0 -95 -34 -95 -111z" />
    <glyph glyph-name="Upsilon1" unicode="&#x3d2;" horiz-adv-x="500" 
d="M309 237v-237h-119v237c0 156 -58 282 -205 372l64 90c103 -61 174 -143 204 -252c33 109 101 191 204 252l58 -85c-147 -90 -206 -221 -206 -377z" />
    <glyph glyph-name="uni03D3" unicode="&#x3d3;" horiz-adv-x="500" 
d="M309 237v-237h-119v237c0 156 -58 282 -205 372l64 90c103 -61 174 -143 204 -252c33 109 101 191 204 252l58 -85c-147 -90 -206 -221 -206 -377zM-69 665l-101 -195l-62 26l69 206z" />
    <glyph glyph-name="uni03D4" unicode="&#x3d4;" horiz-adv-x="500" 
d="M309 237v-237h-119v237c0 156 -58 282 -205 372l64 90c103 -61 174 -143 204 -252c33 109 101 191 204 252l58 -85c-147 -90 -206 -221 -206 -377zM422 816c0 -38 -31 -70 -68 -70s-67 32 -67 70c0 39 30 70 68 70c36 0 67 -31 67 -70zM212 816c0 -38 -30 -70 -67 -70
s-67 32 -67 70c0 39 30 70 67 70s67 -31 67 -70z" />
    <glyph glyph-name="phi1" unicode="&#x3d5;" horiz-adv-x="683" 
d="M634 251c0 -133 -77 -246 -239 -262v-181l-108 -24v205c-148 14 -238 114 -238 263c0 154 92 250 238 263v83c0 51 -3 85 -10 114l110 24c6 -32 8 -62 8 -105v-116c146 -13 239 -109 239 -264zM287 74v358c-91 -16 -118 -87 -118 -178c0 -96 34 -162 118 -180zM513 249
c0 99 -30 168 -118 183v-358c81 18 118 84 118 175z" />
    <glyph glyph-name="uni0400" unicode="&#x400;" horiz-adv-x="509" 
d="M479 0h-394v692h384l-15 -94h-252v-189h211v-95h-211v-216h277v-98zM384 783l-34 -63l-220 102l50 93z" />
    <glyph glyph-name="uni0401" unicode="&#x401;" horiz-adv-x="509" 
d="M479 0h-394v692h384l-15 -94h-252v-189h211v-95h-211v-216h277v-98zM233 790c0 -38 -30 -70 -67 -70s-67 32 -67 70c0 39 30 70 67 70s67 -31 67 -70zM442 790c0 -38 -30 -70 -67 -70s-67 32 -67 70c0 39 30 70 67 70s67 -31 67 -70z" />
    <glyph glyph-name="uni0402" unicode="&#x402;" horiz-adv-x="669" 
d="M475 692l-14 -96h-186v-192c54 25 92 33 135 33c40 0 90 -7 132 -46c58 -54 62 -132 62 -178c0 -44 -5 -120 -55 -175c-31 -34 -70 -50 -121 -50c-27 0 -59 5 -100 22l20 83c24 -15 46 -18 64 -18s36 3 51 24c19 28 19 75 19 111c0 38 -1 79 -23 106
c-21 26 -53 31 -77 31c-21 0 -59 -3 -107 -27v-320h-115v596h-165v96h480z" />
    <glyph glyph-name="uni0403" unicode="&#x403;" horiz-adv-x="429" 
d="M442 692l-15 -95h-227v-597h-116v692h358zM402 824l-220 -102l-34 63l204 132z" />
    <glyph glyph-name="uni0404" unicode="&#x404;" horiz-adv-x="601" 
d="M407 403v-90h-224v-9c0 -48 3 -131 45 -179c35 -39 83 -45 120 -45c36 0 92 5 149 54l49 -74c-25 -22 -49 -36 -84 -49c-41 -15 -74 -21 -120 -21c-58 0 -140 8 -206 78c-74 79 -81 190 -81 265c0 83 7 205 95 292c50 49 116 77 201 77c82 0 142 -26 185 -57l-51 -78
c-45 36 -93 45 -135 45c-29 0 -77 -4 -115 -42c-46 -46 -50 -112 -50 -158v-9h222z" />
    <glyph glyph-name="uni0405" unicode="&#x405;" horiz-adv-x="597" 
d="M547 209c0 -115 -93 -222 -270 -222c-79 0 -159 21 -227 62l44 88c62 -36 117 -57 187 -57c85 0 136 41 136 110c0 51 -32 83 -103 103l-74 21c-63 18 -108 44 -134 83c-19 28 -29 61 -29 101c0 122 96 205 235 205c79 0 158 -23 219 -66l-52 -81c-64 38 -108 53 -163 53
c-68 0 -113 -37 -113 -94c0 -43 24 -65 92 -85l82 -24c100 -29 170 -93 170 -197z" />
    <glyph glyph-name="uni0406" unicode="&#x406;" horiz-adv-x="288" 
d="M203 0h-118v692h118v-692z" />
    <glyph glyph-name="uni0407" unicode="&#x407;" horiz-adv-x="288" 
d="M203 0h-118v692h118v-692zM106 791c0 -38 -30 -70 -67 -70s-67 32 -67 70c0 39 30 70 67 70s67 -31 67 -70zM315 791c0 -38 -30 -70 -67 -70s-67 32 -67 70c0 39 30 70 67 70s67 -31 67 -70z" />
    <glyph glyph-name="uni0408" unicode="&#x408;" horiz-adv-x="293" 
d="M208 128c0 -114 -11 -152 -41 -193c-29 -40 -74 -69 -117 -85l-54 61c36 20 67 51 80 78c12 25 16 54 16 129v574h116v-564z" />
    <glyph glyph-name="uni0409" unicode="&#x409;" horiz-adv-x="911" 
d="M404 0v598h-147l-5 -112c-1 -24 -8 -166 -24 -287c-6 -44 -15 -110 -59 -154c-35 -34 -82 -45 -122 -50l-31 -4l-21 81l20 5c22 6 44 16 61 32c43 40 48 105 56 184c4 41 13 132 17 286l3 113h367v-278h96c48 0 121 -2 177 -46c42 -33 74 -89 74 -162
c0 -60 -22 -110 -53 -141c-57 -57 -149 -65 -208 -65h-201zM519 94h75c36 0 83 3 113 32c18 18 31 48 31 82c0 29 -10 61 -30 81c-28 28 -65 31 -98 31h-91v-226z" />
    <glyph glyph-name="uni040A" unicode="&#x40a;" horiz-adv-x="943" 
d="M436 0v320h-236v-320h-115v692h115v-278h236v278h115v-278h96c48 0 121 -2 177 -46c42 -33 74 -89 74 -162c0 -60 -22 -110 -53 -141c-57 -57 -149 -65 -208 -65h-201zM551 94h75c36 0 83 3 113 32c18 18 31 48 31 82c0 29 -10 61 -30 81c-28 28 -65 31 -98 31h-91v-226z
" />
    <glyph glyph-name="uni040B" unicode="&#x40b;" horiz-adv-x="663" 
d="M476 692l-15 -96h-186v-193c62 29 112 34 143 34c83 0 123 -34 135 -45c20 -19 45 -55 45 -120v-272h-115v241c0 18 -1 56 -25 81c-14 15 -39 25 -71 25s-76 -11 -112 -27v-320h-115v596h-165v96h481z" />
    <glyph glyph-name="uni040C" unicode="&#x40c;" horiz-adv-x="620" 
d="M560 701l22 -79l-32 -8c-23 -5 -31 -9 -39 -17c-10 -10 -17 -29 -21 -45l-18 -72c-10 -42 -18 -63 -41 -84c-13 -12 -30 -22 -49 -28v-2c14 -5 29 -12 43 -25c26 -24 36 -49 44 -79l31 -111c7 -26 14 -41 23 -49c8 -8 27 -17 42 -21l30 -9l-21 -81l-38 4
c-43 4 -84 13 -110 39c-20 20 -27 43 -35 81l-25 115c-5 21 -13 51 -32 68c-21 19 -49 21 -68 21h-66v-319h-115v692h115v-279h76c22 0 49 2 70 22c18 18 23 45 28 65l19 84c5 23 13 56 37 79c19 19 37 24 82 31zM464 822l-220 -102l-34 63l204 132z" />
    <glyph glyph-name="uni040D" unicode="&#x40d;" horiz-adv-x="655" 
d="M570 0h-115v397c0 34 3 99 6 140c-15 -44 -32 -83 -50 -120l-207 -417h-119v692h115v-401c0 -39 -4 -98 -7 -132c17 50 33 85 53 126l200 407h124v-692zM450 783l-34 -63l-220 102l50 93z" />
    <glyph glyph-name="uni040E" unicode="&#x40e;" horiz-adv-x="529" 
d="M123 692l112 -294c17 -45 28 -74 41 -124c20 80 31 105 44 143l93 275h121l-188 -523c-24 -68 -42 -115 -72 -143c-38 -35 -100 -45 -120 -48l-29 -4l-21 84l19 5c14 4 53 15 76 39c16 17 27 42 37 72l11 32l-56 -7l-196 493h128zM376 877l57 -32c-8 -22 -22 -44 -36 -59
c-25 -26 -63 -44 -119 -44c-36 0 -85 8 -122 47c-15 15 -27 36 -35 56l57 31c10 -19 26 -33 39 -41c19 -12 39 -15 60 -15c22 0 41 3 60 15c8 5 26 18 39 42z" />
    <glyph glyph-name="uni040F" unicode="&#x40f;" horiz-adv-x="625" 
d="M85 692h115v-598h225v598h115v-692h-173v-176h-108v176h-174v692z" />
    <glyph glyph-name="uni0410" unicode="&#x410;" horiz-adv-x="587" 
d="M584 0h-126l-56 182h-224l-56 -182h-119l227 693h133zM376 278c-7 15 -77 273 -82 300h-1c-14 -51 -73 -259 -87 -300h170z" />
    <glyph glyph-name="uni0411" unicode="&#x411;" horiz-adv-x="609" 
d="M85 692h416l-15 -94h-286v-184h96c52 0 140 0 202 -60c49 -48 56 -113 56 -152s-6 -94 -49 -138c-57 -59 -147 -64 -214 -64h-206v692zM200 94h98c52 0 82 16 98 31c26 25 30 60 30 83c0 43 -15 68 -30 82c-27 26 -67 30 -98 30h-98v-226z" />
    <glyph glyph-name="uni0412" unicode="&#x412;" horiz-adv-x="611" 
d="M556 196c0 -137 -95 -196 -270 -196h-201v692h183c103 0 139 -7 182 -34c52 -33 78 -78 78 -136c0 -74 -42 -129 -119 -151c115 -28 147 -106 147 -175zM429 207c0 49 -27 90 -65 101c-17 5 -31 6 -64 6h-101v-219h104c88 0 126 50 126 112zM407 504c0 40 -23 74 -56 86
c-14 5 -32 8 -65 8h-87v-189h96c42 0 63 3 85 26c21 22 27 51 27 69z" />
    <glyph glyph-name="uni0413" unicode="&#x413;" horiz-adv-x="429" 
d="M442 692l-15 -95h-227v-597h-116v692h358z" />
    <glyph glyph-name="uni0414" unicode="&#x414;" horiz-adv-x="646" 
d="M545 692v-598h54v-269h-108v175h-373v-175h-108v269h45c43 85 71 167 89 252c18 84 25 173 29 267l3 79h369zM272 600l-5 -80c-7 -113 -21 -183 -30 -221c-10 -41 -32 -117 -78 -205h271v506h-158z" />
    <glyph glyph-name="uni0415" unicode="&#x415;" horiz-adv-x="509" 
d="M479 0h-394v692h384l-15 -94h-252v-189h211v-95h-211v-216h277v-98z" />
    <glyph glyph-name="uni0416" unicode="&#x416;" horiz-adv-x="901" 
d="M845 702l23 -79l-33 -8c-13 -3 -28 -10 -38 -19c-10 -10 -14 -20 -21 -45l-21 -78c-6 -21 -15 -54 -39 -78c-12 -12 -29 -22 -46 -28v-2c12 -4 28 -11 43 -26c25 -24 35 -53 42 -77l30 -107c5 -19 11 -40 25 -54c12 -12 35 -20 52 -24l19 -5l-21 -81l-46 5
c-40 4 -72 9 -98 35c-23 23 -33 53 -41 93l-21 99c-5 26 -12 57 -31 75c-22 21 -51 21 -71 21h-44v-319h-115v319h-44c-20 0 -49 0 -71 -21c-19 -18 -26 -49 -31 -75l-21 -99c-8 -40 -18 -70 -41 -93c-26 -26 -58 -31 -98 -35l-46 -5l-21 81l19 5c17 4 40 12 52 24
c14 14 20 35 25 54l30 107c7 24 17 53 42 77c15 15 31 22 43 26v2c-17 6 -34 16 -46 28c-24 24 -33 57 -39 78l-21 78c-8 28 -13 37 -21 45c-10 9 -25 16 -38 19l-33 8l23 79l38 -6c36 -6 67 -8 94 -35c17 -16 25 -36 32 -68l21 -93c5 -20 12 -49 30 -66
c13 -12 35 -21 64 -21h58v279h115v-279h58c29 0 51 9 64 21c18 17 25 46 30 66l21 93c7 32 15 52 32 68c27 27 58 29 94 35z" />
    <glyph glyph-name="uni0417" unicode="&#x417;" horiz-adv-x="562" 
d="M229 313h-63v88h70c47 0 73 14 88 27c18 16 31 45 31 80c0 37 -15 61 -29 74c-28 28 -68 30 -89 30c-26 0 -52 -4 -77 -15c-16 -7 -35 -18 -51 -31l-54 76c28 20 55 33 85 43c42 14 79 17 116 17c49 0 104 -6 153 -41c44 -32 71 -78 71 -143c0 -42 -10 -79 -44 -112
c-19 -19 -45 -34 -72 -42c33 -6 72 -22 98 -48c22 -22 45 -59 45 -117c0 -57 -23 -107 -57 -141c-58 -59 -138 -68 -200 -68c-39 0 -89 4 -137 22c-26 10 -50 23 -78 42l53 78c56 -42 110 -52 156 -52c35 0 70 5 98 32s33 63 33 90c0 24 -4 56 -31 81c-32 29 -78 30 -115 30
z" />
    <glyph glyph-name="uni0418" unicode="&#x418;" horiz-adv-x="655" 
d="M570 0h-115v397c0 34 3 99 6 140c-15 -44 -32 -83 -50 -120l-207 -417h-119v692h115v-401c0 -39 -4 -98 -7 -132c17 50 33 85 53 126l200 407h124v-692z" />
    <glyph glyph-name="uni0419" unicode="&#x419;" horiz-adv-x="655" 
d="M570 0h-115v397c0 34 3 99 6 140c-15 -44 -32 -83 -50 -120l-207 -417h-119v692h115v-401c0 -39 -4 -98 -7 -132c17 50 33 85 53 126l200 407h124v-692zM427 873l57 -32c-8 -22 -22 -44 -36 -59c-25 -26 -63 -44 -119 -44c-36 0 -85 8 -122 47c-15 15 -27 36 -35 56
l57 31c10 -19 26 -33 39 -41c19 -12 39 -15 60 -15c22 0 41 3 60 15c8 5 26 18 39 42z" />
    <glyph glyph-name="uni041A" unicode="&#x41a;" horiz-adv-x="620" 
d="M560 701l22 -79l-32 -8c-23 -5 -31 -9 -39 -17c-10 -10 -17 -29 -21 -45l-18 -72c-10 -42 -18 -63 -41 -84c-13 -12 -30 -22 -49 -28v-2c14 -5 29 -12 43 -25c26 -24 36 -49 44 -79l31 -111c7 -26 14 -41 23 -49c8 -8 27 -17 42 -21l30 -9l-21 -81l-38 4
c-43 4 -84 13 -110 39c-20 20 -27 43 -35 81l-25 115c-5 21 -13 51 -32 68c-21 19 -49 21 -68 21h-66v-319h-115v692h115v-279h76c22 0 49 2 70 22c18 18 23 45 28 65l19 84c5 23 13 56 37 79c19 19 37 24 82 31z" />
    <glyph glyph-name="uni041B" unicode="&#x41b;" horiz-adv-x="604" 
d="M257 598l-5 -112c-1 -24 -8 -166 -24 -287c-6 -44 -15 -110 -59 -154c-35 -34 -82 -45 -122 -50l-31 -4l-21 81l20 5c22 6 44 16 61 32c37 35 46 82 56 184c4 41 13 132 17 286l3 113h367v-692h-115v598h-147z" />
    <glyph glyph-name="uni041C" unicode="&#x41c;" horiz-adv-x="826" 
d="M761 0h-113l-32 429c-3 44 -5 99 -5 120c-5 -23 -14 -67 -27 -111l-126 -438h-98l-115 419c-13 46 -26 108 -30 131c0 -23 -4 -89 -7 -132l-30 -418h-113l63 692h153l106 -392c16 -58 22 -97 26 -118c3 21 12 68 25 116l109 394h153z" />
    <glyph glyph-name="uni041D" unicode="&#x41d;" horiz-adv-x="636" 
d="M551 0h-116v320h-236v-320h-114v692h114v-278h236v278h116v-692z" />
    <glyph glyph-name="uni041E" unicode="&#x41e;" horiz-adv-x="688" 
d="M633 345c0 -216 -104 -356 -284 -356c-197 0 -294 152 -294 357c0 228 116 356 289 356c195 0 289 -155 289 -357zM502 338c0 169 -35 275 -159 275c-116 0 -160 -94 -160 -260c0 -178 45 -277 163 -277c103 0 156 76 156 262z" />
    <glyph glyph-name="uni041F" unicode="&#x41f;" horiz-adv-x="616" 
d="M531 0h-115v598h-216v-598h-115v692h446v-692z" />
    <glyph glyph-name="uni0420" unicode="&#x420;" horiz-adv-x="565" 
d="M540 485c0 -136 -99 -221 -224 -221h-117v-264h-114v692h184c101 0 138 -10 176 -33c61 -36 95 -98 95 -174zM413 478c0 38 -9 67 -28 87c-21 22 -51 34 -96 34h-90v-243h90c85 0 124 40 124 122z" />
    <glyph glyph-name="uni0421" unicode="&#x421;" horiz-adv-x="577" 
d="M542 50c-54 -41 -115 -61 -189 -61c-92 0 -165 35 -219 100c-52 63 -79 147 -79 247c0 83 15 152 46 210c52 99 147 159 255 159c67 0 131 -20 172 -54l-53 -76c-37 27 -75 39 -118 39c-59 0 -108 -30 -138 -83c-24 -42 -36 -100 -36 -182c0 -85 9 -133 27 -172
c30 -66 87 -98 154 -98c49 0 85 13 124 44z" />
    <glyph glyph-name="uni0422" unicode="&#x422;" horiz-adv-x="484" 
d="M499 692l-15 -96h-174v-596h-115v596h-175v96h479z" />
    <glyph glyph-name="uni0423" unicode="&#x423;" horiz-adv-x="529" 
d="M123 692l112 -294c17 -45 28 -74 41 -124c20 80 31 105 44 143l93 275h121l-188 -523c-24 -68 -42 -115 -72 -143c-38 -35 -100 -45 -120 -48l-29 -4l-21 84l19 5c14 4 53 15 76 39c16 17 27 42 37 72l11 32l-56 -7l-196 493h128z" />
    <glyph glyph-name="uni0424" unicode="&#x424;" horiz-adv-x="759" 
d="M437 0h-115v106h-10c-40 0 -127 4 -190 69c-30 30 -67 88 -67 191c0 99 32 163 69 199c64 63 155 65 189 65h9v103h115v-103h9c34 0 125 -2 189 -65c37 -36 69 -100 69 -199c0 -103 -37 -161 -67 -191c-63 -65 -150 -69 -190 -69h-10v-106zM432 550v-364h13
c23 0 65 2 97 35c38 39 40 103 40 140c0 49 -4 118 -41 155c-29 29 -68 34 -96 34h-13zM327 550h-13c-28 0 -67 -5 -96 -34c-37 -37 -41 -106 -41 -155c0 -37 2 -101 40 -140c32 -33 74 -35 97 -35h13v364z" />
    <glyph glyph-name="uni0425" unicode="&#x425;" horiz-adv-x="550" 
d="M555 0h-138l-143 274l-138 -274h-141l212 371l-186 321h140l111 -214l109 214h136l-176 -313z" />
    <glyph glyph-name="uni0426" unicode="&#x426;" horiz-adv-x="641" 
d="M85 692h115v-598h225v598h115v-598h54v-270h-108v176h-401v692z" />
    <glyph glyph-name="uni0427" unicode="&#x427;" horiz-adv-x="590" 
d="M505 0h-115v297c-52 -25 -102 -32 -149 -32c-44 0 -97 7 -138 48c-38 38 -43 82 -43 122v257h115v-225c0 -27 1 -61 24 -85c10 -11 33 -27 79 -27c13 0 58 1 112 24v313h115v-692z" />
    <glyph glyph-name="uni0428" unicode="&#x428;" horiz-adv-x="895" 
d="M200 692v-598h190v598h115v-598h190v598h115v-692h-725v692h115z" />
    <glyph glyph-name="uni0429" unicode="&#x429;" horiz-adv-x="895" 
d="M200 692v-598h190v598h115v-598h190v598h115v-598h54v-270h-108v176h-671v692h115z" />
    <glyph glyph-name="uni042A" unicode="&#x42a;" horiz-adv-x="711" 
d="M204 0v598h-199v94h314v-278h96c48 0 121 -2 177 -46c42 -33 74 -89 74 -162c0 -60 -22 -110 -53 -141c-57 -57 -149 -65 -208 -65h-201zM319 94h75c36 0 83 3 113 32c18 18 31 48 31 82c0 29 -10 61 -30 81c-28 28 -65 31 -98 31h-91v-226z" />
    <glyph glyph-name="uni042B" unicode="&#x42b;" horiz-adv-x="836" 
d="M85 0v692h115v-278h96c48 0 121 -2 177 -46c42 -33 74 -89 74 -162c0 -60 -22 -110 -53 -141c-57 -57 -149 -65 -208 -65h-201zM200 94h75c36 0 83 3 113 32c18 18 31 48 31 82c0 29 -10 61 -30 81c-28 28 -65 31 -98 31h-91v-226zM751 0h-118v692h118v-692z" />
    <glyph glyph-name="uni042C" unicode="&#x42c;" horiz-adv-x="592" 
d="M85 0v692h115v-278h96c48 0 121 -2 177 -46c42 -33 74 -89 74 -162c0 -60 -22 -110 -53 -141c-57 -57 -149 -65 -208 -65h-201zM200 94h75c36 0 83 3 113 32c18 18 31 48 31 82c0 29 -10 61 -30 81c-28 28 -65 31 -98 31h-91v-226z" />
    <glyph glyph-name="uni042D" unicode="&#x42d;" horiz-adv-x="585" 
d="M178 408h222v4c0 57 -13 124 -51 161c-34 34 -80 39 -112 39c-30 0 -54 -3 -82 -15c-27 -11 -50 -28 -55 -32l-48 76c19 14 50 32 76 42c31 12 70 19 111 19c79 0 143 -23 197 -77c80 -81 94 -185 94 -281c0 -87 -11 -192 -89 -272c-70 -72 -154 -82 -215 -82
c-44 0 -81 6 -121 22c-28 11 -50 25 -70 42l53 80c15 -13 35 -27 54 -36c32 -15 60 -18 90 -18c44 0 86 6 121 47c42 48 49 127 49 181v10h-224v90z" />
    <glyph glyph-name="uni042E" unicode="&#x42e;" horiz-adv-x="923" 
d="M200 414h111c4 51 21 147 86 214c54 56 120 74 188 74c78 0 137 -21 188 -73c86 -87 95 -212 95 -281c0 -80 -13 -200 -99 -286c-54 -53 -112 -72 -183 -72c-60 0 -124 13 -179 67c-67 65 -96 173 -96 263h-111v-320h-115v692h115v-278zM740 346c0 88 -6 184 -58 234
c-31 29 -66 34 -95 34s-64 -5 -95 -34c-52 -50 -58 -146 -58 -234s6 -184 58 -234c31 -29 66 -34 95 -34s64 5 95 34c52 50 58 146 58 234z" />
    <glyph glyph-name="uni042F" unicode="&#x42f;" horiz-adv-x="616" 
d="M531 0h-115v294h-55c-23 0 -63 0 -90 -25c-22 -20 -30 -53 -35 -75l-15 -72c-7 -33 -16 -67 -40 -91c-23 -23 -49 -28 -95 -34l-50 -6l-21 81l25 7c14 4 36 13 46 22c16 14 23 39 27 54l19 74c13 51 35 74 40 79c15 15 39 27 58 32v3c-26 5 -65 16 -96 46
c-20 20 -46 57 -46 120c0 57 21 97 50 125c54 52 129 58 184 58h209v-692zM416 600h-83c-24 0 -66 -2 -94 -30c-13 -12 -28 -36 -28 -76c0 -23 4 -57 31 -81c31 -27 73 -27 103 -27h71v214z" />
    <glyph glyph-name="uni0430" unicode="&#x430;" horiz-adv-x="525" 
d="M483 49l-57 -70c-31 12 -57 36 -69 68c-41 -46 -85 -62 -139 -62c-116 0 -168 64 -168 152c0 117 88 176 250 176h34v27c0 58 -10 89 -70 89c-65 0 -135 -46 -151 -58l-49 79c76 48 139 69 215 69c79 0 132 -29 154 -84c9 -22 9 -49 8 -124l-2 -145c-1 -68 5 -90 44 -117
zM332 238c-2 0 -13 1 -20 1c-110 0 -143 -32 -143 -96c0 -48 26 -78 70 -78c35 0 69 21 91 53z" />
    <glyph glyph-name="uni0431" unicode="&#x431;" horiz-adv-x="553" 
d="M446 774l40 -89c-19 -13 -34 -20 -57 -30c-25 -11 -44 -18 -59 -24l-131 -54c-74 -31 -86 -97 -90 -126l-4 -31l5 -1c12 21 28 40 50 56c31 22 63 31 102 31c72 0 117 -35 144 -67c18 -22 57 -79 57 -190c0 -99 -32 -158 -60 -191c-33 -38 -86 -71 -165 -71
c-62 0 -118 19 -162 71c-58 69 -61 160 -61 250c0 60 1 137 24 208c13 40 30 70 61 101c34 33 73 54 109 69l158 67zM279 424c-29 0 -56 -9 -76 -42c-21 -35 -26 -95 -26 -136c0 -45 8 -104 26 -135c20 -33 48 -42 76 -42c29 0 56 9 76 42c21 35 26 95 26 135
c0 38 -6 102 -26 136c-20 33 -48 42 -76 42z" />
    <glyph glyph-name="uni0432" unicode="&#x432;" horiz-adv-x="536" 
d="M80 506h210c36 0 93 -2 131 -40c28 -28 33 -63 33 -88c0 -32 -8 -56 -28 -78c-11 -12 -28 -25 -50 -32c37 -7 59 -27 66 -34c25 -25 34 -54 34 -88c0 -57 -24 -89 -41 -105c-8 -7 -47 -41 -129 -41h-226v506zM189 227v-153h80c24 0 54 4 72 20s20 36 20 53
c0 20 -3 48 -26 65c-19 14 -46 15 -66 15h-80zM189 432v-133h71c18 0 48 2 67 20c15 14 18 32 18 47s-3 36 -19 50c-17 15 -41 16 -62 16h-75z" />
    <glyph glyph-name="uni0433" unicode="&#x433;" horiz-adv-x="421" 
d="M196 424v-424h-111v506h316l-13 -82h-192z" />
    <glyph glyph-name="uni0434" unicode="&#x434;" horiz-adv-x="534" 
d="M509 82v-225h-102v143h-295v-143h-102v225h39c32 57 53 114 66 167c16 67 20 128 21 183l2 74h308v-424h63zM337 426h-113l-2 -47c-2 -54 -10 -113 -21 -159c-12 -48 -33 -97 -54 -138h190v344z" />
    <glyph glyph-name="uni0435" unicode="&#x435;" horiz-adv-x="523" 
d="M478 223h-302v-8c0 -70 26 -144 125 -144c47 0 88 17 126 50l43 -67c-53 -45 -114 -67 -182 -67c-143 0 -233 103 -233 265c0 89 19 148 63 198c41 47 91 68 155 68c50 0 96 -13 139 -52c44 -40 66 -102 66 -220v-23zM364 304c0 82 -36 131 -91 131
c-62 0 -96 -49 -96 -131h187z" />
    <glyph glyph-name="uni0436" unicode="&#x436;" horiz-adv-x="723" 
d="M307 497l109 21v-212h39c28 0 42 12 46 16c12 12 16 31 19 46l12 56c8 38 24 55 30 61c10 10 29 24 68 27l47 4l20 -75l-26 -5c-14 -3 -23 -8 -28 -13c-9 -8 -12 -20 -15 -29l-18 -58c-7 -23 -11 -31 -24 -44s-25 -18 -42 -23v-2c13 -4 27 -12 38 -22
c15 -15 24 -37 31 -57l21 -63c5 -14 8 -29 20 -39c9 -8 27 -15 41 -18l13 -3l-20 -75l-38 3c-31 2 -66 7 -90 30c-20 19 -27 49 -31 67l-12 60c-4 19 -7 43 -24 59c-16 15 -35 15 -51 15h-26v-224h-109v224h-26c-16 0 -35 0 -51 -15c-17 -16 -20 -40 -24 -59l-12 -60
c-4 -18 -11 -48 -31 -67c-24 -23 -59 -28 -90 -30l-38 -3l-20 75l13 3c14 3 32 10 41 18c12 10 15 25 20 39l21 63c7 20 16 42 31 57c11 10 25 18 38 22v2c-18 5 -31 12 -42 23c-12 11 -16 20 -23 41l-19 61c-3 9 -6 21 -15 29c-5 5 -14 10 -28 13l-26 5l20 75l47 -4
c39 -3 58 -17 68 -27c6 -6 22 -23 30 -61l12 -56c3 -15 7 -34 19 -46c4 -4 18 -16 46 -16h39v191z" />
    <glyph glyph-name="uni0437" unicode="&#x437;" horiz-adv-x="458" 
d="M137 306h58c19 0 46 2 65 20c13 12 18 26 18 44c0 16 -3 31 -17 44c-15 14 -40 21 -65 21c-22 0 -45 -5 -65 -13c-15 -6 -33 -17 -46 -26l-44 69c20 14 45 28 70 37c37 14 73 17 105 17c43 0 100 -8 139 -45c18 -17 39 -47 39 -94c0 -31 -11 -60 -35 -83
c-10 -10 -26 -22 -49 -29c24 -6 47 -19 64 -36c18 -18 34 -45 34 -85c0 -45 -19 -84 -45 -109c-33 -32 -87 -51 -154 -51c-72 0 -113 17 -138 31c-12 7 -28 17 -46 32l48 71c16 -14 33 -25 50 -33c25 -12 49 -17 74 -17c32 0 54 9 67 21c14 13 23 35 23 55
c0 24 -9 42 -21 53c-22 20 -57 22 -75 22h-54v84z" />
    <glyph glyph-name="uni0438" unicode="&#x438;" horiz-adv-x="570" 
d="M80 0v498l109 21v-265c0 -36 -2 -80 -4 -114h2c18 49 37 88 54 118l135 241l114 20v-519h-109v230c0 49 1 84 5 131h-2c-14 -40 -35 -83 -51 -112l-139 -249h-114z" />
    <glyph glyph-name="uni0439" unicode="&#x439;" horiz-adv-x="570" 
d="M80 0v498l109 21v-265c0 -36 -2 -80 -4 -114h2c18 49 37 88 54 118l135 241l114 20v-519h-109v230c0 49 1 84 5 131h-2c-14 -40 -35 -83 -51 -112l-139 -249h-114zM389 699l55 -31c-17 -46 -47 -71 -56 -77c-34 -26 -73 -31 -104 -31s-70 5 -104 31c-9 6 -39 31 -56 77
l55 31c5 -7 13 -18 21 -27c16 -17 41 -33 86 -33c41 0 64 14 82 33c8 9 16 20 21 27z" />
    <glyph glyph-name="uni043A" unicode="&#x43a;" horiz-adv-x="528" 
d="M80 0v497l109 21v-212h47c18 0 41 1 56 15c9 9 16 24 21 47l13 57c4 19 9 39 27 58c20 21 44 25 81 29l37 4l20 -75l-25 -5c-16 -4 -20 -5 -28 -12c-7 -6 -12 -15 -18 -34l-16 -54c-5 -18 -14 -35 -25 -46c-3 -3 -17 -16 -40 -21v-2c17 -4 29 -13 37 -20
c14 -14 24 -35 30 -54l25 -75c7 -21 15 -30 19 -34c6 -6 15 -11 33 -15l20 -4l-20 -75l-34 3c-49 4 -74 9 -96 30c-20 20 -27 48 -31 67l-16 71c-4 19 -10 39 -23 50c-15 13 -33 13 -49 13h-45v-224h-109z" />
    <glyph glyph-name="uni043B" unicode="&#x43b;" horiz-adv-x="539" 
d="M142 506h317v-506h-109v424h-114l-4 -55c-2 -30 -5 -72 -9 -117c-3 -31 -9 -93 -15 -129c-4 -27 -12 -65 -39 -92c-31 -30 -75 -35 -105 -38l-27 -3l-22 75l22 5c16 4 37 14 49 26c30 30 31 88 37 150c7 67 9 103 13 165z" />
    <glyph glyph-name="uni043C" unicode="&#x43c;" horiz-adv-x="695" 
d="M105 506h134l81 -266c10 -34 18 -55 26 -93c11 42 18 64 26 91l83 268h134l51 -506h-103l-25 295c-1 17 -2 35 -2 85h-4c-8 -40 -17 -70 -20 -78l-99 -302h-87l-92 293c-13 40 -19 66 -23 87h-4c0 -16 0 -61 -2 -81l-23 -299h-101z" />
    <glyph glyph-name="uni043D" unicode="&#x43d;" horiz-adv-x="549" 
d="M196 0h-111v498l111 20v-208h162v188l111 20v-518h-111v227h-162v-227z" />
    <glyph glyph-name="uni043E" unicode="&#x43e;" horiz-adv-x="547" 
d="M497 251c0 -163 -87 -264 -224 -264s-223 103 -223 265s87 266 221 266c144 0 226 -107 226 -267zM376 249c0 143 -40 186 -104 186c-70 0 -100 -53 -100 -176c0 -147 37 -190 103 -190c65 0 101 53 101 180z" />
    <glyph glyph-name="uni043F" unicode="&#x43f;" horiz-adv-x="540" 
d="M189 0h-109v506h380v-506h-109v424h-162v-424z" />
    <glyph glyph-name="uni0440" unicode="&#x440;" horiz-adv-x="565" 
d="M510 264c0 -168 -72 -274 -201 -274c-43 0 -85 14 -120 41c0 -4 2 -25 2 -50v-169l-106 -27v590c0 63 -3 89 -10 126l101 18c5 -17 7 -31 8 -62c32 39 82 60 135 60c102 0 191 -77 191 -253zM392 252c0 113 -22 174 -94 174c-40 0 -77 -18 -107 -52v-252
c26 -26 61 -45 94 -45c74 0 107 55 107 175z" />
    <glyph glyph-name="uni0441" unicode="&#x441;" horiz-adv-x="467" 
d="M432 54c-46 -46 -94 -67 -162 -67c-138 0 -215 97 -215 260c0 184 110 272 223 272c55 0 95 -13 140 -55l-55 -73c-30 27 -56 39 -85 39c-35 0 -64 -18 -80 -51c-15 -31 -21 -78 -21 -141c0 -69 11 -113 34 -138c16 -18 40 -29 67 -29c35 0 69 17 102 50z" />
    <glyph glyph-name="uni0442" unicode="&#x442;" horiz-adv-x="390" 
d="M245 424v-424h-109v424h-136v82h390l-14 -82h-131z" />
    <glyph glyph-name="uni0443" unicode="&#x443;" horiz-adv-x="493" 
d="M483 506l-179 -517c-42 -122 -78 -183 -197 -205l-36 71c69 19 108 48 137 145h-35c-14 57 -33 112 -48 157l-115 341l112 19l93 -308c9 -30 26 -106 28 -114c1 4 19 76 38 137l84 274h118z" />
    <glyph glyph-name="uni0444" unicode="&#x444;" horiz-adv-x="749" 
d="M429 737v-255c24 21 54 36 96 36c47 0 86 -18 119 -59c50 -63 55 -144 55 -198c0 -63 -8 -146 -51 -206c-33 -46 -76 -68 -130 -68c-37 0 -64 9 -89 30v-205l-109 -27v232c-25 -21 -52 -30 -89 -30c-54 0 -97 22 -130 68c-43 60 -51 143 -51 206c0 54 5 135 55 198
c33 41 72 59 119 59c42 0 72 -15 96 -36v230zM429 398v-295c13 -12 37 -28 69 -28c33 0 52 17 63 34c17 26 22 68 22 152c0 73 -5 113 -24 139c-16 22 -36 30 -58 30c-34 0 -59 -20 -72 -32zM320 103v295c-13 12 -38 32 -72 32c-22 0 -42 -8 -58 -30
c-19 -26 -24 -66 -24 -139c0 -84 5 -126 22 -152c11 -17 30 -34 63 -34c32 0 56 16 69 28z" />
    <glyph glyph-name="uni0445" unicode="&#x445;" horiz-adv-x="487" 
d="M492 0h-138c-18 29 -100 171 -110 189c-19 -38 -91 -161 -110 -189h-139l188 274l-146 217l119 24c23 -38 68 -117 92 -164c14 33 65 134 80 155h128l-149 -230z" />
    <glyph glyph-name="uni0446" unicode="&#x446;" horiz-adv-x="548" 
d="M346 497l109 21v-436h48v-225h-96v143h-327v497l109 21v-436h157v415z" />
    <glyph glyph-name="uni0447" unicode="&#x447;" horiz-adv-x="499" 
d="M310 497l109 21v-518h-109v202c-38 -15 -67 -21 -104 -21c-33 0 -85 5 -120 40c-34 34 -36 75 -36 107v169l109 21v-178c0 -18 0 -43 20 -61c15 -13 37 -16 55 -16c22 0 47 2 76 17v217z" />
    <glyph glyph-name="uni0448" unicode="&#x448;" horiz-adv-x="763" 
d="M80 497l109 21v-436h138v415l109 21v-436h138v415l109 21v-518h-603v497z" />
    <glyph glyph-name="uni0449" unicode="&#x449;" horiz-adv-x="763" 
d="M80 497l109 21v-436h138v415l109 21v-436h138v415l109 21v-436h48v-225h-96v143h-555v497z" />
    <glyph glyph-name="uni044A" unicode="&#x44a;" horiz-adv-x="563" 
d="M252 319h73c41 0 110 -1 157 -49c36 -37 41 -83 41 -113c0 -57 -20 -91 -39 -111c-36 -37 -89 -46 -150 -46h-191v424h-138v82h247v-187zM252 241v-163h63c22 0 52 2 72 22c18 18 20 43 20 58c0 16 -2 43 -21 61c-21 20 -51 22 -74 22h-60z" />
    <glyph glyph-name="uni044B" unicode="&#x44b;" horiz-adv-x="722" 
d="M80 497l109 21v-199h73c41 0 110 -1 157 -49c36 -37 41 -83 41 -113c0 -57 -20 -91 -39 -111c-36 -37 -89 -46 -150 -46h-191v497zM189 241v-163h63c22 0 52 2 72 22c18 18 20 43 20 58c0 16 -2 43 -21 61c-21 20 -51 22 -74 22h-60zM642 0h-111v498l111 20v-518z" />
    <glyph glyph-name="uni044C" unicode="&#x44c;" horiz-adv-x="500" 
d="M80 497l109 21v-199h73c41 0 110 -1 157 -49c36 -37 41 -83 41 -113c0 -57 -20 -91 -39 -111c-36 -37 -89 -46 -150 -46h-191v497zM189 241v-163h63c22 0 52 2 72 22c18 18 20 43 20 58c0 16 -2 43 -21 61c-21 20 -51 22 -74 22h-60z" />
    <glyph glyph-name="uni044D" unicode="&#x44d;" horiz-adv-x="477" 
d="M160 224v82h145v9c0 48 -15 78 -31 95c-22 23 -50 27 -72 27c-21 0 -41 -4 -61 -14c-15 -7 -28 -17 -39 -28l-53 66c12 11 35 28 66 41c33 14 61 17 93 17c47 0 101 -8 147 -54c62 -61 72 -153 72 -216c0 -59 -8 -144 -63 -202c-49 -52 -113 -60 -158 -60
c-35 0 -74 6 -109 23c-23 11 -45 28 -62 45l53 65c19 -19 37 -29 39 -31c22 -14 44 -20 72 -20c18 0 53 2 76 26c28 29 30 80 30 114v15h-145z" />
    <glyph glyph-name="uni044E" unicode="&#x44e;" horiz-adv-x="755" 
d="M189 307h81c2 63 28 120 63 156c33 33 80 56 147 56c76 0 124 -31 151 -59c59 -59 69 -147 69 -209c0 -64 -9 -150 -66 -208c-45 -46 -101 -56 -147 -56c-44 0 -106 8 -154 58c-53 55 -63 138 -64 180h-80v-225h-109v498l109 21v-212zM384 253c0 -78 7 -131 35 -160
c20 -20 43 -24 61 -24s41 4 61 24c28 29 35 82 35 160s-7 131 -35 160c-20 20 -43 24 -61 24s-41 -4 -61 -24c-28 -29 -35 -82 -35 -160z" />
    <glyph glyph-name="uni044F" unicode="&#x44f;" horiz-adv-x="524" 
d="M444 506v-506h-109v200h-46c-19 0 -37 -1 -53 -16c-14 -13 -18 -33 -22 -47l-14 -50c-6 -21 -13 -45 -30 -62c-22 -22 -58 -29 -82 -31l-49 -4l-19 75l16 4c23 6 34 14 39 18c12 11 17 25 22 40l15 45c6 17 12 31 26 44c13 13 26 20 42 23v2c-35 3 -60 19 -77 36
c-18 19 -32 47 -32 87c0 50 21 81 39 98c41 39 99 44 147 44h187zM335 426h-63c-16 0 -46 0 -66 -19c-17 -16 -20 -39 -20 -53c0 -17 3 -38 20 -54c14 -13 38 -22 67 -22h62v148z" />
    <glyph glyph-name="uni0450" unicode="&#x450;" horiz-adv-x="523" 
d="M478 223h-302v-8c0 -70 26 -144 125 -144c47 0 88 17 126 50l43 -67c-53 -45 -114 -67 -182 -67c-143 0 -233 103 -233 265c0 89 19 148 63 198c41 47 91 68 155 68c50 0 96 -13 139 -52c44 -40 66 -102 66 -220v-23zM364 304c0 82 -36 131 -91 131
c-62 0 -96 -49 -96 -131h187zM368 623l-34 -63l-220 102l50 93z" />
    <glyph glyph-name="uni0451" unicode="&#x451;" horiz-adv-x="523" 
d="M478 223h-302v-8c0 -70 26 -144 125 -144c47 0 88 17 126 50l43 -67c-53 -45 -114 -67 -182 -67c-143 0 -233 103 -233 265c0 89 19 148 63 198c41 47 91 68 155 68c50 0 96 -13 139 -52c44 -40 66 -102 66 -220v-23zM364 304c0 82 -36 131 -91 131
c-62 0 -96 -49 -96 -131h187zM234 630c0 -38 -30 -70 -67 -70s-67 32 -67 70c0 39 30 70 67 70s67 -31 67 -70zM443 630c0 -38 -30 -70 -67 -70s-67 32 -67 70c0 39 30 70 67 70s67 -31 67 -70z" />
    <glyph glyph-name="uni0452" unicode="&#x452;" horiz-adv-x="589" 
d="M382 344c0 63 -22 81 -64 81c-39 0 -86 -25 -122 -62v-363h-111v556h-60v64h60c-1 37 -5 69 -10 92l111 24c7 -29 10 -69 10 -116h175l-23 -64h-152v-47c0 -28 -2 -52 -2 -57c50 45 101 66 155 66c60 0 106 -29 123 -62c13 -25 17 -48 17 -99v-289
c0 -65 -1 -143 -44 -203c-19 -26 -52 -58 -98 -75l-48 64c21 13 39 29 53 51c29 43 30 81 30 135v304z" />
    <glyph glyph-name="uni0453" unicode="&#x453;" horiz-adv-x="421" 
d="M196 424v-424h-111v506h316l-13 -82h-192zM364 662l-220 -102l-34 63l204 132z" />
    <glyph glyph-name="uni0454" unicode="&#x454;" horiz-adv-x="482" 
d="M322 219h-145v-10c0 -34 2 -85 30 -114c23 -24 58 -26 76 -26c28 0 50 6 72 20c2 2 20 12 39 31l53 -65c-17 -17 -39 -34 -62 -45c-35 -17 -74 -23 -109 -23c-45 0 -109 8 -158 60c-55 58 -63 143 -63 202c0 63 10 155 72 216c46 46 100 54 147 54c32 0 60 -3 93 -17
c31 -13 54 -30 66 -41l-53 -66c-11 11 -24 21 -39 28c-20 10 -40 14 -61 14c-22 0 -50 -4 -72 -27c-16 -17 -31 -47 -31 -95v-14h145v-82z" />
    <glyph glyph-name="uni0455" unicode="&#x455;" horiz-adv-x="484" 
d="M439 158c0 -102 -83 -172 -205 -172c-62 0 -129 20 -194 56l39 79c45 -26 107 -53 164 -53c48 0 82 29 82 71c0 39 -25 59 -82 71l-61 13c-76 16 -121 68 -121 139c0 95 76 161 188 161c69 0 124 -21 167 -44l-36 -76c-47 25 -84 37 -124 37c-47 0 -77 -26 -77 -65
c0 -31 17 -47 68 -60l63 -16c102 -26 129 -82 129 -141z" />
    <glyph glyph-name="uni0456" unicode="&#x456;" horiz-adv-x="281" 
d="M196 0h-111v498l111 20v-518zM214 654c0 -40 -33 -73 -74 -73c-40 0 -71 33 -71 73c0 41 32 74 73 74c39 0 72 -32 72 -74z" />
    <glyph glyph-name="uni0457" unicode="&#x457;" horiz-adv-x="281" 
d="M196 0h-111v498l111 20v-518zM103 630c0 -38 -30 -70 -67 -70s-67 32 -67 70c0 39 30 70 67 70s67 -31 67 -70zM312 630c0 -38 -30 -70 -67 -70s-67 32 -67 70c0 39 30 70 67 70s67 -31 67 -70z" />
    <glyph glyph-name="uni0458" unicode="&#x458;" horiz-adv-x="281" 
d="M196 12c0 -89 -19 -129 -37 -152c-23 -29 -54 -54 -95 -72l-47 64c53 37 68 77 68 159v487l111 20v-506zM213 656c0 -42 -33 -75 -74 -75c-40 0 -72 32 -72 73c0 40 33 74 73 74s73 -33 73 -72z" />
    <glyph glyph-name="uni0459" unicode="&#x459;" horiz-adv-x="770" 
d="M459 319h73c41 0 110 -1 157 -49c36 -37 41 -83 41 -113c0 -57 -20 -91 -39 -111c-36 -37 -89 -46 -150 -46h-191v424h-114l-4 -55c-2 -30 -5 -72 -9 -117c-5 -55 -9 -93 -15 -129c-4 -27 -12 -65 -39 -92c-31 -30 -75 -35 -105 -38l-27 -3l-22 75l22 5c16 4 37 14 49 26
c30 30 31 88 37 150c7 67 9 103 13 165l6 95h317v-187zM459 241v-163h63c22 0 52 2 72 22c18 18 20 43 20 58c0 16 -2 43 -21 61c-21 20 -51 22 -74 22h-60z" />
    <glyph glyph-name="uni045A" unicode="&#x45a;" horiz-adv-x="780" 
d="M360 497l109 21v-199h73c41 0 110 -1 157 -49c36 -37 41 -83 41 -113c0 -57 -20 -91 -39 -111c-36 -37 -89 -46 -150 -46h-191v241h-171v-241h-109v497l109 21v-199h171v178zM469 241v-163h63c22 0 52 2 72 22c18 18 20 43 20 58c0 16 -2 43 -21 61c-21 20 -51 22 -74 22
h-60z" />
    <glyph glyph-name="uni045B" unicode="&#x45b;" horiz-adv-x="574" 
d="M489 0h-107v344c0 63 -22 81 -64 81c-39 0 -86 -25 -122 -62v-363h-111v556h-60v64h60c-1 37 -5 69 -10 92l111 24c7 -29 10 -69 10 -116h175l-23 -64h-152v-47c0 -28 -2 -52 -2 -57c50 45 101 66 155 66c60 0 106 -29 123 -62c13 -25 17 -48 17 -99v-357z" />
    <glyph glyph-name="uni045C" unicode="&#x45c;" horiz-adv-x="528" 
d="M80 0v497l109 21v-212h47c18 0 41 1 56 15c9 9 16 24 21 47l13 57c4 19 9 39 27 58c20 21 44 25 81 29l37 4l20 -75l-25 -5c-16 -4 -20 -5 -28 -12c-7 -6 -12 -15 -18 -34l-16 -54c-5 -18 -14 -35 -25 -46c-3 -3 -17 -16 -40 -21v-2c17 -4 29 -13 37 -20
c14 -14 24 -35 30 -54l25 -75c7 -21 15 -30 19 -34c6 -6 15 -11 33 -15l20 -4l-20 -75l-34 3c-49 4 -74 9 -96 30c-20 20 -27 48 -31 67l-16 71c-4 19 -10 39 -23 50c-15 13 -33 13 -49 13h-45v-224h-109zM415 662l-220 -102l-34 63l204 132z" />
    <glyph glyph-name="uni045D" unicode="&#x45d;" horiz-adv-x="570" 
d="M80 0v498l109 21v-265c0 -36 -2 -80 -4 -114h2c18 49 37 88 54 118l135 241l114 20v-519h-109v230c0 49 1 84 5 131h-2c-14 -40 -35 -83 -51 -112l-139 -249h-114zM395 623l-34 -63l-220 102l50 93z" />
    <glyph glyph-name="uni045E" unicode="&#x45e;" horiz-adv-x="493" 
d="M483 506l-179 -517c-42 -122 -78 -183 -197 -205l-36 71c69 19 108 48 137 145h-35c-14 57 -33 112 -48 157l-115 341l112 19l93 -308c9 -30 26 -106 28 -114c1 4 19 76 38 137l84 274h118zM352 731l55 -31c-17 -46 -47 -71 -56 -77c-34 -26 -73 -31 -104 -31
s-70 5 -104 31c-9 6 -39 31 -56 77l55 31c5 -7 13 -18 21 -27c16 -17 41 -33 86 -33c41 0 64 14 82 33c8 9 16 20 21 27z" />
    <glyph glyph-name="uni045F" unicode="&#x45f;" horiz-adv-x="535" 
d="M460 0h-138v-149h-98v149h-139v498l111 20v-436h153v416l111 20v-518z" />
    <glyph glyph-name="uni0462" unicode="&#x462;" horiz-adv-x="592" 
d="M85 0v536h-65v66h65v90h115v-90h110v-66h-110v-122h96c48 0 121 -2 177 -46c42 -33 74 -89 74 -162c0 -60 -22 -110 -53 -141c-57 -57 -149 -65 -208 -65h-201zM200 94h75c36 0 83 3 113 32c18 18 31 48 31 82c0 29 -10 61 -30 81c-28 28 -65 31 -98 31h-91v-226z" />
    <glyph glyph-name="uni0463" unicode="&#x463;" horiz-adv-x="500" 
d="M80 497l109 21v-66h105v-67h-105v-66h73c41 0 110 -1 157 -49c36 -37 41 -83 41 -113c0 -57 -20 -91 -39 -111c-36 -37 -89 -46 -150 -46h-191v385h-65v67h65v45zM189 241v-163h63c22 0 52 2 72 22c18 18 20 43 20 58c0 16 -2 43 -21 61c-21 20 -51 22 -74 22h-60z" />
    <glyph glyph-name="uni0472" unicode="&#x472;" horiz-adv-x="698" 
d="M643 345c0 -204 -101 -356 -290 -356c-199 0 -298 155 -298 357c0 213 109 356 293 356c195 0 295 -154 295 -357zM512 314h-328c5 -131 43 -238 167 -238c98 0 156 70 161 238zM509 408c-10 120 -51 205 -161 205c-107 0 -154 -82 -163 -205h324z" />
    <glyph glyph-name="uni0473" unicode="&#x473;" horiz-adv-x="547" 
d="M497 251c0 -163 -87 -264 -224 -264s-223 103 -223 265s87 266 221 266c144 0 226 -107 226 -267zM275 69c59 0 95 44 100 149h-202c6 -114 42 -149 102 -149zM272 435c-62 0 -92 -42 -99 -136h201c-9 103 -46 136 -102 136z" />
    <glyph glyph-name="uni0474" unicode="&#x474;" horiz-adv-x="568" 
d="M478 415l-143 -418h-107l-233 695h126l125 -392c18 -55 30 -105 36 -139h2c8 33 18 73 42 145l54 161c31 92 47 133 83 171c37 39 90 59 148 65l35 -80c-44 -11 -74 -24 -106 -61c-23 -26 -35 -67 -62 -147z" />
    <glyph glyph-name="uni0475" unicode="&#x475;" horiz-adv-x="483" 
d="M392 280l-103 -282h-97l-182 504l113 16l88 -273c12 -37 25 -88 31 -113h2c2 12 14 66 30 117l18 54c11 34 35 107 59 137c36 44 79 67 139 79l34 -80c-79 -19 -96 -61 -132 -159z" />
    <glyph glyph-name="uni0490" unicode="&#x490;" horiz-adv-x="429" 
d="M200 0h-115v692h253v99h104v-194h-242v-597z" />
    <glyph glyph-name="uni0491" unicode="&#x491;" horiz-adv-x="421" 
d="M401 424h-212v-424h-109v506h210v73l111 20v-175z" />
    <glyph glyph-name="uni0492" unicode="&#x492;" horiz-adv-x="429" 
d="M442 692l-15 -95h-227v-191h112v-83h-112v-323h-116v323h-79v83h79v286h358z" />
    <glyph glyph-name="uni0493" unicode="&#x493;" horiz-adv-x="421" 
d="M196 424v-140h104l-29 -76h-75v-208h-111v208h-70v76h70v222h316l-13 -82h-192z" />
    <glyph glyph-name="uni0496" unicode="&#x496;" horiz-adv-x="901" 
d="M845 702l23 -79l-33 -8c-13 -3 -28 -10 -38 -19c-10 -10 -14 -20 -21 -45l-21 -78c-6 -21 -15 -54 -39 -78c-12 -12 -29 -22 -46 -28v-2c12 -4 28 -11 43 -26c25 -24 35 -53 42 -77l30 -107c6 -21 14 -48 33 -61h62v-270h-108v178c-22 4 -40 13 -56 29
c-23 23 -33 53 -41 93l-21 99c-5 26 -12 57 -31 75c-22 21 -51 21 -71 21h-44v-319h-115v319h-44c-20 0 -49 0 -71 -21c-19 -18 -26 -49 -31 -75l-21 -99c-8 -40 -18 -70 -41 -93c-26 -26 -58 -31 -98 -35l-46 -5l-21 81l19 5c17 4 40 12 52 24c14 14 20 35 25 54l30 107
c7 24 17 53 42 77c15 15 31 22 43 26v2c-17 6 -34 16 -46 28c-24 24 -33 57 -39 78l-21 78c-8 28 -13 37 -21 45c-10 9 -25 16 -38 19l-33 8l23 79l38 -6c36 -6 67 -8 94 -35c17 -16 25 -36 32 -68l21 -93c5 -20 12 -49 30 -66c13 -12 35 -21 64 -21h58v279h115v-279h58
c29 0 51 9 64 21c18 17 25 46 30 66l21 93c7 32 15 52 32 68c27 27 58 29 94 35z" />
    <glyph glyph-name="uni0497" unicode="&#x497;" horiz-adv-x="723" 
d="M307 497l109 21v-212h39c28 0 42 12 46 16c12 12 16 31 19 46l12 56c8 38 24 55 30 61c10 10 29 24 68 27l47 4l20 -75l-26 -5c-14 -3 -23 -8 -28 -13c-9 -8 -12 -20 -15 -29l-18 -58c-7 -23 -11 -31 -24 -44s-25 -18 -42 -23v-2c13 -4 27 -12 38 -22
c15 -15 24 -37 31 -57l21 -63c5 -14 9 -34 25 -43h49v-225h-96v141c-19 4 -38 11 -52 25c-20 19 -27 49 -31 67l-12 60c-4 19 -7 43 -24 59c-16 15 -35 15 -51 15h-26v-224h-109v224h-26c-16 0 -35 0 -51 -15c-17 -16 -20 -40 -24 -59l-12 -60c-4 -18 -11 -48 -31 -67
c-24 -23 -59 -28 -90 -30l-38 -3l-20 75l13 3c14 3 32 10 41 18c12 10 15 25 20 39l21 63c7 20 16 42 31 57c11 10 25 18 38 22v2c-18 5 -31 12 -42 23c-12 11 -16 20 -23 41l-19 61c-3 9 -6 21 -15 29c-5 5 -14 10 -28 13l-26 5l20 75l47 -4c39 -3 58 -17 68 -27
c6 -6 22 -23 30 -61l12 -56c3 -15 7 -34 19 -46c4 -4 18 -16 46 -16h39v191z" />
    <glyph glyph-name="uni049A" unicode="&#x49a;" horiz-adv-x="620" 
d="M560 701l22 -79l-32 -8c-23 -5 -31 -9 -39 -17c-10 -10 -17 -29 -21 -45l-18 -72c-10 -42 -18 -63 -41 -84c-13 -12 -30 -22 -49 -28v-2c14 -5 29 -12 43 -25c26 -24 36 -49 44 -79l31 -111c5 -19 14 -50 34 -57h61v-270h-108v178c-24 6 -45 16 -61 32
c-20 20 -27 43 -35 81l-25 115c-5 21 -13 51 -32 68c-21 19 -49 21 -68 21h-66v-319h-115v692h115v-279h76c22 0 49 2 70 22c18 18 23 45 28 65l19 84c5 23 13 56 37 79c19 19 37 24 82 31z" />
    <glyph glyph-name="uni049B" unicode="&#x49b;" horiz-adv-x="528" 
d="M80 0v497l109 21v-212h47c18 0 41 1 56 15c9 9 16 24 21 47l13 57c4 19 9 39 27 58c20 21 44 25 81 29l37 4l20 -75l-25 -5c-16 -4 -20 -5 -28 -12c-7 -6 -12 -15 -18 -34l-16 -54c-5 -18 -14 -35 -25 -46c-3 -3 -17 -16 -40 -21v-2c17 -4 29 -13 37 -20
c14 -14 24 -35 30 -54l25 -75c3 -10 11 -28 21 -36h51v-225h-96v141c-24 3 -40 11 -54 25c-20 20 -27 48 -31 67l-16 71c-4 19 -10 39 -23 50c-15 13 -33 13 -49 13h-45v-224h-109z" />
    <glyph glyph-name="uni049C" unicode="&#x49c;" horiz-adv-x="649" 
d="M252 540h90v-123c11 3 23 8 33 18c18 18 23 45 28 65l19 84c5 23 13 56 37 79c19 19 37 24 82 31l48 7l22 -79l-32 -8c-23 -5 -31 -9 -39 -17c-10 -10 -17 -29 -21 -45l-18 -72c-10 -42 -18 -63 -41 -84c-13 -12 -30 -22 -49 -28v-2c14 -5 29 -12 43 -25
c26 -24 36 -49 44 -79l31 -111c7 -26 14 -41 23 -49c8 -8 27 -17 42 -21l30 -9l-21 -81l-38 4c-43 4 -84 13 -110 39c-20 20 -27 43 -35 81l-25 115c-5 21 -13 51 -32 68c-7 6 -14 10 -21 13v-120h-90v128h-52v-319h-115v692h115v-279h52v127z" />
    <glyph glyph-name="uni049D" unicode="&#x49d;" horiz-adv-x="548" 
d="M221 407h74v-97c7 2 14 5 20 11c9 9 17 24 21 47l11 57c4 19 9 39 27 58c20 21 44 25 81 29l37 4l20 -75l-25 -5c-16 -4 -20 -5 -28 -12c-7 -6 -13 -15 -18 -34l-14 -54c-5 -18 -14 -35 -25 -46c-3 -3 -17 -16 -40 -21v-2c17 -4 29 -13 37 -20c14 -14 24 -35 30 -54
l22 -75c6 -21 15 -30 19 -34c6 -6 15 -11 33 -15l20 -4l-20 -75l-34 3c-49 4 -74 9 -96 30c-20 20 -28 48 -31 67l-13 71c-3 19 -10 39 -23 50l-11 7v-111h-74v117h-32v-224h-109v497l109 21v-212h32v101z" />
    <glyph glyph-name="uni04A2" unicode="&#x4a2;" horiz-adv-x="636" 
d="M551 692v-598h54v-270h-108v176h-62v320h-236v-320h-114v692h114v-278h236v278h116z" />
    <glyph glyph-name="uni04A3" unicode="&#x4a3;" horiz-adv-x="549" 
d="M196 0h-111v498l111 20v-208h162v188l111 20v-436h48v-225h-96v143h-63v227h-162v-227z" />
    <glyph glyph-name="uni04AE" unicode="&#x4ae;" horiz-adv-x="528" 
d="M543 692l-221 -413v-279h-119v280l-218 412h139l104 -217c19 -39 34 -80 37 -89c4 10 22 53 38 87l106 219h134z" />
    <glyph glyph-name="uni04AF" unicode="&#x4af;" horiz-adv-x="466" 
d="M173 -215v216c-14 57 -33 111 -48 156l-115 341l112 19l80 -275c6 -22 23 -96 27 -114c3 15 18 78 30 118l79 260h118l-174 -503v-191z" />
    <glyph glyph-name="uni04B0" unicode="&#x4b0;" horiz-adv-x="528" 
d="M543 692l-192 -358h111v-83h-140v-251h-119v251h-140v83h111l-189 358h139l104 -217c19 -39 34 -80 37 -89c4 10 22 53 38 87l106 219h134z" />
    <glyph glyph-name="uni04B1" unicode="&#x4b1;" horiz-adv-x="466" 
d="M384 0h-102v-188l-109 -27v215h-124v76h103c-9 29 -19 56 -27 81l-115 341l112 19l80 -275c6 -22 23 -96 27 -114c3 15 18 78 30 118l79 260h118l-149 -430h106z" />
    <glyph glyph-name="uni04B2" unicode="&#x4b2;" horiz-adv-x="550" 
d="M554 94v-270h-108v176h-29l-143 274l-138 -274h-141l212 371l-186 321h140l111 -214l109 214h136l-176 -313l161 -285h52z" />
    <glyph glyph-name="uni04B3" unicode="&#x4b3;" horiz-adv-x="487" 
d="M456 506l-149 -230l130 -194h55v-225h-96v143h-42c-18 29 -100 171 -110 189c-19 -38 -91 -161 -110 -189h-139l188 274l-146 217l119 24c23 -38 68 -117 92 -164c14 33 65 134 80 155h128z" />
    <glyph glyph-name="uni04B6" unicode="&#x4b6;" horiz-adv-x="590" 
d="M505 692v-598h54v-270h-108v176h-61v297c-52 -25 -102 -32 -149 -32c-44 0 -97 7 -138 48c-38 38 -43 82 -43 122v257h115v-225c0 -27 1 -61 24 -85c10 -11 33 -27 79 -27c13 0 58 1 112 24v313h115z" />
    <glyph glyph-name="uni04B7" unicode="&#x4b7;" horiz-adv-x="499" 
d="M310 497l109 21v-436h48v-225h-96v143h-61v202c-38 -15 -67 -21 -104 -21c-33 0 -85 5 -120 40c-34 34 -36 75 -36 107v169l109 21v-178c0 -18 0 -43 20 -61c15 -13 37 -16 55 -16c22 0 47 2 76 17v217z" />
    <glyph glyph-name="uni04B8" unicode="&#x4b8;" horiz-adv-x="594" 
d="M509 0h-115v297c-22 -11 -44 -18 -65 -23v-132h-90v123c-44 0 -96 8 -136 48c-38 38 -43 82 -43 122v257h115v-225c0 -27 1 -61 24 -85c6 -7 19 -17 40 -22v131h90v-132c18 4 40 10 65 20v313h115v-692z" />
    <glyph glyph-name="uni04B9" unicode="&#x4b9;" horiz-adv-x="499" 
d="M310 497l109 21v-518h-109v202c-14 -6 -26 -10 -38 -13v-112h-74v104c-33 1 -80 7 -112 40c-34 34 -36 75 -36 107v169l109 21v-178c0 -18 0 -43 20 -61c5 -5 12 -9 19 -11v109h74v-111c12 2 24 7 38 14v217z" />
    <glyph glyph-name="uni04BA" unicode="&#x4ba;" horiz-adv-x="590" 
d="M85 692h115v-297c52 25 102 32 149 32c44 0 97 -7 138 -48c38 -38 43 -82 43 -122v-257h-115v225c0 27 -1 61 -24 85c-10 11 -33 27 -79 27c-13 0 -58 -1 -112 -24v-313h-115v692z" />
    <glyph glyph-name="uni04BB" unicode="&#x4bb;" horiz-adv-x="574" 
d="M489 0h-107v344c0 63 -22 81 -64 81c-39 0 -86 -25 -122 -62v-363h-111v602c0 45 -4 84 -10 110l111 24c7 -29 10 -70 10 -119v-108c0 -28 -2 -52 -2 -57c50 45 101 66 155 66c60 0 106 -29 123 -62c13 -25 17 -48 17 -99v-357z" />
    <glyph glyph-name="uni04C0" unicode="&#x4c0;" horiz-adv-x="288" 
d="M203 0h-118v692h118v-692z" />
    <glyph glyph-name="uni04CF" unicode="&#x4cf;" horiz-adv-x="282" 
d="M197 0h-112v563c0 69 -3 106 -10 148l113 25c8 -31 9 -73 9 -139v-597z" />
    <glyph glyph-name="uni04D8" unicode="&#x4d8;" horiz-adv-x="663" 
d="M52 377h421v23c0 104 -43 213 -188 213c-62 0 -120 -22 -171 -64l-47 71c83 63 147 82 240 82c189 0 301 -130 301 -354c0 -182 -86 -358 -283 -358c-66 0 -131 15 -181 63c-58 56 -92 144 -92 303v21zM471 288h-287c0 -141 55 -212 141 -212c93 0 146 85 146 212z" />
    <glyph glyph-name="uni04D9" unicode="&#x4d9;" horiz-adv-x="520" 
d="M47 282h302v8c0 70 -26 144 -125 144c-47 0 -88 -17 -126 -50l-43 67c53 45 114 67 182 67c143 0 233 -103 233 -265c0 -89 -19 -148 -63 -198c-41 -47 -91 -68 -155 -68c-50 0 -96 13 -139 52c-44 40 -66 102 -66 220v23zM348 201h-187c0 -82 36 -131 91 -131
c62 0 96 49 96 131z" />
    <glyph glyph-name="uni04E2" unicode="&#x4e2;" horiz-adv-x="655" 
d="M570 0h-115v397c0 34 3 99 6 140c-15 -44 -32 -83 -50 -120l-207 -417h-119v692h115v-401c0 -39 -4 -98 -7 -132c17 50 33 85 53 126l200 407h124v-692zM478 752h-295v76h295v-76z" />
    <glyph glyph-name="uni04E3" unicode="&#x4e3;" horiz-adv-x="570" 
d="M80 0v498l109 21v-265c0 -36 -2 -80 -4 -114h2c18 49 37 88 54 118l135 241l114 20v-519h-109v230c0 49 1 84 5 131h-2c-14 -40 -35 -83 -51 -112l-139 -249h-114zM433 591h-295v76h295v-76z" />
    <glyph glyph-name="uni04E8" unicode="&#x4e8;" horiz-adv-x="698" 
d="M643 345c0 -204 -101 -356 -290 -356c-199 0 -298 155 -298 357c0 213 109 356 293 356c195 0 295 -154 295 -357zM512 314h-328c5 -131 43 -238 167 -238c98 0 156 70 161 238zM509 408c-10 120 -51 205 -161 205c-107 0 -154 -82 -163 -205h324z" />
    <glyph glyph-name="uni04E9" unicode="&#x4e9;" horiz-adv-x="547" 
d="M497 251c0 -163 -87 -264 -224 -264s-223 103 -223 265s87 266 221 266c144 0 226 -107 226 -267zM275 69c59 0 95 44 100 149h-202c6 -114 42 -149 102 -149zM272 435c-62 0 -92 -42 -99 -136h201c-9 103 -46 136 -102 136z" />
    <glyph glyph-name="uni04EE" unicode="&#x4ee;" horiz-adv-x="529" 
d="M123 692l112 -294c17 -45 28 -74 41 -124c20 80 31 105 44 143l93 275h121l-188 -523c-24 -68 -42 -115 -72 -143c-38 -35 -100 -45 -120 -48l-29 -4l-21 84l19 5c14 4 53 15 76 39c16 17 27 42 37 72l11 32l-56 -7l-196 493h128zM416 752h-295v76h295v-76z" />
    <glyph glyph-name="uni04EF" unicode="&#x4ef;" horiz-adv-x="493" 
d="M483 506l-179 -517c-42 -122 -78 -183 -197 -205l-36 71c69 19 108 48 137 145h-35c-14 57 -33 112 -48 157l-115 341l112 19l93 -308c9 -30 26 -106 28 -114c1 4 19 76 38 137l84 274h118zM389 591h-295v76h295v-76z" />
    <glyph glyph-name="Wgrave" unicode="&#x1e80;" horiz-adv-x="826" 
d="M816 692l-164 -696h-132l-71 321c-20 93 -32 181 -34 200h-3c-4 -23 -20 -122 -35 -197l-67 -324h-135l-165 696h123l69 -322c16 -75 32 -176 37 -222h3c4 26 22 139 38 214l72 330h129l72 -344c15 -73 31 -172 34 -195h3c5 29 25 155 40 225l66 314h120zM526 783
l-34 -63l-220 102l50 93z" />
    <glyph glyph-name="wgrave" unicode="&#x1e81;" horiz-adv-x="708" 
d="M693 506l-143 -508h-103l-62 233c-14 53 -30 122 -33 138h-2c-2 -14 -11 -60 -33 -143l-61 -228h-103l-138 501l109 15l55 -245c12 -56 24 -119 26 -133h3c2 13 12 74 29 136l65 234h108l57 -228c19 -73 30 -132 32 -144h3c2 15 13 83 25 136l52 236h114zM478 623
l-34 -63l-220 102l50 93z" />
    <glyph glyph-name="Wacute" unicode="&#x1e82;" horiz-adv-x="826" 
d="M816 692l-164 -696h-132l-71 321c-20 93 -32 181 -34 200h-3c-4 -23 -20 -122 -35 -197l-67 -324h-135l-165 696h123l69 -322c16 -75 32 -176 37 -222h3c4 26 22 139 38 214l72 330h129l72 -344c15 -73 31 -172 34 -195h3c5 29 25 155 40 225l66 314h120zM567 824
l-220 -102l-34 63l204 132z" />
    <glyph glyph-name="wacute" unicode="&#x1e83;" horiz-adv-x="708" 
d="M693 506l-143 -508h-103l-62 233c-14 53 -30 122 -33 138h-2c-2 -14 -11 -60 -33 -143l-61 -228h-103l-138 501l109 15l55 -245c12 -56 24 -119 26 -133h3c2 13 12 74 29 136l65 234h108l57 -228c19 -73 30 -132 32 -144h3c2 15 13 83 25 136l52 236h114zM478 662
l-220 -102l-34 63l204 132z" />
    <glyph glyph-name="Wdieresis" unicode="&#x1e84;" horiz-adv-x="826" 
d="M816 692l-164 -696h-132l-71 321c-20 93 -32 181 -34 200h-3c-4 -23 -20 -122 -35 -197l-67 -324h-135l-165 696h123l69 -322c16 -75 32 -176 37 -222h3c4 26 22 139 38 214l72 330h129l72 -344c15 -73 31 -172 34 -195h3c5 29 25 155 40 225l66 314h120zM586 790
c0 -38 -31 -70 -68 -70s-67 32 -67 70c0 39 30 70 68 70c36 0 67 -31 67 -70zM375 790c0 -38 -30 -70 -67 -70s-67 32 -67 70c0 39 30 70 67 70s67 -31 67 -70z" />
    <glyph glyph-name="wdieresis" unicode="&#x1e85;" horiz-adv-x="708" 
d="M693 506l-143 -508h-103l-62 233c-14 53 -30 122 -33 138h-2c-2 -14 -11 -60 -33 -143l-61 -228h-103l-138 501l109 15l55 -245c12 -56 24 -119 26 -133h3c2 13 12 74 29 136l65 234h108l57 -228c19 -73 30 -132 32 -144h3c2 15 13 83 25 136l52 236h114zM523 630
c0 -38 -31 -70 -68 -70s-67 32 -67 70c0 39 30 70 68 70c36 0 67 -31 67 -70zM314 630c0 -38 -30 -70 -67 -70s-67 32 -67 70c0 39 30 70 67 70s67 -31 67 -70z" />
    <glyph glyph-name="uni1E8A" unicode="&#x1e8a;" horiz-adv-x="550" 
d="M555 0h-138l-143 274l-138 -274h-141l212 371l-186 321h140l111 -214l109 214h136l-176 -313zM342 795c0 -41 -33 -75 -74 -75c-40 0 -72 34 -72 75s33 75 73 75s73 -33 73 -75z" />
    <glyph glyph-name="uni1E8B" unicode="&#x1e8b;" horiz-adv-x="487" 
d="M492 0h-138c-18 29 -100 171 -110 189c-19 -38 -91 -161 -110 -189h-139l188 274l-146 217l119 24c23 -38 68 -117 92 -164c14 33 65 134 80 155h128l-149 -230zM321 653c0 -41 -33 -75 -74 -75c-40 0 -72 34 -72 75s33 75 73 75s73 -33 73 -75z" />
    <glyph glyph-name="uni1E9E" unicode="&#x1e9e;" horiz-adv-x="1174" 
d="M547 209c0 -115 -93 -222 -270 -222c-79 0 -159 21 -227 62l44 88c62 -36 117 -57 187 -57c85 0 136 41 136 110c0 51 -32 83 -103 103l-74 21c-63 18 -108 44 -134 83c-19 28 -29 61 -29 101c0 122 96 205 235 205c79 0 158 -23 219 -66l-52 -81c-64 38 -108 53 -163 53
c-68 0 -113 -37 -113 -94c0 -43 24 -65 92 -85l82 -24c100 -29 170 -93 170 -197zM1124 209c0 -115 -93 -222 -270 -222c-79 0 -159 21 -227 62l44 88c62 -36 117 -57 187 -57c85 0 136 41 136 110c0 51 -32 83 -103 103l-74 21c-63 18 -108 44 -134 83
c-19 28 -29 61 -29 101c0 122 96 205 235 205c79 0 158 -23 219 -66l-52 -81c-64 38 -108 53 -163 53c-68 0 -113 -37 -113 -94c0 -43 24 -65 92 -85l82 -24c100 -29 170 -93 170 -197z" />
    <glyph glyph-name="Ygrave" unicode="&#x1ef2;" horiz-adv-x="528" 
d="M543 692l-221 -413v-279h-119v280l-218 412h139l104 -217c19 -39 34 -80 37 -89c4 10 22 53 38 87l106 219h134zM377 783l-34 -63l-220 102l50 93z" />
    <glyph glyph-name="ygrave" unicode="&#x1ef3;" horiz-adv-x="493" 
d="M483 506l-179 -517c-42 -122 -78 -183 -197 -205l-36 71c69 19 108 48 137 145h-35c-14 57 -33 112 -48 157l-115 341l112 19l93 -308c9 -30 26 -106 28 -114c1 4 19 76 38 137l84 274h118zM336 623l-34 -63l-220 102l50 93z" />
    <glyph glyph-name="uni2007" unicode="&#x2007;" horiz-adv-x="572" 
 />
    <glyph glyph-name="uni2008" unicode="&#x2008;" horiz-adv-x="287" 
 />
    <glyph glyph-name="uni200B" unicode="&#x200b;" horiz-adv-x="0" 
 />
    <glyph glyph-name="uniFEFF" unicode="&#xfeff;" horiz-adv-x="0" 
 />
    <glyph glyph-name="endash" unicode="&#x2013;" horiz-adv-x="593" 
d="M538 233h-483v87h483v-87z" />
    <glyph glyph-name="emdash" unicode="&#x2014;" horiz-adv-x="819" 
d="M764 233h-709v87h709v-87z" />
    <glyph glyph-name="uni2015" unicode="&#x2015;" horiz-adv-x="819" 
d="M764 233h-709v87h709v-87z" />
    <glyph glyph-name="quoteleft" unicode="&#x2018;" horiz-adv-x="277" 
d="M227 665c-41 -13 -68 -43 -68 -69c0 -28 65 -16 65 -90c0 -44 -35 -80 -79 -80c-52 0 -90 46 -90 111c0 78 53 150 132 178z" />
    <glyph glyph-name="quoteright" unicode="&#x2019;" horiz-adv-x="277" 
d="M222 597c0 -42 -14 -81 -39 -114c-22 -28 -57 -52 -92 -64l-41 49c41 13 68 42 68 71c0 6 -11 16 -22 21c-26 11 -43 34 -43 67c0 45 35 80 79 80c52 0 90 -46 90 -110z" />
    <glyph glyph-name="quotesinglbase" unicode="&#x201a;" horiz-adv-x="277" 
d="M222 35c0 -85 -56 -151 -132 -179l-40 50c41 13 68 43 68 71c0 6 -8 15 -22 21c-26 10 -43 35 -43 67c0 45 35 80 79 80c52 0 90 -45 90 -110z" />
    <glyph glyph-name="quotedblleft" unicode="&#x201c;" horiz-adv-x="491" 
d="M441 665c-41 -12 -68 -41 -68 -70c0 -11 16 -17 33 -27c16 -9 33 -28 33 -62c0 -44 -36 -80 -80 -80c-52 0 -89 46 -89 111c0 41 13 80 38 112c22 29 57 53 93 66zM227 665c-42 -12 -69 -41 -69 -70c0 -24 66 -18 66 -89c0 -44 -35 -80 -80 -80c-52 0 -89 46 -89 111
c0 41 14 79 39 112c22 28 56 53 92 66z" />
    <glyph glyph-name="quotedblright" unicode="&#x201d;" horiz-adv-x="492" 
d="M223 597c0 -81 -54 -152 -132 -178l-41 49c42 13 69 42 69 71c0 5 -12 17 -22 21c-28 11 -43 34 -43 67c0 45 34 80 79 80c52 0 90 -46 90 -110zM437 597c0 -87 -56 -152 -131 -178l-41 49c42 13 68 42 68 71c0 5 -12 17 -21 21c-27 11 -43 34 -43 67c0 45 34 80 79 80
c52 0 89 -46 89 -110z" />
    <glyph glyph-name="quotedblbase" unicode="&#x201e;" horiz-adv-x="492" 
d="M437 35c0 -85 -56 -151 -132 -179l-40 50c41 13 68 43 68 71c0 6 -8 15 -22 21c-26 10 -43 35 -43 67c0 45 35 80 79 80c52 0 90 -45 90 -110zM222 35c0 -85 -56 -151 -132 -179l-40 50c41 13 68 43 68 71c0 6 -8 15 -22 21c-26 10 -43 35 -43 67c0 45 35 80 79 80
c52 0 90 -45 90 -110z" />
    <glyph glyph-name="dagger" unicode="&#x2020;" horiz-adv-x="486" 
d="M456 536l-17 -97h-143v-439h-109v439h-152v97h152v156h109v-156h160z" />
    <glyph glyph-name="daggerdbl" unicode="&#x2021;" horiz-adv-x="500" 
d="M465 537l-17 -99h-143v-184h160l-17 -99h-143v-155h-109v155h-152v99h152v184h-152v99h152v155h109v-155h160z" />
    <glyph glyph-name="bullet" unicode="&#x2022;" horiz-adv-x="500" 
d="M425 355c0 -98 -78 -177 -175 -177s-175 79 -175 177s78 177 175 177s175 -79 175 -177z" />
    <glyph glyph-name="ellipsis" unicode="&#x2026;" horiz-adv-x="772" 
d="M222 67c0 -45 -36 -82 -78 -82c-44 0 -79 37 -79 82c0 44 34 79 77 79c44 0 80 -35 80 -79zM707 67c0 -45 -36 -82 -78 -82c-44 0 -79 37 -79 82c0 44 35 79 78 79s79 -35 79 -79zM464 67c0 -45 -35 -82 -78 -82c-44 0 -78 37 -78 82c0 44 34 79 77 79
c44 0 79 -35 79 -79z" />
    <glyph glyph-name="perthousand" unicode="&#x2030;" horiz-adv-x="1218" 
d="M1183 162c0 -107 -66 -171 -168 -171c-103 0 -166 66 -166 171c0 104 66 171 165 171c107 0 169 -66 169 -171zM368 528c0 -106 -65 -170 -167 -170c-103 0 -166 66 -166 171c0 104 66 171 165 171c103 0 168 -61 168 -172zM809 162c0 -106 -66 -171 -167 -171
c-103 0 -166 66 -166 171c0 104 66 171 165 171c106 0 168 -65 168 -171zM639 692l-352 -692h-79l351 692h80zM277 527c0 77 -24 109 -77 109c-52 0 -75 -35 -75 -104c0 -78 23 -110 77 -110c52 0 75 34 75 105zM718 160c0 79 -27 109 -77 109c-54 0 -75 -38 -75 -103
c0 -81 22 -110 77 -110c52 0 75 33 75 104zM1091 160c0 78 -24 109 -77 109c-55 0 -74 -38 -74 -103c0 -82 24 -110 76 -110s75 33 75 104z" />
    <glyph glyph-name="guilsinglleft" unicode="&#x2039;" horiz-adv-x="295" 
d="M260 70l-74 -50l-151 226l151 227l74 -50l-115 -177z" />
    <glyph glyph-name="guilsinglright" unicode="&#x203a;" horiz-adv-x="296" 
d="M261 246l-151 -226l-75 50l117 176l-117 177l75 50z" />
    <glyph glyph-name="fraction" unicode="&#x2044;" horiz-adv-x="303" 
d="M458 764l-525 -917h-88l525 917h88z" />
    <glyph glyph-name="uni2070" unicode="&#x2070;" horiz-adv-x="347" 
d="M324 448c0 -123 -58 -207 -151 -207c-109 0 -150 106 -150 209c0 121 62 203 150 203c111 0 151 -102 151 -205zM231 447c0 37 -3 61 -9 85c-11 43 -28 55 -48 55c-17 0 -33 -13 -44 -42c-9 -23 -13 -55 -13 -95c0 -33 1 -143 56 -143c19 0 37 15 47 47c7 23 11 55 11 93
z" />
    <glyph glyph-name="uni2074" unicode="&#x2074;" horiz-adv-x="351" 
d="M283 558v-160c0 -2 -1 -6 -1 -7c2 0 5 1 7 1h39v-71h-39c-2 0 -5 1 -7 1c0 -3 1 -8 1 -12v-68l-83 -14v86c0 2 1 6 1 8c-3 0 -7 -1 -11 -1h-167v56l110 271h92c-11 -22 -66 -181 -109 -256h81l4 -1v4c0 48 7 100 11 146z" />
    <glyph glyph-name="uni2075" unicode="&#x2075;" horiz-adv-x="312" 
d="M289 382c0 -54 -33 -103 -84 -128c-30 -15 -69 -23 -108 -23c-20 0 -28 1 -53 6l-21 69c37 -11 49 -13 67 -13c64 0 107 37 107 83c0 39 -26 57 -66 57c-25 0 -51 -4 -94 -19l22 230h214l-14 -72h-121l-7 -73c8 1 13 2 22 2c75 0 136 -45 136 -119z" />
    <glyph glyph-name="uni2076" unicode="&#x2076;" horiz-adv-x="346" 
d="M323 378c0 -78 -64 -137 -147 -137c-91 0 -153 70 -153 168c0 76 42 147 100 195c39 32 87 56 145 72l22 -61c-63 -22 -133 -60 -159 -123c17 7 38 14 58 14c75 0 134 -55 134 -128zM232 377c0 20 -5 33 -14 43s-23 17 -39 17c-19 0 -40 -3 -62 -17c-1 -8 -1 -21 -1 -30
c0 -36 11 -82 58 -82c34 0 58 25 58 69z" />
    <glyph glyph-name="uni2077" unicode="&#x2077;" horiz-adv-x="341" 
d="M318 644l-15 -71c-37 -53 -73 -108 -102 -165c-25 -51 -43 -96 -48 -125l-7 -37l-98 -24c16 66 24 88 40 129c31 75 72 156 124 220c-2 0 -13 -1 -17 -1h-172l21 74h274z" />
    <glyph glyph-name="uni2078" unicode="&#x2078;" horiz-adv-x="358" 
d="M335 363c0 -49 -34 -88 -81 -108c-23 -10 -48 -16 -79 -16c-39 0 -70 7 -97 23c-35 21 -55 55 -55 94c0 44 26 79 64 99c-30 19 -51 52 -51 87c0 36 19 70 50 89c24 14 59 22 96 22c79 0 138 -40 138 -104c0 -44 -30 -71 -65 -88c41 -20 80 -47 80 -98zM242 352
c0 15 -6 26 -16 34c-13 10 -35 21 -71 36c-25 -14 -41 -34 -41 -61c0 -34 25 -58 67 -58c38 0 61 22 61 49zM229 549c0 23 -16 41 -53 41c-35 0 -54 -19 -54 -42c0 -28 34 -43 59 -53c25 13 48 30 48 54z" />
    <glyph glyph-name="uni2079" unicode="&#x2079;" horiz-adv-x="348" 
d="M325 496c0 -75 -33 -144 -94 -198c-44 -40 -99 -69 -158 -81l-50 55c35 6 46 10 63 18c46 20 89 54 117 96c-13 -4 -28 -7 -41 -7c-77 0 -135 57 -135 133c0 81 65 142 151 142c42 0 77 -14 103 -40c30 -29 44 -68 44 -118zM233 507c0 52 -24 79 -57 79
c-32 0 -56 -27 -56 -73c0 -43 22 -67 56 -67c19 0 33 5 50 16c4 14 7 30 7 45z" />
    <glyph glyph-name="uni2080" unicode="&#x2080;" horiz-adv-x="347" 
d="M324 -52c0 -123 -58 -207 -151 -207c-109 0 -150 106 -150 209c0 121 62 203 150 203c111 0 151 -102 151 -205zM231 -53c0 37 -3 61 -9 85c-11 43 -28 55 -48 55c-17 0 -33 -13 -44 -42c-9 -23 -13 -55 -13 -95c0 -33 1 -143 56 -143c19 0 37 15 47 47c7 23 11 55 11 93
z" />
    <glyph glyph-name="uni2081" unicode="&#x2081;" horiz-adv-x="292" 
d="M269 -250h-204v70h64v229c-26 -15 -54 -29 -82 -38l-24 49l130 87h60v-327h56v-70z" />
    <glyph glyph-name="uni2082" unicode="&#x2082;" horiz-adv-x="340" 
d="M317 -179l-19 -71h-263v56c27 21 67 58 99 92c58 61 75 100 75 129c0 35 -22 52 -50 52c-32 0 -55 -16 -89 -41l-47 51c53 44 100 64 156 64c73 0 125 -49 125 -117c0 -70 -67 -134 -117 -182l-36 -34c10 0 21 1 30 1h136z" />
    <glyph glyph-name="uni2083" unicode="&#x2083;" horiz-adv-x="337" 
d="M314 -126c0 -56 -42 -100 -100 -123c-32 -12 -73 -20 -118 -20c-17 0 -23 1 -48 4l-23 64c32 -6 37 -6 54 -6c48 0 86 10 113 32c17 14 26 34 26 55s-12 38 -30 44c-12 4 -23 6 -59 6h-30v66h34c34 0 79 3 79 43c0 24 -16 42 -50 42c-35 0 -57 -13 -93 -37l-46 53
c44 35 101 56 149 56c75 0 132 -44 132 -106c0 -41 -17 -63 -50 -85c36 -18 60 -48 60 -88z" />
    <glyph glyph-name="uni2084" unicode="&#x2084;" horiz-adv-x="351" 
d="M283 58v-161c0 -4 -1 -5 -1 -6c2 0 5 1 7 1h39v-71h-39c-2 0 -5 1 -7 1c0 -3 1 -8 1 -12v-68l-83 -14v86c0 2 1 6 1 8c-3 0 -7 -1 -11 -1h-167v56l110 271h92c-11 -22 -66 -181 -109 -256h81l4 -1v4c0 48 7 100 11 146z" />
    <glyph glyph-name="uni2085" unicode="&#x2085;" horiz-adv-x="312" 
d="M289 -118c0 -54 -33 -103 -84 -128c-30 -15 -69 -23 -108 -23c-20 0 -28 1 -53 6l-21 69c37 -11 49 -13 67 -13c64 0 107 37 107 83c0 39 -26 57 -66 57c-25 0 -51 -4 -94 -19l22 230h214l-14 -72h-121l-7 -73c8 1 13 2 22 2c75 0 136 -45 136 -119z" />
    <glyph glyph-name="uni2086" unicode="&#x2086;" horiz-adv-x="346" 
d="M323 -122c0 -78 -64 -137 -147 -137c-91 0 -153 70 -153 168c0 76 42 147 100 195c39 32 87 56 145 72l22 -61c-63 -22 -133 -60 -159 -123c17 7 38 14 58 14c75 0 134 -55 134 -128zM232 -123c0 20 -5 33 -14 43s-23 17 -39 17c-19 0 -40 -3 -62 -17
c-1 -8 -1 -21 -1 -30c0 -36 11 -82 58 -82c34 0 58 25 58 69z" />
    <glyph glyph-name="uni2087" unicode="&#x2087;" horiz-adv-x="341" 
d="M318 144l-15 -71c-37 -53 -73 -108 -102 -165c-25 -51 -43 -96 -48 -125l-7 -37l-98 -24c16 66 24 88 40 129c31 75 72 156 124 220c-2 0 -13 -1 -17 -1h-172l21 74h274z" />
    <glyph glyph-name="uni2088" unicode="&#x2088;" horiz-adv-x="358" 
d="M335 -137c0 -49 -34 -88 -81 -108c-23 -10 -48 -16 -79 -16c-39 0 -70 7 -97 23c-35 21 -55 55 -55 94c0 44 26 79 64 99c-30 19 -51 52 -51 87c0 36 19 70 50 89c24 14 59 22 96 22c79 0 138 -40 138 -104c0 -44 -30 -71 -65 -88c41 -20 80 -47 80 -98zM242 -148
c0 15 -6 26 -16 34c-13 10 -35 21 -71 36c-25 -14 -41 -34 -41 -61c0 -34 25 -58 67 -58c38 0 61 22 61 49zM229 49c0 23 -16 41 -53 41c-35 0 -54 -19 -54 -42c0 -28 34 -43 59 -53c25 13 48 30 48 54z" />
    <glyph glyph-name="uni2089" unicode="&#x2089;" horiz-adv-x="348" 
d="M325 -4c0 -75 -33 -144 -94 -198c-44 -40 -99 -69 -158 -81l-50 55c35 6 46 10 63 18c46 20 89 54 117 96c-13 -4 -28 -7 -41 -7c-77 0 -135 57 -135 133c0 81 65 142 151 142c42 0 77 -14 103 -40c30 -29 44 -68 44 -118zM233 7c0 52 -24 79 -57 79
c-32 0 -56 -27 -56 -73c0 -43 22 -67 56 -67c19 0 33 5 50 16c4 14 7 30 7 45z" />
    <glyph glyph-name="Euro" unicode="&#x20ac;" horiz-adv-x="637" 
d="M602 30c-46 -26 -85 -41 -159 -41c-92 0 -165 35 -219 100c-31 38 -53 83 -66 134h-113v87h101c-1 25 0 51 1 76h-102v87h117c7 26 17 50 29 73c52 99 147 159 255 159c67 0 109 -14 142 -34l-23 -96c-37 27 -75 39 -118 39c-59 0 -108 -30 -138 -83
c-9 -17 -17 -36 -23 -58h222v-87h-234c-3 -24 -2 -48 0 -76h234v-87h-224c4 -17 10 -32 16 -46c30 -66 87 -98 154 -98c49 0 85 13 124 44z" />
    <glyph glyph-name="uni20B4" unicode="&#x20b4;" horiz-adv-x="589" 
d="M43 473h350c8 13 13 26 13 42c0 66 -43 100 -108 100c-49 0 -92 -11 -148 -51l-47 84c65 43 135 60 209 60c118 0 192 -77 192 -164c0 -27 -6 -50 -15 -71h57v-87h-130c-36 -29 -79 -53 -118 -76h248v-87h-346c-7 -13 -10 -26 -10 -41c0 -69 56 -104 135 -104
c68 0 119 21 164 56l36 -89c-62 -39 -126 -59 -210 -59c-123 0 -220 72 -220 179c0 21 3 40 10 58h-62v87h129c35 29 77 52 115 76h-244v87z" />
    <glyph glyph-name="uni20B8" unicode="&#x20b8;" horiz-adv-x="484" 
d="M484 432h-174v-432h-115v432h-175v96h479zM20 596v96h479l-15 -96h-464z" />
    <glyph glyph-name="uni20BD" unicode="&#x20bd;" horiz-adv-x="565" 
d="M6 109v79h79v76h-79v92h79v336h184c101 0 138 -10 176 -33c61 -36 95 -98 95 -174c0 -136 -99 -221 -224 -221h-117v-76h122l-5 -79h-117v-109h-114v109h-79zM199 599v-243h90c85 0 124 40 124 122c0 38 -9 67 -28 87c-21 22 -51 34 -96 34h-90z" />
    <glyph glyph-name="uni2116" unicode="&#x2116;" horiz-adv-x="988" 
d="M554 0h-121l-155 325c-36 75 -64 134 -89 202h-4c4 -48 6 -96 7 -184l4 -343h-111v692h130l168 -338c23 -46 50 -111 69 -178h2c-3 24 -9 104 -9 200l-2 316h111v-692zM923 528c0 -67 -22 -165 -140 -165s-141 99 -141 165c0 46 11 164 141 164c131 0 140 -122 140 -164z
M782 634c-57 0 -58 -59 -58 -106c0 -69 7 -107 59 -107c57 0 58 56 58 107c0 50 -1 106 -59 106zM918 202h-271v58h271v-58z" />
    <glyph glyph-name="uni2117" unicode="&#x2117;" horiz-adv-x="850" 
d="M795 355c0 -208 -167 -372 -370 -372s-370 164 -370 372c0 207 167 372 370 372s370 -165 370 -372zM711 355c0 166 -128 298 -286 298s-285 -132 -285 -298s127 -300 285 -300s286 134 286 300zM455 303h-59v-154h-81v417h112c58 0 81 -5 105 -19c37 -22 58 -61 58 -108
c0 -84 -60 -136 -135 -136zM489 481c-10 11 -25 17 -50 17h-43v-127h43c45 0 64 20 64 64c0 21 -5 36 -14 46z" />
    </font>
</defs>
</svg>
